%TF.GenerationSoftware,KiCad,Pcbnew,(5.1.6-0-10_14)*%
%TF.CreationDate,2021-04-03T15:30:38+02:00*%
%TF.ProjectId,Mech50-base,4d656368-3530-42d6-9261-73652e6b6963,rev?*%
%TF.SameCoordinates,Original*%
%TF.FileFunction,Legend,Top*%
%TF.FilePolarity,Positive*%
%FSLAX46Y46*%
G04 Gerber Fmt 4.6, Leading zero omitted, Abs format (unit mm)*
G04 Created by KiCad (PCBNEW (5.1.6-0-10_14)) date 2021-04-03 15:30:38*
%MOMM*%
%LPD*%
G01*
G04 APERTURE LIST*
%ADD10C,0.150000*%
G04 APERTURE END LIST*
D10*
X52268380Y-143302571D02*
X51268380Y-143302571D01*
X51982666Y-142969238D01*
X51268380Y-142635904D01*
X52268380Y-142635904D01*
X51744571Y-142159714D02*
X51744571Y-141826380D01*
X52268380Y-141683523D02*
X52268380Y-142159714D01*
X51268380Y-142159714D01*
X51268380Y-141683523D01*
X52173142Y-140683523D02*
X52220761Y-140731142D01*
X52268380Y-140874000D01*
X52268380Y-140969238D01*
X52220761Y-141112095D01*
X52125523Y-141207333D01*
X52030285Y-141254952D01*
X51839809Y-141302571D01*
X51696952Y-141302571D01*
X51506476Y-141254952D01*
X51411238Y-141207333D01*
X51316000Y-141112095D01*
X51268380Y-140969238D01*
X51268380Y-140874000D01*
X51316000Y-140731142D01*
X51363619Y-140683523D01*
X52268380Y-140254952D02*
X51268380Y-140254952D01*
X51744571Y-140254952D02*
X51744571Y-139683523D01*
X52268380Y-139683523D02*
X51268380Y-139683523D01*
X51220761Y-137731142D02*
X52506476Y-138588285D01*
X51268380Y-136159714D02*
X51268380Y-136635904D01*
X51744571Y-136683523D01*
X51696952Y-136635904D01*
X51649333Y-136540666D01*
X51649333Y-136302571D01*
X51696952Y-136207333D01*
X51744571Y-136159714D01*
X51839809Y-136112095D01*
X52077904Y-136112095D01*
X52173142Y-136159714D01*
X52220761Y-136207333D01*
X52268380Y-136302571D01*
X52268380Y-136540666D01*
X52220761Y-136635904D01*
X52173142Y-136683523D01*
X51268380Y-135493047D02*
X51268380Y-135397809D01*
X51316000Y-135302571D01*
X51363619Y-135254952D01*
X51458857Y-135207333D01*
X51649333Y-135159714D01*
X51887428Y-135159714D01*
X52077904Y-135207333D01*
X52173142Y-135254952D01*
X52220761Y-135302571D01*
X52268380Y-135397809D01*
X52268380Y-135493047D01*
X52220761Y-135588285D01*
X52173142Y-135635904D01*
X52077904Y-135683523D01*
X51887428Y-135731142D01*
X51649333Y-135731142D01*
X51458857Y-135683523D01*
X51363619Y-135635904D01*
X51316000Y-135588285D01*
X51268380Y-135493047D01*
X51887428Y-134731142D02*
X51887428Y-133969238D01*
X52268380Y-134350190D02*
X51506476Y-134350190D01*
X51268380Y-133588285D02*
X51268380Y-132969238D01*
X51649333Y-133302571D01*
X51649333Y-133159714D01*
X51696952Y-133064476D01*
X51744571Y-133016857D01*
X51839809Y-132969238D01*
X52077904Y-132969238D01*
X52173142Y-133016857D01*
X52220761Y-133064476D01*
X52268380Y-133159714D01*
X52268380Y-133445428D01*
X52220761Y-133540666D01*
X52173142Y-133588285D01*
X51220761Y-131064476D02*
X52506476Y-131921619D01*
X51268380Y-130112095D02*
X52268380Y-129778761D01*
X51268380Y-129445428D01*
X51268380Y-128159714D02*
X51268380Y-128064476D01*
X51316000Y-127969238D01*
X51363619Y-127921619D01*
X51458857Y-127874000D01*
X51649333Y-127826380D01*
X51887428Y-127826380D01*
X52077904Y-127874000D01*
X52173142Y-127921619D01*
X52220761Y-127969238D01*
X52268380Y-128064476D01*
X52268380Y-128159714D01*
X52220761Y-128254952D01*
X52173142Y-128302571D01*
X52077904Y-128350190D01*
X51887428Y-128397809D01*
X51649333Y-128397809D01*
X51458857Y-128350190D01*
X51363619Y-128302571D01*
X51316000Y-128254952D01*
X51268380Y-128159714D01*
X52173142Y-127397809D02*
X52220761Y-127350190D01*
X52268380Y-127397809D01*
X52220761Y-127445428D01*
X52173142Y-127397809D01*
X52268380Y-127397809D01*
X51268380Y-127016857D02*
X51268380Y-126397809D01*
X51649333Y-126731142D01*
X51649333Y-126588285D01*
X51696952Y-126493047D01*
X51744571Y-126445428D01*
X51839809Y-126397809D01*
X52077904Y-126397809D01*
X52173142Y-126445428D01*
X52220761Y-126493047D01*
X52268380Y-126588285D01*
X52268380Y-126874000D01*
X52220761Y-126969238D01*
X52173142Y-127016857D01*
M02*
