%TF.GenerationSoftware,KiCad,Pcbnew,(5.1.6-0-10_14)*%
%TF.CreationDate,2021-04-03T15:30:38+02:00*%
%TF.ProjectId,Mech50-base,4d656368-3530-42d6-9261-73652e6b6963,rev?*%
%TF.SameCoordinates,Original*%
%TF.FileFunction,Other,Fab,Top*%
%FSLAX46Y46*%
G04 Gerber Fmt 4.6, Leading zero omitted, Abs format (unit mm)*
G04 Created by KiCad (PCBNEW (5.1.6-0-10_14)) date 2021-04-03 15:30:38*
%MOMM*%
%LPD*%
G01*
G04 APERTURE LIST*
%ADD10C,0.150000*%
G04 APERTURE END LIST*
%TO.C,H3*%
D10*
X206796285Y-75264380D02*
X206796285Y-74264380D01*
X207129619Y-74978666D01*
X207462952Y-74264380D01*
X207462952Y-75264380D01*
X208082000Y-75264380D02*
X207986761Y-75216761D01*
X207939142Y-75169142D01*
X207891523Y-75073904D01*
X207891523Y-74788190D01*
X207939142Y-74692952D01*
X207986761Y-74645333D01*
X208082000Y-74597714D01*
X208224857Y-74597714D01*
X208320095Y-74645333D01*
X208367714Y-74692952D01*
X208415333Y-74788190D01*
X208415333Y-75073904D01*
X208367714Y-75169142D01*
X208320095Y-75216761D01*
X208224857Y-75264380D01*
X208082000Y-75264380D01*
X209272476Y-74597714D02*
X209272476Y-75264380D01*
X208843904Y-74597714D02*
X208843904Y-75121523D01*
X208891523Y-75216761D01*
X208986761Y-75264380D01*
X209129619Y-75264380D01*
X209224857Y-75216761D01*
X209272476Y-75169142D01*
X209748666Y-74597714D02*
X209748666Y-75264380D01*
X209748666Y-74692952D02*
X209796285Y-74645333D01*
X209891523Y-74597714D01*
X210034380Y-74597714D01*
X210129619Y-74645333D01*
X210177238Y-74740571D01*
X210177238Y-75264380D01*
X210510571Y-74597714D02*
X210891523Y-74597714D01*
X210653428Y-74264380D02*
X210653428Y-75121523D01*
X210701047Y-75216761D01*
X210796285Y-75264380D01*
X210891523Y-75264380D01*
X211224857Y-75264380D02*
X211224857Y-74597714D01*
X211224857Y-74264380D02*
X211177238Y-74312000D01*
X211224857Y-74359619D01*
X211272476Y-74312000D01*
X211224857Y-74264380D01*
X211224857Y-74359619D01*
X211701047Y-74597714D02*
X211701047Y-75264380D01*
X211701047Y-74692952D02*
X211748666Y-74645333D01*
X211843904Y-74597714D01*
X211986761Y-74597714D01*
X212082000Y-74645333D01*
X212129619Y-74740571D01*
X212129619Y-75264380D01*
X213034380Y-74597714D02*
X213034380Y-75407238D01*
X212986761Y-75502476D01*
X212939142Y-75550095D01*
X212843904Y-75597714D01*
X212701047Y-75597714D01*
X212605809Y-75550095D01*
X213034380Y-75216761D02*
X212939142Y-75264380D01*
X212748666Y-75264380D01*
X212653428Y-75216761D01*
X212605809Y-75169142D01*
X212558190Y-75073904D01*
X212558190Y-74788190D01*
X212605809Y-74692952D01*
X212653428Y-74645333D01*
X212748666Y-74597714D01*
X212939142Y-74597714D01*
X213034380Y-74645333D01*
X213510571Y-75264380D02*
X213510571Y-74264380D01*
X213510571Y-74740571D02*
X214082000Y-74740571D01*
X214082000Y-75264380D02*
X214082000Y-74264380D01*
X214701047Y-75264380D02*
X214605809Y-75216761D01*
X214558190Y-75169142D01*
X214510571Y-75073904D01*
X214510571Y-74788190D01*
X214558190Y-74692952D01*
X214605809Y-74645333D01*
X214701047Y-74597714D01*
X214843904Y-74597714D01*
X214939142Y-74645333D01*
X214986761Y-74692952D01*
X215034380Y-74788190D01*
X215034380Y-75073904D01*
X214986761Y-75169142D01*
X214939142Y-75216761D01*
X214843904Y-75264380D01*
X214701047Y-75264380D01*
X215605809Y-75264380D02*
X215510571Y-75216761D01*
X215462952Y-75121523D01*
X215462952Y-74264380D01*
X216367714Y-75216761D02*
X216272476Y-75264380D01*
X216082000Y-75264380D01*
X215986761Y-75216761D01*
X215939142Y-75121523D01*
X215939142Y-74740571D01*
X215986761Y-74645333D01*
X216082000Y-74597714D01*
X216272476Y-74597714D01*
X216367714Y-74645333D01*
X216415333Y-74740571D01*
X216415333Y-74835809D01*
X215939142Y-74931047D01*
X211120095Y-71064380D02*
X211120095Y-70064380D01*
X211120095Y-70540571D02*
X211691523Y-70540571D01*
X211691523Y-71064380D02*
X211691523Y-70064380D01*
X212072476Y-70064380D02*
X212691523Y-70064380D01*
X212358190Y-70445333D01*
X212501047Y-70445333D01*
X212596285Y-70492952D01*
X212643904Y-70540571D01*
X212691523Y-70635809D01*
X212691523Y-70873904D01*
X212643904Y-70969142D01*
X212596285Y-71016761D01*
X212501047Y-71064380D01*
X212215333Y-71064380D01*
X212120095Y-71016761D01*
X212072476Y-70969142D01*
%TO.C,H13*%
X72176285Y-131652380D02*
X72176285Y-130652380D01*
X72509619Y-131366666D01*
X72842952Y-130652380D01*
X72842952Y-131652380D01*
X73462000Y-131652380D02*
X73366761Y-131604761D01*
X73319142Y-131557142D01*
X73271523Y-131461904D01*
X73271523Y-131176190D01*
X73319142Y-131080952D01*
X73366761Y-131033333D01*
X73462000Y-130985714D01*
X73604857Y-130985714D01*
X73700095Y-131033333D01*
X73747714Y-131080952D01*
X73795333Y-131176190D01*
X73795333Y-131461904D01*
X73747714Y-131557142D01*
X73700095Y-131604761D01*
X73604857Y-131652380D01*
X73462000Y-131652380D01*
X74652476Y-130985714D02*
X74652476Y-131652380D01*
X74223904Y-130985714D02*
X74223904Y-131509523D01*
X74271523Y-131604761D01*
X74366761Y-131652380D01*
X74509619Y-131652380D01*
X74604857Y-131604761D01*
X74652476Y-131557142D01*
X75128666Y-130985714D02*
X75128666Y-131652380D01*
X75128666Y-131080952D02*
X75176285Y-131033333D01*
X75271523Y-130985714D01*
X75414380Y-130985714D01*
X75509619Y-131033333D01*
X75557238Y-131128571D01*
X75557238Y-131652380D01*
X75890571Y-130985714D02*
X76271523Y-130985714D01*
X76033428Y-130652380D02*
X76033428Y-131509523D01*
X76081047Y-131604761D01*
X76176285Y-131652380D01*
X76271523Y-131652380D01*
X76604857Y-131652380D02*
X76604857Y-130985714D01*
X76604857Y-130652380D02*
X76557238Y-130700000D01*
X76604857Y-130747619D01*
X76652476Y-130700000D01*
X76604857Y-130652380D01*
X76604857Y-130747619D01*
X77081047Y-130985714D02*
X77081047Y-131652380D01*
X77081047Y-131080952D02*
X77128666Y-131033333D01*
X77223904Y-130985714D01*
X77366761Y-130985714D01*
X77462000Y-131033333D01*
X77509619Y-131128571D01*
X77509619Y-131652380D01*
X78414380Y-130985714D02*
X78414380Y-131795238D01*
X78366761Y-131890476D01*
X78319142Y-131938095D01*
X78223904Y-131985714D01*
X78081047Y-131985714D01*
X77985809Y-131938095D01*
X78414380Y-131604761D02*
X78319142Y-131652380D01*
X78128666Y-131652380D01*
X78033428Y-131604761D01*
X77985809Y-131557142D01*
X77938190Y-131461904D01*
X77938190Y-131176190D01*
X77985809Y-131080952D01*
X78033428Y-131033333D01*
X78128666Y-130985714D01*
X78319142Y-130985714D01*
X78414380Y-131033333D01*
X78890571Y-131652380D02*
X78890571Y-130652380D01*
X78890571Y-131128571D02*
X79462000Y-131128571D01*
X79462000Y-131652380D02*
X79462000Y-130652380D01*
X80081047Y-131652380D02*
X79985809Y-131604761D01*
X79938190Y-131557142D01*
X79890571Y-131461904D01*
X79890571Y-131176190D01*
X79938190Y-131080952D01*
X79985809Y-131033333D01*
X80081047Y-130985714D01*
X80223904Y-130985714D01*
X80319142Y-131033333D01*
X80366761Y-131080952D01*
X80414380Y-131176190D01*
X80414380Y-131461904D01*
X80366761Y-131557142D01*
X80319142Y-131604761D01*
X80223904Y-131652380D01*
X80081047Y-131652380D01*
X80985809Y-131652380D02*
X80890571Y-131604761D01*
X80842952Y-131509523D01*
X80842952Y-130652380D01*
X81747714Y-131604761D02*
X81652476Y-131652380D01*
X81462000Y-131652380D01*
X81366761Y-131604761D01*
X81319142Y-131509523D01*
X81319142Y-131128571D01*
X81366761Y-131033333D01*
X81462000Y-130985714D01*
X81652476Y-130985714D01*
X81747714Y-131033333D01*
X81795333Y-131128571D01*
X81795333Y-131223809D01*
X81319142Y-131319047D01*
X76023904Y-127452380D02*
X76023904Y-126452380D01*
X76023904Y-126928571D02*
X76595333Y-126928571D01*
X76595333Y-127452380D02*
X76595333Y-126452380D01*
X77595333Y-127452380D02*
X77023904Y-127452380D01*
X77309619Y-127452380D02*
X77309619Y-126452380D01*
X77214380Y-126595238D01*
X77119142Y-126690476D01*
X77023904Y-126738095D01*
X77928666Y-126452380D02*
X78547714Y-126452380D01*
X78214380Y-126833333D01*
X78357238Y-126833333D01*
X78452476Y-126880952D01*
X78500095Y-126928571D01*
X78547714Y-127023809D01*
X78547714Y-127261904D01*
X78500095Y-127357142D01*
X78452476Y-127404761D01*
X78357238Y-127452380D01*
X78071523Y-127452380D01*
X77976285Y-127404761D01*
X77928666Y-127357142D01*
%TO.C,H12*%
X281726285Y-131652380D02*
X281726285Y-130652380D01*
X282059619Y-131366666D01*
X282392952Y-130652380D01*
X282392952Y-131652380D01*
X283012000Y-131652380D02*
X282916761Y-131604761D01*
X282869142Y-131557142D01*
X282821523Y-131461904D01*
X282821523Y-131176190D01*
X282869142Y-131080952D01*
X282916761Y-131033333D01*
X283012000Y-130985714D01*
X283154857Y-130985714D01*
X283250095Y-131033333D01*
X283297714Y-131080952D01*
X283345333Y-131176190D01*
X283345333Y-131461904D01*
X283297714Y-131557142D01*
X283250095Y-131604761D01*
X283154857Y-131652380D01*
X283012000Y-131652380D01*
X284202476Y-130985714D02*
X284202476Y-131652380D01*
X283773904Y-130985714D02*
X283773904Y-131509523D01*
X283821523Y-131604761D01*
X283916761Y-131652380D01*
X284059619Y-131652380D01*
X284154857Y-131604761D01*
X284202476Y-131557142D01*
X284678666Y-130985714D02*
X284678666Y-131652380D01*
X284678666Y-131080952D02*
X284726285Y-131033333D01*
X284821523Y-130985714D01*
X284964380Y-130985714D01*
X285059619Y-131033333D01*
X285107238Y-131128571D01*
X285107238Y-131652380D01*
X285440571Y-130985714D02*
X285821523Y-130985714D01*
X285583428Y-130652380D02*
X285583428Y-131509523D01*
X285631047Y-131604761D01*
X285726285Y-131652380D01*
X285821523Y-131652380D01*
X286154857Y-131652380D02*
X286154857Y-130985714D01*
X286154857Y-130652380D02*
X286107238Y-130700000D01*
X286154857Y-130747619D01*
X286202476Y-130700000D01*
X286154857Y-130652380D01*
X286154857Y-130747619D01*
X286631047Y-130985714D02*
X286631047Y-131652380D01*
X286631047Y-131080952D02*
X286678666Y-131033333D01*
X286773904Y-130985714D01*
X286916761Y-130985714D01*
X287012000Y-131033333D01*
X287059619Y-131128571D01*
X287059619Y-131652380D01*
X287964380Y-130985714D02*
X287964380Y-131795238D01*
X287916761Y-131890476D01*
X287869142Y-131938095D01*
X287773904Y-131985714D01*
X287631047Y-131985714D01*
X287535809Y-131938095D01*
X287964380Y-131604761D02*
X287869142Y-131652380D01*
X287678666Y-131652380D01*
X287583428Y-131604761D01*
X287535809Y-131557142D01*
X287488190Y-131461904D01*
X287488190Y-131176190D01*
X287535809Y-131080952D01*
X287583428Y-131033333D01*
X287678666Y-130985714D01*
X287869142Y-130985714D01*
X287964380Y-131033333D01*
X288440571Y-131652380D02*
X288440571Y-130652380D01*
X288440571Y-131128571D02*
X289012000Y-131128571D01*
X289012000Y-131652380D02*
X289012000Y-130652380D01*
X289631047Y-131652380D02*
X289535809Y-131604761D01*
X289488190Y-131557142D01*
X289440571Y-131461904D01*
X289440571Y-131176190D01*
X289488190Y-131080952D01*
X289535809Y-131033333D01*
X289631047Y-130985714D01*
X289773904Y-130985714D01*
X289869142Y-131033333D01*
X289916761Y-131080952D01*
X289964380Y-131176190D01*
X289964380Y-131461904D01*
X289916761Y-131557142D01*
X289869142Y-131604761D01*
X289773904Y-131652380D01*
X289631047Y-131652380D01*
X290535809Y-131652380D02*
X290440571Y-131604761D01*
X290392952Y-131509523D01*
X290392952Y-130652380D01*
X291297714Y-131604761D02*
X291202476Y-131652380D01*
X291012000Y-131652380D01*
X290916761Y-131604761D01*
X290869142Y-131509523D01*
X290869142Y-131128571D01*
X290916761Y-131033333D01*
X291012000Y-130985714D01*
X291202476Y-130985714D01*
X291297714Y-131033333D01*
X291345333Y-131128571D01*
X291345333Y-131223809D01*
X290869142Y-131319047D01*
X285573904Y-127452380D02*
X285573904Y-126452380D01*
X285573904Y-126928571D02*
X286145333Y-126928571D01*
X286145333Y-127452380D02*
X286145333Y-126452380D01*
X287145333Y-127452380D02*
X286573904Y-127452380D01*
X286859619Y-127452380D02*
X286859619Y-126452380D01*
X286764380Y-126595238D01*
X286669142Y-126690476D01*
X286573904Y-126738095D01*
X287526285Y-126547619D02*
X287573904Y-126500000D01*
X287669142Y-126452380D01*
X287907238Y-126452380D01*
X288002476Y-126500000D01*
X288050095Y-126547619D01*
X288097714Y-126642857D01*
X288097714Y-126738095D01*
X288050095Y-126880952D01*
X287478666Y-127452380D01*
X288097714Y-127452380D01*
%TO.C,H5*%
X281980285Y-75264380D02*
X281980285Y-74264380D01*
X282313619Y-74978666D01*
X282646952Y-74264380D01*
X282646952Y-75264380D01*
X283266000Y-75264380D02*
X283170761Y-75216761D01*
X283123142Y-75169142D01*
X283075523Y-75073904D01*
X283075523Y-74788190D01*
X283123142Y-74692952D01*
X283170761Y-74645333D01*
X283266000Y-74597714D01*
X283408857Y-74597714D01*
X283504095Y-74645333D01*
X283551714Y-74692952D01*
X283599333Y-74788190D01*
X283599333Y-75073904D01*
X283551714Y-75169142D01*
X283504095Y-75216761D01*
X283408857Y-75264380D01*
X283266000Y-75264380D01*
X284456476Y-74597714D02*
X284456476Y-75264380D01*
X284027904Y-74597714D02*
X284027904Y-75121523D01*
X284075523Y-75216761D01*
X284170761Y-75264380D01*
X284313619Y-75264380D01*
X284408857Y-75216761D01*
X284456476Y-75169142D01*
X284932666Y-74597714D02*
X284932666Y-75264380D01*
X284932666Y-74692952D02*
X284980285Y-74645333D01*
X285075523Y-74597714D01*
X285218380Y-74597714D01*
X285313619Y-74645333D01*
X285361238Y-74740571D01*
X285361238Y-75264380D01*
X285694571Y-74597714D02*
X286075523Y-74597714D01*
X285837428Y-74264380D02*
X285837428Y-75121523D01*
X285885047Y-75216761D01*
X285980285Y-75264380D01*
X286075523Y-75264380D01*
X286408857Y-75264380D02*
X286408857Y-74597714D01*
X286408857Y-74264380D02*
X286361238Y-74312000D01*
X286408857Y-74359619D01*
X286456476Y-74312000D01*
X286408857Y-74264380D01*
X286408857Y-74359619D01*
X286885047Y-74597714D02*
X286885047Y-75264380D01*
X286885047Y-74692952D02*
X286932666Y-74645333D01*
X287027904Y-74597714D01*
X287170761Y-74597714D01*
X287266000Y-74645333D01*
X287313619Y-74740571D01*
X287313619Y-75264380D01*
X288218380Y-74597714D02*
X288218380Y-75407238D01*
X288170761Y-75502476D01*
X288123142Y-75550095D01*
X288027904Y-75597714D01*
X287885047Y-75597714D01*
X287789809Y-75550095D01*
X288218380Y-75216761D02*
X288123142Y-75264380D01*
X287932666Y-75264380D01*
X287837428Y-75216761D01*
X287789809Y-75169142D01*
X287742190Y-75073904D01*
X287742190Y-74788190D01*
X287789809Y-74692952D01*
X287837428Y-74645333D01*
X287932666Y-74597714D01*
X288123142Y-74597714D01*
X288218380Y-74645333D01*
X288694571Y-75264380D02*
X288694571Y-74264380D01*
X288694571Y-74740571D02*
X289266000Y-74740571D01*
X289266000Y-75264380D02*
X289266000Y-74264380D01*
X289885047Y-75264380D02*
X289789809Y-75216761D01*
X289742190Y-75169142D01*
X289694571Y-75073904D01*
X289694571Y-74788190D01*
X289742190Y-74692952D01*
X289789809Y-74645333D01*
X289885047Y-74597714D01*
X290027904Y-74597714D01*
X290123142Y-74645333D01*
X290170761Y-74692952D01*
X290218380Y-74788190D01*
X290218380Y-75073904D01*
X290170761Y-75169142D01*
X290123142Y-75216761D01*
X290027904Y-75264380D01*
X289885047Y-75264380D01*
X290789809Y-75264380D02*
X290694571Y-75216761D01*
X290646952Y-75121523D01*
X290646952Y-74264380D01*
X291551714Y-75216761D02*
X291456476Y-75264380D01*
X291266000Y-75264380D01*
X291170761Y-75216761D01*
X291123142Y-75121523D01*
X291123142Y-74740571D01*
X291170761Y-74645333D01*
X291266000Y-74597714D01*
X291456476Y-74597714D01*
X291551714Y-74645333D01*
X291599333Y-74740571D01*
X291599333Y-74835809D01*
X291123142Y-74931047D01*
X286304095Y-71064380D02*
X286304095Y-70064380D01*
X286304095Y-70540571D02*
X286875523Y-70540571D01*
X286875523Y-71064380D02*
X286875523Y-70064380D01*
X287827904Y-70064380D02*
X287351714Y-70064380D01*
X287304095Y-70540571D01*
X287351714Y-70492952D01*
X287446952Y-70445333D01*
X287685047Y-70445333D01*
X287780285Y-70492952D01*
X287827904Y-70540571D01*
X287875523Y-70635809D01*
X287875523Y-70873904D01*
X287827904Y-70969142D01*
X287780285Y-71016761D01*
X287685047Y-71064380D01*
X287446952Y-71064380D01*
X287351714Y-71016761D01*
X287304095Y-70969142D01*
%TO.C,H10*%
X94274285Y-131144380D02*
X94274285Y-130144380D01*
X94607619Y-130858666D01*
X94940952Y-130144380D01*
X94940952Y-131144380D01*
X95560000Y-131144380D02*
X95464761Y-131096761D01*
X95417142Y-131049142D01*
X95369523Y-130953904D01*
X95369523Y-130668190D01*
X95417142Y-130572952D01*
X95464761Y-130525333D01*
X95560000Y-130477714D01*
X95702857Y-130477714D01*
X95798095Y-130525333D01*
X95845714Y-130572952D01*
X95893333Y-130668190D01*
X95893333Y-130953904D01*
X95845714Y-131049142D01*
X95798095Y-131096761D01*
X95702857Y-131144380D01*
X95560000Y-131144380D01*
X96750476Y-130477714D02*
X96750476Y-131144380D01*
X96321904Y-130477714D02*
X96321904Y-131001523D01*
X96369523Y-131096761D01*
X96464761Y-131144380D01*
X96607619Y-131144380D01*
X96702857Y-131096761D01*
X96750476Y-131049142D01*
X97226666Y-130477714D02*
X97226666Y-131144380D01*
X97226666Y-130572952D02*
X97274285Y-130525333D01*
X97369523Y-130477714D01*
X97512380Y-130477714D01*
X97607619Y-130525333D01*
X97655238Y-130620571D01*
X97655238Y-131144380D01*
X97988571Y-130477714D02*
X98369523Y-130477714D01*
X98131428Y-130144380D02*
X98131428Y-131001523D01*
X98179047Y-131096761D01*
X98274285Y-131144380D01*
X98369523Y-131144380D01*
X98702857Y-131144380D02*
X98702857Y-130477714D01*
X98702857Y-130144380D02*
X98655238Y-130192000D01*
X98702857Y-130239619D01*
X98750476Y-130192000D01*
X98702857Y-130144380D01*
X98702857Y-130239619D01*
X99179047Y-130477714D02*
X99179047Y-131144380D01*
X99179047Y-130572952D02*
X99226666Y-130525333D01*
X99321904Y-130477714D01*
X99464761Y-130477714D01*
X99560000Y-130525333D01*
X99607619Y-130620571D01*
X99607619Y-131144380D01*
X100512380Y-130477714D02*
X100512380Y-131287238D01*
X100464761Y-131382476D01*
X100417142Y-131430095D01*
X100321904Y-131477714D01*
X100179047Y-131477714D01*
X100083809Y-131430095D01*
X100512380Y-131096761D02*
X100417142Y-131144380D01*
X100226666Y-131144380D01*
X100131428Y-131096761D01*
X100083809Y-131049142D01*
X100036190Y-130953904D01*
X100036190Y-130668190D01*
X100083809Y-130572952D01*
X100131428Y-130525333D01*
X100226666Y-130477714D01*
X100417142Y-130477714D01*
X100512380Y-130525333D01*
X100988571Y-131144380D02*
X100988571Y-130144380D01*
X100988571Y-130620571D02*
X101560000Y-130620571D01*
X101560000Y-131144380D02*
X101560000Y-130144380D01*
X102179047Y-131144380D02*
X102083809Y-131096761D01*
X102036190Y-131049142D01*
X101988571Y-130953904D01*
X101988571Y-130668190D01*
X102036190Y-130572952D01*
X102083809Y-130525333D01*
X102179047Y-130477714D01*
X102321904Y-130477714D01*
X102417142Y-130525333D01*
X102464761Y-130572952D01*
X102512380Y-130668190D01*
X102512380Y-130953904D01*
X102464761Y-131049142D01*
X102417142Y-131096761D01*
X102321904Y-131144380D01*
X102179047Y-131144380D01*
X103083809Y-131144380D02*
X102988571Y-131096761D01*
X102940952Y-131001523D01*
X102940952Y-130144380D01*
X103845714Y-131096761D02*
X103750476Y-131144380D01*
X103560000Y-131144380D01*
X103464761Y-131096761D01*
X103417142Y-131001523D01*
X103417142Y-130620571D01*
X103464761Y-130525333D01*
X103560000Y-130477714D01*
X103750476Y-130477714D01*
X103845714Y-130525333D01*
X103893333Y-130620571D01*
X103893333Y-130715809D01*
X103417142Y-130811047D01*
X98121904Y-126944380D02*
X98121904Y-125944380D01*
X98121904Y-126420571D02*
X98693333Y-126420571D01*
X98693333Y-126944380D02*
X98693333Y-125944380D01*
X99693333Y-126944380D02*
X99121904Y-126944380D01*
X99407619Y-126944380D02*
X99407619Y-125944380D01*
X99312380Y-126087238D01*
X99217142Y-126182476D01*
X99121904Y-126230095D01*
X100312380Y-125944380D02*
X100407619Y-125944380D01*
X100502857Y-125992000D01*
X100550476Y-126039619D01*
X100598095Y-126134857D01*
X100645714Y-126325333D01*
X100645714Y-126563428D01*
X100598095Y-126753904D01*
X100550476Y-126849142D01*
X100502857Y-126896761D01*
X100407619Y-126944380D01*
X100312380Y-126944380D01*
X100217142Y-126896761D01*
X100169523Y-126849142D01*
X100121904Y-126753904D01*
X100074285Y-126563428D01*
X100074285Y-126325333D01*
X100121904Y-126134857D01*
X100169523Y-126039619D01*
X100217142Y-125992000D01*
X100312380Y-125944380D01*
%TO.C,H4*%
X206796285Y-131652380D02*
X206796285Y-130652380D01*
X207129619Y-131366666D01*
X207462952Y-130652380D01*
X207462952Y-131652380D01*
X208082000Y-131652380D02*
X207986761Y-131604761D01*
X207939142Y-131557142D01*
X207891523Y-131461904D01*
X207891523Y-131176190D01*
X207939142Y-131080952D01*
X207986761Y-131033333D01*
X208082000Y-130985714D01*
X208224857Y-130985714D01*
X208320095Y-131033333D01*
X208367714Y-131080952D01*
X208415333Y-131176190D01*
X208415333Y-131461904D01*
X208367714Y-131557142D01*
X208320095Y-131604761D01*
X208224857Y-131652380D01*
X208082000Y-131652380D01*
X209272476Y-130985714D02*
X209272476Y-131652380D01*
X208843904Y-130985714D02*
X208843904Y-131509523D01*
X208891523Y-131604761D01*
X208986761Y-131652380D01*
X209129619Y-131652380D01*
X209224857Y-131604761D01*
X209272476Y-131557142D01*
X209748666Y-130985714D02*
X209748666Y-131652380D01*
X209748666Y-131080952D02*
X209796285Y-131033333D01*
X209891523Y-130985714D01*
X210034380Y-130985714D01*
X210129619Y-131033333D01*
X210177238Y-131128571D01*
X210177238Y-131652380D01*
X210510571Y-130985714D02*
X210891523Y-130985714D01*
X210653428Y-130652380D02*
X210653428Y-131509523D01*
X210701047Y-131604761D01*
X210796285Y-131652380D01*
X210891523Y-131652380D01*
X211224857Y-131652380D02*
X211224857Y-130985714D01*
X211224857Y-130652380D02*
X211177238Y-130700000D01*
X211224857Y-130747619D01*
X211272476Y-130700000D01*
X211224857Y-130652380D01*
X211224857Y-130747619D01*
X211701047Y-130985714D02*
X211701047Y-131652380D01*
X211701047Y-131080952D02*
X211748666Y-131033333D01*
X211843904Y-130985714D01*
X211986761Y-130985714D01*
X212082000Y-131033333D01*
X212129619Y-131128571D01*
X212129619Y-131652380D01*
X213034380Y-130985714D02*
X213034380Y-131795238D01*
X212986761Y-131890476D01*
X212939142Y-131938095D01*
X212843904Y-131985714D01*
X212701047Y-131985714D01*
X212605809Y-131938095D01*
X213034380Y-131604761D02*
X212939142Y-131652380D01*
X212748666Y-131652380D01*
X212653428Y-131604761D01*
X212605809Y-131557142D01*
X212558190Y-131461904D01*
X212558190Y-131176190D01*
X212605809Y-131080952D01*
X212653428Y-131033333D01*
X212748666Y-130985714D01*
X212939142Y-130985714D01*
X213034380Y-131033333D01*
X213510571Y-131652380D02*
X213510571Y-130652380D01*
X213510571Y-131128571D02*
X214082000Y-131128571D01*
X214082000Y-131652380D02*
X214082000Y-130652380D01*
X214701047Y-131652380D02*
X214605809Y-131604761D01*
X214558190Y-131557142D01*
X214510571Y-131461904D01*
X214510571Y-131176190D01*
X214558190Y-131080952D01*
X214605809Y-131033333D01*
X214701047Y-130985714D01*
X214843904Y-130985714D01*
X214939142Y-131033333D01*
X214986761Y-131080952D01*
X215034380Y-131176190D01*
X215034380Y-131461904D01*
X214986761Y-131557142D01*
X214939142Y-131604761D01*
X214843904Y-131652380D01*
X214701047Y-131652380D01*
X215605809Y-131652380D02*
X215510571Y-131604761D01*
X215462952Y-131509523D01*
X215462952Y-130652380D01*
X216367714Y-131604761D02*
X216272476Y-131652380D01*
X216082000Y-131652380D01*
X215986761Y-131604761D01*
X215939142Y-131509523D01*
X215939142Y-131128571D01*
X215986761Y-131033333D01*
X216082000Y-130985714D01*
X216272476Y-130985714D01*
X216367714Y-131033333D01*
X216415333Y-131128571D01*
X216415333Y-131223809D01*
X215939142Y-131319047D01*
X211120095Y-127452380D02*
X211120095Y-126452380D01*
X211120095Y-126928571D02*
X211691523Y-126928571D01*
X211691523Y-127452380D02*
X211691523Y-126452380D01*
X212596285Y-126785714D02*
X212596285Y-127452380D01*
X212358190Y-126404761D02*
X212120095Y-127119047D01*
X212739142Y-127119047D01*
%TO.C,H2*%
X94020285Y-75264380D02*
X94020285Y-74264380D01*
X94353619Y-74978666D01*
X94686952Y-74264380D01*
X94686952Y-75264380D01*
X95306000Y-75264380D02*
X95210761Y-75216761D01*
X95163142Y-75169142D01*
X95115523Y-75073904D01*
X95115523Y-74788190D01*
X95163142Y-74692952D01*
X95210761Y-74645333D01*
X95306000Y-74597714D01*
X95448857Y-74597714D01*
X95544095Y-74645333D01*
X95591714Y-74692952D01*
X95639333Y-74788190D01*
X95639333Y-75073904D01*
X95591714Y-75169142D01*
X95544095Y-75216761D01*
X95448857Y-75264380D01*
X95306000Y-75264380D01*
X96496476Y-74597714D02*
X96496476Y-75264380D01*
X96067904Y-74597714D02*
X96067904Y-75121523D01*
X96115523Y-75216761D01*
X96210761Y-75264380D01*
X96353619Y-75264380D01*
X96448857Y-75216761D01*
X96496476Y-75169142D01*
X96972666Y-74597714D02*
X96972666Y-75264380D01*
X96972666Y-74692952D02*
X97020285Y-74645333D01*
X97115523Y-74597714D01*
X97258380Y-74597714D01*
X97353619Y-74645333D01*
X97401238Y-74740571D01*
X97401238Y-75264380D01*
X97734571Y-74597714D02*
X98115523Y-74597714D01*
X97877428Y-74264380D02*
X97877428Y-75121523D01*
X97925047Y-75216761D01*
X98020285Y-75264380D01*
X98115523Y-75264380D01*
X98448857Y-75264380D02*
X98448857Y-74597714D01*
X98448857Y-74264380D02*
X98401238Y-74312000D01*
X98448857Y-74359619D01*
X98496476Y-74312000D01*
X98448857Y-74264380D01*
X98448857Y-74359619D01*
X98925047Y-74597714D02*
X98925047Y-75264380D01*
X98925047Y-74692952D02*
X98972666Y-74645333D01*
X99067904Y-74597714D01*
X99210761Y-74597714D01*
X99306000Y-74645333D01*
X99353619Y-74740571D01*
X99353619Y-75264380D01*
X100258380Y-74597714D02*
X100258380Y-75407238D01*
X100210761Y-75502476D01*
X100163142Y-75550095D01*
X100067904Y-75597714D01*
X99925047Y-75597714D01*
X99829809Y-75550095D01*
X100258380Y-75216761D02*
X100163142Y-75264380D01*
X99972666Y-75264380D01*
X99877428Y-75216761D01*
X99829809Y-75169142D01*
X99782190Y-75073904D01*
X99782190Y-74788190D01*
X99829809Y-74692952D01*
X99877428Y-74645333D01*
X99972666Y-74597714D01*
X100163142Y-74597714D01*
X100258380Y-74645333D01*
X100734571Y-75264380D02*
X100734571Y-74264380D01*
X100734571Y-74740571D02*
X101306000Y-74740571D01*
X101306000Y-75264380D02*
X101306000Y-74264380D01*
X101925047Y-75264380D02*
X101829809Y-75216761D01*
X101782190Y-75169142D01*
X101734571Y-75073904D01*
X101734571Y-74788190D01*
X101782190Y-74692952D01*
X101829809Y-74645333D01*
X101925047Y-74597714D01*
X102067904Y-74597714D01*
X102163142Y-74645333D01*
X102210761Y-74692952D01*
X102258380Y-74788190D01*
X102258380Y-75073904D01*
X102210761Y-75169142D01*
X102163142Y-75216761D01*
X102067904Y-75264380D01*
X101925047Y-75264380D01*
X102829809Y-75264380D02*
X102734571Y-75216761D01*
X102686952Y-75121523D01*
X102686952Y-74264380D01*
X103591714Y-75216761D02*
X103496476Y-75264380D01*
X103306000Y-75264380D01*
X103210761Y-75216761D01*
X103163142Y-75121523D01*
X103163142Y-74740571D01*
X103210761Y-74645333D01*
X103306000Y-74597714D01*
X103496476Y-74597714D01*
X103591714Y-74645333D01*
X103639333Y-74740571D01*
X103639333Y-74835809D01*
X103163142Y-74931047D01*
X98344095Y-71064380D02*
X98344095Y-70064380D01*
X98344095Y-70540571D02*
X98915523Y-70540571D01*
X98915523Y-71064380D02*
X98915523Y-70064380D01*
X99344095Y-70159619D02*
X99391714Y-70112000D01*
X99486952Y-70064380D01*
X99725047Y-70064380D01*
X99820285Y-70112000D01*
X99867904Y-70159619D01*
X99915523Y-70254857D01*
X99915523Y-70350095D01*
X99867904Y-70492952D01*
X99296476Y-71064380D01*
X99915523Y-71064380D01*
%TO.C,H1*%
X150408285Y-75010380D02*
X150408285Y-74010380D01*
X150741619Y-74724666D01*
X151074952Y-74010380D01*
X151074952Y-75010380D01*
X151694000Y-75010380D02*
X151598761Y-74962761D01*
X151551142Y-74915142D01*
X151503523Y-74819904D01*
X151503523Y-74534190D01*
X151551142Y-74438952D01*
X151598761Y-74391333D01*
X151694000Y-74343714D01*
X151836857Y-74343714D01*
X151932095Y-74391333D01*
X151979714Y-74438952D01*
X152027333Y-74534190D01*
X152027333Y-74819904D01*
X151979714Y-74915142D01*
X151932095Y-74962761D01*
X151836857Y-75010380D01*
X151694000Y-75010380D01*
X152884476Y-74343714D02*
X152884476Y-75010380D01*
X152455904Y-74343714D02*
X152455904Y-74867523D01*
X152503523Y-74962761D01*
X152598761Y-75010380D01*
X152741619Y-75010380D01*
X152836857Y-74962761D01*
X152884476Y-74915142D01*
X153360666Y-74343714D02*
X153360666Y-75010380D01*
X153360666Y-74438952D02*
X153408285Y-74391333D01*
X153503523Y-74343714D01*
X153646380Y-74343714D01*
X153741619Y-74391333D01*
X153789238Y-74486571D01*
X153789238Y-75010380D01*
X154122571Y-74343714D02*
X154503523Y-74343714D01*
X154265428Y-74010380D02*
X154265428Y-74867523D01*
X154313047Y-74962761D01*
X154408285Y-75010380D01*
X154503523Y-75010380D01*
X154836857Y-75010380D02*
X154836857Y-74343714D01*
X154836857Y-74010380D02*
X154789238Y-74058000D01*
X154836857Y-74105619D01*
X154884476Y-74058000D01*
X154836857Y-74010380D01*
X154836857Y-74105619D01*
X155313047Y-74343714D02*
X155313047Y-75010380D01*
X155313047Y-74438952D02*
X155360666Y-74391333D01*
X155455904Y-74343714D01*
X155598761Y-74343714D01*
X155694000Y-74391333D01*
X155741619Y-74486571D01*
X155741619Y-75010380D01*
X156646380Y-74343714D02*
X156646380Y-75153238D01*
X156598761Y-75248476D01*
X156551142Y-75296095D01*
X156455904Y-75343714D01*
X156313047Y-75343714D01*
X156217809Y-75296095D01*
X156646380Y-74962761D02*
X156551142Y-75010380D01*
X156360666Y-75010380D01*
X156265428Y-74962761D01*
X156217809Y-74915142D01*
X156170190Y-74819904D01*
X156170190Y-74534190D01*
X156217809Y-74438952D01*
X156265428Y-74391333D01*
X156360666Y-74343714D01*
X156551142Y-74343714D01*
X156646380Y-74391333D01*
X157122571Y-75010380D02*
X157122571Y-74010380D01*
X157122571Y-74486571D02*
X157694000Y-74486571D01*
X157694000Y-75010380D02*
X157694000Y-74010380D01*
X158313047Y-75010380D02*
X158217809Y-74962761D01*
X158170190Y-74915142D01*
X158122571Y-74819904D01*
X158122571Y-74534190D01*
X158170190Y-74438952D01*
X158217809Y-74391333D01*
X158313047Y-74343714D01*
X158455904Y-74343714D01*
X158551142Y-74391333D01*
X158598761Y-74438952D01*
X158646380Y-74534190D01*
X158646380Y-74819904D01*
X158598761Y-74915142D01*
X158551142Y-74962761D01*
X158455904Y-75010380D01*
X158313047Y-75010380D01*
X159217809Y-75010380D02*
X159122571Y-74962761D01*
X159074952Y-74867523D01*
X159074952Y-74010380D01*
X159979714Y-74962761D02*
X159884476Y-75010380D01*
X159694000Y-75010380D01*
X159598761Y-74962761D01*
X159551142Y-74867523D01*
X159551142Y-74486571D01*
X159598761Y-74391333D01*
X159694000Y-74343714D01*
X159884476Y-74343714D01*
X159979714Y-74391333D01*
X160027333Y-74486571D01*
X160027333Y-74581809D01*
X159551142Y-74677047D01*
X154732095Y-70810380D02*
X154732095Y-69810380D01*
X154732095Y-70286571D02*
X155303523Y-70286571D01*
X155303523Y-70810380D02*
X155303523Y-69810380D01*
X156303523Y-70810380D02*
X155732095Y-70810380D01*
X156017809Y-70810380D02*
X156017809Y-69810380D01*
X155922571Y-69953238D01*
X155827333Y-70048476D01*
X155732095Y-70096095D01*
%TO.C,H11*%
X150662285Y-131652380D02*
X150662285Y-130652380D01*
X150995619Y-131366666D01*
X151328952Y-130652380D01*
X151328952Y-131652380D01*
X151948000Y-131652380D02*
X151852761Y-131604761D01*
X151805142Y-131557142D01*
X151757523Y-131461904D01*
X151757523Y-131176190D01*
X151805142Y-131080952D01*
X151852761Y-131033333D01*
X151948000Y-130985714D01*
X152090857Y-130985714D01*
X152186095Y-131033333D01*
X152233714Y-131080952D01*
X152281333Y-131176190D01*
X152281333Y-131461904D01*
X152233714Y-131557142D01*
X152186095Y-131604761D01*
X152090857Y-131652380D01*
X151948000Y-131652380D01*
X153138476Y-130985714D02*
X153138476Y-131652380D01*
X152709904Y-130985714D02*
X152709904Y-131509523D01*
X152757523Y-131604761D01*
X152852761Y-131652380D01*
X152995619Y-131652380D01*
X153090857Y-131604761D01*
X153138476Y-131557142D01*
X153614666Y-130985714D02*
X153614666Y-131652380D01*
X153614666Y-131080952D02*
X153662285Y-131033333D01*
X153757523Y-130985714D01*
X153900380Y-130985714D01*
X153995619Y-131033333D01*
X154043238Y-131128571D01*
X154043238Y-131652380D01*
X154376571Y-130985714D02*
X154757523Y-130985714D01*
X154519428Y-130652380D02*
X154519428Y-131509523D01*
X154567047Y-131604761D01*
X154662285Y-131652380D01*
X154757523Y-131652380D01*
X155090857Y-131652380D02*
X155090857Y-130985714D01*
X155090857Y-130652380D02*
X155043238Y-130700000D01*
X155090857Y-130747619D01*
X155138476Y-130700000D01*
X155090857Y-130652380D01*
X155090857Y-130747619D01*
X155567047Y-130985714D02*
X155567047Y-131652380D01*
X155567047Y-131080952D02*
X155614666Y-131033333D01*
X155709904Y-130985714D01*
X155852761Y-130985714D01*
X155948000Y-131033333D01*
X155995619Y-131128571D01*
X155995619Y-131652380D01*
X156900380Y-130985714D02*
X156900380Y-131795238D01*
X156852761Y-131890476D01*
X156805142Y-131938095D01*
X156709904Y-131985714D01*
X156567047Y-131985714D01*
X156471809Y-131938095D01*
X156900380Y-131604761D02*
X156805142Y-131652380D01*
X156614666Y-131652380D01*
X156519428Y-131604761D01*
X156471809Y-131557142D01*
X156424190Y-131461904D01*
X156424190Y-131176190D01*
X156471809Y-131080952D01*
X156519428Y-131033333D01*
X156614666Y-130985714D01*
X156805142Y-130985714D01*
X156900380Y-131033333D01*
X157376571Y-131652380D02*
X157376571Y-130652380D01*
X157376571Y-131128571D02*
X157948000Y-131128571D01*
X157948000Y-131652380D02*
X157948000Y-130652380D01*
X158567047Y-131652380D02*
X158471809Y-131604761D01*
X158424190Y-131557142D01*
X158376571Y-131461904D01*
X158376571Y-131176190D01*
X158424190Y-131080952D01*
X158471809Y-131033333D01*
X158567047Y-130985714D01*
X158709904Y-130985714D01*
X158805142Y-131033333D01*
X158852761Y-131080952D01*
X158900380Y-131176190D01*
X158900380Y-131461904D01*
X158852761Y-131557142D01*
X158805142Y-131604761D01*
X158709904Y-131652380D01*
X158567047Y-131652380D01*
X159471809Y-131652380D02*
X159376571Y-131604761D01*
X159328952Y-131509523D01*
X159328952Y-130652380D01*
X160233714Y-131604761D02*
X160138476Y-131652380D01*
X159948000Y-131652380D01*
X159852761Y-131604761D01*
X159805142Y-131509523D01*
X159805142Y-131128571D01*
X159852761Y-131033333D01*
X159948000Y-130985714D01*
X160138476Y-130985714D01*
X160233714Y-131033333D01*
X160281333Y-131128571D01*
X160281333Y-131223809D01*
X159805142Y-131319047D01*
X154509904Y-127452380D02*
X154509904Y-126452380D01*
X154509904Y-126928571D02*
X155081333Y-126928571D01*
X155081333Y-127452380D02*
X155081333Y-126452380D01*
X156081333Y-127452380D02*
X155509904Y-127452380D01*
X155795619Y-127452380D02*
X155795619Y-126452380D01*
X155700380Y-126595238D01*
X155605142Y-126690476D01*
X155509904Y-126738095D01*
X157033714Y-127452380D02*
X156462285Y-127452380D01*
X156748000Y-127452380D02*
X156748000Y-126452380D01*
X156652761Y-126595238D01*
X156557523Y-126690476D01*
X156462285Y-126738095D01*
%TD*%
M02*
