%TF.GenerationSoftware,KiCad,Pcbnew,(5.1.6-0-10_14)*%
%TF.CreationDate,2021-11-12T16:00:31+01:00*%
%TF.ProjectId,Mech50-plate,4d656368-3530-42d7-906c-6174652e6b69,rev?*%
%TF.SameCoordinates,Original*%
%TF.FileFunction,Legend,Top*%
%TF.FilePolarity,Positive*%
%FSLAX46Y46*%
G04 Gerber Fmt 4.6, Leading zero omitted, Abs format (unit mm)*
G04 Created by KiCad (PCBNEW (5.1.6-0-10_14)) date 2021-11-12 16:00:31*
%MOMM*%
%LPD*%
G01*
G04 APERTURE LIST*
%ADD10C,0.150000*%
G04 APERTURE END LIST*
D10*
X258214395Y-212637714D02*
X258595348Y-212637714D01*
X258398919Y-212304380D02*
X258291776Y-213161523D01*
X258327491Y-213256761D01*
X258416776Y-213304380D01*
X258512014Y-213304380D01*
X259232252Y-213256761D02*
X259131062Y-213304380D01*
X258940586Y-213304380D01*
X258851300Y-213256761D01*
X258815586Y-213161523D01*
X258863205Y-212780571D01*
X258922729Y-212685333D01*
X259023919Y-212637714D01*
X259214395Y-212637714D01*
X259303681Y-212685333D01*
X259339395Y-212780571D01*
X259327491Y-212875809D01*
X258839395Y-212971047D01*
X259660824Y-213256761D02*
X259750110Y-213304380D01*
X259940586Y-213304380D01*
X260041776Y-213256761D01*
X260101300Y-213161523D01*
X260107252Y-213113904D01*
X260071538Y-213018666D01*
X259982252Y-212971047D01*
X259839395Y-212971047D01*
X259750110Y-212923428D01*
X259714395Y-212828190D01*
X259720348Y-212780571D01*
X259779872Y-212685333D01*
X259881062Y-212637714D01*
X260023919Y-212637714D01*
X260113205Y-212685333D01*
X260452491Y-212637714D02*
X260833443Y-212637714D01*
X260637014Y-212304380D02*
X260529872Y-213161523D01*
X260565586Y-213256761D01*
X260654872Y-213304380D01*
X260750110Y-213304380D01*
X262160824Y-212304380D02*
X262256062Y-212304380D01*
X262345348Y-212352000D01*
X262387014Y-212399619D01*
X262422729Y-212494857D01*
X262446538Y-212685333D01*
X262416776Y-212923428D01*
X262345348Y-213113904D01*
X262285824Y-213209142D01*
X262232252Y-213256761D01*
X262131062Y-213304380D01*
X262035824Y-213304380D01*
X261946538Y-213256761D01*
X261904872Y-213209142D01*
X261869157Y-213113904D01*
X261845348Y-212923428D01*
X261875110Y-212685333D01*
X261946538Y-212494857D01*
X262006062Y-212399619D01*
X262059633Y-212352000D01*
X262160824Y-212304380D01*
X262809633Y-213209142D02*
X262851300Y-213256761D01*
X262797729Y-213304380D01*
X262756062Y-213256761D01*
X262809633Y-213209142D01*
X262797729Y-213304380D01*
X263797729Y-213304380D02*
X263226300Y-213304380D01*
X263512014Y-213304380D02*
X263637014Y-212304380D01*
X263523919Y-212447238D01*
X263416776Y-212542476D01*
X263315586Y-212590095D01*
M02*
