M48
; DRILL file {KiCad (5.1.6-0-10_14)} date Friday, November 12, 2021 at 04:00:27 PM
; FORMAT={-:-/ absolute / inch / decimal}
; #@! TF.CreationDate,2021-11-12T16:00:27+01:00
; #@! TF.GenerationSoftware,Kicad,Pcbnew,(5.1.6-0-10_14)
FMAT,2
INCH
T1C0.0200
T2C0.0500
%
G90
G05
T1
G00X9.2025Y-7.635
M15
G01X9.2025Y-7.795
M16
G05
G00X9.2025Y-8.005
M15
G01X9.2025Y-8.165
M16
G05
G00X9.2025Y-7.795
M15
G01X9.235Y-7.795
M16
G05
G00X9.2025Y-8.005
M15
G01X9.235Y-8.005
M16
G05
G00X9.235Y-7.795
M15
G01X9.235Y-8.005
M16
G05
G00X9.203Y-7.635
M15
G01X9.797Y-7.635
M16
G05
G00X9.203Y-8.165
M15
G01X9.797Y-8.165
M16
G05
G00X9.765Y-7.795
M15
G01X9.765Y-8.005
M16
G05
G00X9.765Y-7.795
M15
G01X9.7975Y-7.795
M16
G05
G00X9.765Y-8.005
M15
G01X9.7975Y-8.005
M16
G05
G00X9.7975Y-7.635
M15
G01X9.7975Y-7.795
M16
G05
G00X9.7975Y-8.005
M15
G01X9.7975Y-8.165
M16
G05
G00X9.9525Y-6.885
M15
G01X9.9525Y-7.045
M16
G05
G00X9.9525Y-7.255
M15
G01X9.9525Y-7.415
M16
G05
G00X9.9525Y-7.045
M15
G01X9.985Y-7.045
M16
G05
G00X9.9525Y-7.255
M15
G01X9.985Y-7.255
M16
G05
G00X9.985Y-7.045
M15
G01X9.985Y-7.255
M16
G05
G00X9.953Y-6.885
M15
G01X10.547Y-6.885
M16
G05
G00X9.953Y-7.415
M15
G01X10.547Y-7.415
M16
G05
G00X10.515Y-7.045
M15
G01X10.515Y-7.255
M16
G05
G00X10.515Y-7.045
M15
G01X10.5475Y-7.045
M16
G05
G00X10.515Y-7.255
M15
G01X10.5475Y-7.255
M16
G05
G00X10.5475Y-6.885
M15
G01X10.5475Y-7.045
M16
G05
G00X10.5475Y-7.255
M15
G01X10.5475Y-7.415
M16
G05
G00X9.9525Y-7.635
M15
G01X9.9525Y-7.795
M16
G05
G00X9.9525Y-8.005
M15
G01X9.9525Y-8.165
M16
G05
G00X9.9525Y-7.795
M15
G01X9.985Y-7.795
M16
G05
G00X9.9525Y-8.005
M15
G01X9.985Y-8.005
M16
G05
G00X9.985Y-7.795
M15
G01X9.985Y-8.005
M16
G05
G00X9.953Y-7.635
M15
G01X10.547Y-7.635
M16
G05
G00X9.953Y-8.165
M15
G01X10.547Y-8.165
M16
G05
G00X10.515Y-7.795
M15
G01X10.515Y-8.005
M16
G05
G00X10.515Y-7.795
M15
G01X10.5475Y-7.795
M16
G05
G00X10.515Y-8.005
M15
G01X10.5475Y-8.005
M16
G05
G00X10.5475Y-7.635
M15
G01X10.5475Y-7.795
M16
G05
G00X10.5475Y-8.005
M15
G01X10.5475Y-8.165
M16
G05
G00X9.2025Y-6.885
M15
G01X9.2025Y-7.045
M16
G05
G00X9.2025Y-7.255
M15
G01X9.2025Y-7.415
M16
G05
G00X9.2025Y-7.045
M15
G01X9.235Y-7.045
M16
G05
G00X9.2025Y-7.255
M15
G01X9.235Y-7.255
M16
G05
G00X9.235Y-7.045
M15
G01X9.235Y-7.255
M16
G05
G00X9.203Y-6.885
M15
G01X9.797Y-6.885
M16
G05
G00X9.203Y-7.415
M15
G01X9.797Y-7.415
M16
G05
G00X9.765Y-7.045
M15
G01X9.765Y-7.255
M16
G05
G00X9.765Y-7.045
M15
G01X9.7975Y-7.045
M16
G05
G00X9.765Y-7.255
M15
G01X9.7975Y-7.255
M16
G05
G00X9.7975Y-6.885
M15
G01X9.7975Y-7.045
M16
G05
G00X9.7975Y-7.255
M15
G01X9.7975Y-7.415
M16
G05
T2
G00X9.425Y-7.625
M15
G01X9.575Y-7.625
M16
G05
G00X9.425Y-8.175
M15
G01X9.575Y-8.175
M16
G05
G00X10.175Y-6.875
M15
G01X10.325Y-6.875
M16
G05
G00X10.175Y-7.425
M15
G01X10.325Y-7.425
M16
G05
G00X10.175Y-7.625
M15
G01X10.325Y-7.625
M16
G05
G00X10.175Y-8.175
M15
G01X10.325Y-8.175
M16
G05
G00X9.425Y-6.875
M15
G01X9.575Y-6.875
M16
G05
G00X9.425Y-7.425
M15
G01X9.575Y-7.425
M16
G05
T0
M30
