%TF.GenerationSoftware,KiCad,Pcbnew,(5.1.6-0-10_14)*%
%TF.CreationDate,2021-11-12T16:00:31+01:00*%
%TF.ProjectId,Mech50-plate,4d656368-3530-42d7-906c-6174652e6b69,rev?*%
%TF.SameCoordinates,Original*%
%TF.FileFunction,Soldermask,Top*%
%TF.FilePolarity,Negative*%
%FSLAX46Y46*%
G04 Gerber Fmt 4.6, Leading zero omitted, Abs format (unit mm)*
G04 Created by KiCad (PCBNEW (5.1.6-0-10_14)) date 2021-11-12 16:00:31*
%MOMM*%
%LPD*%
G01*
G04 APERTURE LIST*
%ADD10O,1.333500X0.508000*%
%ADD11O,5.080000X1.270000*%
%ADD12O,0.508000X5.842000*%
%ADD13O,0.508000X4.572000*%
%ADD14O,15.595600X0.508000*%
G04 APERTURE END LIST*
D10*
%TO.C,S-A1*%
X267493750Y-203327000D03*
X253206250Y-203327000D03*
X267493750Y-197993000D03*
X253206250Y-197993000D03*
D11*
X260350000Y-207645000D03*
X260350000Y-193675000D03*
D12*
X253619000Y-200660000D03*
X267081000Y-200660000D03*
D13*
X252793500Y-205359000D03*
X267906500Y-205359000D03*
X267906500Y-195961000D03*
X252793500Y-195961000D03*
D14*
X260350000Y-207391000D03*
X260350000Y-193929000D03*
%TD*%
%TO.C,S-A1*%
X241300000Y-193929000D03*
X241300000Y-207391000D03*
D13*
X233743500Y-195961000D03*
X248856500Y-195961000D03*
X248856500Y-205359000D03*
X233743500Y-205359000D03*
D12*
X248031000Y-200660000D03*
X234569000Y-200660000D03*
D11*
X241300000Y-193675000D03*
X241300000Y-207645000D03*
D10*
X234156250Y-197993000D03*
X248443750Y-197993000D03*
X234156250Y-203327000D03*
X248443750Y-203327000D03*
%TD*%
D14*
%TO.C,S-A1*%
X260350000Y-174879000D03*
X260350000Y-188341000D03*
D13*
X252793500Y-176911000D03*
X267906500Y-176911000D03*
X267906500Y-186309000D03*
X252793500Y-186309000D03*
D12*
X267081000Y-181610000D03*
X253619000Y-181610000D03*
D11*
X260350000Y-174625000D03*
X260350000Y-188595000D03*
D10*
X253206250Y-178943000D03*
X267493750Y-178943000D03*
X253206250Y-184277000D03*
X267493750Y-184277000D03*
%TD*%
%TO.C,S-A1*%
X248443750Y-184277000D03*
X234156250Y-184277000D03*
X248443750Y-178943000D03*
X234156250Y-178943000D03*
D11*
X241300000Y-188595000D03*
X241300000Y-174625000D03*
D12*
X234569000Y-181610000D03*
X248031000Y-181610000D03*
D13*
X233743500Y-186309000D03*
X248856500Y-186309000D03*
X248856500Y-176911000D03*
X233743500Y-176911000D03*
D14*
X241300000Y-188341000D03*
X241300000Y-174879000D03*
%TD*%
M02*
