%TF.GenerationSoftware,KiCad,Pcbnew,(5.1.6-0-10_14)*%
%TF.CreationDate,2021-11-22T17:38:10+01:00*%
%TF.ProjectId,Mech50-keyboard,4d656368-3530-42d6-9b65-79626f617264,rev?*%
%TF.SameCoordinates,Original*%
%TF.FileFunction,Other,Comment*%
%FSLAX46Y46*%
G04 Gerber Fmt 4.6, Leading zero omitted, Abs format (unit mm)*
G04 Created by KiCad (PCBNEW (5.1.6-0-10_14)) date 2021-11-22 17:38:10*
%MOMM*%
%LPD*%
G01*
G04 APERTURE LIST*
%ADD10C,0.120000*%
%ADD11C,0.152400*%
%ADD12C,0.150000*%
G04 APERTURE END LIST*
D10*
%TO.C,RGB-61*%
X294564000Y-140078000D02*
X294564000Y-142878000D01*
X294564000Y-142878000D02*
X297764000Y-142878000D01*
X297764000Y-142878000D02*
X297764000Y-140078000D01*
X297764000Y-140078000D02*
X294564000Y-140078000D01*
%TO.C,RGB-60*%
X275768000Y-140078000D02*
X275768000Y-142878000D01*
X275768000Y-142878000D02*
X278968000Y-142878000D01*
X278968000Y-142878000D02*
X278968000Y-140078000D01*
X278968000Y-140078000D02*
X275768000Y-140078000D01*
%TO.C,RGB-59*%
X256718000Y-140078000D02*
X256718000Y-142878000D01*
X256718000Y-142878000D02*
X259918000Y-142878000D01*
X259918000Y-142878000D02*
X259918000Y-140078000D01*
X259918000Y-140078000D02*
X256718000Y-140078000D01*
%TO.C,RGB-58*%
X238176000Y-139824000D02*
X238176000Y-142624000D01*
X238176000Y-142624000D02*
X241376000Y-142624000D01*
X241376000Y-142624000D02*
X241376000Y-139824000D01*
X241376000Y-139824000D02*
X238176000Y-139824000D01*
%TO.C,RGB-57*%
X219380000Y-139824000D02*
X219380000Y-142624000D01*
X219380000Y-142624000D02*
X222580000Y-142624000D01*
X222580000Y-142624000D02*
X222580000Y-139824000D01*
X222580000Y-139824000D02*
X219380000Y-139824000D01*
%TO.C,RGB-56*%
X191186000Y-139570000D02*
X191186000Y-142370000D01*
X191186000Y-142370000D02*
X194386000Y-142370000D01*
X194386000Y-142370000D02*
X194386000Y-139570000D01*
X194386000Y-139570000D02*
X191186000Y-139570000D01*
%TO.C,RGB-55*%
X162738000Y-139570000D02*
X162738000Y-142370000D01*
X162738000Y-142370000D02*
X165938000Y-142370000D01*
X165938000Y-142370000D02*
X165938000Y-139570000D01*
X165938000Y-139570000D02*
X162738000Y-139570000D01*
%TO.C,RGB-54*%
X144196000Y-139570000D02*
X144196000Y-142370000D01*
X144196000Y-142370000D02*
X147396000Y-142370000D01*
X147396000Y-142370000D02*
X147396000Y-139570000D01*
X147396000Y-139570000D02*
X144196000Y-139570000D01*
%TO.C,RGB-53*%
X125400000Y-139570000D02*
X125400000Y-142370000D01*
X125400000Y-142370000D02*
X128600000Y-142370000D01*
X128600000Y-142370000D02*
X128600000Y-139570000D01*
X128600000Y-139570000D02*
X125400000Y-139570000D01*
%TO.C,RGB-52*%
X106604000Y-139570000D02*
X106604000Y-142370000D01*
X106604000Y-142370000D02*
X109804000Y-142370000D01*
X109804000Y-142370000D02*
X109804000Y-139570000D01*
X109804000Y-139570000D02*
X106604000Y-139570000D01*
%TO.C,RGB-51*%
X87808000Y-139570000D02*
X87808000Y-142370000D01*
X87808000Y-142370000D02*
X91008000Y-142370000D01*
X91008000Y-142370000D02*
X91008000Y-139570000D01*
X91008000Y-139570000D02*
X87808000Y-139570000D01*
%TO.C,RGB-50*%
X63678000Y-139570000D02*
X63678000Y-142370000D01*
X63678000Y-142370000D02*
X66878000Y-142370000D01*
X66878000Y-142370000D02*
X66878000Y-139570000D01*
X66878000Y-139570000D02*
X63678000Y-139570000D01*
%TO.C,RGB-49*%
X66878000Y-124082000D02*
X66878000Y-121282000D01*
X66878000Y-121282000D02*
X63678000Y-121282000D01*
X63678000Y-121282000D02*
X63678000Y-124082000D01*
X63678000Y-124082000D02*
X66878000Y-124082000D01*
%TO.C,RGB-48*%
X91262000Y-123828000D02*
X91262000Y-121028000D01*
X91262000Y-121028000D02*
X88062000Y-121028000D01*
X88062000Y-121028000D02*
X88062000Y-123828000D01*
X88062000Y-123828000D02*
X91262000Y-123828000D01*
%TO.C,RGB-47*%
X110058000Y-123828000D02*
X110058000Y-121028000D01*
X110058000Y-121028000D02*
X106858000Y-121028000D01*
X106858000Y-121028000D02*
X106858000Y-123828000D01*
X106858000Y-123828000D02*
X110058000Y-123828000D01*
%TO.C,RGB-46*%
X128600000Y-123828000D02*
X128600000Y-121028000D01*
X128600000Y-121028000D02*
X125400000Y-121028000D01*
X125400000Y-121028000D02*
X125400000Y-123828000D01*
X125400000Y-123828000D02*
X128600000Y-123828000D01*
%TO.C,RGB-45*%
X147396000Y-123574000D02*
X147396000Y-120774000D01*
X147396000Y-120774000D02*
X144196000Y-120774000D01*
X144196000Y-120774000D02*
X144196000Y-123574000D01*
X144196000Y-123574000D02*
X147396000Y-123574000D01*
%TO.C,RGB-44*%
X165938000Y-123574000D02*
X165938000Y-120774000D01*
X165938000Y-120774000D02*
X162738000Y-120774000D01*
X162738000Y-120774000D02*
X162738000Y-123574000D01*
X162738000Y-123574000D02*
X165938000Y-123574000D01*
%TO.C,RGB-43*%
X184734000Y-123574000D02*
X184734000Y-120774000D01*
X184734000Y-120774000D02*
X181534000Y-120774000D01*
X181534000Y-120774000D02*
X181534000Y-123574000D01*
X181534000Y-123574000D02*
X184734000Y-123574000D01*
%TO.C,RGB-42*%
X203530000Y-123574000D02*
X203530000Y-120774000D01*
X203530000Y-120774000D02*
X200330000Y-120774000D01*
X200330000Y-120774000D02*
X200330000Y-123574000D01*
X200330000Y-123574000D02*
X203530000Y-123574000D01*
%TO.C,RGB-41*%
X222326000Y-123828000D02*
X222326000Y-121028000D01*
X222326000Y-121028000D02*
X219126000Y-121028000D01*
X219126000Y-121028000D02*
X219126000Y-123828000D01*
X219126000Y-123828000D02*
X222326000Y-123828000D01*
%TO.C,RGB-40*%
X241376000Y-123828000D02*
X241376000Y-121028000D01*
X241376000Y-121028000D02*
X238176000Y-121028000D01*
X238176000Y-121028000D02*
X238176000Y-123828000D01*
X238176000Y-123828000D02*
X241376000Y-123828000D01*
%TO.C,RGB-39*%
X260172000Y-123828000D02*
X260172000Y-121028000D01*
X260172000Y-121028000D02*
X256972000Y-121028000D01*
X256972000Y-121028000D02*
X256972000Y-123828000D01*
X256972000Y-123828000D02*
X260172000Y-123828000D01*
%TO.C,RGB-38*%
X278968000Y-123828000D02*
X278968000Y-121028000D01*
X278968000Y-121028000D02*
X275768000Y-121028000D01*
X275768000Y-121028000D02*
X275768000Y-123828000D01*
X275768000Y-123828000D02*
X278968000Y-123828000D01*
%TO.C,RGB-37*%
X297510000Y-123828000D02*
X297510000Y-121028000D01*
X297510000Y-121028000D02*
X294310000Y-121028000D01*
X294310000Y-121028000D02*
X294310000Y-123828000D01*
X294310000Y-123828000D02*
X297510000Y-123828000D01*
%TO.C,RGB-36*%
X294564000Y-101978000D02*
X294564000Y-104778000D01*
X294564000Y-104778000D02*
X297764000Y-104778000D01*
X297764000Y-104778000D02*
X297764000Y-101978000D01*
X297764000Y-101978000D02*
X294564000Y-101978000D01*
%TO.C,RGB-35*%
X275768000Y-101978000D02*
X275768000Y-104778000D01*
X275768000Y-104778000D02*
X278968000Y-104778000D01*
X278968000Y-104778000D02*
X278968000Y-101978000D01*
X278968000Y-101978000D02*
X275768000Y-101978000D01*
%TO.C,RGB-34*%
X256972000Y-101978000D02*
X256972000Y-104778000D01*
X256972000Y-104778000D02*
X260172000Y-104778000D01*
X260172000Y-104778000D02*
X260172000Y-101978000D01*
X260172000Y-101978000D02*
X256972000Y-101978000D01*
%TO.C,RGB-33*%
X238176000Y-101978000D02*
X238176000Y-104778000D01*
X238176000Y-104778000D02*
X241376000Y-104778000D01*
X241376000Y-104778000D02*
X241376000Y-101978000D01*
X241376000Y-101978000D02*
X238176000Y-101978000D01*
%TO.C,RGB-32*%
X219380000Y-101978000D02*
X219380000Y-104778000D01*
X219380000Y-104778000D02*
X222580000Y-104778000D01*
X222580000Y-104778000D02*
X222580000Y-101978000D01*
X222580000Y-101978000D02*
X219380000Y-101978000D01*
%TO.C,RGB-31*%
X200584000Y-101978000D02*
X200584000Y-104778000D01*
X200584000Y-104778000D02*
X203784000Y-104778000D01*
X203784000Y-104778000D02*
X203784000Y-101978000D01*
X203784000Y-101978000D02*
X200584000Y-101978000D01*
%TO.C,RGB-30*%
X181788000Y-101978000D02*
X181788000Y-104778000D01*
X181788000Y-104778000D02*
X184988000Y-104778000D01*
X184988000Y-104778000D02*
X184988000Y-101978000D01*
X184988000Y-101978000D02*
X181788000Y-101978000D01*
%TO.C,RGB-29*%
X163246000Y-101978000D02*
X163246000Y-104778000D01*
X163246000Y-104778000D02*
X166446000Y-104778000D01*
X166446000Y-104778000D02*
X166446000Y-101978000D01*
X166446000Y-101978000D02*
X163246000Y-101978000D01*
%TO.C,RGB-28*%
X144196000Y-101978000D02*
X144196000Y-104778000D01*
X144196000Y-104778000D02*
X147396000Y-104778000D01*
X147396000Y-104778000D02*
X147396000Y-101978000D01*
X147396000Y-101978000D02*
X144196000Y-101978000D01*
%TO.C,RGB-27*%
X125400000Y-101978000D02*
X125400000Y-104778000D01*
X125400000Y-104778000D02*
X128600000Y-104778000D01*
X128600000Y-104778000D02*
X128600000Y-101978000D01*
X128600000Y-101978000D02*
X125400000Y-101978000D01*
%TO.C,RGB-26*%
X106604000Y-101978000D02*
X106604000Y-104778000D01*
X106604000Y-104778000D02*
X109804000Y-104778000D01*
X109804000Y-104778000D02*
X109804000Y-101978000D01*
X109804000Y-101978000D02*
X106604000Y-101978000D01*
%TO.C,RGB-25*%
X87808000Y-101978000D02*
X87808000Y-104778000D01*
X87808000Y-104778000D02*
X91008000Y-104778000D01*
X91008000Y-104778000D02*
X91008000Y-101978000D01*
X91008000Y-101978000D02*
X87808000Y-101978000D01*
%TO.C,RGB-24*%
X63678000Y-101978000D02*
X63678000Y-104778000D01*
X63678000Y-104778000D02*
X66878000Y-104778000D01*
X66878000Y-104778000D02*
X66878000Y-101978000D01*
X66878000Y-101978000D02*
X63678000Y-101978000D01*
%TO.C,RGB-23*%
X91008000Y-86236000D02*
X91008000Y-83436000D01*
X91008000Y-83436000D02*
X87808000Y-83436000D01*
X87808000Y-83436000D02*
X87808000Y-86236000D01*
X87808000Y-86236000D02*
X91008000Y-86236000D01*
%TO.C,RGB-22*%
X109804000Y-86236000D02*
X109804000Y-83436000D01*
X109804000Y-83436000D02*
X106604000Y-83436000D01*
X106604000Y-83436000D02*
X106604000Y-86236000D01*
X106604000Y-86236000D02*
X109804000Y-86236000D01*
%TO.C,RGB-21*%
X128600000Y-86236000D02*
X128600000Y-83436000D01*
X128600000Y-83436000D02*
X125400000Y-83436000D01*
X125400000Y-83436000D02*
X125400000Y-86236000D01*
X125400000Y-86236000D02*
X128600000Y-86236000D01*
%TO.C,RGB-20*%
X147396000Y-86236000D02*
X147396000Y-83436000D01*
X147396000Y-83436000D02*
X144196000Y-83436000D01*
X144196000Y-83436000D02*
X144196000Y-86236000D01*
X144196000Y-86236000D02*
X147396000Y-86236000D01*
%TO.C,RGB-19*%
X166192000Y-86236000D02*
X166192000Y-83436000D01*
X166192000Y-83436000D02*
X162992000Y-83436000D01*
X162992000Y-83436000D02*
X162992000Y-86236000D01*
X162992000Y-86236000D02*
X166192000Y-86236000D01*
%TO.C,RGB-18*%
X185242000Y-86236000D02*
X185242000Y-83436000D01*
X185242000Y-83436000D02*
X182042000Y-83436000D01*
X182042000Y-83436000D02*
X182042000Y-86236000D01*
X182042000Y-86236000D02*
X185242000Y-86236000D01*
%TO.C,RGB-17*%
X203784000Y-86236000D02*
X203784000Y-83436000D01*
X203784000Y-83436000D02*
X200584000Y-83436000D01*
X200584000Y-83436000D02*
X200584000Y-86236000D01*
X200584000Y-86236000D02*
X203784000Y-86236000D01*
%TO.C,RGB-16*%
X222580000Y-86236000D02*
X222580000Y-83436000D01*
X222580000Y-83436000D02*
X219380000Y-83436000D01*
X219380000Y-83436000D02*
X219380000Y-86236000D01*
X219380000Y-86236000D02*
X222580000Y-86236000D01*
%TO.C,RGB-15*%
X241376000Y-86236000D02*
X241376000Y-83436000D01*
X241376000Y-83436000D02*
X238176000Y-83436000D01*
X238176000Y-83436000D02*
X238176000Y-86236000D01*
X238176000Y-86236000D02*
X241376000Y-86236000D01*
%TO.C,RGB-14*%
X260172000Y-86236000D02*
X260172000Y-83436000D01*
X260172000Y-83436000D02*
X256972000Y-83436000D01*
X256972000Y-83436000D02*
X256972000Y-86236000D01*
X256972000Y-86236000D02*
X260172000Y-86236000D01*
%TO.C,RGB-13*%
X278968000Y-86236000D02*
X278968000Y-83436000D01*
X278968000Y-83436000D02*
X275768000Y-83436000D01*
X275768000Y-83436000D02*
X275768000Y-86236000D01*
X275768000Y-86236000D02*
X278968000Y-86236000D01*
%TO.C,RGB-12*%
X297764000Y-86490000D02*
X297764000Y-83690000D01*
X297764000Y-83690000D02*
X294564000Y-83690000D01*
X294564000Y-83690000D02*
X294564000Y-86490000D01*
X294564000Y-86490000D02*
X297764000Y-86490000D01*
D11*
%TO.C,S-E12*%
X289814000Y-130048000D02*
X302514000Y-130048000D01*
X302514000Y-130048000D02*
X302514000Y-142748000D01*
X302514000Y-142748000D02*
X289814000Y-142748000D01*
X289814000Y-142748000D02*
X289814000Y-130048000D01*
%TO.C,S-E6*%
X186436000Y-130048000D02*
X199136000Y-130048000D01*
X199136000Y-130048000D02*
X199136000Y-142748000D01*
X199136000Y-142748000D02*
X186436000Y-142748000D01*
X186436000Y-142748000D02*
X186436000Y-130048000D01*
X208153000Y-128778000D02*
X201295000Y-128778000D01*
X201295000Y-128778000D02*
X201295000Y-144018000D01*
X201295000Y-144018000D02*
X184277000Y-144018000D01*
X184277000Y-144018000D02*
X184277000Y-128778000D01*
X184277000Y-128778000D02*
X177419000Y-128778000D01*
X177419000Y-128778000D02*
X177419000Y-146558000D01*
X177419000Y-146558000D02*
X208153000Y-146558000D01*
X208153000Y-146558000D02*
X208153000Y-128778000D01*
%TO.C,S-A0*%
X83058000Y-54864000D02*
X95758000Y-54864000D01*
X95758000Y-54864000D02*
X95758000Y-67564000D01*
X95758000Y-67564000D02*
X83058000Y-67564000D01*
X83058000Y-67564000D02*
X83058000Y-54864000D01*
%TO.C,S-A1*%
X101854000Y-54864000D02*
X114554000Y-54864000D01*
X114554000Y-54864000D02*
X114554000Y-67564000D01*
X114554000Y-67564000D02*
X101854000Y-67564000D01*
X101854000Y-67564000D02*
X101854000Y-54864000D01*
%TO.C,S-A2*%
X120650000Y-54864000D02*
X133350000Y-54864000D01*
X133350000Y-54864000D02*
X133350000Y-67564000D01*
X133350000Y-67564000D02*
X120650000Y-67564000D01*
X120650000Y-67564000D02*
X120650000Y-54864000D01*
%TO.C,S-A3*%
X139446000Y-54864000D02*
X152146000Y-54864000D01*
X152146000Y-54864000D02*
X152146000Y-67564000D01*
X152146000Y-67564000D02*
X139446000Y-67564000D01*
X139446000Y-67564000D02*
X139446000Y-54864000D01*
%TO.C,S-A4*%
X158242000Y-54864000D02*
X170942000Y-54864000D01*
X170942000Y-54864000D02*
X170942000Y-67564000D01*
X170942000Y-67564000D02*
X158242000Y-67564000D01*
X158242000Y-67564000D02*
X158242000Y-54864000D01*
%TO.C,S-A5*%
X177038000Y-54864000D02*
X189738000Y-54864000D01*
X189738000Y-54864000D02*
X189738000Y-67564000D01*
X189738000Y-67564000D02*
X177038000Y-67564000D01*
X177038000Y-67564000D02*
X177038000Y-54864000D01*
%TO.C,S-A6*%
X195834000Y-54864000D02*
X208534000Y-54864000D01*
X208534000Y-54864000D02*
X208534000Y-67564000D01*
X208534000Y-67564000D02*
X195834000Y-67564000D01*
X195834000Y-67564000D02*
X195834000Y-54864000D01*
%TO.C,S-A7*%
X214630000Y-54864000D02*
X227330000Y-54864000D01*
X227330000Y-54864000D02*
X227330000Y-67564000D01*
X227330000Y-67564000D02*
X214630000Y-67564000D01*
X214630000Y-67564000D02*
X214630000Y-54864000D01*
%TO.C,S-A8*%
X233426000Y-54864000D02*
X246126000Y-54864000D01*
X246126000Y-54864000D02*
X246126000Y-67564000D01*
X246126000Y-67564000D02*
X233426000Y-67564000D01*
X233426000Y-67564000D02*
X233426000Y-54864000D01*
%TO.C,S-A9*%
X252222000Y-54864000D02*
X264922000Y-54864000D01*
X264922000Y-54864000D02*
X264922000Y-67564000D01*
X264922000Y-67564000D02*
X252222000Y-67564000D01*
X252222000Y-67564000D02*
X252222000Y-54864000D01*
%TO.C,S-A10*%
X271018000Y-54864000D02*
X283718000Y-54864000D01*
X283718000Y-54864000D02*
X283718000Y-67564000D01*
X283718000Y-67564000D02*
X271018000Y-67564000D01*
X271018000Y-67564000D02*
X271018000Y-54864000D01*
%TO.C,S-A11*%
X289814000Y-54864000D02*
X302514000Y-54864000D01*
X302514000Y-54864000D02*
X302514000Y-67564000D01*
X302514000Y-67564000D02*
X289814000Y-67564000D01*
X289814000Y-67564000D02*
X289814000Y-54864000D01*
%TO.C,S-B0*%
X83058000Y-73660000D02*
X95758000Y-73660000D01*
X95758000Y-73660000D02*
X95758000Y-86360000D01*
X95758000Y-86360000D02*
X83058000Y-86360000D01*
X83058000Y-86360000D02*
X83058000Y-73660000D01*
%TO.C,S-B1*%
X101854000Y-73660000D02*
X114554000Y-73660000D01*
X114554000Y-73660000D02*
X114554000Y-86360000D01*
X114554000Y-86360000D02*
X101854000Y-86360000D01*
X101854000Y-86360000D02*
X101854000Y-73660000D01*
%TO.C,S-B2*%
X120650000Y-73660000D02*
X133350000Y-73660000D01*
X133350000Y-73660000D02*
X133350000Y-86360000D01*
X133350000Y-86360000D02*
X120650000Y-86360000D01*
X120650000Y-86360000D02*
X120650000Y-73660000D01*
%TO.C,S-B3*%
X139446000Y-73660000D02*
X152146000Y-73660000D01*
X152146000Y-73660000D02*
X152146000Y-86360000D01*
X152146000Y-86360000D02*
X139446000Y-86360000D01*
X139446000Y-86360000D02*
X139446000Y-73660000D01*
%TO.C,S-B4*%
X158242000Y-73660000D02*
X170942000Y-73660000D01*
X170942000Y-73660000D02*
X170942000Y-86360000D01*
X170942000Y-86360000D02*
X158242000Y-86360000D01*
X158242000Y-86360000D02*
X158242000Y-73660000D01*
%TO.C,S-B5*%
X177038000Y-73660000D02*
X189738000Y-73660000D01*
X189738000Y-73660000D02*
X189738000Y-86360000D01*
X189738000Y-86360000D02*
X177038000Y-86360000D01*
X177038000Y-86360000D02*
X177038000Y-73660000D01*
%TO.C,S-B6*%
X195834000Y-73660000D02*
X208534000Y-73660000D01*
X208534000Y-73660000D02*
X208534000Y-86360000D01*
X208534000Y-86360000D02*
X195834000Y-86360000D01*
X195834000Y-86360000D02*
X195834000Y-73660000D01*
%TO.C,S-B7*%
X214630000Y-73660000D02*
X227330000Y-73660000D01*
X227330000Y-73660000D02*
X227330000Y-86360000D01*
X227330000Y-86360000D02*
X214630000Y-86360000D01*
X214630000Y-86360000D02*
X214630000Y-73660000D01*
%TO.C,S-B8*%
X233426000Y-73660000D02*
X246126000Y-73660000D01*
X246126000Y-73660000D02*
X246126000Y-86360000D01*
X246126000Y-86360000D02*
X233426000Y-86360000D01*
X233426000Y-86360000D02*
X233426000Y-73660000D01*
%TO.C,S-B9*%
X252222000Y-73660000D02*
X264922000Y-73660000D01*
X264922000Y-73660000D02*
X264922000Y-86360000D01*
X264922000Y-86360000D02*
X252222000Y-86360000D01*
X252222000Y-86360000D02*
X252222000Y-73660000D01*
%TO.C,S-B10*%
X271018000Y-73660000D02*
X283718000Y-73660000D01*
X283718000Y-73660000D02*
X283718000Y-86360000D01*
X283718000Y-86360000D02*
X271018000Y-86360000D01*
X271018000Y-86360000D02*
X271018000Y-73660000D01*
%TO.C,S-B11*%
X289814000Y-73660000D02*
X302514000Y-73660000D01*
X302514000Y-73660000D02*
X302514000Y-86360000D01*
X302514000Y-86360000D02*
X289814000Y-86360000D01*
X289814000Y-86360000D02*
X289814000Y-73660000D01*
%TO.C,S-C0*%
X58928000Y-92456000D02*
X71628000Y-92456000D01*
X71628000Y-92456000D02*
X71628000Y-105156000D01*
X71628000Y-105156000D02*
X58928000Y-105156000D01*
X58928000Y-105156000D02*
X58928000Y-92456000D01*
%TO.C,S-C1*%
X83058000Y-92456000D02*
X95758000Y-92456000D01*
X95758000Y-92456000D02*
X95758000Y-105156000D01*
X95758000Y-105156000D02*
X83058000Y-105156000D01*
X83058000Y-105156000D02*
X83058000Y-92456000D01*
%TO.C,S-C2*%
X101854000Y-92456000D02*
X114554000Y-92456000D01*
X114554000Y-92456000D02*
X114554000Y-105156000D01*
X114554000Y-105156000D02*
X101854000Y-105156000D01*
X101854000Y-105156000D02*
X101854000Y-92456000D01*
%TO.C,S-C3*%
X120650000Y-92456000D02*
X133350000Y-92456000D01*
X133350000Y-92456000D02*
X133350000Y-105156000D01*
X133350000Y-105156000D02*
X120650000Y-105156000D01*
X120650000Y-105156000D02*
X120650000Y-92456000D01*
%TO.C,S-C4*%
X139446000Y-92456000D02*
X152146000Y-92456000D01*
X152146000Y-92456000D02*
X152146000Y-105156000D01*
X152146000Y-105156000D02*
X139446000Y-105156000D01*
X139446000Y-105156000D02*
X139446000Y-92456000D01*
%TO.C,S-C5*%
X158242000Y-92456000D02*
X170942000Y-92456000D01*
X170942000Y-92456000D02*
X170942000Y-105156000D01*
X170942000Y-105156000D02*
X158242000Y-105156000D01*
X158242000Y-105156000D02*
X158242000Y-92456000D01*
%TO.C,S-C6*%
X177038000Y-92456000D02*
X189738000Y-92456000D01*
X189738000Y-92456000D02*
X189738000Y-105156000D01*
X189738000Y-105156000D02*
X177038000Y-105156000D01*
X177038000Y-105156000D02*
X177038000Y-92456000D01*
%TO.C,S-C7*%
X195834000Y-92456000D02*
X208534000Y-92456000D01*
X208534000Y-92456000D02*
X208534000Y-105156000D01*
X208534000Y-105156000D02*
X195834000Y-105156000D01*
X195834000Y-105156000D02*
X195834000Y-92456000D01*
%TO.C,S-C8*%
X214630000Y-92456000D02*
X227330000Y-92456000D01*
X227330000Y-92456000D02*
X227330000Y-105156000D01*
X227330000Y-105156000D02*
X214630000Y-105156000D01*
X214630000Y-105156000D02*
X214630000Y-92456000D01*
%TO.C,S-C9*%
X233426000Y-92456000D02*
X246126000Y-92456000D01*
X246126000Y-92456000D02*
X246126000Y-105156000D01*
X246126000Y-105156000D02*
X233426000Y-105156000D01*
X233426000Y-105156000D02*
X233426000Y-92456000D01*
%TO.C,S-C10*%
X252222000Y-92456000D02*
X264922000Y-92456000D01*
X264922000Y-92456000D02*
X264922000Y-105156000D01*
X264922000Y-105156000D02*
X252222000Y-105156000D01*
X252222000Y-105156000D02*
X252222000Y-92456000D01*
%TO.C,S-C11*%
X271018000Y-92456000D02*
X283718000Y-92456000D01*
X283718000Y-92456000D02*
X283718000Y-105156000D01*
X283718000Y-105156000D02*
X271018000Y-105156000D01*
X271018000Y-105156000D02*
X271018000Y-92456000D01*
%TO.C,S-C12*%
X289814000Y-92456000D02*
X302514000Y-92456000D01*
X302514000Y-92456000D02*
X302514000Y-105156000D01*
X302514000Y-105156000D02*
X289814000Y-105156000D01*
X289814000Y-105156000D02*
X289814000Y-92456000D01*
%TO.C,S-D0*%
X58928000Y-111252000D02*
X71628000Y-111252000D01*
X71628000Y-111252000D02*
X71628000Y-123952000D01*
X71628000Y-123952000D02*
X58928000Y-123952000D01*
X58928000Y-123952000D02*
X58928000Y-111252000D01*
%TO.C,S-D1*%
X83058000Y-111252000D02*
X95758000Y-111252000D01*
X95758000Y-111252000D02*
X95758000Y-123952000D01*
X95758000Y-123952000D02*
X83058000Y-123952000D01*
X83058000Y-123952000D02*
X83058000Y-111252000D01*
%TO.C,S-D2*%
X101854000Y-111252000D02*
X114554000Y-111252000D01*
X114554000Y-111252000D02*
X114554000Y-123952000D01*
X114554000Y-123952000D02*
X101854000Y-123952000D01*
X101854000Y-123952000D02*
X101854000Y-111252000D01*
%TO.C,S-D3*%
X120650000Y-111252000D02*
X133350000Y-111252000D01*
X133350000Y-111252000D02*
X133350000Y-123952000D01*
X133350000Y-123952000D02*
X120650000Y-123952000D01*
X120650000Y-123952000D02*
X120650000Y-111252000D01*
%TO.C,S-D4*%
X139446000Y-111252000D02*
X152146000Y-111252000D01*
X152146000Y-111252000D02*
X152146000Y-123952000D01*
X152146000Y-123952000D02*
X139446000Y-123952000D01*
X139446000Y-123952000D02*
X139446000Y-111252000D01*
%TO.C,S-D5*%
X158242000Y-111252000D02*
X170942000Y-111252000D01*
X170942000Y-111252000D02*
X170942000Y-123952000D01*
X170942000Y-123952000D02*
X158242000Y-123952000D01*
X158242000Y-123952000D02*
X158242000Y-111252000D01*
%TO.C,S-D6*%
X177038000Y-111252000D02*
X189738000Y-111252000D01*
X189738000Y-111252000D02*
X189738000Y-123952000D01*
X189738000Y-123952000D02*
X177038000Y-123952000D01*
X177038000Y-123952000D02*
X177038000Y-111252000D01*
%TO.C,S-D7*%
X195834000Y-111252000D02*
X208534000Y-111252000D01*
X208534000Y-111252000D02*
X208534000Y-123952000D01*
X208534000Y-123952000D02*
X195834000Y-123952000D01*
X195834000Y-123952000D02*
X195834000Y-111252000D01*
%TO.C,S-D8*%
X214630000Y-111252000D02*
X227330000Y-111252000D01*
X227330000Y-111252000D02*
X227330000Y-123952000D01*
X227330000Y-123952000D02*
X214630000Y-123952000D01*
X214630000Y-123952000D02*
X214630000Y-111252000D01*
%TO.C,S-D9*%
X233426000Y-111252000D02*
X246126000Y-111252000D01*
X246126000Y-111252000D02*
X246126000Y-123952000D01*
X246126000Y-123952000D02*
X233426000Y-123952000D01*
X233426000Y-123952000D02*
X233426000Y-111252000D01*
%TO.C,S-D10*%
X252222000Y-111252000D02*
X264922000Y-111252000D01*
X264922000Y-111252000D02*
X264922000Y-123952000D01*
X264922000Y-123952000D02*
X252222000Y-123952000D01*
X252222000Y-123952000D02*
X252222000Y-111252000D01*
%TO.C,S-D11*%
X271018000Y-111252000D02*
X283718000Y-111252000D01*
X283718000Y-111252000D02*
X283718000Y-123952000D01*
X283718000Y-123952000D02*
X271018000Y-123952000D01*
X271018000Y-123952000D02*
X271018000Y-111252000D01*
%TO.C,S-D12*%
X289814000Y-111252000D02*
X302514000Y-111252000D01*
X302514000Y-111252000D02*
X302514000Y-123952000D01*
X302514000Y-123952000D02*
X289814000Y-123952000D01*
X289814000Y-123952000D02*
X289814000Y-111252000D01*
%TO.C,S-E0*%
X58928000Y-130048000D02*
X71628000Y-130048000D01*
X71628000Y-130048000D02*
X71628000Y-142748000D01*
X71628000Y-142748000D02*
X58928000Y-142748000D01*
X58928000Y-142748000D02*
X58928000Y-130048000D01*
%TO.C,S-E1*%
X83058000Y-130048000D02*
X95758000Y-130048000D01*
X95758000Y-130048000D02*
X95758000Y-142748000D01*
X95758000Y-142748000D02*
X83058000Y-142748000D01*
X83058000Y-142748000D02*
X83058000Y-130048000D01*
%TO.C,S-E2*%
X101854000Y-130048000D02*
X114554000Y-130048000D01*
X114554000Y-130048000D02*
X114554000Y-142748000D01*
X114554000Y-142748000D02*
X101854000Y-142748000D01*
X101854000Y-142748000D02*
X101854000Y-130048000D01*
%TO.C,S-E3*%
X120650000Y-130048000D02*
X133350000Y-130048000D01*
X133350000Y-130048000D02*
X133350000Y-142748000D01*
X133350000Y-142748000D02*
X120650000Y-142748000D01*
X120650000Y-142748000D02*
X120650000Y-130048000D01*
%TO.C,S-E4*%
X139446000Y-130048000D02*
X152146000Y-130048000D01*
X152146000Y-130048000D02*
X152146000Y-142748000D01*
X152146000Y-142748000D02*
X139446000Y-142748000D01*
X139446000Y-142748000D02*
X139446000Y-130048000D01*
%TO.C,S-E5*%
X158242000Y-130048000D02*
X170942000Y-130048000D01*
X170942000Y-130048000D02*
X170942000Y-142748000D01*
X170942000Y-142748000D02*
X158242000Y-142748000D01*
X158242000Y-142748000D02*
X158242000Y-130048000D01*
%TO.C,S-E8*%
X214630000Y-130048000D02*
X227330000Y-130048000D01*
X227330000Y-130048000D02*
X227330000Y-142748000D01*
X227330000Y-142748000D02*
X214630000Y-142748000D01*
X214630000Y-142748000D02*
X214630000Y-130048000D01*
%TO.C,S-E9*%
X233426000Y-130048000D02*
X246126000Y-130048000D01*
X246126000Y-130048000D02*
X246126000Y-142748000D01*
X246126000Y-142748000D02*
X233426000Y-142748000D01*
X233426000Y-142748000D02*
X233426000Y-130048000D01*
%TO.C,S-E10*%
X252222000Y-130048000D02*
X264922000Y-130048000D01*
X264922000Y-130048000D02*
X264922000Y-142748000D01*
X264922000Y-142748000D02*
X252222000Y-142748000D01*
X252222000Y-142748000D02*
X252222000Y-130048000D01*
%TO.C,S-E11*%
X271018000Y-130048000D02*
X283718000Y-130048000D01*
X283718000Y-130048000D02*
X283718000Y-142748000D01*
X283718000Y-142748000D02*
X271018000Y-142748000D01*
X271018000Y-142748000D02*
X271018000Y-130048000D01*
D10*
%TO.C,RGB-0*%
X87808000Y-64640000D02*
X87808000Y-67440000D01*
X87808000Y-67440000D02*
X91008000Y-67440000D01*
X91008000Y-67440000D02*
X91008000Y-64640000D01*
X91008000Y-64640000D02*
X87808000Y-64640000D01*
%TO.C,RGB-11*%
X294564000Y-64894000D02*
X294564000Y-67694000D01*
X294564000Y-67694000D02*
X297764000Y-67694000D01*
X297764000Y-67694000D02*
X297764000Y-64894000D01*
X297764000Y-64894000D02*
X294564000Y-64894000D01*
%TO.C,RGB-2*%
X125400000Y-64640000D02*
X125400000Y-67440000D01*
X125400000Y-67440000D02*
X128600000Y-67440000D01*
X128600000Y-67440000D02*
X128600000Y-64640000D01*
X128600000Y-64640000D02*
X125400000Y-64640000D01*
%TO.C,RGB-10*%
X275768000Y-64894000D02*
X275768000Y-67694000D01*
X275768000Y-67694000D02*
X278968000Y-67694000D01*
X278968000Y-67694000D02*
X278968000Y-64894000D01*
X278968000Y-64894000D02*
X275768000Y-64894000D01*
%TO.C,RGB-9*%
X256972000Y-64894000D02*
X256972000Y-67694000D01*
X256972000Y-67694000D02*
X260172000Y-67694000D01*
X260172000Y-67694000D02*
X260172000Y-64894000D01*
X260172000Y-64894000D02*
X256972000Y-64894000D01*
%TO.C,RGB-8*%
X238430000Y-64894000D02*
X238430000Y-67694000D01*
X238430000Y-67694000D02*
X241630000Y-67694000D01*
X241630000Y-67694000D02*
X241630000Y-64894000D01*
X241630000Y-64894000D02*
X238430000Y-64894000D01*
%TO.C,RGB-7*%
X219634000Y-64894000D02*
X219634000Y-67694000D01*
X219634000Y-67694000D02*
X222834000Y-67694000D01*
X222834000Y-67694000D02*
X222834000Y-64894000D01*
X222834000Y-64894000D02*
X219634000Y-64894000D01*
%TO.C,RGB-6*%
X200584000Y-64640000D02*
X200584000Y-67440000D01*
X200584000Y-67440000D02*
X203784000Y-67440000D01*
X203784000Y-67440000D02*
X203784000Y-64640000D01*
X203784000Y-64640000D02*
X200584000Y-64640000D01*
%TO.C,RGB-5*%
X181788000Y-64640000D02*
X181788000Y-67440000D01*
X181788000Y-67440000D02*
X184988000Y-67440000D01*
X184988000Y-67440000D02*
X184988000Y-64640000D01*
X184988000Y-64640000D02*
X181788000Y-64640000D01*
%TO.C,RGB-4*%
X163246000Y-64640000D02*
X163246000Y-67440000D01*
X163246000Y-67440000D02*
X166446000Y-67440000D01*
X166446000Y-67440000D02*
X166446000Y-64640000D01*
X166446000Y-64640000D02*
X163246000Y-64640000D01*
%TO.C,RGB-3*%
X144196000Y-64640000D02*
X144196000Y-67440000D01*
X144196000Y-67440000D02*
X147396000Y-67440000D01*
X147396000Y-67440000D02*
X147396000Y-64640000D01*
X147396000Y-64640000D02*
X144196000Y-64640000D01*
%TO.C,RGB-1*%
X106604000Y-64640000D02*
X106604000Y-67440000D01*
X106604000Y-67440000D02*
X109804000Y-67440000D01*
X109804000Y-67440000D02*
X109804000Y-64640000D01*
X109804000Y-64640000D02*
X106604000Y-64640000D01*
D12*
%TO.C,H10*%
X102260000Y-126492000D02*
G75*
G03*
X102260000Y-126492000I-3200000J0D01*
G01*
%TO.C,H5*%
X289966000Y-70612000D02*
G75*
G03*
X289966000Y-70612000I-3200000J0D01*
G01*
%TO.C,H4*%
X214782000Y-127000000D02*
G75*
G03*
X214782000Y-127000000I-3200000J0D01*
G01*
%TO.C,H3*%
X214782000Y-70612000D02*
G75*
G03*
X214782000Y-70612000I-3200000J0D01*
G01*
%TO.C,H2*%
X102006000Y-70612000D02*
G75*
G03*
X102006000Y-70612000I-3200000J0D01*
G01*
%TO.C,H1*%
X158394000Y-70358000D02*
G75*
G03*
X158394000Y-70358000I-3200000J0D01*
G01*
%TO.C,H13*%
X80162000Y-127000000D02*
G75*
G03*
X80162000Y-127000000I-3200000J0D01*
G01*
%TO.C,H12*%
X289712000Y-127000000D02*
G75*
G03*
X289712000Y-127000000I-3200000J0D01*
G01*
%TO.C,H11*%
X158648000Y-127000000D02*
G75*
G03*
X158648000Y-127000000I-3200000J0D01*
G01*
%TD*%
M02*
