%TF.GenerationSoftware,KiCad,Pcbnew,(5.1.6-0-10_14)*%
%TF.CreationDate,2021-04-03T15:29:21+02:00*%
%TF.ProjectId,Mech50-keyboard,4d656368-3530-42d6-9b65-79626f617264,rev?*%
%TF.SameCoordinates,Original*%
%TF.FileFunction,Profile,NP*%
%FSLAX46Y46*%
G04 Gerber Fmt 4.6, Leading zero omitted, Abs format (unit mm)*
G04 Created by KiCad (PCBNEW (5.1.6-0-10_14)) date 2021-04-03 15:29:21*
%MOMM*%
%LPD*%
G01*
G04 APERTURE LIST*
%TA.AperFunction,Profile*%
%ADD10C,0.100000*%
%TD*%
%TA.AperFunction,Profile*%
%ADD11C,0.120000*%
%TD*%
G04 APERTURE END LIST*
D10*
X306070000Y-145034000D02*
G75*
G02*
X303784000Y-147320000I-2286000J0D01*
G01*
X303784000Y-51308000D02*
G75*
G02*
X306070000Y-53594000I0J-2286000D01*
G01*
X52324000Y-147320000D02*
G75*
G02*
X50038000Y-145034000I0J2286000D01*
G01*
X50038000Y-53594000D02*
G75*
G02*
X52324000Y-51308000I2286000J0D01*
G01*
X50038000Y-145034000D02*
X50038000Y-53594000D01*
X303784000Y-147320000D02*
X52324000Y-147320000D01*
X306070000Y-53594000D02*
X306070000Y-145034000D01*
X52324000Y-51308000D02*
X303784000Y-51308000D01*
D11*
%TO.C,RGB-61*%
X294464000Y-139978000D02*
X294464000Y-142978000D01*
X294464000Y-142978000D02*
X297864000Y-142978000D01*
X297864000Y-142978000D02*
X297864000Y-139978000D01*
X297864000Y-139978000D02*
X294464000Y-139978000D01*
%TO.C,RGB-60*%
X275668000Y-139978000D02*
X275668000Y-142978000D01*
X275668000Y-142978000D02*
X279068000Y-142978000D01*
X279068000Y-142978000D02*
X279068000Y-139978000D01*
X279068000Y-139978000D02*
X275668000Y-139978000D01*
%TO.C,RGB-59*%
X256618000Y-139978000D02*
X256618000Y-142978000D01*
X256618000Y-142978000D02*
X260018000Y-142978000D01*
X260018000Y-142978000D02*
X260018000Y-139978000D01*
X260018000Y-139978000D02*
X256618000Y-139978000D01*
%TO.C,RGB-58*%
X238076000Y-139724000D02*
X238076000Y-142724000D01*
X238076000Y-142724000D02*
X241476000Y-142724000D01*
X241476000Y-142724000D02*
X241476000Y-139724000D01*
X241476000Y-139724000D02*
X238076000Y-139724000D01*
%TO.C,RGB-57*%
X219280000Y-139724000D02*
X219280000Y-142724000D01*
X219280000Y-142724000D02*
X222680000Y-142724000D01*
X222680000Y-142724000D02*
X222680000Y-139724000D01*
X222680000Y-139724000D02*
X219280000Y-139724000D01*
%TO.C,RGB-56*%
X191086000Y-139470000D02*
X191086000Y-142470000D01*
X191086000Y-142470000D02*
X194486000Y-142470000D01*
X194486000Y-142470000D02*
X194486000Y-139470000D01*
X194486000Y-139470000D02*
X191086000Y-139470000D01*
%TO.C,RGB-55*%
X162638000Y-139470000D02*
X162638000Y-142470000D01*
X162638000Y-142470000D02*
X166038000Y-142470000D01*
X166038000Y-142470000D02*
X166038000Y-139470000D01*
X166038000Y-139470000D02*
X162638000Y-139470000D01*
%TO.C,RGB-54*%
X144096000Y-139470000D02*
X144096000Y-142470000D01*
X144096000Y-142470000D02*
X147496000Y-142470000D01*
X147496000Y-142470000D02*
X147496000Y-139470000D01*
X147496000Y-139470000D02*
X144096000Y-139470000D01*
%TO.C,RGB-53*%
X125300000Y-139470000D02*
X125300000Y-142470000D01*
X125300000Y-142470000D02*
X128700000Y-142470000D01*
X128700000Y-142470000D02*
X128700000Y-139470000D01*
X128700000Y-139470000D02*
X125300000Y-139470000D01*
%TO.C,RGB-52*%
X106504000Y-139470000D02*
X106504000Y-142470000D01*
X106504000Y-142470000D02*
X109904000Y-142470000D01*
X109904000Y-142470000D02*
X109904000Y-139470000D01*
X109904000Y-139470000D02*
X106504000Y-139470000D01*
%TO.C,RGB-51*%
X87708000Y-139470000D02*
X87708000Y-142470000D01*
X87708000Y-142470000D02*
X91108000Y-142470000D01*
X91108000Y-142470000D02*
X91108000Y-139470000D01*
X91108000Y-139470000D02*
X87708000Y-139470000D01*
%TO.C,RGB-50*%
X63578000Y-139470000D02*
X63578000Y-142470000D01*
X63578000Y-142470000D02*
X66978000Y-142470000D01*
X66978000Y-142470000D02*
X66978000Y-139470000D01*
X66978000Y-139470000D02*
X63578000Y-139470000D01*
%TO.C,RGB-49*%
X66978000Y-124182000D02*
X66978000Y-121182000D01*
X66978000Y-121182000D02*
X63578000Y-121182000D01*
X63578000Y-121182000D02*
X63578000Y-124182000D01*
X63578000Y-124182000D02*
X66978000Y-124182000D01*
%TO.C,RGB-48*%
X91362000Y-123928000D02*
X91362000Y-120928000D01*
X91362000Y-120928000D02*
X87962000Y-120928000D01*
X87962000Y-120928000D02*
X87962000Y-123928000D01*
X87962000Y-123928000D02*
X91362000Y-123928000D01*
%TO.C,RGB-47*%
X110158000Y-123928000D02*
X110158000Y-120928000D01*
X110158000Y-120928000D02*
X106758000Y-120928000D01*
X106758000Y-120928000D02*
X106758000Y-123928000D01*
X106758000Y-123928000D02*
X110158000Y-123928000D01*
%TO.C,RGB-46*%
X128700000Y-123928000D02*
X128700000Y-120928000D01*
X128700000Y-120928000D02*
X125300000Y-120928000D01*
X125300000Y-120928000D02*
X125300000Y-123928000D01*
X125300000Y-123928000D02*
X128700000Y-123928000D01*
%TO.C,RGB-45*%
X147496000Y-123674000D02*
X147496000Y-120674000D01*
X147496000Y-120674000D02*
X144096000Y-120674000D01*
X144096000Y-120674000D02*
X144096000Y-123674000D01*
X144096000Y-123674000D02*
X147496000Y-123674000D01*
%TO.C,RGB-44*%
X166038000Y-123674000D02*
X166038000Y-120674000D01*
X166038000Y-120674000D02*
X162638000Y-120674000D01*
X162638000Y-120674000D02*
X162638000Y-123674000D01*
X162638000Y-123674000D02*
X166038000Y-123674000D01*
%TO.C,RGB-43*%
X184834000Y-123674000D02*
X184834000Y-120674000D01*
X184834000Y-120674000D02*
X181434000Y-120674000D01*
X181434000Y-120674000D02*
X181434000Y-123674000D01*
X181434000Y-123674000D02*
X184834000Y-123674000D01*
%TO.C,RGB-42*%
X203630000Y-123674000D02*
X203630000Y-120674000D01*
X203630000Y-120674000D02*
X200230000Y-120674000D01*
X200230000Y-120674000D02*
X200230000Y-123674000D01*
X200230000Y-123674000D02*
X203630000Y-123674000D01*
%TO.C,RGB-41*%
X222426000Y-123928000D02*
X222426000Y-120928000D01*
X222426000Y-120928000D02*
X219026000Y-120928000D01*
X219026000Y-120928000D02*
X219026000Y-123928000D01*
X219026000Y-123928000D02*
X222426000Y-123928000D01*
%TO.C,RGB-40*%
X241476000Y-123928000D02*
X241476000Y-120928000D01*
X241476000Y-120928000D02*
X238076000Y-120928000D01*
X238076000Y-120928000D02*
X238076000Y-123928000D01*
X238076000Y-123928000D02*
X241476000Y-123928000D01*
%TO.C,RGB-39*%
X260272000Y-123928000D02*
X260272000Y-120928000D01*
X260272000Y-120928000D02*
X256872000Y-120928000D01*
X256872000Y-120928000D02*
X256872000Y-123928000D01*
X256872000Y-123928000D02*
X260272000Y-123928000D01*
%TO.C,RGB-38*%
X279068000Y-123928000D02*
X279068000Y-120928000D01*
X279068000Y-120928000D02*
X275668000Y-120928000D01*
X275668000Y-120928000D02*
X275668000Y-123928000D01*
X275668000Y-123928000D02*
X279068000Y-123928000D01*
%TO.C,RGB-37*%
X297610000Y-123928000D02*
X297610000Y-120928000D01*
X297610000Y-120928000D02*
X294210000Y-120928000D01*
X294210000Y-120928000D02*
X294210000Y-123928000D01*
X294210000Y-123928000D02*
X297610000Y-123928000D01*
%TO.C,RGB-36*%
X294464000Y-101878000D02*
X294464000Y-104878000D01*
X294464000Y-104878000D02*
X297864000Y-104878000D01*
X297864000Y-104878000D02*
X297864000Y-101878000D01*
X297864000Y-101878000D02*
X294464000Y-101878000D01*
%TO.C,RGB-35*%
X275668000Y-101878000D02*
X275668000Y-104878000D01*
X275668000Y-104878000D02*
X279068000Y-104878000D01*
X279068000Y-104878000D02*
X279068000Y-101878000D01*
X279068000Y-101878000D02*
X275668000Y-101878000D01*
%TO.C,RGB-34*%
X256872000Y-101878000D02*
X256872000Y-104878000D01*
X256872000Y-104878000D02*
X260272000Y-104878000D01*
X260272000Y-104878000D02*
X260272000Y-101878000D01*
X260272000Y-101878000D02*
X256872000Y-101878000D01*
%TO.C,RGB-33*%
X238076000Y-101878000D02*
X238076000Y-104878000D01*
X238076000Y-104878000D02*
X241476000Y-104878000D01*
X241476000Y-104878000D02*
X241476000Y-101878000D01*
X241476000Y-101878000D02*
X238076000Y-101878000D01*
%TO.C,RGB-32*%
X219280000Y-101878000D02*
X219280000Y-104878000D01*
X219280000Y-104878000D02*
X222680000Y-104878000D01*
X222680000Y-104878000D02*
X222680000Y-101878000D01*
X222680000Y-101878000D02*
X219280000Y-101878000D01*
%TO.C,RGB-31*%
X200484000Y-101878000D02*
X200484000Y-104878000D01*
X200484000Y-104878000D02*
X203884000Y-104878000D01*
X203884000Y-104878000D02*
X203884000Y-101878000D01*
X203884000Y-101878000D02*
X200484000Y-101878000D01*
%TO.C,RGB-30*%
X181688000Y-101878000D02*
X181688000Y-104878000D01*
X181688000Y-104878000D02*
X185088000Y-104878000D01*
X185088000Y-104878000D02*
X185088000Y-101878000D01*
X185088000Y-101878000D02*
X181688000Y-101878000D01*
%TO.C,RGB-29*%
X163146000Y-101878000D02*
X163146000Y-104878000D01*
X163146000Y-104878000D02*
X166546000Y-104878000D01*
X166546000Y-104878000D02*
X166546000Y-101878000D01*
X166546000Y-101878000D02*
X163146000Y-101878000D01*
%TO.C,RGB-28*%
X144096000Y-101878000D02*
X144096000Y-104878000D01*
X144096000Y-104878000D02*
X147496000Y-104878000D01*
X147496000Y-104878000D02*
X147496000Y-101878000D01*
X147496000Y-101878000D02*
X144096000Y-101878000D01*
%TO.C,RGB-27*%
X125300000Y-101878000D02*
X125300000Y-104878000D01*
X125300000Y-104878000D02*
X128700000Y-104878000D01*
X128700000Y-104878000D02*
X128700000Y-101878000D01*
X128700000Y-101878000D02*
X125300000Y-101878000D01*
%TO.C,RGB-26*%
X106504000Y-101878000D02*
X106504000Y-104878000D01*
X106504000Y-104878000D02*
X109904000Y-104878000D01*
X109904000Y-104878000D02*
X109904000Y-101878000D01*
X109904000Y-101878000D02*
X106504000Y-101878000D01*
%TO.C,RGB-25*%
X87708000Y-101878000D02*
X87708000Y-104878000D01*
X87708000Y-104878000D02*
X91108000Y-104878000D01*
X91108000Y-104878000D02*
X91108000Y-101878000D01*
X91108000Y-101878000D02*
X87708000Y-101878000D01*
%TO.C,RGB-24*%
X63578000Y-101878000D02*
X63578000Y-104878000D01*
X63578000Y-104878000D02*
X66978000Y-104878000D01*
X66978000Y-104878000D02*
X66978000Y-101878000D01*
X66978000Y-101878000D02*
X63578000Y-101878000D01*
%TO.C,RGB-23*%
X91108000Y-86336000D02*
X91108000Y-83336000D01*
X91108000Y-83336000D02*
X87708000Y-83336000D01*
X87708000Y-83336000D02*
X87708000Y-86336000D01*
X87708000Y-86336000D02*
X91108000Y-86336000D01*
%TO.C,RGB-22*%
X109904000Y-86336000D02*
X109904000Y-83336000D01*
X109904000Y-83336000D02*
X106504000Y-83336000D01*
X106504000Y-83336000D02*
X106504000Y-86336000D01*
X106504000Y-86336000D02*
X109904000Y-86336000D01*
%TO.C,RGB-21*%
X128700000Y-86336000D02*
X128700000Y-83336000D01*
X128700000Y-83336000D02*
X125300000Y-83336000D01*
X125300000Y-83336000D02*
X125300000Y-86336000D01*
X125300000Y-86336000D02*
X128700000Y-86336000D01*
%TO.C,RGB-20*%
X147496000Y-86336000D02*
X147496000Y-83336000D01*
X147496000Y-83336000D02*
X144096000Y-83336000D01*
X144096000Y-83336000D02*
X144096000Y-86336000D01*
X144096000Y-86336000D02*
X147496000Y-86336000D01*
%TO.C,RGB-19*%
X166292000Y-86336000D02*
X166292000Y-83336000D01*
X166292000Y-83336000D02*
X162892000Y-83336000D01*
X162892000Y-83336000D02*
X162892000Y-86336000D01*
X162892000Y-86336000D02*
X166292000Y-86336000D01*
%TO.C,RGB-18*%
X185342000Y-86336000D02*
X185342000Y-83336000D01*
X185342000Y-83336000D02*
X181942000Y-83336000D01*
X181942000Y-83336000D02*
X181942000Y-86336000D01*
X181942000Y-86336000D02*
X185342000Y-86336000D01*
%TO.C,RGB-17*%
X203884000Y-86336000D02*
X203884000Y-83336000D01*
X203884000Y-83336000D02*
X200484000Y-83336000D01*
X200484000Y-83336000D02*
X200484000Y-86336000D01*
X200484000Y-86336000D02*
X203884000Y-86336000D01*
%TO.C,RGB-16*%
X222680000Y-86336000D02*
X222680000Y-83336000D01*
X222680000Y-83336000D02*
X219280000Y-83336000D01*
X219280000Y-83336000D02*
X219280000Y-86336000D01*
X219280000Y-86336000D02*
X222680000Y-86336000D01*
%TO.C,RGB-15*%
X241476000Y-86336000D02*
X241476000Y-83336000D01*
X241476000Y-83336000D02*
X238076000Y-83336000D01*
X238076000Y-83336000D02*
X238076000Y-86336000D01*
X238076000Y-86336000D02*
X241476000Y-86336000D01*
%TO.C,RGB-14*%
X260272000Y-86336000D02*
X260272000Y-83336000D01*
X260272000Y-83336000D02*
X256872000Y-83336000D01*
X256872000Y-83336000D02*
X256872000Y-86336000D01*
X256872000Y-86336000D02*
X260272000Y-86336000D01*
%TO.C,RGB-13*%
X279068000Y-86336000D02*
X279068000Y-83336000D01*
X279068000Y-83336000D02*
X275668000Y-83336000D01*
X275668000Y-83336000D02*
X275668000Y-86336000D01*
X275668000Y-86336000D02*
X279068000Y-86336000D01*
%TO.C,RGB-12*%
X297864000Y-86590000D02*
X297864000Y-83590000D01*
X297864000Y-83590000D02*
X294464000Y-83590000D01*
X294464000Y-83590000D02*
X294464000Y-86590000D01*
X294464000Y-86590000D02*
X297864000Y-86590000D01*
%TO.C,RGB-0*%
X87708000Y-64540000D02*
X87708000Y-67540000D01*
X87708000Y-67540000D02*
X91108000Y-67540000D01*
X91108000Y-67540000D02*
X91108000Y-64540000D01*
X91108000Y-64540000D02*
X87708000Y-64540000D01*
%TO.C,RGB-11*%
X294464000Y-64794000D02*
X294464000Y-67794000D01*
X294464000Y-67794000D02*
X297864000Y-67794000D01*
X297864000Y-67794000D02*
X297864000Y-64794000D01*
X297864000Y-64794000D02*
X294464000Y-64794000D01*
%TO.C,RGB-2*%
X125300000Y-64540000D02*
X125300000Y-67540000D01*
X125300000Y-67540000D02*
X128700000Y-67540000D01*
X128700000Y-67540000D02*
X128700000Y-64540000D01*
X128700000Y-64540000D02*
X125300000Y-64540000D01*
%TO.C,RGB-10*%
X275668000Y-64794000D02*
X275668000Y-67794000D01*
X275668000Y-67794000D02*
X279068000Y-67794000D01*
X279068000Y-67794000D02*
X279068000Y-64794000D01*
X279068000Y-64794000D02*
X275668000Y-64794000D01*
%TO.C,RGB-9*%
X256872000Y-64794000D02*
X256872000Y-67794000D01*
X256872000Y-67794000D02*
X260272000Y-67794000D01*
X260272000Y-67794000D02*
X260272000Y-64794000D01*
X260272000Y-64794000D02*
X256872000Y-64794000D01*
%TO.C,RGB-8*%
X238330000Y-64794000D02*
X238330000Y-67794000D01*
X238330000Y-67794000D02*
X241730000Y-67794000D01*
X241730000Y-67794000D02*
X241730000Y-64794000D01*
X241730000Y-64794000D02*
X238330000Y-64794000D01*
%TO.C,RGB-7*%
X219534000Y-64794000D02*
X219534000Y-67794000D01*
X219534000Y-67794000D02*
X222934000Y-67794000D01*
X222934000Y-67794000D02*
X222934000Y-64794000D01*
X222934000Y-64794000D02*
X219534000Y-64794000D01*
%TO.C,RGB-6*%
X200484000Y-64540000D02*
X200484000Y-67540000D01*
X200484000Y-67540000D02*
X203884000Y-67540000D01*
X203884000Y-67540000D02*
X203884000Y-64540000D01*
X203884000Y-64540000D02*
X200484000Y-64540000D01*
%TO.C,RGB-5*%
X181688000Y-64540000D02*
X181688000Y-67540000D01*
X181688000Y-67540000D02*
X185088000Y-67540000D01*
X185088000Y-67540000D02*
X185088000Y-64540000D01*
X185088000Y-64540000D02*
X181688000Y-64540000D01*
%TO.C,RGB-4*%
X163146000Y-64540000D02*
X163146000Y-67540000D01*
X163146000Y-67540000D02*
X166546000Y-67540000D01*
X166546000Y-67540000D02*
X166546000Y-64540000D01*
X166546000Y-64540000D02*
X163146000Y-64540000D01*
%TO.C,RGB-3*%
X144096000Y-64540000D02*
X144096000Y-67540000D01*
X144096000Y-67540000D02*
X147496000Y-67540000D01*
X147496000Y-67540000D02*
X147496000Y-64540000D01*
X147496000Y-64540000D02*
X144096000Y-64540000D01*
%TO.C,RGB-1*%
X106504000Y-64540000D02*
X106504000Y-67540000D01*
X106504000Y-67540000D02*
X109904000Y-67540000D01*
X109904000Y-67540000D02*
X109904000Y-64540000D01*
X109904000Y-64540000D02*
X106504000Y-64540000D01*
%TD*%
M02*
