%TF.GenerationSoftware,KiCad,Pcbnew,(5.1.6-0-10_14)*%
%TF.CreationDate,2021-04-03T15:29:21+02:00*%
%TF.ProjectId,Mech50-keyboard,4d656368-3530-42d6-9b65-79626f617264,rev?*%
%TF.SameCoordinates,Original*%
%TF.FileFunction,Paste,Bot*%
%TF.FilePolarity,Positive*%
%FSLAX46Y46*%
G04 Gerber Fmt 4.6, Leading zero omitted, Abs format (unit mm)*
G04 Created by KiCad (PCBNEW (5.1.6-0-10_14)) date 2021-04-03 15:29:21*
%MOMM*%
%LPD*%
G01*
G04 APERTURE LIST*
%ADD10R,1.700000X0.820000*%
G04 APERTURE END LIST*
%TO.C,RGB-61*%
G36*
G01*
X294464000Y-140523000D02*
X294464000Y-140933000D01*
G75*
G02*
X294259000Y-141138000I-205000J0D01*
G01*
X292969000Y-141138000D01*
G75*
G02*
X292764000Y-140933000I0J205000D01*
G01*
X292764000Y-140523000D01*
G75*
G02*
X292969000Y-140318000I205000J0D01*
G01*
X294259000Y-140318000D01*
G75*
G02*
X294464000Y-140523000I0J-205000D01*
G01*
G37*
D10*
X293614000Y-142228000D03*
X298714000Y-140728000D03*
X298714000Y-142228000D03*
%TD*%
%TO.C,RGB-60*%
G36*
G01*
X275668000Y-140523000D02*
X275668000Y-140933000D01*
G75*
G02*
X275463000Y-141138000I-205000J0D01*
G01*
X274173000Y-141138000D01*
G75*
G02*
X273968000Y-140933000I0J205000D01*
G01*
X273968000Y-140523000D01*
G75*
G02*
X274173000Y-140318000I205000J0D01*
G01*
X275463000Y-140318000D01*
G75*
G02*
X275668000Y-140523000I0J-205000D01*
G01*
G37*
X274818000Y-142228000D03*
X279918000Y-140728000D03*
X279918000Y-142228000D03*
%TD*%
%TO.C,RGB-59*%
G36*
G01*
X256618000Y-140523000D02*
X256618000Y-140933000D01*
G75*
G02*
X256413000Y-141138000I-205000J0D01*
G01*
X255123000Y-141138000D01*
G75*
G02*
X254918000Y-140933000I0J205000D01*
G01*
X254918000Y-140523000D01*
G75*
G02*
X255123000Y-140318000I205000J0D01*
G01*
X256413000Y-140318000D01*
G75*
G02*
X256618000Y-140523000I0J-205000D01*
G01*
G37*
X255768000Y-142228000D03*
X260868000Y-140728000D03*
X260868000Y-142228000D03*
%TD*%
%TO.C,RGB-58*%
G36*
G01*
X238076000Y-140269000D02*
X238076000Y-140679000D01*
G75*
G02*
X237871000Y-140884000I-205000J0D01*
G01*
X236581000Y-140884000D01*
G75*
G02*
X236376000Y-140679000I0J205000D01*
G01*
X236376000Y-140269000D01*
G75*
G02*
X236581000Y-140064000I205000J0D01*
G01*
X237871000Y-140064000D01*
G75*
G02*
X238076000Y-140269000I0J-205000D01*
G01*
G37*
X237226000Y-141974000D03*
X242326000Y-140474000D03*
X242326000Y-141974000D03*
%TD*%
%TO.C,RGB-57*%
G36*
G01*
X219280000Y-140269000D02*
X219280000Y-140679000D01*
G75*
G02*
X219075000Y-140884000I-205000J0D01*
G01*
X217785000Y-140884000D01*
G75*
G02*
X217580000Y-140679000I0J205000D01*
G01*
X217580000Y-140269000D01*
G75*
G02*
X217785000Y-140064000I205000J0D01*
G01*
X219075000Y-140064000D01*
G75*
G02*
X219280000Y-140269000I0J-205000D01*
G01*
G37*
X218430000Y-141974000D03*
X223530000Y-140474000D03*
X223530000Y-141974000D03*
%TD*%
%TO.C,RGB-56*%
G36*
G01*
X191086000Y-140015000D02*
X191086000Y-140425000D01*
G75*
G02*
X190881000Y-140630000I-205000J0D01*
G01*
X189591000Y-140630000D01*
G75*
G02*
X189386000Y-140425000I0J205000D01*
G01*
X189386000Y-140015000D01*
G75*
G02*
X189591000Y-139810000I205000J0D01*
G01*
X190881000Y-139810000D01*
G75*
G02*
X191086000Y-140015000I0J-205000D01*
G01*
G37*
X190236000Y-141720000D03*
X195336000Y-140220000D03*
X195336000Y-141720000D03*
%TD*%
%TO.C,RGB-55*%
G36*
G01*
X162638000Y-140015000D02*
X162638000Y-140425000D01*
G75*
G02*
X162433000Y-140630000I-205000J0D01*
G01*
X161143000Y-140630000D01*
G75*
G02*
X160938000Y-140425000I0J205000D01*
G01*
X160938000Y-140015000D01*
G75*
G02*
X161143000Y-139810000I205000J0D01*
G01*
X162433000Y-139810000D01*
G75*
G02*
X162638000Y-140015000I0J-205000D01*
G01*
G37*
X161788000Y-141720000D03*
X166888000Y-140220000D03*
X166888000Y-141720000D03*
%TD*%
%TO.C,RGB-54*%
G36*
G01*
X144096000Y-140015000D02*
X144096000Y-140425000D01*
G75*
G02*
X143891000Y-140630000I-205000J0D01*
G01*
X142601000Y-140630000D01*
G75*
G02*
X142396000Y-140425000I0J205000D01*
G01*
X142396000Y-140015000D01*
G75*
G02*
X142601000Y-139810000I205000J0D01*
G01*
X143891000Y-139810000D01*
G75*
G02*
X144096000Y-140015000I0J-205000D01*
G01*
G37*
X143246000Y-141720000D03*
X148346000Y-140220000D03*
X148346000Y-141720000D03*
%TD*%
%TO.C,RGB-53*%
G36*
G01*
X125300000Y-140015000D02*
X125300000Y-140425000D01*
G75*
G02*
X125095000Y-140630000I-205000J0D01*
G01*
X123805000Y-140630000D01*
G75*
G02*
X123600000Y-140425000I0J205000D01*
G01*
X123600000Y-140015000D01*
G75*
G02*
X123805000Y-139810000I205000J0D01*
G01*
X125095000Y-139810000D01*
G75*
G02*
X125300000Y-140015000I0J-205000D01*
G01*
G37*
X124450000Y-141720000D03*
X129550000Y-140220000D03*
X129550000Y-141720000D03*
%TD*%
%TO.C,RGB-52*%
G36*
G01*
X106504000Y-140015000D02*
X106504000Y-140425000D01*
G75*
G02*
X106299000Y-140630000I-205000J0D01*
G01*
X105009000Y-140630000D01*
G75*
G02*
X104804000Y-140425000I0J205000D01*
G01*
X104804000Y-140015000D01*
G75*
G02*
X105009000Y-139810000I205000J0D01*
G01*
X106299000Y-139810000D01*
G75*
G02*
X106504000Y-140015000I0J-205000D01*
G01*
G37*
X105654000Y-141720000D03*
X110754000Y-140220000D03*
X110754000Y-141720000D03*
%TD*%
%TO.C,RGB-51*%
G36*
G01*
X87708000Y-140015000D02*
X87708000Y-140425000D01*
G75*
G02*
X87503000Y-140630000I-205000J0D01*
G01*
X86213000Y-140630000D01*
G75*
G02*
X86008000Y-140425000I0J205000D01*
G01*
X86008000Y-140015000D01*
G75*
G02*
X86213000Y-139810000I205000J0D01*
G01*
X87503000Y-139810000D01*
G75*
G02*
X87708000Y-140015000I0J-205000D01*
G01*
G37*
X86858000Y-141720000D03*
X91958000Y-140220000D03*
X91958000Y-141720000D03*
%TD*%
%TO.C,RGB-50*%
G36*
G01*
X63578000Y-140015000D02*
X63578000Y-140425000D01*
G75*
G02*
X63373000Y-140630000I-205000J0D01*
G01*
X62083000Y-140630000D01*
G75*
G02*
X61878000Y-140425000I0J205000D01*
G01*
X61878000Y-140015000D01*
G75*
G02*
X62083000Y-139810000I205000J0D01*
G01*
X63373000Y-139810000D01*
G75*
G02*
X63578000Y-140015000I0J-205000D01*
G01*
G37*
X62728000Y-141720000D03*
X67828000Y-140220000D03*
X67828000Y-141720000D03*
%TD*%
%TO.C,RGB-49*%
G36*
G01*
X66978000Y-123637000D02*
X66978000Y-123227000D01*
G75*
G02*
X67183000Y-123022000I205000J0D01*
G01*
X68473000Y-123022000D01*
G75*
G02*
X68678000Y-123227000I0J-205000D01*
G01*
X68678000Y-123637000D01*
G75*
G02*
X68473000Y-123842000I-205000J0D01*
G01*
X67183000Y-123842000D01*
G75*
G02*
X66978000Y-123637000I0J205000D01*
G01*
G37*
X67828000Y-121932000D03*
X62728000Y-123432000D03*
X62728000Y-121932000D03*
%TD*%
%TO.C,RGB-48*%
G36*
G01*
X91362000Y-123383000D02*
X91362000Y-122973000D01*
G75*
G02*
X91567000Y-122768000I205000J0D01*
G01*
X92857000Y-122768000D01*
G75*
G02*
X93062000Y-122973000I0J-205000D01*
G01*
X93062000Y-123383000D01*
G75*
G02*
X92857000Y-123588000I-205000J0D01*
G01*
X91567000Y-123588000D01*
G75*
G02*
X91362000Y-123383000I0J205000D01*
G01*
G37*
X92212000Y-121678000D03*
X87112000Y-123178000D03*
X87112000Y-121678000D03*
%TD*%
%TO.C,RGB-47*%
G36*
G01*
X110158000Y-123383000D02*
X110158000Y-122973000D01*
G75*
G02*
X110363000Y-122768000I205000J0D01*
G01*
X111653000Y-122768000D01*
G75*
G02*
X111858000Y-122973000I0J-205000D01*
G01*
X111858000Y-123383000D01*
G75*
G02*
X111653000Y-123588000I-205000J0D01*
G01*
X110363000Y-123588000D01*
G75*
G02*
X110158000Y-123383000I0J205000D01*
G01*
G37*
X111008000Y-121678000D03*
X105908000Y-123178000D03*
X105908000Y-121678000D03*
%TD*%
%TO.C,RGB-46*%
G36*
G01*
X128700000Y-123383000D02*
X128700000Y-122973000D01*
G75*
G02*
X128905000Y-122768000I205000J0D01*
G01*
X130195000Y-122768000D01*
G75*
G02*
X130400000Y-122973000I0J-205000D01*
G01*
X130400000Y-123383000D01*
G75*
G02*
X130195000Y-123588000I-205000J0D01*
G01*
X128905000Y-123588000D01*
G75*
G02*
X128700000Y-123383000I0J205000D01*
G01*
G37*
X129550000Y-121678000D03*
X124450000Y-123178000D03*
X124450000Y-121678000D03*
%TD*%
%TO.C,RGB-45*%
G36*
G01*
X147496000Y-123129000D02*
X147496000Y-122719000D01*
G75*
G02*
X147701000Y-122514000I205000J0D01*
G01*
X148991000Y-122514000D01*
G75*
G02*
X149196000Y-122719000I0J-205000D01*
G01*
X149196000Y-123129000D01*
G75*
G02*
X148991000Y-123334000I-205000J0D01*
G01*
X147701000Y-123334000D01*
G75*
G02*
X147496000Y-123129000I0J205000D01*
G01*
G37*
X148346000Y-121424000D03*
X143246000Y-122924000D03*
X143246000Y-121424000D03*
%TD*%
%TO.C,RGB-44*%
G36*
G01*
X166038000Y-123129000D02*
X166038000Y-122719000D01*
G75*
G02*
X166243000Y-122514000I205000J0D01*
G01*
X167533000Y-122514000D01*
G75*
G02*
X167738000Y-122719000I0J-205000D01*
G01*
X167738000Y-123129000D01*
G75*
G02*
X167533000Y-123334000I-205000J0D01*
G01*
X166243000Y-123334000D01*
G75*
G02*
X166038000Y-123129000I0J205000D01*
G01*
G37*
X166888000Y-121424000D03*
X161788000Y-122924000D03*
X161788000Y-121424000D03*
%TD*%
%TO.C,RGB-43*%
G36*
G01*
X184834000Y-123129000D02*
X184834000Y-122719000D01*
G75*
G02*
X185039000Y-122514000I205000J0D01*
G01*
X186329000Y-122514000D01*
G75*
G02*
X186534000Y-122719000I0J-205000D01*
G01*
X186534000Y-123129000D01*
G75*
G02*
X186329000Y-123334000I-205000J0D01*
G01*
X185039000Y-123334000D01*
G75*
G02*
X184834000Y-123129000I0J205000D01*
G01*
G37*
X185684000Y-121424000D03*
X180584000Y-122924000D03*
X180584000Y-121424000D03*
%TD*%
%TO.C,RGB-42*%
G36*
G01*
X203630000Y-123129000D02*
X203630000Y-122719000D01*
G75*
G02*
X203835000Y-122514000I205000J0D01*
G01*
X205125000Y-122514000D01*
G75*
G02*
X205330000Y-122719000I0J-205000D01*
G01*
X205330000Y-123129000D01*
G75*
G02*
X205125000Y-123334000I-205000J0D01*
G01*
X203835000Y-123334000D01*
G75*
G02*
X203630000Y-123129000I0J205000D01*
G01*
G37*
X204480000Y-121424000D03*
X199380000Y-122924000D03*
X199380000Y-121424000D03*
%TD*%
%TO.C,RGB-41*%
G36*
G01*
X222426000Y-123383000D02*
X222426000Y-122973000D01*
G75*
G02*
X222631000Y-122768000I205000J0D01*
G01*
X223921000Y-122768000D01*
G75*
G02*
X224126000Y-122973000I0J-205000D01*
G01*
X224126000Y-123383000D01*
G75*
G02*
X223921000Y-123588000I-205000J0D01*
G01*
X222631000Y-123588000D01*
G75*
G02*
X222426000Y-123383000I0J205000D01*
G01*
G37*
X223276000Y-121678000D03*
X218176000Y-123178000D03*
X218176000Y-121678000D03*
%TD*%
%TO.C,RGB-40*%
G36*
G01*
X241476000Y-123383000D02*
X241476000Y-122973000D01*
G75*
G02*
X241681000Y-122768000I205000J0D01*
G01*
X242971000Y-122768000D01*
G75*
G02*
X243176000Y-122973000I0J-205000D01*
G01*
X243176000Y-123383000D01*
G75*
G02*
X242971000Y-123588000I-205000J0D01*
G01*
X241681000Y-123588000D01*
G75*
G02*
X241476000Y-123383000I0J205000D01*
G01*
G37*
X242326000Y-121678000D03*
X237226000Y-123178000D03*
X237226000Y-121678000D03*
%TD*%
%TO.C,RGB-39*%
G36*
G01*
X260272000Y-123383000D02*
X260272000Y-122973000D01*
G75*
G02*
X260477000Y-122768000I205000J0D01*
G01*
X261767000Y-122768000D01*
G75*
G02*
X261972000Y-122973000I0J-205000D01*
G01*
X261972000Y-123383000D01*
G75*
G02*
X261767000Y-123588000I-205000J0D01*
G01*
X260477000Y-123588000D01*
G75*
G02*
X260272000Y-123383000I0J205000D01*
G01*
G37*
X261122000Y-121678000D03*
X256022000Y-123178000D03*
X256022000Y-121678000D03*
%TD*%
%TO.C,RGB-38*%
G36*
G01*
X279068000Y-123383000D02*
X279068000Y-122973000D01*
G75*
G02*
X279273000Y-122768000I205000J0D01*
G01*
X280563000Y-122768000D01*
G75*
G02*
X280768000Y-122973000I0J-205000D01*
G01*
X280768000Y-123383000D01*
G75*
G02*
X280563000Y-123588000I-205000J0D01*
G01*
X279273000Y-123588000D01*
G75*
G02*
X279068000Y-123383000I0J205000D01*
G01*
G37*
X279918000Y-121678000D03*
X274818000Y-123178000D03*
X274818000Y-121678000D03*
%TD*%
%TO.C,RGB-37*%
G36*
G01*
X297610000Y-123383000D02*
X297610000Y-122973000D01*
G75*
G02*
X297815000Y-122768000I205000J0D01*
G01*
X299105000Y-122768000D01*
G75*
G02*
X299310000Y-122973000I0J-205000D01*
G01*
X299310000Y-123383000D01*
G75*
G02*
X299105000Y-123588000I-205000J0D01*
G01*
X297815000Y-123588000D01*
G75*
G02*
X297610000Y-123383000I0J205000D01*
G01*
G37*
X298460000Y-121678000D03*
X293360000Y-123178000D03*
X293360000Y-121678000D03*
%TD*%
%TO.C,RGB-36*%
G36*
G01*
X294464000Y-102423000D02*
X294464000Y-102833000D01*
G75*
G02*
X294259000Y-103038000I-205000J0D01*
G01*
X292969000Y-103038000D01*
G75*
G02*
X292764000Y-102833000I0J205000D01*
G01*
X292764000Y-102423000D01*
G75*
G02*
X292969000Y-102218000I205000J0D01*
G01*
X294259000Y-102218000D01*
G75*
G02*
X294464000Y-102423000I0J-205000D01*
G01*
G37*
X293614000Y-104128000D03*
X298714000Y-102628000D03*
X298714000Y-104128000D03*
%TD*%
%TO.C,RGB-35*%
G36*
G01*
X275668000Y-102423000D02*
X275668000Y-102833000D01*
G75*
G02*
X275463000Y-103038000I-205000J0D01*
G01*
X274173000Y-103038000D01*
G75*
G02*
X273968000Y-102833000I0J205000D01*
G01*
X273968000Y-102423000D01*
G75*
G02*
X274173000Y-102218000I205000J0D01*
G01*
X275463000Y-102218000D01*
G75*
G02*
X275668000Y-102423000I0J-205000D01*
G01*
G37*
X274818000Y-104128000D03*
X279918000Y-102628000D03*
X279918000Y-104128000D03*
%TD*%
%TO.C,RGB-34*%
G36*
G01*
X256872000Y-102423000D02*
X256872000Y-102833000D01*
G75*
G02*
X256667000Y-103038000I-205000J0D01*
G01*
X255377000Y-103038000D01*
G75*
G02*
X255172000Y-102833000I0J205000D01*
G01*
X255172000Y-102423000D01*
G75*
G02*
X255377000Y-102218000I205000J0D01*
G01*
X256667000Y-102218000D01*
G75*
G02*
X256872000Y-102423000I0J-205000D01*
G01*
G37*
X256022000Y-104128000D03*
X261122000Y-102628000D03*
X261122000Y-104128000D03*
%TD*%
%TO.C,RGB-33*%
G36*
G01*
X238076000Y-102423000D02*
X238076000Y-102833000D01*
G75*
G02*
X237871000Y-103038000I-205000J0D01*
G01*
X236581000Y-103038000D01*
G75*
G02*
X236376000Y-102833000I0J205000D01*
G01*
X236376000Y-102423000D01*
G75*
G02*
X236581000Y-102218000I205000J0D01*
G01*
X237871000Y-102218000D01*
G75*
G02*
X238076000Y-102423000I0J-205000D01*
G01*
G37*
X237226000Y-104128000D03*
X242326000Y-102628000D03*
X242326000Y-104128000D03*
%TD*%
%TO.C,RGB-32*%
G36*
G01*
X219280000Y-102423000D02*
X219280000Y-102833000D01*
G75*
G02*
X219075000Y-103038000I-205000J0D01*
G01*
X217785000Y-103038000D01*
G75*
G02*
X217580000Y-102833000I0J205000D01*
G01*
X217580000Y-102423000D01*
G75*
G02*
X217785000Y-102218000I205000J0D01*
G01*
X219075000Y-102218000D01*
G75*
G02*
X219280000Y-102423000I0J-205000D01*
G01*
G37*
X218430000Y-104128000D03*
X223530000Y-102628000D03*
X223530000Y-104128000D03*
%TD*%
%TO.C,RGB-31*%
G36*
G01*
X200484000Y-102423000D02*
X200484000Y-102833000D01*
G75*
G02*
X200279000Y-103038000I-205000J0D01*
G01*
X198989000Y-103038000D01*
G75*
G02*
X198784000Y-102833000I0J205000D01*
G01*
X198784000Y-102423000D01*
G75*
G02*
X198989000Y-102218000I205000J0D01*
G01*
X200279000Y-102218000D01*
G75*
G02*
X200484000Y-102423000I0J-205000D01*
G01*
G37*
X199634000Y-104128000D03*
X204734000Y-102628000D03*
X204734000Y-104128000D03*
%TD*%
%TO.C,RGB-30*%
G36*
G01*
X181688000Y-102423000D02*
X181688000Y-102833000D01*
G75*
G02*
X181483000Y-103038000I-205000J0D01*
G01*
X180193000Y-103038000D01*
G75*
G02*
X179988000Y-102833000I0J205000D01*
G01*
X179988000Y-102423000D01*
G75*
G02*
X180193000Y-102218000I205000J0D01*
G01*
X181483000Y-102218000D01*
G75*
G02*
X181688000Y-102423000I0J-205000D01*
G01*
G37*
X180838000Y-104128000D03*
X185938000Y-102628000D03*
X185938000Y-104128000D03*
%TD*%
%TO.C,RGB-29*%
G36*
G01*
X163146000Y-102423000D02*
X163146000Y-102833000D01*
G75*
G02*
X162941000Y-103038000I-205000J0D01*
G01*
X161651000Y-103038000D01*
G75*
G02*
X161446000Y-102833000I0J205000D01*
G01*
X161446000Y-102423000D01*
G75*
G02*
X161651000Y-102218000I205000J0D01*
G01*
X162941000Y-102218000D01*
G75*
G02*
X163146000Y-102423000I0J-205000D01*
G01*
G37*
X162296000Y-104128000D03*
X167396000Y-102628000D03*
X167396000Y-104128000D03*
%TD*%
%TO.C,RGB-28*%
G36*
G01*
X144096000Y-102423000D02*
X144096000Y-102833000D01*
G75*
G02*
X143891000Y-103038000I-205000J0D01*
G01*
X142601000Y-103038000D01*
G75*
G02*
X142396000Y-102833000I0J205000D01*
G01*
X142396000Y-102423000D01*
G75*
G02*
X142601000Y-102218000I205000J0D01*
G01*
X143891000Y-102218000D01*
G75*
G02*
X144096000Y-102423000I0J-205000D01*
G01*
G37*
X143246000Y-104128000D03*
X148346000Y-102628000D03*
X148346000Y-104128000D03*
%TD*%
%TO.C,RGB-27*%
G36*
G01*
X125300000Y-102423000D02*
X125300000Y-102833000D01*
G75*
G02*
X125095000Y-103038000I-205000J0D01*
G01*
X123805000Y-103038000D01*
G75*
G02*
X123600000Y-102833000I0J205000D01*
G01*
X123600000Y-102423000D01*
G75*
G02*
X123805000Y-102218000I205000J0D01*
G01*
X125095000Y-102218000D01*
G75*
G02*
X125300000Y-102423000I0J-205000D01*
G01*
G37*
X124450000Y-104128000D03*
X129550000Y-102628000D03*
X129550000Y-104128000D03*
%TD*%
%TO.C,RGB-26*%
G36*
G01*
X106504000Y-102423000D02*
X106504000Y-102833000D01*
G75*
G02*
X106299000Y-103038000I-205000J0D01*
G01*
X105009000Y-103038000D01*
G75*
G02*
X104804000Y-102833000I0J205000D01*
G01*
X104804000Y-102423000D01*
G75*
G02*
X105009000Y-102218000I205000J0D01*
G01*
X106299000Y-102218000D01*
G75*
G02*
X106504000Y-102423000I0J-205000D01*
G01*
G37*
X105654000Y-104128000D03*
X110754000Y-102628000D03*
X110754000Y-104128000D03*
%TD*%
%TO.C,RGB-25*%
G36*
G01*
X87708000Y-102423000D02*
X87708000Y-102833000D01*
G75*
G02*
X87503000Y-103038000I-205000J0D01*
G01*
X86213000Y-103038000D01*
G75*
G02*
X86008000Y-102833000I0J205000D01*
G01*
X86008000Y-102423000D01*
G75*
G02*
X86213000Y-102218000I205000J0D01*
G01*
X87503000Y-102218000D01*
G75*
G02*
X87708000Y-102423000I0J-205000D01*
G01*
G37*
X86858000Y-104128000D03*
X91958000Y-102628000D03*
X91958000Y-104128000D03*
%TD*%
%TO.C,RGB-24*%
G36*
G01*
X63578000Y-102423000D02*
X63578000Y-102833000D01*
G75*
G02*
X63373000Y-103038000I-205000J0D01*
G01*
X62083000Y-103038000D01*
G75*
G02*
X61878000Y-102833000I0J205000D01*
G01*
X61878000Y-102423000D01*
G75*
G02*
X62083000Y-102218000I205000J0D01*
G01*
X63373000Y-102218000D01*
G75*
G02*
X63578000Y-102423000I0J-205000D01*
G01*
G37*
X62728000Y-104128000D03*
X67828000Y-102628000D03*
X67828000Y-104128000D03*
%TD*%
%TO.C,RGB-23*%
G36*
G01*
X91108000Y-85791000D02*
X91108000Y-85381000D01*
G75*
G02*
X91313000Y-85176000I205000J0D01*
G01*
X92603000Y-85176000D01*
G75*
G02*
X92808000Y-85381000I0J-205000D01*
G01*
X92808000Y-85791000D01*
G75*
G02*
X92603000Y-85996000I-205000J0D01*
G01*
X91313000Y-85996000D01*
G75*
G02*
X91108000Y-85791000I0J205000D01*
G01*
G37*
X91958000Y-84086000D03*
X86858000Y-85586000D03*
X86858000Y-84086000D03*
%TD*%
%TO.C,RGB-22*%
G36*
G01*
X109904000Y-85791000D02*
X109904000Y-85381000D01*
G75*
G02*
X110109000Y-85176000I205000J0D01*
G01*
X111399000Y-85176000D01*
G75*
G02*
X111604000Y-85381000I0J-205000D01*
G01*
X111604000Y-85791000D01*
G75*
G02*
X111399000Y-85996000I-205000J0D01*
G01*
X110109000Y-85996000D01*
G75*
G02*
X109904000Y-85791000I0J205000D01*
G01*
G37*
X110754000Y-84086000D03*
X105654000Y-85586000D03*
X105654000Y-84086000D03*
%TD*%
%TO.C,RGB-21*%
G36*
G01*
X128700000Y-85791000D02*
X128700000Y-85381000D01*
G75*
G02*
X128905000Y-85176000I205000J0D01*
G01*
X130195000Y-85176000D01*
G75*
G02*
X130400000Y-85381000I0J-205000D01*
G01*
X130400000Y-85791000D01*
G75*
G02*
X130195000Y-85996000I-205000J0D01*
G01*
X128905000Y-85996000D01*
G75*
G02*
X128700000Y-85791000I0J205000D01*
G01*
G37*
X129550000Y-84086000D03*
X124450000Y-85586000D03*
X124450000Y-84086000D03*
%TD*%
%TO.C,RGB-20*%
G36*
G01*
X147496000Y-85791000D02*
X147496000Y-85381000D01*
G75*
G02*
X147701000Y-85176000I205000J0D01*
G01*
X148991000Y-85176000D01*
G75*
G02*
X149196000Y-85381000I0J-205000D01*
G01*
X149196000Y-85791000D01*
G75*
G02*
X148991000Y-85996000I-205000J0D01*
G01*
X147701000Y-85996000D01*
G75*
G02*
X147496000Y-85791000I0J205000D01*
G01*
G37*
X148346000Y-84086000D03*
X143246000Y-85586000D03*
X143246000Y-84086000D03*
%TD*%
%TO.C,RGB-19*%
G36*
G01*
X166292000Y-85791000D02*
X166292000Y-85381000D01*
G75*
G02*
X166497000Y-85176000I205000J0D01*
G01*
X167787000Y-85176000D01*
G75*
G02*
X167992000Y-85381000I0J-205000D01*
G01*
X167992000Y-85791000D01*
G75*
G02*
X167787000Y-85996000I-205000J0D01*
G01*
X166497000Y-85996000D01*
G75*
G02*
X166292000Y-85791000I0J205000D01*
G01*
G37*
X167142000Y-84086000D03*
X162042000Y-85586000D03*
X162042000Y-84086000D03*
%TD*%
%TO.C,RGB-18*%
G36*
G01*
X185342000Y-85791000D02*
X185342000Y-85381000D01*
G75*
G02*
X185547000Y-85176000I205000J0D01*
G01*
X186837000Y-85176000D01*
G75*
G02*
X187042000Y-85381000I0J-205000D01*
G01*
X187042000Y-85791000D01*
G75*
G02*
X186837000Y-85996000I-205000J0D01*
G01*
X185547000Y-85996000D01*
G75*
G02*
X185342000Y-85791000I0J205000D01*
G01*
G37*
X186192000Y-84086000D03*
X181092000Y-85586000D03*
X181092000Y-84086000D03*
%TD*%
%TO.C,RGB-17*%
G36*
G01*
X203884000Y-85791000D02*
X203884000Y-85381000D01*
G75*
G02*
X204089000Y-85176000I205000J0D01*
G01*
X205379000Y-85176000D01*
G75*
G02*
X205584000Y-85381000I0J-205000D01*
G01*
X205584000Y-85791000D01*
G75*
G02*
X205379000Y-85996000I-205000J0D01*
G01*
X204089000Y-85996000D01*
G75*
G02*
X203884000Y-85791000I0J205000D01*
G01*
G37*
X204734000Y-84086000D03*
X199634000Y-85586000D03*
X199634000Y-84086000D03*
%TD*%
%TO.C,RGB-16*%
G36*
G01*
X222680000Y-85791000D02*
X222680000Y-85381000D01*
G75*
G02*
X222885000Y-85176000I205000J0D01*
G01*
X224175000Y-85176000D01*
G75*
G02*
X224380000Y-85381000I0J-205000D01*
G01*
X224380000Y-85791000D01*
G75*
G02*
X224175000Y-85996000I-205000J0D01*
G01*
X222885000Y-85996000D01*
G75*
G02*
X222680000Y-85791000I0J205000D01*
G01*
G37*
X223530000Y-84086000D03*
X218430000Y-85586000D03*
X218430000Y-84086000D03*
%TD*%
%TO.C,RGB-15*%
G36*
G01*
X241476000Y-85791000D02*
X241476000Y-85381000D01*
G75*
G02*
X241681000Y-85176000I205000J0D01*
G01*
X242971000Y-85176000D01*
G75*
G02*
X243176000Y-85381000I0J-205000D01*
G01*
X243176000Y-85791000D01*
G75*
G02*
X242971000Y-85996000I-205000J0D01*
G01*
X241681000Y-85996000D01*
G75*
G02*
X241476000Y-85791000I0J205000D01*
G01*
G37*
X242326000Y-84086000D03*
X237226000Y-85586000D03*
X237226000Y-84086000D03*
%TD*%
%TO.C,RGB-14*%
G36*
G01*
X260272000Y-85791000D02*
X260272000Y-85381000D01*
G75*
G02*
X260477000Y-85176000I205000J0D01*
G01*
X261767000Y-85176000D01*
G75*
G02*
X261972000Y-85381000I0J-205000D01*
G01*
X261972000Y-85791000D01*
G75*
G02*
X261767000Y-85996000I-205000J0D01*
G01*
X260477000Y-85996000D01*
G75*
G02*
X260272000Y-85791000I0J205000D01*
G01*
G37*
X261122000Y-84086000D03*
X256022000Y-85586000D03*
X256022000Y-84086000D03*
%TD*%
%TO.C,RGB-13*%
G36*
G01*
X279068000Y-85791000D02*
X279068000Y-85381000D01*
G75*
G02*
X279273000Y-85176000I205000J0D01*
G01*
X280563000Y-85176000D01*
G75*
G02*
X280768000Y-85381000I0J-205000D01*
G01*
X280768000Y-85791000D01*
G75*
G02*
X280563000Y-85996000I-205000J0D01*
G01*
X279273000Y-85996000D01*
G75*
G02*
X279068000Y-85791000I0J205000D01*
G01*
G37*
X279918000Y-84086000D03*
X274818000Y-85586000D03*
X274818000Y-84086000D03*
%TD*%
%TO.C,RGB-12*%
G36*
G01*
X297864000Y-86045000D02*
X297864000Y-85635000D01*
G75*
G02*
X298069000Y-85430000I205000J0D01*
G01*
X299359000Y-85430000D01*
G75*
G02*
X299564000Y-85635000I0J-205000D01*
G01*
X299564000Y-86045000D01*
G75*
G02*
X299359000Y-86250000I-205000J0D01*
G01*
X298069000Y-86250000D01*
G75*
G02*
X297864000Y-86045000I0J205000D01*
G01*
G37*
X298714000Y-84340000D03*
X293614000Y-85840000D03*
X293614000Y-84340000D03*
%TD*%
%TO.C,S-E12*%
G36*
G01*
X297666370Y-131829201D02*
X297706368Y-131249201D01*
G75*
G02*
X298772798Y-130320369I997631J-68799D01*
G01*
X298772798Y-130320369D01*
G75*
G02*
X299701630Y-131386799I-68799J-997631D01*
G01*
X299661632Y-131966799D01*
G75*
G02*
X298595202Y-132895631I-997631J68799D01*
G01*
X298595202Y-132895631D01*
G75*
G02*
X297666370Y-131829201I68799J997631D01*
G01*
G37*
G36*
G01*
X292666369Y-131966799D02*
X292626370Y-131386799D01*
G75*
G02*
X293555202Y-130320369I997631J68799D01*
G01*
X293555202Y-130320369D01*
G75*
G02*
X294621632Y-131249201I68799J-997631D01*
G01*
X294661630Y-131829201D01*
G75*
G02*
X293732798Y-132895631I-997631J-68799D01*
G01*
X293732798Y-132895631D01*
G75*
G02*
X292666368Y-131966799I-68799J997631D01*
G01*
G37*
G36*
G01*
X294408307Y-133065828D02*
X293098317Y-134525837D01*
G75*
G02*
X291686172Y-134602316I-744312J667833D01*
G01*
X291686172Y-134602316D01*
G75*
G02*
X291609693Y-133190171I667833J744312D01*
G01*
X292919683Y-131730163D01*
G75*
G02*
X294331828Y-131653684I744312J-667833D01*
G01*
X294331828Y-131653684D01*
G75*
G02*
X294408307Y-133065829I-667833J-744312D01*
G01*
G37*
G36*
G01*
X299055280Y-131711043D02*
X300699188Y-133543208D01*
G75*
G02*
X300641828Y-134602316I-558234J-500874D01*
G01*
X300641828Y-134602316D01*
G75*
G02*
X299582720Y-134544956I-500874J558234D01*
G01*
X297938812Y-132712792D01*
G75*
G02*
X297996172Y-131653684I558234J500874D01*
G01*
X297996172Y-131653684D01*
G75*
G02*
X299055280Y-131711044I500874J-558234D01*
G01*
G37*
%TD*%
%TO.C,S-E6*%
G36*
G01*
X195677280Y-131711043D02*
X197321188Y-133543208D01*
G75*
G02*
X197263828Y-134602316I-558234J-500874D01*
G01*
X197263828Y-134602316D01*
G75*
G02*
X196204720Y-134544956I-500874J558234D01*
G01*
X194560812Y-132712792D01*
G75*
G02*
X194618172Y-131653684I558234J500874D01*
G01*
X194618172Y-131653684D01*
G75*
G02*
X195677280Y-131711044I500874J-558234D01*
G01*
G37*
G36*
G01*
X194288544Y-131830001D02*
X194328087Y-131249969D01*
G75*
G02*
X195393786Y-130320300I997684J-68015D01*
G01*
X195393786Y-130320300D01*
G75*
G02*
X196323455Y-131385999I-68015J-997684D01*
G01*
X196283913Y-131966031D01*
G75*
G02*
X195218214Y-132895700I-997684J68015D01*
G01*
X195218214Y-132895700D01*
G75*
G02*
X194288545Y-131830001I68015J997684D01*
G01*
G37*
G36*
G01*
X191030307Y-133065828D02*
X189720317Y-134525837D01*
G75*
G02*
X188308172Y-134602316I-744312J667833D01*
G01*
X188308172Y-134602316D01*
G75*
G02*
X188231693Y-133190171I667833J744312D01*
G01*
X189541683Y-131730163D01*
G75*
G02*
X190953828Y-131653684I744312J-667833D01*
G01*
X190953828Y-131653684D01*
G75*
G02*
X191030307Y-133065829I-667833J-744312D01*
G01*
G37*
G36*
G01*
X189288040Y-131965344D02*
X189248592Y-131386687D01*
G75*
G02*
X190178261Y-130320988I997684J68015D01*
G01*
X190178261Y-130320988D01*
G75*
G02*
X191243960Y-131250657I68015J-997684D01*
G01*
X191283408Y-131829313D01*
G75*
G02*
X190353739Y-132895012I-997684J-68015D01*
G01*
X190353739Y-132895012D01*
G75*
G02*
X189288040Y-131965343I-68015J997684D01*
G01*
G37*
%TD*%
%TO.C,S-A0*%
G36*
G01*
X90910370Y-56645201D02*
X90950368Y-56065201D01*
G75*
G02*
X92016798Y-55136369I997631J-68799D01*
G01*
X92016798Y-55136369D01*
G75*
G02*
X92945630Y-56202799I-68799J-997631D01*
G01*
X92905632Y-56782799D01*
G75*
G02*
X91839202Y-57711631I-997631J68799D01*
G01*
X91839202Y-57711631D01*
G75*
G02*
X90910370Y-56645201I68799J997631D01*
G01*
G37*
G36*
G01*
X85910369Y-56782799D02*
X85870370Y-56202799D01*
G75*
G02*
X86799202Y-55136369I997631J68799D01*
G01*
X86799202Y-55136369D01*
G75*
G02*
X87865632Y-56065201I68799J-997631D01*
G01*
X87905630Y-56645201D01*
G75*
G02*
X86976798Y-57711631I-997631J-68799D01*
G01*
X86976798Y-57711631D01*
G75*
G02*
X85910368Y-56782799I-68799J997631D01*
G01*
G37*
G36*
G01*
X87652307Y-57881828D02*
X86342317Y-59341837D01*
G75*
G02*
X84930172Y-59418316I-744312J667833D01*
G01*
X84930172Y-59418316D01*
G75*
G02*
X84853693Y-58006171I667833J744312D01*
G01*
X86163683Y-56546163D01*
G75*
G02*
X87575828Y-56469684I744312J-667833D01*
G01*
X87575828Y-56469684D01*
G75*
G02*
X87652307Y-57881829I-667833J-744312D01*
G01*
G37*
G36*
G01*
X92299280Y-56527043D02*
X93943188Y-58359208D01*
G75*
G02*
X93885828Y-59418316I-558234J-500874D01*
G01*
X93885828Y-59418316D01*
G75*
G02*
X92826720Y-59360956I-500874J558234D01*
G01*
X91182812Y-57528792D01*
G75*
G02*
X91240172Y-56469684I558234J500874D01*
G01*
X91240172Y-56469684D01*
G75*
G02*
X92299280Y-56527044I500874J-558234D01*
G01*
G37*
%TD*%
%TO.C,S-A1*%
G36*
G01*
X109706370Y-56645201D02*
X109746368Y-56065201D01*
G75*
G02*
X110812798Y-55136369I997631J-68799D01*
G01*
X110812798Y-55136369D01*
G75*
G02*
X111741630Y-56202799I-68799J-997631D01*
G01*
X111701632Y-56782799D01*
G75*
G02*
X110635202Y-57711631I-997631J68799D01*
G01*
X110635202Y-57711631D01*
G75*
G02*
X109706370Y-56645201I68799J997631D01*
G01*
G37*
G36*
G01*
X104706369Y-56782799D02*
X104666370Y-56202799D01*
G75*
G02*
X105595202Y-55136369I997631J68799D01*
G01*
X105595202Y-55136369D01*
G75*
G02*
X106661632Y-56065201I68799J-997631D01*
G01*
X106701630Y-56645201D01*
G75*
G02*
X105772798Y-57711631I-997631J-68799D01*
G01*
X105772798Y-57711631D01*
G75*
G02*
X104706368Y-56782799I-68799J997631D01*
G01*
G37*
G36*
G01*
X106448307Y-57881828D02*
X105138317Y-59341837D01*
G75*
G02*
X103726172Y-59418316I-744312J667833D01*
G01*
X103726172Y-59418316D01*
G75*
G02*
X103649693Y-58006171I667833J744312D01*
G01*
X104959683Y-56546163D01*
G75*
G02*
X106371828Y-56469684I744312J-667833D01*
G01*
X106371828Y-56469684D01*
G75*
G02*
X106448307Y-57881829I-667833J-744312D01*
G01*
G37*
G36*
G01*
X111095280Y-56527043D02*
X112739188Y-58359208D01*
G75*
G02*
X112681828Y-59418316I-558234J-500874D01*
G01*
X112681828Y-59418316D01*
G75*
G02*
X111622720Y-59360956I-500874J558234D01*
G01*
X109978812Y-57528792D01*
G75*
G02*
X110036172Y-56469684I558234J500874D01*
G01*
X110036172Y-56469684D01*
G75*
G02*
X111095280Y-56527044I500874J-558234D01*
G01*
G37*
%TD*%
%TO.C,S-A2*%
G36*
G01*
X128502370Y-56645201D02*
X128542368Y-56065201D01*
G75*
G02*
X129608798Y-55136369I997631J-68799D01*
G01*
X129608798Y-55136369D01*
G75*
G02*
X130537630Y-56202799I-68799J-997631D01*
G01*
X130497632Y-56782799D01*
G75*
G02*
X129431202Y-57711631I-997631J68799D01*
G01*
X129431202Y-57711631D01*
G75*
G02*
X128502370Y-56645201I68799J997631D01*
G01*
G37*
G36*
G01*
X123502369Y-56782799D02*
X123462370Y-56202799D01*
G75*
G02*
X124391202Y-55136369I997631J68799D01*
G01*
X124391202Y-55136369D01*
G75*
G02*
X125457632Y-56065201I68799J-997631D01*
G01*
X125497630Y-56645201D01*
G75*
G02*
X124568798Y-57711631I-997631J-68799D01*
G01*
X124568798Y-57711631D01*
G75*
G02*
X123502368Y-56782799I-68799J997631D01*
G01*
G37*
G36*
G01*
X125244307Y-57881828D02*
X123934317Y-59341837D01*
G75*
G02*
X122522172Y-59418316I-744312J667833D01*
G01*
X122522172Y-59418316D01*
G75*
G02*
X122445693Y-58006171I667833J744312D01*
G01*
X123755683Y-56546163D01*
G75*
G02*
X125167828Y-56469684I744312J-667833D01*
G01*
X125167828Y-56469684D01*
G75*
G02*
X125244307Y-57881829I-667833J-744312D01*
G01*
G37*
G36*
G01*
X129891280Y-56527043D02*
X131535188Y-58359208D01*
G75*
G02*
X131477828Y-59418316I-558234J-500874D01*
G01*
X131477828Y-59418316D01*
G75*
G02*
X130418720Y-59360956I-500874J558234D01*
G01*
X128774812Y-57528792D01*
G75*
G02*
X128832172Y-56469684I558234J500874D01*
G01*
X128832172Y-56469684D01*
G75*
G02*
X129891280Y-56527044I500874J-558234D01*
G01*
G37*
%TD*%
%TO.C,S-A3*%
G36*
G01*
X147298370Y-56645201D02*
X147338368Y-56065201D01*
G75*
G02*
X148404798Y-55136369I997631J-68799D01*
G01*
X148404798Y-55136369D01*
G75*
G02*
X149333630Y-56202799I-68799J-997631D01*
G01*
X149293632Y-56782799D01*
G75*
G02*
X148227202Y-57711631I-997631J68799D01*
G01*
X148227202Y-57711631D01*
G75*
G02*
X147298370Y-56645201I68799J997631D01*
G01*
G37*
G36*
G01*
X142298369Y-56782799D02*
X142258370Y-56202799D01*
G75*
G02*
X143187202Y-55136369I997631J68799D01*
G01*
X143187202Y-55136369D01*
G75*
G02*
X144253632Y-56065201I68799J-997631D01*
G01*
X144293630Y-56645201D01*
G75*
G02*
X143364798Y-57711631I-997631J-68799D01*
G01*
X143364798Y-57711631D01*
G75*
G02*
X142298368Y-56782799I-68799J997631D01*
G01*
G37*
G36*
G01*
X144040307Y-57881828D02*
X142730317Y-59341837D01*
G75*
G02*
X141318172Y-59418316I-744312J667833D01*
G01*
X141318172Y-59418316D01*
G75*
G02*
X141241693Y-58006171I667833J744312D01*
G01*
X142551683Y-56546163D01*
G75*
G02*
X143963828Y-56469684I744312J-667833D01*
G01*
X143963828Y-56469684D01*
G75*
G02*
X144040307Y-57881829I-667833J-744312D01*
G01*
G37*
G36*
G01*
X148687280Y-56527043D02*
X150331188Y-58359208D01*
G75*
G02*
X150273828Y-59418316I-558234J-500874D01*
G01*
X150273828Y-59418316D01*
G75*
G02*
X149214720Y-59360956I-500874J558234D01*
G01*
X147570812Y-57528792D01*
G75*
G02*
X147628172Y-56469684I558234J500874D01*
G01*
X147628172Y-56469684D01*
G75*
G02*
X148687280Y-56527044I500874J-558234D01*
G01*
G37*
%TD*%
%TO.C,S-A4*%
G36*
G01*
X166094370Y-56645201D02*
X166134368Y-56065201D01*
G75*
G02*
X167200798Y-55136369I997631J-68799D01*
G01*
X167200798Y-55136369D01*
G75*
G02*
X168129630Y-56202799I-68799J-997631D01*
G01*
X168089632Y-56782799D01*
G75*
G02*
X167023202Y-57711631I-997631J68799D01*
G01*
X167023202Y-57711631D01*
G75*
G02*
X166094370Y-56645201I68799J997631D01*
G01*
G37*
G36*
G01*
X161094369Y-56782799D02*
X161054370Y-56202799D01*
G75*
G02*
X161983202Y-55136369I997631J68799D01*
G01*
X161983202Y-55136369D01*
G75*
G02*
X163049632Y-56065201I68799J-997631D01*
G01*
X163089630Y-56645201D01*
G75*
G02*
X162160798Y-57711631I-997631J-68799D01*
G01*
X162160798Y-57711631D01*
G75*
G02*
X161094368Y-56782799I-68799J997631D01*
G01*
G37*
G36*
G01*
X162836307Y-57881828D02*
X161526317Y-59341837D01*
G75*
G02*
X160114172Y-59418316I-744312J667833D01*
G01*
X160114172Y-59418316D01*
G75*
G02*
X160037693Y-58006171I667833J744312D01*
G01*
X161347683Y-56546163D01*
G75*
G02*
X162759828Y-56469684I744312J-667833D01*
G01*
X162759828Y-56469684D01*
G75*
G02*
X162836307Y-57881829I-667833J-744312D01*
G01*
G37*
G36*
G01*
X167483280Y-56527043D02*
X169127188Y-58359208D01*
G75*
G02*
X169069828Y-59418316I-558234J-500874D01*
G01*
X169069828Y-59418316D01*
G75*
G02*
X168010720Y-59360956I-500874J558234D01*
G01*
X166366812Y-57528792D01*
G75*
G02*
X166424172Y-56469684I558234J500874D01*
G01*
X166424172Y-56469684D01*
G75*
G02*
X167483280Y-56527044I500874J-558234D01*
G01*
G37*
%TD*%
%TO.C,S-A5*%
G36*
G01*
X184890370Y-56645201D02*
X184930368Y-56065201D01*
G75*
G02*
X185996798Y-55136369I997631J-68799D01*
G01*
X185996798Y-55136369D01*
G75*
G02*
X186925630Y-56202799I-68799J-997631D01*
G01*
X186885632Y-56782799D01*
G75*
G02*
X185819202Y-57711631I-997631J68799D01*
G01*
X185819202Y-57711631D01*
G75*
G02*
X184890370Y-56645201I68799J997631D01*
G01*
G37*
G36*
G01*
X179890369Y-56782799D02*
X179850370Y-56202799D01*
G75*
G02*
X180779202Y-55136369I997631J68799D01*
G01*
X180779202Y-55136369D01*
G75*
G02*
X181845632Y-56065201I68799J-997631D01*
G01*
X181885630Y-56645201D01*
G75*
G02*
X180956798Y-57711631I-997631J-68799D01*
G01*
X180956798Y-57711631D01*
G75*
G02*
X179890368Y-56782799I-68799J997631D01*
G01*
G37*
G36*
G01*
X181632307Y-57881828D02*
X180322317Y-59341837D01*
G75*
G02*
X178910172Y-59418316I-744312J667833D01*
G01*
X178910172Y-59418316D01*
G75*
G02*
X178833693Y-58006171I667833J744312D01*
G01*
X180143683Y-56546163D01*
G75*
G02*
X181555828Y-56469684I744312J-667833D01*
G01*
X181555828Y-56469684D01*
G75*
G02*
X181632307Y-57881829I-667833J-744312D01*
G01*
G37*
G36*
G01*
X186279280Y-56527043D02*
X187923188Y-58359208D01*
G75*
G02*
X187865828Y-59418316I-558234J-500874D01*
G01*
X187865828Y-59418316D01*
G75*
G02*
X186806720Y-59360956I-500874J558234D01*
G01*
X185162812Y-57528792D01*
G75*
G02*
X185220172Y-56469684I558234J500874D01*
G01*
X185220172Y-56469684D01*
G75*
G02*
X186279280Y-56527044I500874J-558234D01*
G01*
G37*
%TD*%
%TO.C,S-A6*%
G36*
G01*
X203686370Y-56645201D02*
X203726368Y-56065201D01*
G75*
G02*
X204792798Y-55136369I997631J-68799D01*
G01*
X204792798Y-55136369D01*
G75*
G02*
X205721630Y-56202799I-68799J-997631D01*
G01*
X205681632Y-56782799D01*
G75*
G02*
X204615202Y-57711631I-997631J68799D01*
G01*
X204615202Y-57711631D01*
G75*
G02*
X203686370Y-56645201I68799J997631D01*
G01*
G37*
G36*
G01*
X198686369Y-56782799D02*
X198646370Y-56202799D01*
G75*
G02*
X199575202Y-55136369I997631J68799D01*
G01*
X199575202Y-55136369D01*
G75*
G02*
X200641632Y-56065201I68799J-997631D01*
G01*
X200681630Y-56645201D01*
G75*
G02*
X199752798Y-57711631I-997631J-68799D01*
G01*
X199752798Y-57711631D01*
G75*
G02*
X198686368Y-56782799I-68799J997631D01*
G01*
G37*
G36*
G01*
X200428307Y-57881828D02*
X199118317Y-59341837D01*
G75*
G02*
X197706172Y-59418316I-744312J667833D01*
G01*
X197706172Y-59418316D01*
G75*
G02*
X197629693Y-58006171I667833J744312D01*
G01*
X198939683Y-56546163D01*
G75*
G02*
X200351828Y-56469684I744312J-667833D01*
G01*
X200351828Y-56469684D01*
G75*
G02*
X200428307Y-57881829I-667833J-744312D01*
G01*
G37*
G36*
G01*
X205075280Y-56527043D02*
X206719188Y-58359208D01*
G75*
G02*
X206661828Y-59418316I-558234J-500874D01*
G01*
X206661828Y-59418316D01*
G75*
G02*
X205602720Y-59360956I-500874J558234D01*
G01*
X203958812Y-57528792D01*
G75*
G02*
X204016172Y-56469684I558234J500874D01*
G01*
X204016172Y-56469684D01*
G75*
G02*
X205075280Y-56527044I500874J-558234D01*
G01*
G37*
%TD*%
%TO.C,S-A7*%
G36*
G01*
X222482370Y-56645201D02*
X222522368Y-56065201D01*
G75*
G02*
X223588798Y-55136369I997631J-68799D01*
G01*
X223588798Y-55136369D01*
G75*
G02*
X224517630Y-56202799I-68799J-997631D01*
G01*
X224477632Y-56782799D01*
G75*
G02*
X223411202Y-57711631I-997631J68799D01*
G01*
X223411202Y-57711631D01*
G75*
G02*
X222482370Y-56645201I68799J997631D01*
G01*
G37*
G36*
G01*
X217482369Y-56782799D02*
X217442370Y-56202799D01*
G75*
G02*
X218371202Y-55136369I997631J68799D01*
G01*
X218371202Y-55136369D01*
G75*
G02*
X219437632Y-56065201I68799J-997631D01*
G01*
X219477630Y-56645201D01*
G75*
G02*
X218548798Y-57711631I-997631J-68799D01*
G01*
X218548798Y-57711631D01*
G75*
G02*
X217482368Y-56782799I-68799J997631D01*
G01*
G37*
G36*
G01*
X219224307Y-57881828D02*
X217914317Y-59341837D01*
G75*
G02*
X216502172Y-59418316I-744312J667833D01*
G01*
X216502172Y-59418316D01*
G75*
G02*
X216425693Y-58006171I667833J744312D01*
G01*
X217735683Y-56546163D01*
G75*
G02*
X219147828Y-56469684I744312J-667833D01*
G01*
X219147828Y-56469684D01*
G75*
G02*
X219224307Y-57881829I-667833J-744312D01*
G01*
G37*
G36*
G01*
X223871280Y-56527043D02*
X225515188Y-58359208D01*
G75*
G02*
X225457828Y-59418316I-558234J-500874D01*
G01*
X225457828Y-59418316D01*
G75*
G02*
X224398720Y-59360956I-500874J558234D01*
G01*
X222754812Y-57528792D01*
G75*
G02*
X222812172Y-56469684I558234J500874D01*
G01*
X222812172Y-56469684D01*
G75*
G02*
X223871280Y-56527044I500874J-558234D01*
G01*
G37*
%TD*%
%TO.C,S-A8*%
G36*
G01*
X241278370Y-56645201D02*
X241318368Y-56065201D01*
G75*
G02*
X242384798Y-55136369I997631J-68799D01*
G01*
X242384798Y-55136369D01*
G75*
G02*
X243313630Y-56202799I-68799J-997631D01*
G01*
X243273632Y-56782799D01*
G75*
G02*
X242207202Y-57711631I-997631J68799D01*
G01*
X242207202Y-57711631D01*
G75*
G02*
X241278370Y-56645201I68799J997631D01*
G01*
G37*
G36*
G01*
X236278369Y-56782799D02*
X236238370Y-56202799D01*
G75*
G02*
X237167202Y-55136369I997631J68799D01*
G01*
X237167202Y-55136369D01*
G75*
G02*
X238233632Y-56065201I68799J-997631D01*
G01*
X238273630Y-56645201D01*
G75*
G02*
X237344798Y-57711631I-997631J-68799D01*
G01*
X237344798Y-57711631D01*
G75*
G02*
X236278368Y-56782799I-68799J997631D01*
G01*
G37*
G36*
G01*
X238020307Y-57881828D02*
X236710317Y-59341837D01*
G75*
G02*
X235298172Y-59418316I-744312J667833D01*
G01*
X235298172Y-59418316D01*
G75*
G02*
X235221693Y-58006171I667833J744312D01*
G01*
X236531683Y-56546163D01*
G75*
G02*
X237943828Y-56469684I744312J-667833D01*
G01*
X237943828Y-56469684D01*
G75*
G02*
X238020307Y-57881829I-667833J-744312D01*
G01*
G37*
G36*
G01*
X242667280Y-56527043D02*
X244311188Y-58359208D01*
G75*
G02*
X244253828Y-59418316I-558234J-500874D01*
G01*
X244253828Y-59418316D01*
G75*
G02*
X243194720Y-59360956I-500874J558234D01*
G01*
X241550812Y-57528792D01*
G75*
G02*
X241608172Y-56469684I558234J500874D01*
G01*
X241608172Y-56469684D01*
G75*
G02*
X242667280Y-56527044I500874J-558234D01*
G01*
G37*
%TD*%
%TO.C,S-A9*%
G36*
G01*
X260074370Y-56645201D02*
X260114368Y-56065201D01*
G75*
G02*
X261180798Y-55136369I997631J-68799D01*
G01*
X261180798Y-55136369D01*
G75*
G02*
X262109630Y-56202799I-68799J-997631D01*
G01*
X262069632Y-56782799D01*
G75*
G02*
X261003202Y-57711631I-997631J68799D01*
G01*
X261003202Y-57711631D01*
G75*
G02*
X260074370Y-56645201I68799J997631D01*
G01*
G37*
G36*
G01*
X255074369Y-56782799D02*
X255034370Y-56202799D01*
G75*
G02*
X255963202Y-55136369I997631J68799D01*
G01*
X255963202Y-55136369D01*
G75*
G02*
X257029632Y-56065201I68799J-997631D01*
G01*
X257069630Y-56645201D01*
G75*
G02*
X256140798Y-57711631I-997631J-68799D01*
G01*
X256140798Y-57711631D01*
G75*
G02*
X255074368Y-56782799I-68799J997631D01*
G01*
G37*
G36*
G01*
X256816307Y-57881828D02*
X255506317Y-59341837D01*
G75*
G02*
X254094172Y-59418316I-744312J667833D01*
G01*
X254094172Y-59418316D01*
G75*
G02*
X254017693Y-58006171I667833J744312D01*
G01*
X255327683Y-56546163D01*
G75*
G02*
X256739828Y-56469684I744312J-667833D01*
G01*
X256739828Y-56469684D01*
G75*
G02*
X256816307Y-57881829I-667833J-744312D01*
G01*
G37*
G36*
G01*
X261463280Y-56527043D02*
X263107188Y-58359208D01*
G75*
G02*
X263049828Y-59418316I-558234J-500874D01*
G01*
X263049828Y-59418316D01*
G75*
G02*
X261990720Y-59360956I-500874J558234D01*
G01*
X260346812Y-57528792D01*
G75*
G02*
X260404172Y-56469684I558234J500874D01*
G01*
X260404172Y-56469684D01*
G75*
G02*
X261463280Y-56527044I500874J-558234D01*
G01*
G37*
%TD*%
%TO.C,S-A10*%
G36*
G01*
X278870370Y-56645201D02*
X278910368Y-56065201D01*
G75*
G02*
X279976798Y-55136369I997631J-68799D01*
G01*
X279976798Y-55136369D01*
G75*
G02*
X280905630Y-56202799I-68799J-997631D01*
G01*
X280865632Y-56782799D01*
G75*
G02*
X279799202Y-57711631I-997631J68799D01*
G01*
X279799202Y-57711631D01*
G75*
G02*
X278870370Y-56645201I68799J997631D01*
G01*
G37*
G36*
G01*
X273870369Y-56782799D02*
X273830370Y-56202799D01*
G75*
G02*
X274759202Y-55136369I997631J68799D01*
G01*
X274759202Y-55136369D01*
G75*
G02*
X275825632Y-56065201I68799J-997631D01*
G01*
X275865630Y-56645201D01*
G75*
G02*
X274936798Y-57711631I-997631J-68799D01*
G01*
X274936798Y-57711631D01*
G75*
G02*
X273870368Y-56782799I-68799J997631D01*
G01*
G37*
G36*
G01*
X275612307Y-57881828D02*
X274302317Y-59341837D01*
G75*
G02*
X272890172Y-59418316I-744312J667833D01*
G01*
X272890172Y-59418316D01*
G75*
G02*
X272813693Y-58006171I667833J744312D01*
G01*
X274123683Y-56546163D01*
G75*
G02*
X275535828Y-56469684I744312J-667833D01*
G01*
X275535828Y-56469684D01*
G75*
G02*
X275612307Y-57881829I-667833J-744312D01*
G01*
G37*
G36*
G01*
X280259280Y-56527043D02*
X281903188Y-58359208D01*
G75*
G02*
X281845828Y-59418316I-558234J-500874D01*
G01*
X281845828Y-59418316D01*
G75*
G02*
X280786720Y-59360956I-500874J558234D01*
G01*
X279142812Y-57528792D01*
G75*
G02*
X279200172Y-56469684I558234J500874D01*
G01*
X279200172Y-56469684D01*
G75*
G02*
X280259280Y-56527044I500874J-558234D01*
G01*
G37*
%TD*%
%TO.C,S-A11*%
G36*
G01*
X297666370Y-56645201D02*
X297706368Y-56065201D01*
G75*
G02*
X298772798Y-55136369I997631J-68799D01*
G01*
X298772798Y-55136369D01*
G75*
G02*
X299701630Y-56202799I-68799J-997631D01*
G01*
X299661632Y-56782799D01*
G75*
G02*
X298595202Y-57711631I-997631J68799D01*
G01*
X298595202Y-57711631D01*
G75*
G02*
X297666370Y-56645201I68799J997631D01*
G01*
G37*
G36*
G01*
X292666369Y-56782799D02*
X292626370Y-56202799D01*
G75*
G02*
X293555202Y-55136369I997631J68799D01*
G01*
X293555202Y-55136369D01*
G75*
G02*
X294621632Y-56065201I68799J-997631D01*
G01*
X294661630Y-56645201D01*
G75*
G02*
X293732798Y-57711631I-997631J-68799D01*
G01*
X293732798Y-57711631D01*
G75*
G02*
X292666368Y-56782799I-68799J997631D01*
G01*
G37*
G36*
G01*
X294408307Y-57881828D02*
X293098317Y-59341837D01*
G75*
G02*
X291686172Y-59418316I-744312J667833D01*
G01*
X291686172Y-59418316D01*
G75*
G02*
X291609693Y-58006171I667833J744312D01*
G01*
X292919683Y-56546163D01*
G75*
G02*
X294331828Y-56469684I744312J-667833D01*
G01*
X294331828Y-56469684D01*
G75*
G02*
X294408307Y-57881829I-667833J-744312D01*
G01*
G37*
G36*
G01*
X299055280Y-56527043D02*
X300699188Y-58359208D01*
G75*
G02*
X300641828Y-59418316I-558234J-500874D01*
G01*
X300641828Y-59418316D01*
G75*
G02*
X299582720Y-59360956I-500874J558234D01*
G01*
X297938812Y-57528792D01*
G75*
G02*
X297996172Y-56469684I558234J500874D01*
G01*
X297996172Y-56469684D01*
G75*
G02*
X299055280Y-56527044I500874J-558234D01*
G01*
G37*
%TD*%
%TO.C,S-B0*%
G36*
G01*
X90910370Y-75441201D02*
X90950368Y-74861201D01*
G75*
G02*
X92016798Y-73932369I997631J-68799D01*
G01*
X92016798Y-73932369D01*
G75*
G02*
X92945630Y-74998799I-68799J-997631D01*
G01*
X92905632Y-75578799D01*
G75*
G02*
X91839202Y-76507631I-997631J68799D01*
G01*
X91839202Y-76507631D01*
G75*
G02*
X90910370Y-75441201I68799J997631D01*
G01*
G37*
G36*
G01*
X85910369Y-75578799D02*
X85870370Y-74998799D01*
G75*
G02*
X86799202Y-73932369I997631J68799D01*
G01*
X86799202Y-73932369D01*
G75*
G02*
X87865632Y-74861201I68799J-997631D01*
G01*
X87905630Y-75441201D01*
G75*
G02*
X86976798Y-76507631I-997631J-68799D01*
G01*
X86976798Y-76507631D01*
G75*
G02*
X85910368Y-75578799I-68799J997631D01*
G01*
G37*
G36*
G01*
X87652307Y-76677828D02*
X86342317Y-78137837D01*
G75*
G02*
X84930172Y-78214316I-744312J667833D01*
G01*
X84930172Y-78214316D01*
G75*
G02*
X84853693Y-76802171I667833J744312D01*
G01*
X86163683Y-75342163D01*
G75*
G02*
X87575828Y-75265684I744312J-667833D01*
G01*
X87575828Y-75265684D01*
G75*
G02*
X87652307Y-76677829I-667833J-744312D01*
G01*
G37*
G36*
G01*
X92299280Y-75323043D02*
X93943188Y-77155208D01*
G75*
G02*
X93885828Y-78214316I-558234J-500874D01*
G01*
X93885828Y-78214316D01*
G75*
G02*
X92826720Y-78156956I-500874J558234D01*
G01*
X91182812Y-76324792D01*
G75*
G02*
X91240172Y-75265684I558234J500874D01*
G01*
X91240172Y-75265684D01*
G75*
G02*
X92299280Y-75323044I500874J-558234D01*
G01*
G37*
%TD*%
%TO.C,S-B1*%
G36*
G01*
X109706370Y-75441201D02*
X109746368Y-74861201D01*
G75*
G02*
X110812798Y-73932369I997631J-68799D01*
G01*
X110812798Y-73932369D01*
G75*
G02*
X111741630Y-74998799I-68799J-997631D01*
G01*
X111701632Y-75578799D01*
G75*
G02*
X110635202Y-76507631I-997631J68799D01*
G01*
X110635202Y-76507631D01*
G75*
G02*
X109706370Y-75441201I68799J997631D01*
G01*
G37*
G36*
G01*
X104706369Y-75578799D02*
X104666370Y-74998799D01*
G75*
G02*
X105595202Y-73932369I997631J68799D01*
G01*
X105595202Y-73932369D01*
G75*
G02*
X106661632Y-74861201I68799J-997631D01*
G01*
X106701630Y-75441201D01*
G75*
G02*
X105772798Y-76507631I-997631J-68799D01*
G01*
X105772798Y-76507631D01*
G75*
G02*
X104706368Y-75578799I-68799J997631D01*
G01*
G37*
G36*
G01*
X106448307Y-76677828D02*
X105138317Y-78137837D01*
G75*
G02*
X103726172Y-78214316I-744312J667833D01*
G01*
X103726172Y-78214316D01*
G75*
G02*
X103649693Y-76802171I667833J744312D01*
G01*
X104959683Y-75342163D01*
G75*
G02*
X106371828Y-75265684I744312J-667833D01*
G01*
X106371828Y-75265684D01*
G75*
G02*
X106448307Y-76677829I-667833J-744312D01*
G01*
G37*
G36*
G01*
X111095280Y-75323043D02*
X112739188Y-77155208D01*
G75*
G02*
X112681828Y-78214316I-558234J-500874D01*
G01*
X112681828Y-78214316D01*
G75*
G02*
X111622720Y-78156956I-500874J558234D01*
G01*
X109978812Y-76324792D01*
G75*
G02*
X110036172Y-75265684I558234J500874D01*
G01*
X110036172Y-75265684D01*
G75*
G02*
X111095280Y-75323044I500874J-558234D01*
G01*
G37*
%TD*%
%TO.C,S-B2*%
G36*
G01*
X128502370Y-75441201D02*
X128542368Y-74861201D01*
G75*
G02*
X129608798Y-73932369I997631J-68799D01*
G01*
X129608798Y-73932369D01*
G75*
G02*
X130537630Y-74998799I-68799J-997631D01*
G01*
X130497632Y-75578799D01*
G75*
G02*
X129431202Y-76507631I-997631J68799D01*
G01*
X129431202Y-76507631D01*
G75*
G02*
X128502370Y-75441201I68799J997631D01*
G01*
G37*
G36*
G01*
X123502369Y-75578799D02*
X123462370Y-74998799D01*
G75*
G02*
X124391202Y-73932369I997631J68799D01*
G01*
X124391202Y-73932369D01*
G75*
G02*
X125457632Y-74861201I68799J-997631D01*
G01*
X125497630Y-75441201D01*
G75*
G02*
X124568798Y-76507631I-997631J-68799D01*
G01*
X124568798Y-76507631D01*
G75*
G02*
X123502368Y-75578799I-68799J997631D01*
G01*
G37*
G36*
G01*
X125244307Y-76677828D02*
X123934317Y-78137837D01*
G75*
G02*
X122522172Y-78214316I-744312J667833D01*
G01*
X122522172Y-78214316D01*
G75*
G02*
X122445693Y-76802171I667833J744312D01*
G01*
X123755683Y-75342163D01*
G75*
G02*
X125167828Y-75265684I744312J-667833D01*
G01*
X125167828Y-75265684D01*
G75*
G02*
X125244307Y-76677829I-667833J-744312D01*
G01*
G37*
G36*
G01*
X129891280Y-75323043D02*
X131535188Y-77155208D01*
G75*
G02*
X131477828Y-78214316I-558234J-500874D01*
G01*
X131477828Y-78214316D01*
G75*
G02*
X130418720Y-78156956I-500874J558234D01*
G01*
X128774812Y-76324792D01*
G75*
G02*
X128832172Y-75265684I558234J500874D01*
G01*
X128832172Y-75265684D01*
G75*
G02*
X129891280Y-75323044I500874J-558234D01*
G01*
G37*
%TD*%
%TO.C,S-B3*%
G36*
G01*
X147298370Y-75441201D02*
X147338368Y-74861201D01*
G75*
G02*
X148404798Y-73932369I997631J-68799D01*
G01*
X148404798Y-73932369D01*
G75*
G02*
X149333630Y-74998799I-68799J-997631D01*
G01*
X149293632Y-75578799D01*
G75*
G02*
X148227202Y-76507631I-997631J68799D01*
G01*
X148227202Y-76507631D01*
G75*
G02*
X147298370Y-75441201I68799J997631D01*
G01*
G37*
G36*
G01*
X142298369Y-75578799D02*
X142258370Y-74998799D01*
G75*
G02*
X143187202Y-73932369I997631J68799D01*
G01*
X143187202Y-73932369D01*
G75*
G02*
X144253632Y-74861201I68799J-997631D01*
G01*
X144293630Y-75441201D01*
G75*
G02*
X143364798Y-76507631I-997631J-68799D01*
G01*
X143364798Y-76507631D01*
G75*
G02*
X142298368Y-75578799I-68799J997631D01*
G01*
G37*
G36*
G01*
X144040307Y-76677828D02*
X142730317Y-78137837D01*
G75*
G02*
X141318172Y-78214316I-744312J667833D01*
G01*
X141318172Y-78214316D01*
G75*
G02*
X141241693Y-76802171I667833J744312D01*
G01*
X142551683Y-75342163D01*
G75*
G02*
X143963828Y-75265684I744312J-667833D01*
G01*
X143963828Y-75265684D01*
G75*
G02*
X144040307Y-76677829I-667833J-744312D01*
G01*
G37*
G36*
G01*
X148687280Y-75323043D02*
X150331188Y-77155208D01*
G75*
G02*
X150273828Y-78214316I-558234J-500874D01*
G01*
X150273828Y-78214316D01*
G75*
G02*
X149214720Y-78156956I-500874J558234D01*
G01*
X147570812Y-76324792D01*
G75*
G02*
X147628172Y-75265684I558234J500874D01*
G01*
X147628172Y-75265684D01*
G75*
G02*
X148687280Y-75323044I500874J-558234D01*
G01*
G37*
%TD*%
%TO.C,S-B4*%
G36*
G01*
X166094370Y-75441201D02*
X166134368Y-74861201D01*
G75*
G02*
X167200798Y-73932369I997631J-68799D01*
G01*
X167200798Y-73932369D01*
G75*
G02*
X168129630Y-74998799I-68799J-997631D01*
G01*
X168089632Y-75578799D01*
G75*
G02*
X167023202Y-76507631I-997631J68799D01*
G01*
X167023202Y-76507631D01*
G75*
G02*
X166094370Y-75441201I68799J997631D01*
G01*
G37*
G36*
G01*
X161094369Y-75578799D02*
X161054370Y-74998799D01*
G75*
G02*
X161983202Y-73932369I997631J68799D01*
G01*
X161983202Y-73932369D01*
G75*
G02*
X163049632Y-74861201I68799J-997631D01*
G01*
X163089630Y-75441201D01*
G75*
G02*
X162160798Y-76507631I-997631J-68799D01*
G01*
X162160798Y-76507631D01*
G75*
G02*
X161094368Y-75578799I-68799J997631D01*
G01*
G37*
G36*
G01*
X162836307Y-76677828D02*
X161526317Y-78137837D01*
G75*
G02*
X160114172Y-78214316I-744312J667833D01*
G01*
X160114172Y-78214316D01*
G75*
G02*
X160037693Y-76802171I667833J744312D01*
G01*
X161347683Y-75342163D01*
G75*
G02*
X162759828Y-75265684I744312J-667833D01*
G01*
X162759828Y-75265684D01*
G75*
G02*
X162836307Y-76677829I-667833J-744312D01*
G01*
G37*
G36*
G01*
X167483280Y-75323043D02*
X169127188Y-77155208D01*
G75*
G02*
X169069828Y-78214316I-558234J-500874D01*
G01*
X169069828Y-78214316D01*
G75*
G02*
X168010720Y-78156956I-500874J558234D01*
G01*
X166366812Y-76324792D01*
G75*
G02*
X166424172Y-75265684I558234J500874D01*
G01*
X166424172Y-75265684D01*
G75*
G02*
X167483280Y-75323044I500874J-558234D01*
G01*
G37*
%TD*%
%TO.C,S-B5*%
G36*
G01*
X184890370Y-75441201D02*
X184930368Y-74861201D01*
G75*
G02*
X185996798Y-73932369I997631J-68799D01*
G01*
X185996798Y-73932369D01*
G75*
G02*
X186925630Y-74998799I-68799J-997631D01*
G01*
X186885632Y-75578799D01*
G75*
G02*
X185819202Y-76507631I-997631J68799D01*
G01*
X185819202Y-76507631D01*
G75*
G02*
X184890370Y-75441201I68799J997631D01*
G01*
G37*
G36*
G01*
X179890369Y-75578799D02*
X179850370Y-74998799D01*
G75*
G02*
X180779202Y-73932369I997631J68799D01*
G01*
X180779202Y-73932369D01*
G75*
G02*
X181845632Y-74861201I68799J-997631D01*
G01*
X181885630Y-75441201D01*
G75*
G02*
X180956798Y-76507631I-997631J-68799D01*
G01*
X180956798Y-76507631D01*
G75*
G02*
X179890368Y-75578799I-68799J997631D01*
G01*
G37*
G36*
G01*
X181632307Y-76677828D02*
X180322317Y-78137837D01*
G75*
G02*
X178910172Y-78214316I-744312J667833D01*
G01*
X178910172Y-78214316D01*
G75*
G02*
X178833693Y-76802171I667833J744312D01*
G01*
X180143683Y-75342163D01*
G75*
G02*
X181555828Y-75265684I744312J-667833D01*
G01*
X181555828Y-75265684D01*
G75*
G02*
X181632307Y-76677829I-667833J-744312D01*
G01*
G37*
G36*
G01*
X186279280Y-75323043D02*
X187923188Y-77155208D01*
G75*
G02*
X187865828Y-78214316I-558234J-500874D01*
G01*
X187865828Y-78214316D01*
G75*
G02*
X186806720Y-78156956I-500874J558234D01*
G01*
X185162812Y-76324792D01*
G75*
G02*
X185220172Y-75265684I558234J500874D01*
G01*
X185220172Y-75265684D01*
G75*
G02*
X186279280Y-75323044I500874J-558234D01*
G01*
G37*
%TD*%
%TO.C,S-B6*%
G36*
G01*
X203686370Y-75441201D02*
X203726368Y-74861201D01*
G75*
G02*
X204792798Y-73932369I997631J-68799D01*
G01*
X204792798Y-73932369D01*
G75*
G02*
X205721630Y-74998799I-68799J-997631D01*
G01*
X205681632Y-75578799D01*
G75*
G02*
X204615202Y-76507631I-997631J68799D01*
G01*
X204615202Y-76507631D01*
G75*
G02*
X203686370Y-75441201I68799J997631D01*
G01*
G37*
G36*
G01*
X198686369Y-75578799D02*
X198646370Y-74998799D01*
G75*
G02*
X199575202Y-73932369I997631J68799D01*
G01*
X199575202Y-73932369D01*
G75*
G02*
X200641632Y-74861201I68799J-997631D01*
G01*
X200681630Y-75441201D01*
G75*
G02*
X199752798Y-76507631I-997631J-68799D01*
G01*
X199752798Y-76507631D01*
G75*
G02*
X198686368Y-75578799I-68799J997631D01*
G01*
G37*
G36*
G01*
X200428307Y-76677828D02*
X199118317Y-78137837D01*
G75*
G02*
X197706172Y-78214316I-744312J667833D01*
G01*
X197706172Y-78214316D01*
G75*
G02*
X197629693Y-76802171I667833J744312D01*
G01*
X198939683Y-75342163D01*
G75*
G02*
X200351828Y-75265684I744312J-667833D01*
G01*
X200351828Y-75265684D01*
G75*
G02*
X200428307Y-76677829I-667833J-744312D01*
G01*
G37*
G36*
G01*
X205075280Y-75323043D02*
X206719188Y-77155208D01*
G75*
G02*
X206661828Y-78214316I-558234J-500874D01*
G01*
X206661828Y-78214316D01*
G75*
G02*
X205602720Y-78156956I-500874J558234D01*
G01*
X203958812Y-76324792D01*
G75*
G02*
X204016172Y-75265684I558234J500874D01*
G01*
X204016172Y-75265684D01*
G75*
G02*
X205075280Y-75323044I500874J-558234D01*
G01*
G37*
%TD*%
%TO.C,S-B7*%
G36*
G01*
X222482370Y-75441201D02*
X222522368Y-74861201D01*
G75*
G02*
X223588798Y-73932369I997631J-68799D01*
G01*
X223588798Y-73932369D01*
G75*
G02*
X224517630Y-74998799I-68799J-997631D01*
G01*
X224477632Y-75578799D01*
G75*
G02*
X223411202Y-76507631I-997631J68799D01*
G01*
X223411202Y-76507631D01*
G75*
G02*
X222482370Y-75441201I68799J997631D01*
G01*
G37*
G36*
G01*
X217482369Y-75578799D02*
X217442370Y-74998799D01*
G75*
G02*
X218371202Y-73932369I997631J68799D01*
G01*
X218371202Y-73932369D01*
G75*
G02*
X219437632Y-74861201I68799J-997631D01*
G01*
X219477630Y-75441201D01*
G75*
G02*
X218548798Y-76507631I-997631J-68799D01*
G01*
X218548798Y-76507631D01*
G75*
G02*
X217482368Y-75578799I-68799J997631D01*
G01*
G37*
G36*
G01*
X219224307Y-76677828D02*
X217914317Y-78137837D01*
G75*
G02*
X216502172Y-78214316I-744312J667833D01*
G01*
X216502172Y-78214316D01*
G75*
G02*
X216425693Y-76802171I667833J744312D01*
G01*
X217735683Y-75342163D01*
G75*
G02*
X219147828Y-75265684I744312J-667833D01*
G01*
X219147828Y-75265684D01*
G75*
G02*
X219224307Y-76677829I-667833J-744312D01*
G01*
G37*
G36*
G01*
X223871280Y-75323043D02*
X225515188Y-77155208D01*
G75*
G02*
X225457828Y-78214316I-558234J-500874D01*
G01*
X225457828Y-78214316D01*
G75*
G02*
X224398720Y-78156956I-500874J558234D01*
G01*
X222754812Y-76324792D01*
G75*
G02*
X222812172Y-75265684I558234J500874D01*
G01*
X222812172Y-75265684D01*
G75*
G02*
X223871280Y-75323044I500874J-558234D01*
G01*
G37*
%TD*%
%TO.C,S-B8*%
G36*
G01*
X241278370Y-75441201D02*
X241318368Y-74861201D01*
G75*
G02*
X242384798Y-73932369I997631J-68799D01*
G01*
X242384798Y-73932369D01*
G75*
G02*
X243313630Y-74998799I-68799J-997631D01*
G01*
X243273632Y-75578799D01*
G75*
G02*
X242207202Y-76507631I-997631J68799D01*
G01*
X242207202Y-76507631D01*
G75*
G02*
X241278370Y-75441201I68799J997631D01*
G01*
G37*
G36*
G01*
X236278369Y-75578799D02*
X236238370Y-74998799D01*
G75*
G02*
X237167202Y-73932369I997631J68799D01*
G01*
X237167202Y-73932369D01*
G75*
G02*
X238233632Y-74861201I68799J-997631D01*
G01*
X238273630Y-75441201D01*
G75*
G02*
X237344798Y-76507631I-997631J-68799D01*
G01*
X237344798Y-76507631D01*
G75*
G02*
X236278368Y-75578799I-68799J997631D01*
G01*
G37*
G36*
G01*
X238020307Y-76677828D02*
X236710317Y-78137837D01*
G75*
G02*
X235298172Y-78214316I-744312J667833D01*
G01*
X235298172Y-78214316D01*
G75*
G02*
X235221693Y-76802171I667833J744312D01*
G01*
X236531683Y-75342163D01*
G75*
G02*
X237943828Y-75265684I744312J-667833D01*
G01*
X237943828Y-75265684D01*
G75*
G02*
X238020307Y-76677829I-667833J-744312D01*
G01*
G37*
G36*
G01*
X242667280Y-75323043D02*
X244311188Y-77155208D01*
G75*
G02*
X244253828Y-78214316I-558234J-500874D01*
G01*
X244253828Y-78214316D01*
G75*
G02*
X243194720Y-78156956I-500874J558234D01*
G01*
X241550812Y-76324792D01*
G75*
G02*
X241608172Y-75265684I558234J500874D01*
G01*
X241608172Y-75265684D01*
G75*
G02*
X242667280Y-75323044I500874J-558234D01*
G01*
G37*
%TD*%
%TO.C,S-B9*%
G36*
G01*
X260074370Y-75441201D02*
X260114368Y-74861201D01*
G75*
G02*
X261180798Y-73932369I997631J-68799D01*
G01*
X261180798Y-73932369D01*
G75*
G02*
X262109630Y-74998799I-68799J-997631D01*
G01*
X262069632Y-75578799D01*
G75*
G02*
X261003202Y-76507631I-997631J68799D01*
G01*
X261003202Y-76507631D01*
G75*
G02*
X260074370Y-75441201I68799J997631D01*
G01*
G37*
G36*
G01*
X255074369Y-75578799D02*
X255034370Y-74998799D01*
G75*
G02*
X255963202Y-73932369I997631J68799D01*
G01*
X255963202Y-73932369D01*
G75*
G02*
X257029632Y-74861201I68799J-997631D01*
G01*
X257069630Y-75441201D01*
G75*
G02*
X256140798Y-76507631I-997631J-68799D01*
G01*
X256140798Y-76507631D01*
G75*
G02*
X255074368Y-75578799I-68799J997631D01*
G01*
G37*
G36*
G01*
X256816307Y-76677828D02*
X255506317Y-78137837D01*
G75*
G02*
X254094172Y-78214316I-744312J667833D01*
G01*
X254094172Y-78214316D01*
G75*
G02*
X254017693Y-76802171I667833J744312D01*
G01*
X255327683Y-75342163D01*
G75*
G02*
X256739828Y-75265684I744312J-667833D01*
G01*
X256739828Y-75265684D01*
G75*
G02*
X256816307Y-76677829I-667833J-744312D01*
G01*
G37*
G36*
G01*
X261463280Y-75323043D02*
X263107188Y-77155208D01*
G75*
G02*
X263049828Y-78214316I-558234J-500874D01*
G01*
X263049828Y-78214316D01*
G75*
G02*
X261990720Y-78156956I-500874J558234D01*
G01*
X260346812Y-76324792D01*
G75*
G02*
X260404172Y-75265684I558234J500874D01*
G01*
X260404172Y-75265684D01*
G75*
G02*
X261463280Y-75323044I500874J-558234D01*
G01*
G37*
%TD*%
%TO.C,S-B10*%
G36*
G01*
X278870370Y-75441201D02*
X278910368Y-74861201D01*
G75*
G02*
X279976798Y-73932369I997631J-68799D01*
G01*
X279976798Y-73932369D01*
G75*
G02*
X280905630Y-74998799I-68799J-997631D01*
G01*
X280865632Y-75578799D01*
G75*
G02*
X279799202Y-76507631I-997631J68799D01*
G01*
X279799202Y-76507631D01*
G75*
G02*
X278870370Y-75441201I68799J997631D01*
G01*
G37*
G36*
G01*
X273870369Y-75578799D02*
X273830370Y-74998799D01*
G75*
G02*
X274759202Y-73932369I997631J68799D01*
G01*
X274759202Y-73932369D01*
G75*
G02*
X275825632Y-74861201I68799J-997631D01*
G01*
X275865630Y-75441201D01*
G75*
G02*
X274936798Y-76507631I-997631J-68799D01*
G01*
X274936798Y-76507631D01*
G75*
G02*
X273870368Y-75578799I-68799J997631D01*
G01*
G37*
G36*
G01*
X275612307Y-76677828D02*
X274302317Y-78137837D01*
G75*
G02*
X272890172Y-78214316I-744312J667833D01*
G01*
X272890172Y-78214316D01*
G75*
G02*
X272813693Y-76802171I667833J744312D01*
G01*
X274123683Y-75342163D01*
G75*
G02*
X275535828Y-75265684I744312J-667833D01*
G01*
X275535828Y-75265684D01*
G75*
G02*
X275612307Y-76677829I-667833J-744312D01*
G01*
G37*
G36*
G01*
X280259280Y-75323043D02*
X281903188Y-77155208D01*
G75*
G02*
X281845828Y-78214316I-558234J-500874D01*
G01*
X281845828Y-78214316D01*
G75*
G02*
X280786720Y-78156956I-500874J558234D01*
G01*
X279142812Y-76324792D01*
G75*
G02*
X279200172Y-75265684I558234J500874D01*
G01*
X279200172Y-75265684D01*
G75*
G02*
X280259280Y-75323044I500874J-558234D01*
G01*
G37*
%TD*%
%TO.C,S-B11*%
G36*
G01*
X297666370Y-75441201D02*
X297706368Y-74861201D01*
G75*
G02*
X298772798Y-73932369I997631J-68799D01*
G01*
X298772798Y-73932369D01*
G75*
G02*
X299701630Y-74998799I-68799J-997631D01*
G01*
X299661632Y-75578799D01*
G75*
G02*
X298595202Y-76507631I-997631J68799D01*
G01*
X298595202Y-76507631D01*
G75*
G02*
X297666370Y-75441201I68799J997631D01*
G01*
G37*
G36*
G01*
X292666369Y-75578799D02*
X292626370Y-74998799D01*
G75*
G02*
X293555202Y-73932369I997631J68799D01*
G01*
X293555202Y-73932369D01*
G75*
G02*
X294621632Y-74861201I68799J-997631D01*
G01*
X294661630Y-75441201D01*
G75*
G02*
X293732798Y-76507631I-997631J-68799D01*
G01*
X293732798Y-76507631D01*
G75*
G02*
X292666368Y-75578799I-68799J997631D01*
G01*
G37*
G36*
G01*
X294408307Y-76677828D02*
X293098317Y-78137837D01*
G75*
G02*
X291686172Y-78214316I-744312J667833D01*
G01*
X291686172Y-78214316D01*
G75*
G02*
X291609693Y-76802171I667833J744312D01*
G01*
X292919683Y-75342163D01*
G75*
G02*
X294331828Y-75265684I744312J-667833D01*
G01*
X294331828Y-75265684D01*
G75*
G02*
X294408307Y-76677829I-667833J-744312D01*
G01*
G37*
G36*
G01*
X299055280Y-75323043D02*
X300699188Y-77155208D01*
G75*
G02*
X300641828Y-78214316I-558234J-500874D01*
G01*
X300641828Y-78214316D01*
G75*
G02*
X299582720Y-78156956I-500874J558234D01*
G01*
X297938812Y-76324792D01*
G75*
G02*
X297996172Y-75265684I558234J500874D01*
G01*
X297996172Y-75265684D01*
G75*
G02*
X299055280Y-75323044I500874J-558234D01*
G01*
G37*
%TD*%
%TO.C,S-C0*%
G36*
G01*
X66780370Y-94237201D02*
X66820368Y-93657201D01*
G75*
G02*
X67886798Y-92728369I997631J-68799D01*
G01*
X67886798Y-92728369D01*
G75*
G02*
X68815630Y-93794799I-68799J-997631D01*
G01*
X68775632Y-94374799D01*
G75*
G02*
X67709202Y-95303631I-997631J68799D01*
G01*
X67709202Y-95303631D01*
G75*
G02*
X66780370Y-94237201I68799J997631D01*
G01*
G37*
G36*
G01*
X61780369Y-94374799D02*
X61740370Y-93794799D01*
G75*
G02*
X62669202Y-92728369I997631J68799D01*
G01*
X62669202Y-92728369D01*
G75*
G02*
X63735632Y-93657201I68799J-997631D01*
G01*
X63775630Y-94237201D01*
G75*
G02*
X62846798Y-95303631I-997631J-68799D01*
G01*
X62846798Y-95303631D01*
G75*
G02*
X61780368Y-94374799I-68799J997631D01*
G01*
G37*
G36*
G01*
X63522307Y-95473828D02*
X62212317Y-96933837D01*
G75*
G02*
X60800172Y-97010316I-744312J667833D01*
G01*
X60800172Y-97010316D01*
G75*
G02*
X60723693Y-95598171I667833J744312D01*
G01*
X62033683Y-94138163D01*
G75*
G02*
X63445828Y-94061684I744312J-667833D01*
G01*
X63445828Y-94061684D01*
G75*
G02*
X63522307Y-95473829I-667833J-744312D01*
G01*
G37*
G36*
G01*
X68169280Y-94119043D02*
X69813188Y-95951208D01*
G75*
G02*
X69755828Y-97010316I-558234J-500874D01*
G01*
X69755828Y-97010316D01*
G75*
G02*
X68696720Y-96952956I-500874J558234D01*
G01*
X67052812Y-95120792D01*
G75*
G02*
X67110172Y-94061684I558234J500874D01*
G01*
X67110172Y-94061684D01*
G75*
G02*
X68169280Y-94119044I500874J-558234D01*
G01*
G37*
%TD*%
%TO.C,S-C1*%
G36*
G01*
X90910370Y-94237201D02*
X90950368Y-93657201D01*
G75*
G02*
X92016798Y-92728369I997631J-68799D01*
G01*
X92016798Y-92728369D01*
G75*
G02*
X92945630Y-93794799I-68799J-997631D01*
G01*
X92905632Y-94374799D01*
G75*
G02*
X91839202Y-95303631I-997631J68799D01*
G01*
X91839202Y-95303631D01*
G75*
G02*
X90910370Y-94237201I68799J997631D01*
G01*
G37*
G36*
G01*
X85910369Y-94374799D02*
X85870370Y-93794799D01*
G75*
G02*
X86799202Y-92728369I997631J68799D01*
G01*
X86799202Y-92728369D01*
G75*
G02*
X87865632Y-93657201I68799J-997631D01*
G01*
X87905630Y-94237201D01*
G75*
G02*
X86976798Y-95303631I-997631J-68799D01*
G01*
X86976798Y-95303631D01*
G75*
G02*
X85910368Y-94374799I-68799J997631D01*
G01*
G37*
G36*
G01*
X87652307Y-95473828D02*
X86342317Y-96933837D01*
G75*
G02*
X84930172Y-97010316I-744312J667833D01*
G01*
X84930172Y-97010316D01*
G75*
G02*
X84853693Y-95598171I667833J744312D01*
G01*
X86163683Y-94138163D01*
G75*
G02*
X87575828Y-94061684I744312J-667833D01*
G01*
X87575828Y-94061684D01*
G75*
G02*
X87652307Y-95473829I-667833J-744312D01*
G01*
G37*
G36*
G01*
X92299280Y-94119043D02*
X93943188Y-95951208D01*
G75*
G02*
X93885828Y-97010316I-558234J-500874D01*
G01*
X93885828Y-97010316D01*
G75*
G02*
X92826720Y-96952956I-500874J558234D01*
G01*
X91182812Y-95120792D01*
G75*
G02*
X91240172Y-94061684I558234J500874D01*
G01*
X91240172Y-94061684D01*
G75*
G02*
X92299280Y-94119044I500874J-558234D01*
G01*
G37*
%TD*%
%TO.C,S-C2*%
G36*
G01*
X109706370Y-94237201D02*
X109746368Y-93657201D01*
G75*
G02*
X110812798Y-92728369I997631J-68799D01*
G01*
X110812798Y-92728369D01*
G75*
G02*
X111741630Y-93794799I-68799J-997631D01*
G01*
X111701632Y-94374799D01*
G75*
G02*
X110635202Y-95303631I-997631J68799D01*
G01*
X110635202Y-95303631D01*
G75*
G02*
X109706370Y-94237201I68799J997631D01*
G01*
G37*
G36*
G01*
X104706369Y-94374799D02*
X104666370Y-93794799D01*
G75*
G02*
X105595202Y-92728369I997631J68799D01*
G01*
X105595202Y-92728369D01*
G75*
G02*
X106661632Y-93657201I68799J-997631D01*
G01*
X106701630Y-94237201D01*
G75*
G02*
X105772798Y-95303631I-997631J-68799D01*
G01*
X105772798Y-95303631D01*
G75*
G02*
X104706368Y-94374799I-68799J997631D01*
G01*
G37*
G36*
G01*
X106448307Y-95473828D02*
X105138317Y-96933837D01*
G75*
G02*
X103726172Y-97010316I-744312J667833D01*
G01*
X103726172Y-97010316D01*
G75*
G02*
X103649693Y-95598171I667833J744312D01*
G01*
X104959683Y-94138163D01*
G75*
G02*
X106371828Y-94061684I744312J-667833D01*
G01*
X106371828Y-94061684D01*
G75*
G02*
X106448307Y-95473829I-667833J-744312D01*
G01*
G37*
G36*
G01*
X111095280Y-94119043D02*
X112739188Y-95951208D01*
G75*
G02*
X112681828Y-97010316I-558234J-500874D01*
G01*
X112681828Y-97010316D01*
G75*
G02*
X111622720Y-96952956I-500874J558234D01*
G01*
X109978812Y-95120792D01*
G75*
G02*
X110036172Y-94061684I558234J500874D01*
G01*
X110036172Y-94061684D01*
G75*
G02*
X111095280Y-94119044I500874J-558234D01*
G01*
G37*
%TD*%
%TO.C,S-C3*%
G36*
G01*
X128502370Y-94237201D02*
X128542368Y-93657201D01*
G75*
G02*
X129608798Y-92728369I997631J-68799D01*
G01*
X129608798Y-92728369D01*
G75*
G02*
X130537630Y-93794799I-68799J-997631D01*
G01*
X130497632Y-94374799D01*
G75*
G02*
X129431202Y-95303631I-997631J68799D01*
G01*
X129431202Y-95303631D01*
G75*
G02*
X128502370Y-94237201I68799J997631D01*
G01*
G37*
G36*
G01*
X123502369Y-94374799D02*
X123462370Y-93794799D01*
G75*
G02*
X124391202Y-92728369I997631J68799D01*
G01*
X124391202Y-92728369D01*
G75*
G02*
X125457632Y-93657201I68799J-997631D01*
G01*
X125497630Y-94237201D01*
G75*
G02*
X124568798Y-95303631I-997631J-68799D01*
G01*
X124568798Y-95303631D01*
G75*
G02*
X123502368Y-94374799I-68799J997631D01*
G01*
G37*
G36*
G01*
X125244307Y-95473828D02*
X123934317Y-96933837D01*
G75*
G02*
X122522172Y-97010316I-744312J667833D01*
G01*
X122522172Y-97010316D01*
G75*
G02*
X122445693Y-95598171I667833J744312D01*
G01*
X123755683Y-94138163D01*
G75*
G02*
X125167828Y-94061684I744312J-667833D01*
G01*
X125167828Y-94061684D01*
G75*
G02*
X125244307Y-95473829I-667833J-744312D01*
G01*
G37*
G36*
G01*
X129891280Y-94119043D02*
X131535188Y-95951208D01*
G75*
G02*
X131477828Y-97010316I-558234J-500874D01*
G01*
X131477828Y-97010316D01*
G75*
G02*
X130418720Y-96952956I-500874J558234D01*
G01*
X128774812Y-95120792D01*
G75*
G02*
X128832172Y-94061684I558234J500874D01*
G01*
X128832172Y-94061684D01*
G75*
G02*
X129891280Y-94119044I500874J-558234D01*
G01*
G37*
%TD*%
%TO.C,S-C4*%
G36*
G01*
X147298370Y-94237201D02*
X147338368Y-93657201D01*
G75*
G02*
X148404798Y-92728369I997631J-68799D01*
G01*
X148404798Y-92728369D01*
G75*
G02*
X149333630Y-93794799I-68799J-997631D01*
G01*
X149293632Y-94374799D01*
G75*
G02*
X148227202Y-95303631I-997631J68799D01*
G01*
X148227202Y-95303631D01*
G75*
G02*
X147298370Y-94237201I68799J997631D01*
G01*
G37*
G36*
G01*
X142298369Y-94374799D02*
X142258370Y-93794799D01*
G75*
G02*
X143187202Y-92728369I997631J68799D01*
G01*
X143187202Y-92728369D01*
G75*
G02*
X144253632Y-93657201I68799J-997631D01*
G01*
X144293630Y-94237201D01*
G75*
G02*
X143364798Y-95303631I-997631J-68799D01*
G01*
X143364798Y-95303631D01*
G75*
G02*
X142298368Y-94374799I-68799J997631D01*
G01*
G37*
G36*
G01*
X144040307Y-95473828D02*
X142730317Y-96933837D01*
G75*
G02*
X141318172Y-97010316I-744312J667833D01*
G01*
X141318172Y-97010316D01*
G75*
G02*
X141241693Y-95598171I667833J744312D01*
G01*
X142551683Y-94138163D01*
G75*
G02*
X143963828Y-94061684I744312J-667833D01*
G01*
X143963828Y-94061684D01*
G75*
G02*
X144040307Y-95473829I-667833J-744312D01*
G01*
G37*
G36*
G01*
X148687280Y-94119043D02*
X150331188Y-95951208D01*
G75*
G02*
X150273828Y-97010316I-558234J-500874D01*
G01*
X150273828Y-97010316D01*
G75*
G02*
X149214720Y-96952956I-500874J558234D01*
G01*
X147570812Y-95120792D01*
G75*
G02*
X147628172Y-94061684I558234J500874D01*
G01*
X147628172Y-94061684D01*
G75*
G02*
X148687280Y-94119044I500874J-558234D01*
G01*
G37*
%TD*%
%TO.C,S-C5*%
G36*
G01*
X166094370Y-94237201D02*
X166134368Y-93657201D01*
G75*
G02*
X167200798Y-92728369I997631J-68799D01*
G01*
X167200798Y-92728369D01*
G75*
G02*
X168129630Y-93794799I-68799J-997631D01*
G01*
X168089632Y-94374799D01*
G75*
G02*
X167023202Y-95303631I-997631J68799D01*
G01*
X167023202Y-95303631D01*
G75*
G02*
X166094370Y-94237201I68799J997631D01*
G01*
G37*
G36*
G01*
X161094369Y-94374799D02*
X161054370Y-93794799D01*
G75*
G02*
X161983202Y-92728369I997631J68799D01*
G01*
X161983202Y-92728369D01*
G75*
G02*
X163049632Y-93657201I68799J-997631D01*
G01*
X163089630Y-94237201D01*
G75*
G02*
X162160798Y-95303631I-997631J-68799D01*
G01*
X162160798Y-95303631D01*
G75*
G02*
X161094368Y-94374799I-68799J997631D01*
G01*
G37*
G36*
G01*
X162836307Y-95473828D02*
X161526317Y-96933837D01*
G75*
G02*
X160114172Y-97010316I-744312J667833D01*
G01*
X160114172Y-97010316D01*
G75*
G02*
X160037693Y-95598171I667833J744312D01*
G01*
X161347683Y-94138163D01*
G75*
G02*
X162759828Y-94061684I744312J-667833D01*
G01*
X162759828Y-94061684D01*
G75*
G02*
X162836307Y-95473829I-667833J-744312D01*
G01*
G37*
G36*
G01*
X167483280Y-94119043D02*
X169127188Y-95951208D01*
G75*
G02*
X169069828Y-97010316I-558234J-500874D01*
G01*
X169069828Y-97010316D01*
G75*
G02*
X168010720Y-96952956I-500874J558234D01*
G01*
X166366812Y-95120792D01*
G75*
G02*
X166424172Y-94061684I558234J500874D01*
G01*
X166424172Y-94061684D01*
G75*
G02*
X167483280Y-94119044I500874J-558234D01*
G01*
G37*
%TD*%
%TO.C,S-C6*%
G36*
G01*
X184890370Y-94237201D02*
X184930368Y-93657201D01*
G75*
G02*
X185996798Y-92728369I997631J-68799D01*
G01*
X185996798Y-92728369D01*
G75*
G02*
X186925630Y-93794799I-68799J-997631D01*
G01*
X186885632Y-94374799D01*
G75*
G02*
X185819202Y-95303631I-997631J68799D01*
G01*
X185819202Y-95303631D01*
G75*
G02*
X184890370Y-94237201I68799J997631D01*
G01*
G37*
G36*
G01*
X179890369Y-94374799D02*
X179850370Y-93794799D01*
G75*
G02*
X180779202Y-92728369I997631J68799D01*
G01*
X180779202Y-92728369D01*
G75*
G02*
X181845632Y-93657201I68799J-997631D01*
G01*
X181885630Y-94237201D01*
G75*
G02*
X180956798Y-95303631I-997631J-68799D01*
G01*
X180956798Y-95303631D01*
G75*
G02*
X179890368Y-94374799I-68799J997631D01*
G01*
G37*
G36*
G01*
X181632307Y-95473828D02*
X180322317Y-96933837D01*
G75*
G02*
X178910172Y-97010316I-744312J667833D01*
G01*
X178910172Y-97010316D01*
G75*
G02*
X178833693Y-95598171I667833J744312D01*
G01*
X180143683Y-94138163D01*
G75*
G02*
X181555828Y-94061684I744312J-667833D01*
G01*
X181555828Y-94061684D01*
G75*
G02*
X181632307Y-95473829I-667833J-744312D01*
G01*
G37*
G36*
G01*
X186279280Y-94119043D02*
X187923188Y-95951208D01*
G75*
G02*
X187865828Y-97010316I-558234J-500874D01*
G01*
X187865828Y-97010316D01*
G75*
G02*
X186806720Y-96952956I-500874J558234D01*
G01*
X185162812Y-95120792D01*
G75*
G02*
X185220172Y-94061684I558234J500874D01*
G01*
X185220172Y-94061684D01*
G75*
G02*
X186279280Y-94119044I500874J-558234D01*
G01*
G37*
%TD*%
%TO.C,S-C7*%
G36*
G01*
X203686370Y-94237201D02*
X203726368Y-93657201D01*
G75*
G02*
X204792798Y-92728369I997631J-68799D01*
G01*
X204792798Y-92728369D01*
G75*
G02*
X205721630Y-93794799I-68799J-997631D01*
G01*
X205681632Y-94374799D01*
G75*
G02*
X204615202Y-95303631I-997631J68799D01*
G01*
X204615202Y-95303631D01*
G75*
G02*
X203686370Y-94237201I68799J997631D01*
G01*
G37*
G36*
G01*
X198686369Y-94374799D02*
X198646370Y-93794799D01*
G75*
G02*
X199575202Y-92728369I997631J68799D01*
G01*
X199575202Y-92728369D01*
G75*
G02*
X200641632Y-93657201I68799J-997631D01*
G01*
X200681630Y-94237201D01*
G75*
G02*
X199752798Y-95303631I-997631J-68799D01*
G01*
X199752798Y-95303631D01*
G75*
G02*
X198686368Y-94374799I-68799J997631D01*
G01*
G37*
G36*
G01*
X200428307Y-95473828D02*
X199118317Y-96933837D01*
G75*
G02*
X197706172Y-97010316I-744312J667833D01*
G01*
X197706172Y-97010316D01*
G75*
G02*
X197629693Y-95598171I667833J744312D01*
G01*
X198939683Y-94138163D01*
G75*
G02*
X200351828Y-94061684I744312J-667833D01*
G01*
X200351828Y-94061684D01*
G75*
G02*
X200428307Y-95473829I-667833J-744312D01*
G01*
G37*
G36*
G01*
X205075280Y-94119043D02*
X206719188Y-95951208D01*
G75*
G02*
X206661828Y-97010316I-558234J-500874D01*
G01*
X206661828Y-97010316D01*
G75*
G02*
X205602720Y-96952956I-500874J558234D01*
G01*
X203958812Y-95120792D01*
G75*
G02*
X204016172Y-94061684I558234J500874D01*
G01*
X204016172Y-94061684D01*
G75*
G02*
X205075280Y-94119044I500874J-558234D01*
G01*
G37*
%TD*%
%TO.C,S-C8*%
G36*
G01*
X222482370Y-94237201D02*
X222522368Y-93657201D01*
G75*
G02*
X223588798Y-92728369I997631J-68799D01*
G01*
X223588798Y-92728369D01*
G75*
G02*
X224517630Y-93794799I-68799J-997631D01*
G01*
X224477632Y-94374799D01*
G75*
G02*
X223411202Y-95303631I-997631J68799D01*
G01*
X223411202Y-95303631D01*
G75*
G02*
X222482370Y-94237201I68799J997631D01*
G01*
G37*
G36*
G01*
X217482369Y-94374799D02*
X217442370Y-93794799D01*
G75*
G02*
X218371202Y-92728369I997631J68799D01*
G01*
X218371202Y-92728369D01*
G75*
G02*
X219437632Y-93657201I68799J-997631D01*
G01*
X219477630Y-94237201D01*
G75*
G02*
X218548798Y-95303631I-997631J-68799D01*
G01*
X218548798Y-95303631D01*
G75*
G02*
X217482368Y-94374799I-68799J997631D01*
G01*
G37*
G36*
G01*
X219224307Y-95473828D02*
X217914317Y-96933837D01*
G75*
G02*
X216502172Y-97010316I-744312J667833D01*
G01*
X216502172Y-97010316D01*
G75*
G02*
X216425693Y-95598171I667833J744312D01*
G01*
X217735683Y-94138163D01*
G75*
G02*
X219147828Y-94061684I744312J-667833D01*
G01*
X219147828Y-94061684D01*
G75*
G02*
X219224307Y-95473829I-667833J-744312D01*
G01*
G37*
G36*
G01*
X223871280Y-94119043D02*
X225515188Y-95951208D01*
G75*
G02*
X225457828Y-97010316I-558234J-500874D01*
G01*
X225457828Y-97010316D01*
G75*
G02*
X224398720Y-96952956I-500874J558234D01*
G01*
X222754812Y-95120792D01*
G75*
G02*
X222812172Y-94061684I558234J500874D01*
G01*
X222812172Y-94061684D01*
G75*
G02*
X223871280Y-94119044I500874J-558234D01*
G01*
G37*
%TD*%
%TO.C,S-C9*%
G36*
G01*
X241278370Y-94237201D02*
X241318368Y-93657201D01*
G75*
G02*
X242384798Y-92728369I997631J-68799D01*
G01*
X242384798Y-92728369D01*
G75*
G02*
X243313630Y-93794799I-68799J-997631D01*
G01*
X243273632Y-94374799D01*
G75*
G02*
X242207202Y-95303631I-997631J68799D01*
G01*
X242207202Y-95303631D01*
G75*
G02*
X241278370Y-94237201I68799J997631D01*
G01*
G37*
G36*
G01*
X236278369Y-94374799D02*
X236238370Y-93794799D01*
G75*
G02*
X237167202Y-92728369I997631J68799D01*
G01*
X237167202Y-92728369D01*
G75*
G02*
X238233632Y-93657201I68799J-997631D01*
G01*
X238273630Y-94237201D01*
G75*
G02*
X237344798Y-95303631I-997631J-68799D01*
G01*
X237344798Y-95303631D01*
G75*
G02*
X236278368Y-94374799I-68799J997631D01*
G01*
G37*
G36*
G01*
X238020307Y-95473828D02*
X236710317Y-96933837D01*
G75*
G02*
X235298172Y-97010316I-744312J667833D01*
G01*
X235298172Y-97010316D01*
G75*
G02*
X235221693Y-95598171I667833J744312D01*
G01*
X236531683Y-94138163D01*
G75*
G02*
X237943828Y-94061684I744312J-667833D01*
G01*
X237943828Y-94061684D01*
G75*
G02*
X238020307Y-95473829I-667833J-744312D01*
G01*
G37*
G36*
G01*
X242667280Y-94119043D02*
X244311188Y-95951208D01*
G75*
G02*
X244253828Y-97010316I-558234J-500874D01*
G01*
X244253828Y-97010316D01*
G75*
G02*
X243194720Y-96952956I-500874J558234D01*
G01*
X241550812Y-95120792D01*
G75*
G02*
X241608172Y-94061684I558234J500874D01*
G01*
X241608172Y-94061684D01*
G75*
G02*
X242667280Y-94119044I500874J-558234D01*
G01*
G37*
%TD*%
%TO.C,S-C10*%
G36*
G01*
X260074370Y-94237201D02*
X260114368Y-93657201D01*
G75*
G02*
X261180798Y-92728369I997631J-68799D01*
G01*
X261180798Y-92728369D01*
G75*
G02*
X262109630Y-93794799I-68799J-997631D01*
G01*
X262069632Y-94374799D01*
G75*
G02*
X261003202Y-95303631I-997631J68799D01*
G01*
X261003202Y-95303631D01*
G75*
G02*
X260074370Y-94237201I68799J997631D01*
G01*
G37*
G36*
G01*
X255074369Y-94374799D02*
X255034370Y-93794799D01*
G75*
G02*
X255963202Y-92728369I997631J68799D01*
G01*
X255963202Y-92728369D01*
G75*
G02*
X257029632Y-93657201I68799J-997631D01*
G01*
X257069630Y-94237201D01*
G75*
G02*
X256140798Y-95303631I-997631J-68799D01*
G01*
X256140798Y-95303631D01*
G75*
G02*
X255074368Y-94374799I-68799J997631D01*
G01*
G37*
G36*
G01*
X256816307Y-95473828D02*
X255506317Y-96933837D01*
G75*
G02*
X254094172Y-97010316I-744312J667833D01*
G01*
X254094172Y-97010316D01*
G75*
G02*
X254017693Y-95598171I667833J744312D01*
G01*
X255327683Y-94138163D01*
G75*
G02*
X256739828Y-94061684I744312J-667833D01*
G01*
X256739828Y-94061684D01*
G75*
G02*
X256816307Y-95473829I-667833J-744312D01*
G01*
G37*
G36*
G01*
X261463280Y-94119043D02*
X263107188Y-95951208D01*
G75*
G02*
X263049828Y-97010316I-558234J-500874D01*
G01*
X263049828Y-97010316D01*
G75*
G02*
X261990720Y-96952956I-500874J558234D01*
G01*
X260346812Y-95120792D01*
G75*
G02*
X260404172Y-94061684I558234J500874D01*
G01*
X260404172Y-94061684D01*
G75*
G02*
X261463280Y-94119044I500874J-558234D01*
G01*
G37*
%TD*%
%TO.C,S-C11*%
G36*
G01*
X278870370Y-94237201D02*
X278910368Y-93657201D01*
G75*
G02*
X279976798Y-92728369I997631J-68799D01*
G01*
X279976798Y-92728369D01*
G75*
G02*
X280905630Y-93794799I-68799J-997631D01*
G01*
X280865632Y-94374799D01*
G75*
G02*
X279799202Y-95303631I-997631J68799D01*
G01*
X279799202Y-95303631D01*
G75*
G02*
X278870370Y-94237201I68799J997631D01*
G01*
G37*
G36*
G01*
X273870369Y-94374799D02*
X273830370Y-93794799D01*
G75*
G02*
X274759202Y-92728369I997631J68799D01*
G01*
X274759202Y-92728369D01*
G75*
G02*
X275825632Y-93657201I68799J-997631D01*
G01*
X275865630Y-94237201D01*
G75*
G02*
X274936798Y-95303631I-997631J-68799D01*
G01*
X274936798Y-95303631D01*
G75*
G02*
X273870368Y-94374799I-68799J997631D01*
G01*
G37*
G36*
G01*
X275612307Y-95473828D02*
X274302317Y-96933837D01*
G75*
G02*
X272890172Y-97010316I-744312J667833D01*
G01*
X272890172Y-97010316D01*
G75*
G02*
X272813693Y-95598171I667833J744312D01*
G01*
X274123683Y-94138163D01*
G75*
G02*
X275535828Y-94061684I744312J-667833D01*
G01*
X275535828Y-94061684D01*
G75*
G02*
X275612307Y-95473829I-667833J-744312D01*
G01*
G37*
G36*
G01*
X280259280Y-94119043D02*
X281903188Y-95951208D01*
G75*
G02*
X281845828Y-97010316I-558234J-500874D01*
G01*
X281845828Y-97010316D01*
G75*
G02*
X280786720Y-96952956I-500874J558234D01*
G01*
X279142812Y-95120792D01*
G75*
G02*
X279200172Y-94061684I558234J500874D01*
G01*
X279200172Y-94061684D01*
G75*
G02*
X280259280Y-94119044I500874J-558234D01*
G01*
G37*
%TD*%
%TO.C,S-C12*%
G36*
G01*
X297666370Y-94237201D02*
X297706368Y-93657201D01*
G75*
G02*
X298772798Y-92728369I997631J-68799D01*
G01*
X298772798Y-92728369D01*
G75*
G02*
X299701630Y-93794799I-68799J-997631D01*
G01*
X299661632Y-94374799D01*
G75*
G02*
X298595202Y-95303631I-997631J68799D01*
G01*
X298595202Y-95303631D01*
G75*
G02*
X297666370Y-94237201I68799J997631D01*
G01*
G37*
G36*
G01*
X292666369Y-94374799D02*
X292626370Y-93794799D01*
G75*
G02*
X293555202Y-92728369I997631J68799D01*
G01*
X293555202Y-92728369D01*
G75*
G02*
X294621632Y-93657201I68799J-997631D01*
G01*
X294661630Y-94237201D01*
G75*
G02*
X293732798Y-95303631I-997631J-68799D01*
G01*
X293732798Y-95303631D01*
G75*
G02*
X292666368Y-94374799I-68799J997631D01*
G01*
G37*
G36*
G01*
X294408307Y-95473828D02*
X293098317Y-96933837D01*
G75*
G02*
X291686172Y-97010316I-744312J667833D01*
G01*
X291686172Y-97010316D01*
G75*
G02*
X291609693Y-95598171I667833J744312D01*
G01*
X292919683Y-94138163D01*
G75*
G02*
X294331828Y-94061684I744312J-667833D01*
G01*
X294331828Y-94061684D01*
G75*
G02*
X294408307Y-95473829I-667833J-744312D01*
G01*
G37*
G36*
G01*
X299055280Y-94119043D02*
X300699188Y-95951208D01*
G75*
G02*
X300641828Y-97010316I-558234J-500874D01*
G01*
X300641828Y-97010316D01*
G75*
G02*
X299582720Y-96952956I-500874J558234D01*
G01*
X297938812Y-95120792D01*
G75*
G02*
X297996172Y-94061684I558234J500874D01*
G01*
X297996172Y-94061684D01*
G75*
G02*
X299055280Y-94119044I500874J-558234D01*
G01*
G37*
%TD*%
%TO.C,S-D0*%
G36*
G01*
X66780370Y-113033201D02*
X66820368Y-112453201D01*
G75*
G02*
X67886798Y-111524369I997631J-68799D01*
G01*
X67886798Y-111524369D01*
G75*
G02*
X68815630Y-112590799I-68799J-997631D01*
G01*
X68775632Y-113170799D01*
G75*
G02*
X67709202Y-114099631I-997631J68799D01*
G01*
X67709202Y-114099631D01*
G75*
G02*
X66780370Y-113033201I68799J997631D01*
G01*
G37*
G36*
G01*
X61780369Y-113170799D02*
X61740370Y-112590799D01*
G75*
G02*
X62669202Y-111524369I997631J68799D01*
G01*
X62669202Y-111524369D01*
G75*
G02*
X63735632Y-112453201I68799J-997631D01*
G01*
X63775630Y-113033201D01*
G75*
G02*
X62846798Y-114099631I-997631J-68799D01*
G01*
X62846798Y-114099631D01*
G75*
G02*
X61780368Y-113170799I-68799J997631D01*
G01*
G37*
G36*
G01*
X63522307Y-114269828D02*
X62212317Y-115729837D01*
G75*
G02*
X60800172Y-115806316I-744312J667833D01*
G01*
X60800172Y-115806316D01*
G75*
G02*
X60723693Y-114394171I667833J744312D01*
G01*
X62033683Y-112934163D01*
G75*
G02*
X63445828Y-112857684I744312J-667833D01*
G01*
X63445828Y-112857684D01*
G75*
G02*
X63522307Y-114269829I-667833J-744312D01*
G01*
G37*
G36*
G01*
X68169280Y-112915043D02*
X69813188Y-114747208D01*
G75*
G02*
X69755828Y-115806316I-558234J-500874D01*
G01*
X69755828Y-115806316D01*
G75*
G02*
X68696720Y-115748956I-500874J558234D01*
G01*
X67052812Y-113916792D01*
G75*
G02*
X67110172Y-112857684I558234J500874D01*
G01*
X67110172Y-112857684D01*
G75*
G02*
X68169280Y-112915044I500874J-558234D01*
G01*
G37*
%TD*%
%TO.C,S-D1*%
G36*
G01*
X90910370Y-113033201D02*
X90950368Y-112453201D01*
G75*
G02*
X92016798Y-111524369I997631J-68799D01*
G01*
X92016798Y-111524369D01*
G75*
G02*
X92945630Y-112590799I-68799J-997631D01*
G01*
X92905632Y-113170799D01*
G75*
G02*
X91839202Y-114099631I-997631J68799D01*
G01*
X91839202Y-114099631D01*
G75*
G02*
X90910370Y-113033201I68799J997631D01*
G01*
G37*
G36*
G01*
X85910369Y-113170799D02*
X85870370Y-112590799D01*
G75*
G02*
X86799202Y-111524369I997631J68799D01*
G01*
X86799202Y-111524369D01*
G75*
G02*
X87865632Y-112453201I68799J-997631D01*
G01*
X87905630Y-113033201D01*
G75*
G02*
X86976798Y-114099631I-997631J-68799D01*
G01*
X86976798Y-114099631D01*
G75*
G02*
X85910368Y-113170799I-68799J997631D01*
G01*
G37*
G36*
G01*
X87652307Y-114269828D02*
X86342317Y-115729837D01*
G75*
G02*
X84930172Y-115806316I-744312J667833D01*
G01*
X84930172Y-115806316D01*
G75*
G02*
X84853693Y-114394171I667833J744312D01*
G01*
X86163683Y-112934163D01*
G75*
G02*
X87575828Y-112857684I744312J-667833D01*
G01*
X87575828Y-112857684D01*
G75*
G02*
X87652307Y-114269829I-667833J-744312D01*
G01*
G37*
G36*
G01*
X92299280Y-112915043D02*
X93943188Y-114747208D01*
G75*
G02*
X93885828Y-115806316I-558234J-500874D01*
G01*
X93885828Y-115806316D01*
G75*
G02*
X92826720Y-115748956I-500874J558234D01*
G01*
X91182812Y-113916792D01*
G75*
G02*
X91240172Y-112857684I558234J500874D01*
G01*
X91240172Y-112857684D01*
G75*
G02*
X92299280Y-112915044I500874J-558234D01*
G01*
G37*
%TD*%
%TO.C,S-D2*%
G36*
G01*
X109706370Y-113033201D02*
X109746368Y-112453201D01*
G75*
G02*
X110812798Y-111524369I997631J-68799D01*
G01*
X110812798Y-111524369D01*
G75*
G02*
X111741630Y-112590799I-68799J-997631D01*
G01*
X111701632Y-113170799D01*
G75*
G02*
X110635202Y-114099631I-997631J68799D01*
G01*
X110635202Y-114099631D01*
G75*
G02*
X109706370Y-113033201I68799J997631D01*
G01*
G37*
G36*
G01*
X104706369Y-113170799D02*
X104666370Y-112590799D01*
G75*
G02*
X105595202Y-111524369I997631J68799D01*
G01*
X105595202Y-111524369D01*
G75*
G02*
X106661632Y-112453201I68799J-997631D01*
G01*
X106701630Y-113033201D01*
G75*
G02*
X105772798Y-114099631I-997631J-68799D01*
G01*
X105772798Y-114099631D01*
G75*
G02*
X104706368Y-113170799I-68799J997631D01*
G01*
G37*
G36*
G01*
X106448307Y-114269828D02*
X105138317Y-115729837D01*
G75*
G02*
X103726172Y-115806316I-744312J667833D01*
G01*
X103726172Y-115806316D01*
G75*
G02*
X103649693Y-114394171I667833J744312D01*
G01*
X104959683Y-112934163D01*
G75*
G02*
X106371828Y-112857684I744312J-667833D01*
G01*
X106371828Y-112857684D01*
G75*
G02*
X106448307Y-114269829I-667833J-744312D01*
G01*
G37*
G36*
G01*
X111095280Y-112915043D02*
X112739188Y-114747208D01*
G75*
G02*
X112681828Y-115806316I-558234J-500874D01*
G01*
X112681828Y-115806316D01*
G75*
G02*
X111622720Y-115748956I-500874J558234D01*
G01*
X109978812Y-113916792D01*
G75*
G02*
X110036172Y-112857684I558234J500874D01*
G01*
X110036172Y-112857684D01*
G75*
G02*
X111095280Y-112915044I500874J-558234D01*
G01*
G37*
%TD*%
%TO.C,S-D3*%
G36*
G01*
X128502370Y-113033201D02*
X128542368Y-112453201D01*
G75*
G02*
X129608798Y-111524369I997631J-68799D01*
G01*
X129608798Y-111524369D01*
G75*
G02*
X130537630Y-112590799I-68799J-997631D01*
G01*
X130497632Y-113170799D01*
G75*
G02*
X129431202Y-114099631I-997631J68799D01*
G01*
X129431202Y-114099631D01*
G75*
G02*
X128502370Y-113033201I68799J997631D01*
G01*
G37*
G36*
G01*
X123502369Y-113170799D02*
X123462370Y-112590799D01*
G75*
G02*
X124391202Y-111524369I997631J68799D01*
G01*
X124391202Y-111524369D01*
G75*
G02*
X125457632Y-112453201I68799J-997631D01*
G01*
X125497630Y-113033201D01*
G75*
G02*
X124568798Y-114099631I-997631J-68799D01*
G01*
X124568798Y-114099631D01*
G75*
G02*
X123502368Y-113170799I-68799J997631D01*
G01*
G37*
G36*
G01*
X125244307Y-114269828D02*
X123934317Y-115729837D01*
G75*
G02*
X122522172Y-115806316I-744312J667833D01*
G01*
X122522172Y-115806316D01*
G75*
G02*
X122445693Y-114394171I667833J744312D01*
G01*
X123755683Y-112934163D01*
G75*
G02*
X125167828Y-112857684I744312J-667833D01*
G01*
X125167828Y-112857684D01*
G75*
G02*
X125244307Y-114269829I-667833J-744312D01*
G01*
G37*
G36*
G01*
X129891280Y-112915043D02*
X131535188Y-114747208D01*
G75*
G02*
X131477828Y-115806316I-558234J-500874D01*
G01*
X131477828Y-115806316D01*
G75*
G02*
X130418720Y-115748956I-500874J558234D01*
G01*
X128774812Y-113916792D01*
G75*
G02*
X128832172Y-112857684I558234J500874D01*
G01*
X128832172Y-112857684D01*
G75*
G02*
X129891280Y-112915044I500874J-558234D01*
G01*
G37*
%TD*%
%TO.C,S-D4*%
G36*
G01*
X147298370Y-113033201D02*
X147338368Y-112453201D01*
G75*
G02*
X148404798Y-111524369I997631J-68799D01*
G01*
X148404798Y-111524369D01*
G75*
G02*
X149333630Y-112590799I-68799J-997631D01*
G01*
X149293632Y-113170799D01*
G75*
G02*
X148227202Y-114099631I-997631J68799D01*
G01*
X148227202Y-114099631D01*
G75*
G02*
X147298370Y-113033201I68799J997631D01*
G01*
G37*
G36*
G01*
X142298369Y-113170799D02*
X142258370Y-112590799D01*
G75*
G02*
X143187202Y-111524369I997631J68799D01*
G01*
X143187202Y-111524369D01*
G75*
G02*
X144253632Y-112453201I68799J-997631D01*
G01*
X144293630Y-113033201D01*
G75*
G02*
X143364798Y-114099631I-997631J-68799D01*
G01*
X143364798Y-114099631D01*
G75*
G02*
X142298368Y-113170799I-68799J997631D01*
G01*
G37*
G36*
G01*
X144040307Y-114269828D02*
X142730317Y-115729837D01*
G75*
G02*
X141318172Y-115806316I-744312J667833D01*
G01*
X141318172Y-115806316D01*
G75*
G02*
X141241693Y-114394171I667833J744312D01*
G01*
X142551683Y-112934163D01*
G75*
G02*
X143963828Y-112857684I744312J-667833D01*
G01*
X143963828Y-112857684D01*
G75*
G02*
X144040307Y-114269829I-667833J-744312D01*
G01*
G37*
G36*
G01*
X148687280Y-112915043D02*
X150331188Y-114747208D01*
G75*
G02*
X150273828Y-115806316I-558234J-500874D01*
G01*
X150273828Y-115806316D01*
G75*
G02*
X149214720Y-115748956I-500874J558234D01*
G01*
X147570812Y-113916792D01*
G75*
G02*
X147628172Y-112857684I558234J500874D01*
G01*
X147628172Y-112857684D01*
G75*
G02*
X148687280Y-112915044I500874J-558234D01*
G01*
G37*
%TD*%
%TO.C,S-D5*%
G36*
G01*
X166094370Y-113033201D02*
X166134368Y-112453201D01*
G75*
G02*
X167200798Y-111524369I997631J-68799D01*
G01*
X167200798Y-111524369D01*
G75*
G02*
X168129630Y-112590799I-68799J-997631D01*
G01*
X168089632Y-113170799D01*
G75*
G02*
X167023202Y-114099631I-997631J68799D01*
G01*
X167023202Y-114099631D01*
G75*
G02*
X166094370Y-113033201I68799J997631D01*
G01*
G37*
G36*
G01*
X161094369Y-113170799D02*
X161054370Y-112590799D01*
G75*
G02*
X161983202Y-111524369I997631J68799D01*
G01*
X161983202Y-111524369D01*
G75*
G02*
X163049632Y-112453201I68799J-997631D01*
G01*
X163089630Y-113033201D01*
G75*
G02*
X162160798Y-114099631I-997631J-68799D01*
G01*
X162160798Y-114099631D01*
G75*
G02*
X161094368Y-113170799I-68799J997631D01*
G01*
G37*
G36*
G01*
X162836307Y-114269828D02*
X161526317Y-115729837D01*
G75*
G02*
X160114172Y-115806316I-744312J667833D01*
G01*
X160114172Y-115806316D01*
G75*
G02*
X160037693Y-114394171I667833J744312D01*
G01*
X161347683Y-112934163D01*
G75*
G02*
X162759828Y-112857684I744312J-667833D01*
G01*
X162759828Y-112857684D01*
G75*
G02*
X162836307Y-114269829I-667833J-744312D01*
G01*
G37*
G36*
G01*
X167483280Y-112915043D02*
X169127188Y-114747208D01*
G75*
G02*
X169069828Y-115806316I-558234J-500874D01*
G01*
X169069828Y-115806316D01*
G75*
G02*
X168010720Y-115748956I-500874J558234D01*
G01*
X166366812Y-113916792D01*
G75*
G02*
X166424172Y-112857684I558234J500874D01*
G01*
X166424172Y-112857684D01*
G75*
G02*
X167483280Y-112915044I500874J-558234D01*
G01*
G37*
%TD*%
%TO.C,S-D6*%
G36*
G01*
X184890370Y-113033201D02*
X184930368Y-112453201D01*
G75*
G02*
X185996798Y-111524369I997631J-68799D01*
G01*
X185996798Y-111524369D01*
G75*
G02*
X186925630Y-112590799I-68799J-997631D01*
G01*
X186885632Y-113170799D01*
G75*
G02*
X185819202Y-114099631I-997631J68799D01*
G01*
X185819202Y-114099631D01*
G75*
G02*
X184890370Y-113033201I68799J997631D01*
G01*
G37*
G36*
G01*
X179890369Y-113170799D02*
X179850370Y-112590799D01*
G75*
G02*
X180779202Y-111524369I997631J68799D01*
G01*
X180779202Y-111524369D01*
G75*
G02*
X181845632Y-112453201I68799J-997631D01*
G01*
X181885630Y-113033201D01*
G75*
G02*
X180956798Y-114099631I-997631J-68799D01*
G01*
X180956798Y-114099631D01*
G75*
G02*
X179890368Y-113170799I-68799J997631D01*
G01*
G37*
G36*
G01*
X181632307Y-114269828D02*
X180322317Y-115729837D01*
G75*
G02*
X178910172Y-115806316I-744312J667833D01*
G01*
X178910172Y-115806316D01*
G75*
G02*
X178833693Y-114394171I667833J744312D01*
G01*
X180143683Y-112934163D01*
G75*
G02*
X181555828Y-112857684I744312J-667833D01*
G01*
X181555828Y-112857684D01*
G75*
G02*
X181632307Y-114269829I-667833J-744312D01*
G01*
G37*
G36*
G01*
X186279280Y-112915043D02*
X187923188Y-114747208D01*
G75*
G02*
X187865828Y-115806316I-558234J-500874D01*
G01*
X187865828Y-115806316D01*
G75*
G02*
X186806720Y-115748956I-500874J558234D01*
G01*
X185162812Y-113916792D01*
G75*
G02*
X185220172Y-112857684I558234J500874D01*
G01*
X185220172Y-112857684D01*
G75*
G02*
X186279280Y-112915044I500874J-558234D01*
G01*
G37*
%TD*%
%TO.C,S-D7*%
G36*
G01*
X203686370Y-113033201D02*
X203726368Y-112453201D01*
G75*
G02*
X204792798Y-111524369I997631J-68799D01*
G01*
X204792798Y-111524369D01*
G75*
G02*
X205721630Y-112590799I-68799J-997631D01*
G01*
X205681632Y-113170799D01*
G75*
G02*
X204615202Y-114099631I-997631J68799D01*
G01*
X204615202Y-114099631D01*
G75*
G02*
X203686370Y-113033201I68799J997631D01*
G01*
G37*
G36*
G01*
X198686369Y-113170799D02*
X198646370Y-112590799D01*
G75*
G02*
X199575202Y-111524369I997631J68799D01*
G01*
X199575202Y-111524369D01*
G75*
G02*
X200641632Y-112453201I68799J-997631D01*
G01*
X200681630Y-113033201D01*
G75*
G02*
X199752798Y-114099631I-997631J-68799D01*
G01*
X199752798Y-114099631D01*
G75*
G02*
X198686368Y-113170799I-68799J997631D01*
G01*
G37*
G36*
G01*
X200428307Y-114269828D02*
X199118317Y-115729837D01*
G75*
G02*
X197706172Y-115806316I-744312J667833D01*
G01*
X197706172Y-115806316D01*
G75*
G02*
X197629693Y-114394171I667833J744312D01*
G01*
X198939683Y-112934163D01*
G75*
G02*
X200351828Y-112857684I744312J-667833D01*
G01*
X200351828Y-112857684D01*
G75*
G02*
X200428307Y-114269829I-667833J-744312D01*
G01*
G37*
G36*
G01*
X205075280Y-112915043D02*
X206719188Y-114747208D01*
G75*
G02*
X206661828Y-115806316I-558234J-500874D01*
G01*
X206661828Y-115806316D01*
G75*
G02*
X205602720Y-115748956I-500874J558234D01*
G01*
X203958812Y-113916792D01*
G75*
G02*
X204016172Y-112857684I558234J500874D01*
G01*
X204016172Y-112857684D01*
G75*
G02*
X205075280Y-112915044I500874J-558234D01*
G01*
G37*
%TD*%
%TO.C,S-D8*%
G36*
G01*
X222482370Y-113033201D02*
X222522368Y-112453201D01*
G75*
G02*
X223588798Y-111524369I997631J-68799D01*
G01*
X223588798Y-111524369D01*
G75*
G02*
X224517630Y-112590799I-68799J-997631D01*
G01*
X224477632Y-113170799D01*
G75*
G02*
X223411202Y-114099631I-997631J68799D01*
G01*
X223411202Y-114099631D01*
G75*
G02*
X222482370Y-113033201I68799J997631D01*
G01*
G37*
G36*
G01*
X217482369Y-113170799D02*
X217442370Y-112590799D01*
G75*
G02*
X218371202Y-111524369I997631J68799D01*
G01*
X218371202Y-111524369D01*
G75*
G02*
X219437632Y-112453201I68799J-997631D01*
G01*
X219477630Y-113033201D01*
G75*
G02*
X218548798Y-114099631I-997631J-68799D01*
G01*
X218548798Y-114099631D01*
G75*
G02*
X217482368Y-113170799I-68799J997631D01*
G01*
G37*
G36*
G01*
X219224307Y-114269828D02*
X217914317Y-115729837D01*
G75*
G02*
X216502172Y-115806316I-744312J667833D01*
G01*
X216502172Y-115806316D01*
G75*
G02*
X216425693Y-114394171I667833J744312D01*
G01*
X217735683Y-112934163D01*
G75*
G02*
X219147828Y-112857684I744312J-667833D01*
G01*
X219147828Y-112857684D01*
G75*
G02*
X219224307Y-114269829I-667833J-744312D01*
G01*
G37*
G36*
G01*
X223871280Y-112915043D02*
X225515188Y-114747208D01*
G75*
G02*
X225457828Y-115806316I-558234J-500874D01*
G01*
X225457828Y-115806316D01*
G75*
G02*
X224398720Y-115748956I-500874J558234D01*
G01*
X222754812Y-113916792D01*
G75*
G02*
X222812172Y-112857684I558234J500874D01*
G01*
X222812172Y-112857684D01*
G75*
G02*
X223871280Y-112915044I500874J-558234D01*
G01*
G37*
%TD*%
%TO.C,S-D9*%
G36*
G01*
X241278370Y-113033201D02*
X241318368Y-112453201D01*
G75*
G02*
X242384798Y-111524369I997631J-68799D01*
G01*
X242384798Y-111524369D01*
G75*
G02*
X243313630Y-112590799I-68799J-997631D01*
G01*
X243273632Y-113170799D01*
G75*
G02*
X242207202Y-114099631I-997631J68799D01*
G01*
X242207202Y-114099631D01*
G75*
G02*
X241278370Y-113033201I68799J997631D01*
G01*
G37*
G36*
G01*
X236278369Y-113170799D02*
X236238370Y-112590799D01*
G75*
G02*
X237167202Y-111524369I997631J68799D01*
G01*
X237167202Y-111524369D01*
G75*
G02*
X238233632Y-112453201I68799J-997631D01*
G01*
X238273630Y-113033201D01*
G75*
G02*
X237344798Y-114099631I-997631J-68799D01*
G01*
X237344798Y-114099631D01*
G75*
G02*
X236278368Y-113170799I-68799J997631D01*
G01*
G37*
G36*
G01*
X238020307Y-114269828D02*
X236710317Y-115729837D01*
G75*
G02*
X235298172Y-115806316I-744312J667833D01*
G01*
X235298172Y-115806316D01*
G75*
G02*
X235221693Y-114394171I667833J744312D01*
G01*
X236531683Y-112934163D01*
G75*
G02*
X237943828Y-112857684I744312J-667833D01*
G01*
X237943828Y-112857684D01*
G75*
G02*
X238020307Y-114269829I-667833J-744312D01*
G01*
G37*
G36*
G01*
X242667280Y-112915043D02*
X244311188Y-114747208D01*
G75*
G02*
X244253828Y-115806316I-558234J-500874D01*
G01*
X244253828Y-115806316D01*
G75*
G02*
X243194720Y-115748956I-500874J558234D01*
G01*
X241550812Y-113916792D01*
G75*
G02*
X241608172Y-112857684I558234J500874D01*
G01*
X241608172Y-112857684D01*
G75*
G02*
X242667280Y-112915044I500874J-558234D01*
G01*
G37*
%TD*%
%TO.C,S-D10*%
G36*
G01*
X260074370Y-113033201D02*
X260114368Y-112453201D01*
G75*
G02*
X261180798Y-111524369I997631J-68799D01*
G01*
X261180798Y-111524369D01*
G75*
G02*
X262109630Y-112590799I-68799J-997631D01*
G01*
X262069632Y-113170799D01*
G75*
G02*
X261003202Y-114099631I-997631J68799D01*
G01*
X261003202Y-114099631D01*
G75*
G02*
X260074370Y-113033201I68799J997631D01*
G01*
G37*
G36*
G01*
X255074369Y-113170799D02*
X255034370Y-112590799D01*
G75*
G02*
X255963202Y-111524369I997631J68799D01*
G01*
X255963202Y-111524369D01*
G75*
G02*
X257029632Y-112453201I68799J-997631D01*
G01*
X257069630Y-113033201D01*
G75*
G02*
X256140798Y-114099631I-997631J-68799D01*
G01*
X256140798Y-114099631D01*
G75*
G02*
X255074368Y-113170799I-68799J997631D01*
G01*
G37*
G36*
G01*
X256816307Y-114269828D02*
X255506317Y-115729837D01*
G75*
G02*
X254094172Y-115806316I-744312J667833D01*
G01*
X254094172Y-115806316D01*
G75*
G02*
X254017693Y-114394171I667833J744312D01*
G01*
X255327683Y-112934163D01*
G75*
G02*
X256739828Y-112857684I744312J-667833D01*
G01*
X256739828Y-112857684D01*
G75*
G02*
X256816307Y-114269829I-667833J-744312D01*
G01*
G37*
G36*
G01*
X261463280Y-112915043D02*
X263107188Y-114747208D01*
G75*
G02*
X263049828Y-115806316I-558234J-500874D01*
G01*
X263049828Y-115806316D01*
G75*
G02*
X261990720Y-115748956I-500874J558234D01*
G01*
X260346812Y-113916792D01*
G75*
G02*
X260404172Y-112857684I558234J500874D01*
G01*
X260404172Y-112857684D01*
G75*
G02*
X261463280Y-112915044I500874J-558234D01*
G01*
G37*
%TD*%
%TO.C,S-D11*%
G36*
G01*
X278870370Y-113033201D02*
X278910368Y-112453201D01*
G75*
G02*
X279976798Y-111524369I997631J-68799D01*
G01*
X279976798Y-111524369D01*
G75*
G02*
X280905630Y-112590799I-68799J-997631D01*
G01*
X280865632Y-113170799D01*
G75*
G02*
X279799202Y-114099631I-997631J68799D01*
G01*
X279799202Y-114099631D01*
G75*
G02*
X278870370Y-113033201I68799J997631D01*
G01*
G37*
G36*
G01*
X273870369Y-113170799D02*
X273830370Y-112590799D01*
G75*
G02*
X274759202Y-111524369I997631J68799D01*
G01*
X274759202Y-111524369D01*
G75*
G02*
X275825632Y-112453201I68799J-997631D01*
G01*
X275865630Y-113033201D01*
G75*
G02*
X274936798Y-114099631I-997631J-68799D01*
G01*
X274936798Y-114099631D01*
G75*
G02*
X273870368Y-113170799I-68799J997631D01*
G01*
G37*
G36*
G01*
X275612307Y-114269828D02*
X274302317Y-115729837D01*
G75*
G02*
X272890172Y-115806316I-744312J667833D01*
G01*
X272890172Y-115806316D01*
G75*
G02*
X272813693Y-114394171I667833J744312D01*
G01*
X274123683Y-112934163D01*
G75*
G02*
X275535828Y-112857684I744312J-667833D01*
G01*
X275535828Y-112857684D01*
G75*
G02*
X275612307Y-114269829I-667833J-744312D01*
G01*
G37*
G36*
G01*
X280259280Y-112915043D02*
X281903188Y-114747208D01*
G75*
G02*
X281845828Y-115806316I-558234J-500874D01*
G01*
X281845828Y-115806316D01*
G75*
G02*
X280786720Y-115748956I-500874J558234D01*
G01*
X279142812Y-113916792D01*
G75*
G02*
X279200172Y-112857684I558234J500874D01*
G01*
X279200172Y-112857684D01*
G75*
G02*
X280259280Y-112915044I500874J-558234D01*
G01*
G37*
%TD*%
%TO.C,S-D12*%
G36*
G01*
X297666370Y-113033201D02*
X297706368Y-112453201D01*
G75*
G02*
X298772798Y-111524369I997631J-68799D01*
G01*
X298772798Y-111524369D01*
G75*
G02*
X299701630Y-112590799I-68799J-997631D01*
G01*
X299661632Y-113170799D01*
G75*
G02*
X298595202Y-114099631I-997631J68799D01*
G01*
X298595202Y-114099631D01*
G75*
G02*
X297666370Y-113033201I68799J997631D01*
G01*
G37*
G36*
G01*
X292666369Y-113170799D02*
X292626370Y-112590799D01*
G75*
G02*
X293555202Y-111524369I997631J68799D01*
G01*
X293555202Y-111524369D01*
G75*
G02*
X294621632Y-112453201I68799J-997631D01*
G01*
X294661630Y-113033201D01*
G75*
G02*
X293732798Y-114099631I-997631J-68799D01*
G01*
X293732798Y-114099631D01*
G75*
G02*
X292666368Y-113170799I-68799J997631D01*
G01*
G37*
G36*
G01*
X294408307Y-114269828D02*
X293098317Y-115729837D01*
G75*
G02*
X291686172Y-115806316I-744312J667833D01*
G01*
X291686172Y-115806316D01*
G75*
G02*
X291609693Y-114394171I667833J744312D01*
G01*
X292919683Y-112934163D01*
G75*
G02*
X294331828Y-112857684I744312J-667833D01*
G01*
X294331828Y-112857684D01*
G75*
G02*
X294408307Y-114269829I-667833J-744312D01*
G01*
G37*
G36*
G01*
X299055280Y-112915043D02*
X300699188Y-114747208D01*
G75*
G02*
X300641828Y-115806316I-558234J-500874D01*
G01*
X300641828Y-115806316D01*
G75*
G02*
X299582720Y-115748956I-500874J558234D01*
G01*
X297938812Y-113916792D01*
G75*
G02*
X297996172Y-112857684I558234J500874D01*
G01*
X297996172Y-112857684D01*
G75*
G02*
X299055280Y-112915044I500874J-558234D01*
G01*
G37*
%TD*%
%TO.C,S-E0*%
G36*
G01*
X66780370Y-131829201D02*
X66820368Y-131249201D01*
G75*
G02*
X67886798Y-130320369I997631J-68799D01*
G01*
X67886798Y-130320369D01*
G75*
G02*
X68815630Y-131386799I-68799J-997631D01*
G01*
X68775632Y-131966799D01*
G75*
G02*
X67709202Y-132895631I-997631J68799D01*
G01*
X67709202Y-132895631D01*
G75*
G02*
X66780370Y-131829201I68799J997631D01*
G01*
G37*
G36*
G01*
X61780369Y-131966799D02*
X61740370Y-131386799D01*
G75*
G02*
X62669202Y-130320369I997631J68799D01*
G01*
X62669202Y-130320369D01*
G75*
G02*
X63735632Y-131249201I68799J-997631D01*
G01*
X63775630Y-131829201D01*
G75*
G02*
X62846798Y-132895631I-997631J-68799D01*
G01*
X62846798Y-132895631D01*
G75*
G02*
X61780368Y-131966799I-68799J997631D01*
G01*
G37*
G36*
G01*
X63522307Y-133065828D02*
X62212317Y-134525837D01*
G75*
G02*
X60800172Y-134602316I-744312J667833D01*
G01*
X60800172Y-134602316D01*
G75*
G02*
X60723693Y-133190171I667833J744312D01*
G01*
X62033683Y-131730163D01*
G75*
G02*
X63445828Y-131653684I744312J-667833D01*
G01*
X63445828Y-131653684D01*
G75*
G02*
X63522307Y-133065829I-667833J-744312D01*
G01*
G37*
G36*
G01*
X68169280Y-131711043D02*
X69813188Y-133543208D01*
G75*
G02*
X69755828Y-134602316I-558234J-500874D01*
G01*
X69755828Y-134602316D01*
G75*
G02*
X68696720Y-134544956I-500874J558234D01*
G01*
X67052812Y-132712792D01*
G75*
G02*
X67110172Y-131653684I558234J500874D01*
G01*
X67110172Y-131653684D01*
G75*
G02*
X68169280Y-131711044I500874J-558234D01*
G01*
G37*
%TD*%
%TO.C,S-E1*%
G36*
G01*
X90910370Y-131829201D02*
X90950368Y-131249201D01*
G75*
G02*
X92016798Y-130320369I997631J-68799D01*
G01*
X92016798Y-130320369D01*
G75*
G02*
X92945630Y-131386799I-68799J-997631D01*
G01*
X92905632Y-131966799D01*
G75*
G02*
X91839202Y-132895631I-997631J68799D01*
G01*
X91839202Y-132895631D01*
G75*
G02*
X90910370Y-131829201I68799J997631D01*
G01*
G37*
G36*
G01*
X85910369Y-131966799D02*
X85870370Y-131386799D01*
G75*
G02*
X86799202Y-130320369I997631J68799D01*
G01*
X86799202Y-130320369D01*
G75*
G02*
X87865632Y-131249201I68799J-997631D01*
G01*
X87905630Y-131829201D01*
G75*
G02*
X86976798Y-132895631I-997631J-68799D01*
G01*
X86976798Y-132895631D01*
G75*
G02*
X85910368Y-131966799I-68799J997631D01*
G01*
G37*
G36*
G01*
X87652307Y-133065828D02*
X86342317Y-134525837D01*
G75*
G02*
X84930172Y-134602316I-744312J667833D01*
G01*
X84930172Y-134602316D01*
G75*
G02*
X84853693Y-133190171I667833J744312D01*
G01*
X86163683Y-131730163D01*
G75*
G02*
X87575828Y-131653684I744312J-667833D01*
G01*
X87575828Y-131653684D01*
G75*
G02*
X87652307Y-133065829I-667833J-744312D01*
G01*
G37*
G36*
G01*
X92299280Y-131711043D02*
X93943188Y-133543208D01*
G75*
G02*
X93885828Y-134602316I-558234J-500874D01*
G01*
X93885828Y-134602316D01*
G75*
G02*
X92826720Y-134544956I-500874J558234D01*
G01*
X91182812Y-132712792D01*
G75*
G02*
X91240172Y-131653684I558234J500874D01*
G01*
X91240172Y-131653684D01*
G75*
G02*
X92299280Y-131711044I500874J-558234D01*
G01*
G37*
%TD*%
%TO.C,S-E2*%
G36*
G01*
X109706370Y-131829201D02*
X109746368Y-131249201D01*
G75*
G02*
X110812798Y-130320369I997631J-68799D01*
G01*
X110812798Y-130320369D01*
G75*
G02*
X111741630Y-131386799I-68799J-997631D01*
G01*
X111701632Y-131966799D01*
G75*
G02*
X110635202Y-132895631I-997631J68799D01*
G01*
X110635202Y-132895631D01*
G75*
G02*
X109706370Y-131829201I68799J997631D01*
G01*
G37*
G36*
G01*
X104706369Y-131966799D02*
X104666370Y-131386799D01*
G75*
G02*
X105595202Y-130320369I997631J68799D01*
G01*
X105595202Y-130320369D01*
G75*
G02*
X106661632Y-131249201I68799J-997631D01*
G01*
X106701630Y-131829201D01*
G75*
G02*
X105772798Y-132895631I-997631J-68799D01*
G01*
X105772798Y-132895631D01*
G75*
G02*
X104706368Y-131966799I-68799J997631D01*
G01*
G37*
G36*
G01*
X106448307Y-133065828D02*
X105138317Y-134525837D01*
G75*
G02*
X103726172Y-134602316I-744312J667833D01*
G01*
X103726172Y-134602316D01*
G75*
G02*
X103649693Y-133190171I667833J744312D01*
G01*
X104959683Y-131730163D01*
G75*
G02*
X106371828Y-131653684I744312J-667833D01*
G01*
X106371828Y-131653684D01*
G75*
G02*
X106448307Y-133065829I-667833J-744312D01*
G01*
G37*
G36*
G01*
X111095280Y-131711043D02*
X112739188Y-133543208D01*
G75*
G02*
X112681828Y-134602316I-558234J-500874D01*
G01*
X112681828Y-134602316D01*
G75*
G02*
X111622720Y-134544956I-500874J558234D01*
G01*
X109978812Y-132712792D01*
G75*
G02*
X110036172Y-131653684I558234J500874D01*
G01*
X110036172Y-131653684D01*
G75*
G02*
X111095280Y-131711044I500874J-558234D01*
G01*
G37*
%TD*%
%TO.C,S-E3*%
G36*
G01*
X128502370Y-131829201D02*
X128542368Y-131249201D01*
G75*
G02*
X129608798Y-130320369I997631J-68799D01*
G01*
X129608798Y-130320369D01*
G75*
G02*
X130537630Y-131386799I-68799J-997631D01*
G01*
X130497632Y-131966799D01*
G75*
G02*
X129431202Y-132895631I-997631J68799D01*
G01*
X129431202Y-132895631D01*
G75*
G02*
X128502370Y-131829201I68799J997631D01*
G01*
G37*
G36*
G01*
X123502369Y-131966799D02*
X123462370Y-131386799D01*
G75*
G02*
X124391202Y-130320369I997631J68799D01*
G01*
X124391202Y-130320369D01*
G75*
G02*
X125457632Y-131249201I68799J-997631D01*
G01*
X125497630Y-131829201D01*
G75*
G02*
X124568798Y-132895631I-997631J-68799D01*
G01*
X124568798Y-132895631D01*
G75*
G02*
X123502368Y-131966799I-68799J997631D01*
G01*
G37*
G36*
G01*
X125244307Y-133065828D02*
X123934317Y-134525837D01*
G75*
G02*
X122522172Y-134602316I-744312J667833D01*
G01*
X122522172Y-134602316D01*
G75*
G02*
X122445693Y-133190171I667833J744312D01*
G01*
X123755683Y-131730163D01*
G75*
G02*
X125167828Y-131653684I744312J-667833D01*
G01*
X125167828Y-131653684D01*
G75*
G02*
X125244307Y-133065829I-667833J-744312D01*
G01*
G37*
G36*
G01*
X129891280Y-131711043D02*
X131535188Y-133543208D01*
G75*
G02*
X131477828Y-134602316I-558234J-500874D01*
G01*
X131477828Y-134602316D01*
G75*
G02*
X130418720Y-134544956I-500874J558234D01*
G01*
X128774812Y-132712792D01*
G75*
G02*
X128832172Y-131653684I558234J500874D01*
G01*
X128832172Y-131653684D01*
G75*
G02*
X129891280Y-131711044I500874J-558234D01*
G01*
G37*
%TD*%
%TO.C,S-E4*%
G36*
G01*
X147298370Y-131829201D02*
X147338368Y-131249201D01*
G75*
G02*
X148404798Y-130320369I997631J-68799D01*
G01*
X148404798Y-130320369D01*
G75*
G02*
X149333630Y-131386799I-68799J-997631D01*
G01*
X149293632Y-131966799D01*
G75*
G02*
X148227202Y-132895631I-997631J68799D01*
G01*
X148227202Y-132895631D01*
G75*
G02*
X147298370Y-131829201I68799J997631D01*
G01*
G37*
G36*
G01*
X142298369Y-131966799D02*
X142258370Y-131386799D01*
G75*
G02*
X143187202Y-130320369I997631J68799D01*
G01*
X143187202Y-130320369D01*
G75*
G02*
X144253632Y-131249201I68799J-997631D01*
G01*
X144293630Y-131829201D01*
G75*
G02*
X143364798Y-132895631I-997631J-68799D01*
G01*
X143364798Y-132895631D01*
G75*
G02*
X142298368Y-131966799I-68799J997631D01*
G01*
G37*
G36*
G01*
X144040307Y-133065828D02*
X142730317Y-134525837D01*
G75*
G02*
X141318172Y-134602316I-744312J667833D01*
G01*
X141318172Y-134602316D01*
G75*
G02*
X141241693Y-133190171I667833J744312D01*
G01*
X142551683Y-131730163D01*
G75*
G02*
X143963828Y-131653684I744312J-667833D01*
G01*
X143963828Y-131653684D01*
G75*
G02*
X144040307Y-133065829I-667833J-744312D01*
G01*
G37*
G36*
G01*
X148687280Y-131711043D02*
X150331188Y-133543208D01*
G75*
G02*
X150273828Y-134602316I-558234J-500874D01*
G01*
X150273828Y-134602316D01*
G75*
G02*
X149214720Y-134544956I-500874J558234D01*
G01*
X147570812Y-132712792D01*
G75*
G02*
X147628172Y-131653684I558234J500874D01*
G01*
X147628172Y-131653684D01*
G75*
G02*
X148687280Y-131711044I500874J-558234D01*
G01*
G37*
%TD*%
%TO.C,S-E5*%
G36*
G01*
X166094370Y-131829201D02*
X166134368Y-131249201D01*
G75*
G02*
X167200798Y-130320369I997631J-68799D01*
G01*
X167200798Y-130320369D01*
G75*
G02*
X168129630Y-131386799I-68799J-997631D01*
G01*
X168089632Y-131966799D01*
G75*
G02*
X167023202Y-132895631I-997631J68799D01*
G01*
X167023202Y-132895631D01*
G75*
G02*
X166094370Y-131829201I68799J997631D01*
G01*
G37*
G36*
G01*
X161094369Y-131966799D02*
X161054370Y-131386799D01*
G75*
G02*
X161983202Y-130320369I997631J68799D01*
G01*
X161983202Y-130320369D01*
G75*
G02*
X163049632Y-131249201I68799J-997631D01*
G01*
X163089630Y-131829201D01*
G75*
G02*
X162160798Y-132895631I-997631J-68799D01*
G01*
X162160798Y-132895631D01*
G75*
G02*
X161094368Y-131966799I-68799J997631D01*
G01*
G37*
G36*
G01*
X162836307Y-133065828D02*
X161526317Y-134525837D01*
G75*
G02*
X160114172Y-134602316I-744312J667833D01*
G01*
X160114172Y-134602316D01*
G75*
G02*
X160037693Y-133190171I667833J744312D01*
G01*
X161347683Y-131730163D01*
G75*
G02*
X162759828Y-131653684I744312J-667833D01*
G01*
X162759828Y-131653684D01*
G75*
G02*
X162836307Y-133065829I-667833J-744312D01*
G01*
G37*
G36*
G01*
X167483280Y-131711043D02*
X169127188Y-133543208D01*
G75*
G02*
X169069828Y-134602316I-558234J-500874D01*
G01*
X169069828Y-134602316D01*
G75*
G02*
X168010720Y-134544956I-500874J558234D01*
G01*
X166366812Y-132712792D01*
G75*
G02*
X166424172Y-131653684I558234J500874D01*
G01*
X166424172Y-131653684D01*
G75*
G02*
X167483280Y-131711044I500874J-558234D01*
G01*
G37*
%TD*%
%TO.C,S-E8*%
G36*
G01*
X222482370Y-131829201D02*
X222522368Y-131249201D01*
G75*
G02*
X223588798Y-130320369I997631J-68799D01*
G01*
X223588798Y-130320369D01*
G75*
G02*
X224517630Y-131386799I-68799J-997631D01*
G01*
X224477632Y-131966799D01*
G75*
G02*
X223411202Y-132895631I-997631J68799D01*
G01*
X223411202Y-132895631D01*
G75*
G02*
X222482370Y-131829201I68799J997631D01*
G01*
G37*
G36*
G01*
X217482369Y-131966799D02*
X217442370Y-131386799D01*
G75*
G02*
X218371202Y-130320369I997631J68799D01*
G01*
X218371202Y-130320369D01*
G75*
G02*
X219437632Y-131249201I68799J-997631D01*
G01*
X219477630Y-131829201D01*
G75*
G02*
X218548798Y-132895631I-997631J-68799D01*
G01*
X218548798Y-132895631D01*
G75*
G02*
X217482368Y-131966799I-68799J997631D01*
G01*
G37*
G36*
G01*
X219224307Y-133065828D02*
X217914317Y-134525837D01*
G75*
G02*
X216502172Y-134602316I-744312J667833D01*
G01*
X216502172Y-134602316D01*
G75*
G02*
X216425693Y-133190171I667833J744312D01*
G01*
X217735683Y-131730163D01*
G75*
G02*
X219147828Y-131653684I744312J-667833D01*
G01*
X219147828Y-131653684D01*
G75*
G02*
X219224307Y-133065829I-667833J-744312D01*
G01*
G37*
G36*
G01*
X223871280Y-131711043D02*
X225515188Y-133543208D01*
G75*
G02*
X225457828Y-134602316I-558234J-500874D01*
G01*
X225457828Y-134602316D01*
G75*
G02*
X224398720Y-134544956I-500874J558234D01*
G01*
X222754812Y-132712792D01*
G75*
G02*
X222812172Y-131653684I558234J500874D01*
G01*
X222812172Y-131653684D01*
G75*
G02*
X223871280Y-131711044I500874J-558234D01*
G01*
G37*
%TD*%
%TO.C,S-E9*%
G36*
G01*
X241278370Y-131829201D02*
X241318368Y-131249201D01*
G75*
G02*
X242384798Y-130320369I997631J-68799D01*
G01*
X242384798Y-130320369D01*
G75*
G02*
X243313630Y-131386799I-68799J-997631D01*
G01*
X243273632Y-131966799D01*
G75*
G02*
X242207202Y-132895631I-997631J68799D01*
G01*
X242207202Y-132895631D01*
G75*
G02*
X241278370Y-131829201I68799J997631D01*
G01*
G37*
G36*
G01*
X236278369Y-131966799D02*
X236238370Y-131386799D01*
G75*
G02*
X237167202Y-130320369I997631J68799D01*
G01*
X237167202Y-130320369D01*
G75*
G02*
X238233632Y-131249201I68799J-997631D01*
G01*
X238273630Y-131829201D01*
G75*
G02*
X237344798Y-132895631I-997631J-68799D01*
G01*
X237344798Y-132895631D01*
G75*
G02*
X236278368Y-131966799I-68799J997631D01*
G01*
G37*
G36*
G01*
X238020307Y-133065828D02*
X236710317Y-134525837D01*
G75*
G02*
X235298172Y-134602316I-744312J667833D01*
G01*
X235298172Y-134602316D01*
G75*
G02*
X235221693Y-133190171I667833J744312D01*
G01*
X236531683Y-131730163D01*
G75*
G02*
X237943828Y-131653684I744312J-667833D01*
G01*
X237943828Y-131653684D01*
G75*
G02*
X238020307Y-133065829I-667833J-744312D01*
G01*
G37*
G36*
G01*
X242667280Y-131711043D02*
X244311188Y-133543208D01*
G75*
G02*
X244253828Y-134602316I-558234J-500874D01*
G01*
X244253828Y-134602316D01*
G75*
G02*
X243194720Y-134544956I-500874J558234D01*
G01*
X241550812Y-132712792D01*
G75*
G02*
X241608172Y-131653684I558234J500874D01*
G01*
X241608172Y-131653684D01*
G75*
G02*
X242667280Y-131711044I500874J-558234D01*
G01*
G37*
%TD*%
%TO.C,S-E10*%
G36*
G01*
X260074370Y-131829201D02*
X260114368Y-131249201D01*
G75*
G02*
X261180798Y-130320369I997631J-68799D01*
G01*
X261180798Y-130320369D01*
G75*
G02*
X262109630Y-131386799I-68799J-997631D01*
G01*
X262069632Y-131966799D01*
G75*
G02*
X261003202Y-132895631I-997631J68799D01*
G01*
X261003202Y-132895631D01*
G75*
G02*
X260074370Y-131829201I68799J997631D01*
G01*
G37*
G36*
G01*
X255074369Y-131966799D02*
X255034370Y-131386799D01*
G75*
G02*
X255963202Y-130320369I997631J68799D01*
G01*
X255963202Y-130320369D01*
G75*
G02*
X257029632Y-131249201I68799J-997631D01*
G01*
X257069630Y-131829201D01*
G75*
G02*
X256140798Y-132895631I-997631J-68799D01*
G01*
X256140798Y-132895631D01*
G75*
G02*
X255074368Y-131966799I-68799J997631D01*
G01*
G37*
G36*
G01*
X256816307Y-133065828D02*
X255506317Y-134525837D01*
G75*
G02*
X254094172Y-134602316I-744312J667833D01*
G01*
X254094172Y-134602316D01*
G75*
G02*
X254017693Y-133190171I667833J744312D01*
G01*
X255327683Y-131730163D01*
G75*
G02*
X256739828Y-131653684I744312J-667833D01*
G01*
X256739828Y-131653684D01*
G75*
G02*
X256816307Y-133065829I-667833J-744312D01*
G01*
G37*
G36*
G01*
X261463280Y-131711043D02*
X263107188Y-133543208D01*
G75*
G02*
X263049828Y-134602316I-558234J-500874D01*
G01*
X263049828Y-134602316D01*
G75*
G02*
X261990720Y-134544956I-500874J558234D01*
G01*
X260346812Y-132712792D01*
G75*
G02*
X260404172Y-131653684I558234J500874D01*
G01*
X260404172Y-131653684D01*
G75*
G02*
X261463280Y-131711044I500874J-558234D01*
G01*
G37*
%TD*%
%TO.C,S-E11*%
G36*
G01*
X278870370Y-131829201D02*
X278910368Y-131249201D01*
G75*
G02*
X279976798Y-130320369I997631J-68799D01*
G01*
X279976798Y-130320369D01*
G75*
G02*
X280905630Y-131386799I-68799J-997631D01*
G01*
X280865632Y-131966799D01*
G75*
G02*
X279799202Y-132895631I-997631J68799D01*
G01*
X279799202Y-132895631D01*
G75*
G02*
X278870370Y-131829201I68799J997631D01*
G01*
G37*
G36*
G01*
X273870369Y-131966799D02*
X273830370Y-131386799D01*
G75*
G02*
X274759202Y-130320369I997631J68799D01*
G01*
X274759202Y-130320369D01*
G75*
G02*
X275825632Y-131249201I68799J-997631D01*
G01*
X275865630Y-131829201D01*
G75*
G02*
X274936798Y-132895631I-997631J-68799D01*
G01*
X274936798Y-132895631D01*
G75*
G02*
X273870368Y-131966799I-68799J997631D01*
G01*
G37*
G36*
G01*
X275612307Y-133065828D02*
X274302317Y-134525837D01*
G75*
G02*
X272890172Y-134602316I-744312J667833D01*
G01*
X272890172Y-134602316D01*
G75*
G02*
X272813693Y-133190171I667833J744312D01*
G01*
X274123683Y-131730163D01*
G75*
G02*
X275535828Y-131653684I744312J-667833D01*
G01*
X275535828Y-131653684D01*
G75*
G02*
X275612307Y-133065829I-667833J-744312D01*
G01*
G37*
G36*
G01*
X280259280Y-131711043D02*
X281903188Y-133543208D01*
G75*
G02*
X281845828Y-134602316I-558234J-500874D01*
G01*
X281845828Y-134602316D01*
G75*
G02*
X280786720Y-134544956I-500874J558234D01*
G01*
X279142812Y-132712792D01*
G75*
G02*
X279200172Y-131653684I558234J500874D01*
G01*
X279200172Y-131653684D01*
G75*
G02*
X280259280Y-131711044I500874J-558234D01*
G01*
G37*
%TD*%
%TO.C,RGB-0*%
G36*
G01*
X87708000Y-65085000D02*
X87708000Y-65495000D01*
G75*
G02*
X87503000Y-65700000I-205000J0D01*
G01*
X86213000Y-65700000D01*
G75*
G02*
X86008000Y-65495000I0J205000D01*
G01*
X86008000Y-65085000D01*
G75*
G02*
X86213000Y-64880000I205000J0D01*
G01*
X87503000Y-64880000D01*
G75*
G02*
X87708000Y-65085000I0J-205000D01*
G01*
G37*
X86858000Y-66790000D03*
X91958000Y-65290000D03*
X91958000Y-66790000D03*
%TD*%
%TO.C,RGB-11*%
G36*
G01*
X294464000Y-65339000D02*
X294464000Y-65749000D01*
G75*
G02*
X294259000Y-65954000I-205000J0D01*
G01*
X292969000Y-65954000D01*
G75*
G02*
X292764000Y-65749000I0J205000D01*
G01*
X292764000Y-65339000D01*
G75*
G02*
X292969000Y-65134000I205000J0D01*
G01*
X294259000Y-65134000D01*
G75*
G02*
X294464000Y-65339000I0J-205000D01*
G01*
G37*
X293614000Y-67044000D03*
X298714000Y-65544000D03*
X298714000Y-67044000D03*
%TD*%
%TO.C,RGB-2*%
G36*
G01*
X125300000Y-65085000D02*
X125300000Y-65495000D01*
G75*
G02*
X125095000Y-65700000I-205000J0D01*
G01*
X123805000Y-65700000D01*
G75*
G02*
X123600000Y-65495000I0J205000D01*
G01*
X123600000Y-65085000D01*
G75*
G02*
X123805000Y-64880000I205000J0D01*
G01*
X125095000Y-64880000D01*
G75*
G02*
X125300000Y-65085000I0J-205000D01*
G01*
G37*
X124450000Y-66790000D03*
X129550000Y-65290000D03*
X129550000Y-66790000D03*
%TD*%
%TO.C,RGB-10*%
G36*
G01*
X275668000Y-65339000D02*
X275668000Y-65749000D01*
G75*
G02*
X275463000Y-65954000I-205000J0D01*
G01*
X274173000Y-65954000D01*
G75*
G02*
X273968000Y-65749000I0J205000D01*
G01*
X273968000Y-65339000D01*
G75*
G02*
X274173000Y-65134000I205000J0D01*
G01*
X275463000Y-65134000D01*
G75*
G02*
X275668000Y-65339000I0J-205000D01*
G01*
G37*
X274818000Y-67044000D03*
X279918000Y-65544000D03*
X279918000Y-67044000D03*
%TD*%
%TO.C,RGB-9*%
G36*
G01*
X256872000Y-65339000D02*
X256872000Y-65749000D01*
G75*
G02*
X256667000Y-65954000I-205000J0D01*
G01*
X255377000Y-65954000D01*
G75*
G02*
X255172000Y-65749000I0J205000D01*
G01*
X255172000Y-65339000D01*
G75*
G02*
X255377000Y-65134000I205000J0D01*
G01*
X256667000Y-65134000D01*
G75*
G02*
X256872000Y-65339000I0J-205000D01*
G01*
G37*
X256022000Y-67044000D03*
X261122000Y-65544000D03*
X261122000Y-67044000D03*
%TD*%
%TO.C,RGB-8*%
G36*
G01*
X238330000Y-65339000D02*
X238330000Y-65749000D01*
G75*
G02*
X238125000Y-65954000I-205000J0D01*
G01*
X236835000Y-65954000D01*
G75*
G02*
X236630000Y-65749000I0J205000D01*
G01*
X236630000Y-65339000D01*
G75*
G02*
X236835000Y-65134000I205000J0D01*
G01*
X238125000Y-65134000D01*
G75*
G02*
X238330000Y-65339000I0J-205000D01*
G01*
G37*
X237480000Y-67044000D03*
X242580000Y-65544000D03*
X242580000Y-67044000D03*
%TD*%
%TO.C,RGB-7*%
G36*
G01*
X219534000Y-65339000D02*
X219534000Y-65749000D01*
G75*
G02*
X219329000Y-65954000I-205000J0D01*
G01*
X218039000Y-65954000D01*
G75*
G02*
X217834000Y-65749000I0J205000D01*
G01*
X217834000Y-65339000D01*
G75*
G02*
X218039000Y-65134000I205000J0D01*
G01*
X219329000Y-65134000D01*
G75*
G02*
X219534000Y-65339000I0J-205000D01*
G01*
G37*
X218684000Y-67044000D03*
X223784000Y-65544000D03*
X223784000Y-67044000D03*
%TD*%
%TO.C,RGB-6*%
G36*
G01*
X200484000Y-65085000D02*
X200484000Y-65495000D01*
G75*
G02*
X200279000Y-65700000I-205000J0D01*
G01*
X198989000Y-65700000D01*
G75*
G02*
X198784000Y-65495000I0J205000D01*
G01*
X198784000Y-65085000D01*
G75*
G02*
X198989000Y-64880000I205000J0D01*
G01*
X200279000Y-64880000D01*
G75*
G02*
X200484000Y-65085000I0J-205000D01*
G01*
G37*
X199634000Y-66790000D03*
X204734000Y-65290000D03*
X204734000Y-66790000D03*
%TD*%
%TO.C,RGB-5*%
G36*
G01*
X181688000Y-65085000D02*
X181688000Y-65495000D01*
G75*
G02*
X181483000Y-65700000I-205000J0D01*
G01*
X180193000Y-65700000D01*
G75*
G02*
X179988000Y-65495000I0J205000D01*
G01*
X179988000Y-65085000D01*
G75*
G02*
X180193000Y-64880000I205000J0D01*
G01*
X181483000Y-64880000D01*
G75*
G02*
X181688000Y-65085000I0J-205000D01*
G01*
G37*
X180838000Y-66790000D03*
X185938000Y-65290000D03*
X185938000Y-66790000D03*
%TD*%
%TO.C,RGB-4*%
G36*
G01*
X163146000Y-65085000D02*
X163146000Y-65495000D01*
G75*
G02*
X162941000Y-65700000I-205000J0D01*
G01*
X161651000Y-65700000D01*
G75*
G02*
X161446000Y-65495000I0J205000D01*
G01*
X161446000Y-65085000D01*
G75*
G02*
X161651000Y-64880000I205000J0D01*
G01*
X162941000Y-64880000D01*
G75*
G02*
X163146000Y-65085000I0J-205000D01*
G01*
G37*
X162296000Y-66790000D03*
X167396000Y-65290000D03*
X167396000Y-66790000D03*
%TD*%
%TO.C,RGB-3*%
G36*
G01*
X144096000Y-65085000D02*
X144096000Y-65495000D01*
G75*
G02*
X143891000Y-65700000I-205000J0D01*
G01*
X142601000Y-65700000D01*
G75*
G02*
X142396000Y-65495000I0J205000D01*
G01*
X142396000Y-65085000D01*
G75*
G02*
X142601000Y-64880000I205000J0D01*
G01*
X143891000Y-64880000D01*
G75*
G02*
X144096000Y-65085000I0J-205000D01*
G01*
G37*
X143246000Y-66790000D03*
X148346000Y-65290000D03*
X148346000Y-66790000D03*
%TD*%
%TO.C,RGB-1*%
G36*
G01*
X106504000Y-65085000D02*
X106504000Y-65495000D01*
G75*
G02*
X106299000Y-65700000I-205000J0D01*
G01*
X105009000Y-65700000D01*
G75*
G02*
X104804000Y-65495000I0J205000D01*
G01*
X104804000Y-65085000D01*
G75*
G02*
X105009000Y-64880000I205000J0D01*
G01*
X106299000Y-64880000D01*
G75*
G02*
X106504000Y-65085000I0J-205000D01*
G01*
G37*
X105654000Y-66790000D03*
X110754000Y-65290000D03*
X110754000Y-66790000D03*
%TD*%
M02*
