%TF.GenerationSoftware,KiCad,Pcbnew,(5.1.6-0-10_14)*%
%TF.CreationDate,2021-11-22T17:38:10+01:00*%
%TF.ProjectId,Mech50-keyboard,4d656368-3530-42d6-9b65-79626f617264,rev?*%
%TF.SameCoordinates,Original*%
%TF.FileFunction,Soldermask,Top*%
%TF.FilePolarity,Negative*%
%FSLAX46Y46*%
G04 Gerber Fmt 4.6, Leading zero omitted, Abs format (unit mm)*
G04 Created by KiCad (PCBNEW (5.1.6-0-10_14)) date 2021-11-22 17:38:10*
%MOMM*%
%LPD*%
G01*
G04 APERTURE LIST*
%ADD10C,2.000000*%
%ADD11C,1.700000*%
%ADD12C,3.987800*%
%ADD13C,3.048000*%
%ADD14C,1.800000*%
%ADD15O,1.600000X1.600000*%
%ADD16R,1.600000X1.600000*%
%ADD17C,3.200000*%
%ADD18R,2.000000X3.250000*%
%ADD19R,3.250000X2.000000*%
%ADD20C,1.752600*%
%ADD21R,1.752600X1.752600*%
G04 APERTURE END LIST*
%TO.C,S-E12*%
G36*
G01*
X295692294Y-130871719D02*
X296146284Y-129980713D01*
G75*
G02*
X296818782Y-129762205I445503J-226995D01*
G01*
X298957198Y-130851782D01*
G75*
G02*
X299175706Y-131524280I-226995J-445503D01*
G01*
X298721716Y-132415287D01*
G75*
G02*
X298049218Y-132633795I-445503J226995D01*
G01*
X295910802Y-131544218D01*
G75*
G02*
X295692294Y-130871720I226995J445503D01*
G01*
G37*
G36*
G01*
X301484668Y-131907224D02*
X301885368Y-132353810D01*
G75*
G02*
X301831833Y-133342311I-521018J-467483D01*
G01*
X301831833Y-133342311D01*
G75*
G02*
X300843332Y-133288776I-467483J521018D01*
G01*
X300442632Y-132842190D01*
G75*
G02*
X300496167Y-131853689I521018J467483D01*
G01*
X300496167Y-131853689D01*
G75*
G02*
X301484668Y-131907224I467483J-521018D01*
G01*
G37*
D10*
X291164000Y-132598000D03*
X296164000Y-130498000D03*
G36*
G01*
X299055280Y-131711043D02*
X300699188Y-133543208D01*
G75*
G02*
X300641828Y-134602316I-558234J-500874D01*
G01*
X300641828Y-134602316D01*
G75*
G02*
X299582720Y-134544956I-500874J558234D01*
G01*
X297938812Y-132712792D01*
G75*
G02*
X297996172Y-131653684I558234J500874D01*
G01*
X297996172Y-131653684D01*
G75*
G02*
X299055280Y-131711044I500874J-558234D01*
G01*
G37*
G36*
G01*
X292666369Y-131966799D02*
X292626370Y-131386799D01*
G75*
G02*
X293555202Y-130320369I997631J68799D01*
G01*
X293555202Y-130320369D01*
G75*
G02*
X294621632Y-131249201I68799J-997631D01*
G01*
X294661630Y-131829201D01*
G75*
G02*
X293732798Y-132895631I-997631J-68799D01*
G01*
X293732798Y-132895631D01*
G75*
G02*
X292666368Y-131966799I-68799J997631D01*
G01*
G37*
G36*
G01*
X294408307Y-133065828D02*
X293098317Y-134525837D01*
G75*
G02*
X291686172Y-134602316I-744312J667833D01*
G01*
X291686172Y-134602316D01*
G75*
G02*
X291609693Y-133190171I667833J744312D01*
G01*
X292919683Y-131730163D01*
G75*
G02*
X294331828Y-131653684I744312J-667833D01*
G01*
X294331828Y-131653684D01*
G75*
G02*
X294408307Y-133065829I-667833J-744312D01*
G01*
G37*
X293624000Y-131318000D03*
X293664000Y-131898000D03*
G36*
G01*
X299306167Y-133113688D02*
X299306168Y-133113688D01*
G75*
G02*
X300365276Y-133171048I500874J-558234D01*
G01*
X300699192Y-133543204D01*
G75*
G02*
X300641832Y-134602312I-558234J-500874D01*
G01*
X300641832Y-134602312D01*
G75*
G02*
X299582724Y-134544952I-500874J558234D01*
G01*
X299248808Y-134172796D01*
G75*
G02*
X299306168Y-133113688I558234J500874D01*
G01*
G37*
X298664000Y-132398000D03*
X292354000Y-133858000D03*
X293664000Y-132398000D03*
X298704000Y-131318000D03*
X298664000Y-131898000D03*
G36*
G01*
X297666370Y-131829201D02*
X297706368Y-131249201D01*
G75*
G02*
X298772798Y-130320369I997631J-68799D01*
G01*
X298772798Y-130320369D01*
G75*
G02*
X299701630Y-131386799I-68799J-997631D01*
G01*
X299661632Y-131966799D01*
G75*
G02*
X298595202Y-132895631I-997631J68799D01*
G01*
X298595202Y-132895631D01*
G75*
G02*
X297666370Y-131829201I68799J997631D01*
G01*
G37*
%TD*%
%TO.C,S-E6*%
G36*
G01*
X198106668Y-131907224D02*
X198507368Y-132353810D01*
G75*
G02*
X198453833Y-133342311I-521018J-467483D01*
G01*
X198453833Y-133342311D01*
G75*
G02*
X197465332Y-133288776I-467483J521018D01*
G01*
X197064632Y-132842190D01*
G75*
G02*
X197118167Y-131853689I521018J467483D01*
G01*
X197118167Y-131853689D01*
G75*
G02*
X198106668Y-131907224I467483J-521018D01*
G01*
G37*
X187786000Y-132598000D03*
X192786000Y-130498000D03*
D11*
X198286000Y-136398000D03*
X187286000Y-136398000D03*
G36*
G01*
X195677280Y-131711043D02*
X197321188Y-133543208D01*
G75*
G02*
X197263828Y-134602316I-558234J-500874D01*
G01*
X197263828Y-134602316D01*
G75*
G02*
X196204720Y-134544956I-500874J558234D01*
G01*
X194560812Y-132712792D01*
G75*
G02*
X194618172Y-131653684I558234J500874D01*
G01*
X194618172Y-131653684D01*
G75*
G02*
X195677280Y-131711044I500874J-558234D01*
G01*
G37*
G36*
G01*
X189288040Y-131965344D02*
X189248592Y-131386687D01*
G75*
G02*
X190178261Y-130320988I997684J68015D01*
G01*
X190178261Y-130320988D01*
G75*
G02*
X191243960Y-131250657I68015J-997684D01*
G01*
X191283408Y-131829313D01*
G75*
G02*
X190353739Y-132895012I-997684J-68015D01*
G01*
X190353739Y-132895012D01*
G75*
G02*
X189288040Y-131965343I-68015J997684D01*
G01*
G37*
D10*
X195286000Y-131898000D03*
X195286000Y-132398000D03*
X195326000Y-131318000D03*
X190286000Y-131898000D03*
X190246000Y-131318000D03*
X190286000Y-132398000D03*
G36*
G01*
X196987276Y-133211048D02*
X197321192Y-133583204D01*
G75*
G02*
X197263832Y-134642312I-558234J-500874D01*
G01*
X197263832Y-134642312D01*
G75*
G02*
X196204724Y-134584952I-500874J558234D01*
G01*
X195870808Y-134212796D01*
G75*
G02*
X195928168Y-133153688I558234J500874D01*
G01*
X195928168Y-133153688D01*
G75*
G02*
X196987276Y-133211048I500874J-558234D01*
G01*
G37*
D12*
X204724000Y-144653000D03*
X180848000Y-144653000D03*
D13*
X204724000Y-129413000D03*
X180848000Y-129413000D03*
D14*
X197866000Y-136398000D03*
X187706000Y-136398000D03*
D12*
X192786000Y-136398000D03*
G36*
G01*
X191030307Y-133065828D02*
X189720317Y-134525837D01*
G75*
G02*
X188308172Y-134602316I-744312J667833D01*
G01*
X188308172Y-134602316D01*
G75*
G02*
X188231693Y-133190171I667833J744312D01*
G01*
X189541683Y-131730163D01*
G75*
G02*
X190953828Y-131653684I744312J-667833D01*
G01*
X190953828Y-131653684D01*
G75*
G02*
X191030307Y-133065829I-667833J-744312D01*
G01*
G37*
G36*
G01*
X194288544Y-131830001D02*
X194328087Y-131249969D01*
G75*
G02*
X195393786Y-130320300I997684J-68015D01*
G01*
X195393786Y-130320300D01*
G75*
G02*
X196323455Y-131385999I-68015J-997684D01*
G01*
X196283913Y-131966031D01*
G75*
G02*
X195218214Y-132895700I-997684J68015D01*
G01*
X195218214Y-132895700D01*
G75*
G02*
X194288545Y-131830001I68015J997684D01*
G01*
G37*
D10*
X188976000Y-133898000D03*
%TD*%
%TO.C,S-A0*%
G36*
G01*
X88936294Y-55687719D02*
X89390284Y-54796713D01*
G75*
G02*
X90062782Y-54578205I445503J-226995D01*
G01*
X92201198Y-55667782D01*
G75*
G02*
X92419706Y-56340280I-226995J-445503D01*
G01*
X91965716Y-57231287D01*
G75*
G02*
X91293218Y-57449795I-445503J226995D01*
G01*
X89154802Y-56360218D01*
G75*
G02*
X88936294Y-55687720I226995J445503D01*
G01*
G37*
G36*
G01*
X94728668Y-56723224D02*
X95129368Y-57169810D01*
G75*
G02*
X95075833Y-58158311I-521018J-467483D01*
G01*
X95075833Y-58158311D01*
G75*
G02*
X94087332Y-58104776I-467483J521018D01*
G01*
X93686632Y-57658190D01*
G75*
G02*
X93740167Y-56669689I521018J467483D01*
G01*
X93740167Y-56669689D01*
G75*
G02*
X94728668Y-56723224I467483J-521018D01*
G01*
G37*
X84408000Y-57414000D03*
X89408000Y-55314000D03*
G36*
G01*
X92299280Y-56527043D02*
X93943188Y-58359208D01*
G75*
G02*
X93885828Y-59418316I-558234J-500874D01*
G01*
X93885828Y-59418316D01*
G75*
G02*
X92826720Y-59360956I-500874J558234D01*
G01*
X91182812Y-57528792D01*
G75*
G02*
X91240172Y-56469684I558234J500874D01*
G01*
X91240172Y-56469684D01*
G75*
G02*
X92299280Y-56527044I500874J-558234D01*
G01*
G37*
G36*
G01*
X85910369Y-56782799D02*
X85870370Y-56202799D01*
G75*
G02*
X86799202Y-55136369I997631J68799D01*
G01*
X86799202Y-55136369D01*
G75*
G02*
X87865632Y-56065201I68799J-997631D01*
G01*
X87905630Y-56645201D01*
G75*
G02*
X86976798Y-57711631I-997631J-68799D01*
G01*
X86976798Y-57711631D01*
G75*
G02*
X85910368Y-56782799I-68799J997631D01*
G01*
G37*
G36*
G01*
X87652307Y-57881828D02*
X86342317Y-59341837D01*
G75*
G02*
X84930172Y-59418316I-744312J667833D01*
G01*
X84930172Y-59418316D01*
G75*
G02*
X84853693Y-58006171I667833J744312D01*
G01*
X86163683Y-56546163D01*
G75*
G02*
X87575828Y-56469684I744312J-667833D01*
G01*
X87575828Y-56469684D01*
G75*
G02*
X87652307Y-57881829I-667833J-744312D01*
G01*
G37*
X86868000Y-56134000D03*
X86908000Y-56714000D03*
G36*
G01*
X92550167Y-57929688D02*
X92550168Y-57929688D01*
G75*
G02*
X93609276Y-57987048I500874J-558234D01*
G01*
X93943192Y-58359204D01*
G75*
G02*
X93885832Y-59418312I-558234J-500874D01*
G01*
X93885832Y-59418312D01*
G75*
G02*
X92826724Y-59360952I-500874J558234D01*
G01*
X92492808Y-58988796D01*
G75*
G02*
X92550168Y-57929688I558234J500874D01*
G01*
G37*
X91908000Y-57214000D03*
X85598000Y-58674000D03*
X86908000Y-57214000D03*
X91948000Y-56134000D03*
X91908000Y-56714000D03*
G36*
G01*
X90910370Y-56645201D02*
X90950368Y-56065201D01*
G75*
G02*
X92016798Y-55136369I997631J-68799D01*
G01*
X92016798Y-55136369D01*
G75*
G02*
X92945630Y-56202799I-68799J-997631D01*
G01*
X92905632Y-56782799D01*
G75*
G02*
X91839202Y-57711631I-997631J68799D01*
G01*
X91839202Y-57711631D01*
G75*
G02*
X90910370Y-56645201I68799J997631D01*
G01*
G37*
%TD*%
%TO.C,S-A1*%
G36*
G01*
X107732294Y-55687719D02*
X108186284Y-54796713D01*
G75*
G02*
X108858782Y-54578205I445503J-226995D01*
G01*
X110997198Y-55667782D01*
G75*
G02*
X111215706Y-56340280I-226995J-445503D01*
G01*
X110761716Y-57231287D01*
G75*
G02*
X110089218Y-57449795I-445503J226995D01*
G01*
X107950802Y-56360218D01*
G75*
G02*
X107732294Y-55687720I226995J445503D01*
G01*
G37*
G36*
G01*
X113524668Y-56723224D02*
X113925368Y-57169810D01*
G75*
G02*
X113871833Y-58158311I-521018J-467483D01*
G01*
X113871833Y-58158311D01*
G75*
G02*
X112883332Y-58104776I-467483J521018D01*
G01*
X112482632Y-57658190D01*
G75*
G02*
X112536167Y-56669689I521018J467483D01*
G01*
X112536167Y-56669689D01*
G75*
G02*
X113524668Y-56723224I467483J-521018D01*
G01*
G37*
X103204000Y-57414000D03*
X108204000Y-55314000D03*
G36*
G01*
X111095280Y-56527043D02*
X112739188Y-58359208D01*
G75*
G02*
X112681828Y-59418316I-558234J-500874D01*
G01*
X112681828Y-59418316D01*
G75*
G02*
X111622720Y-59360956I-500874J558234D01*
G01*
X109978812Y-57528792D01*
G75*
G02*
X110036172Y-56469684I558234J500874D01*
G01*
X110036172Y-56469684D01*
G75*
G02*
X111095280Y-56527044I500874J-558234D01*
G01*
G37*
G36*
G01*
X104706369Y-56782799D02*
X104666370Y-56202799D01*
G75*
G02*
X105595202Y-55136369I997631J68799D01*
G01*
X105595202Y-55136369D01*
G75*
G02*
X106661632Y-56065201I68799J-997631D01*
G01*
X106701630Y-56645201D01*
G75*
G02*
X105772798Y-57711631I-997631J-68799D01*
G01*
X105772798Y-57711631D01*
G75*
G02*
X104706368Y-56782799I-68799J997631D01*
G01*
G37*
G36*
G01*
X106448307Y-57881828D02*
X105138317Y-59341837D01*
G75*
G02*
X103726172Y-59418316I-744312J667833D01*
G01*
X103726172Y-59418316D01*
G75*
G02*
X103649693Y-58006171I667833J744312D01*
G01*
X104959683Y-56546163D01*
G75*
G02*
X106371828Y-56469684I744312J-667833D01*
G01*
X106371828Y-56469684D01*
G75*
G02*
X106448307Y-57881829I-667833J-744312D01*
G01*
G37*
X105664000Y-56134000D03*
X105704000Y-56714000D03*
G36*
G01*
X111346167Y-57929688D02*
X111346168Y-57929688D01*
G75*
G02*
X112405276Y-57987048I500874J-558234D01*
G01*
X112739192Y-58359204D01*
G75*
G02*
X112681832Y-59418312I-558234J-500874D01*
G01*
X112681832Y-59418312D01*
G75*
G02*
X111622724Y-59360952I-500874J558234D01*
G01*
X111288808Y-58988796D01*
G75*
G02*
X111346168Y-57929688I558234J500874D01*
G01*
G37*
X110704000Y-57214000D03*
X104394000Y-58674000D03*
X105704000Y-57214000D03*
X110744000Y-56134000D03*
X110704000Y-56714000D03*
G36*
G01*
X109706370Y-56645201D02*
X109746368Y-56065201D01*
G75*
G02*
X110812798Y-55136369I997631J-68799D01*
G01*
X110812798Y-55136369D01*
G75*
G02*
X111741630Y-56202799I-68799J-997631D01*
G01*
X111701632Y-56782799D01*
G75*
G02*
X110635202Y-57711631I-997631J68799D01*
G01*
X110635202Y-57711631D01*
G75*
G02*
X109706370Y-56645201I68799J997631D01*
G01*
G37*
%TD*%
%TO.C,S-A2*%
G36*
G01*
X126528294Y-55687719D02*
X126982284Y-54796713D01*
G75*
G02*
X127654782Y-54578205I445503J-226995D01*
G01*
X129793198Y-55667782D01*
G75*
G02*
X130011706Y-56340280I-226995J-445503D01*
G01*
X129557716Y-57231287D01*
G75*
G02*
X128885218Y-57449795I-445503J226995D01*
G01*
X126746802Y-56360218D01*
G75*
G02*
X126528294Y-55687720I226995J445503D01*
G01*
G37*
G36*
G01*
X132320668Y-56723224D02*
X132721368Y-57169810D01*
G75*
G02*
X132667833Y-58158311I-521018J-467483D01*
G01*
X132667833Y-58158311D01*
G75*
G02*
X131679332Y-58104776I-467483J521018D01*
G01*
X131278632Y-57658190D01*
G75*
G02*
X131332167Y-56669689I521018J467483D01*
G01*
X131332167Y-56669689D01*
G75*
G02*
X132320668Y-56723224I467483J-521018D01*
G01*
G37*
X122000000Y-57414000D03*
X127000000Y-55314000D03*
G36*
G01*
X129891280Y-56527043D02*
X131535188Y-58359208D01*
G75*
G02*
X131477828Y-59418316I-558234J-500874D01*
G01*
X131477828Y-59418316D01*
G75*
G02*
X130418720Y-59360956I-500874J558234D01*
G01*
X128774812Y-57528792D01*
G75*
G02*
X128832172Y-56469684I558234J500874D01*
G01*
X128832172Y-56469684D01*
G75*
G02*
X129891280Y-56527044I500874J-558234D01*
G01*
G37*
G36*
G01*
X123502369Y-56782799D02*
X123462370Y-56202799D01*
G75*
G02*
X124391202Y-55136369I997631J68799D01*
G01*
X124391202Y-55136369D01*
G75*
G02*
X125457632Y-56065201I68799J-997631D01*
G01*
X125497630Y-56645201D01*
G75*
G02*
X124568798Y-57711631I-997631J-68799D01*
G01*
X124568798Y-57711631D01*
G75*
G02*
X123502368Y-56782799I-68799J997631D01*
G01*
G37*
G36*
G01*
X125244307Y-57881828D02*
X123934317Y-59341837D01*
G75*
G02*
X122522172Y-59418316I-744312J667833D01*
G01*
X122522172Y-59418316D01*
G75*
G02*
X122445693Y-58006171I667833J744312D01*
G01*
X123755683Y-56546163D01*
G75*
G02*
X125167828Y-56469684I744312J-667833D01*
G01*
X125167828Y-56469684D01*
G75*
G02*
X125244307Y-57881829I-667833J-744312D01*
G01*
G37*
X124460000Y-56134000D03*
X124500000Y-56714000D03*
G36*
G01*
X130142167Y-57929688D02*
X130142168Y-57929688D01*
G75*
G02*
X131201276Y-57987048I500874J-558234D01*
G01*
X131535192Y-58359204D01*
G75*
G02*
X131477832Y-59418312I-558234J-500874D01*
G01*
X131477832Y-59418312D01*
G75*
G02*
X130418724Y-59360952I-500874J558234D01*
G01*
X130084808Y-58988796D01*
G75*
G02*
X130142168Y-57929688I558234J500874D01*
G01*
G37*
X129500000Y-57214000D03*
X123190000Y-58674000D03*
X124500000Y-57214000D03*
X129540000Y-56134000D03*
X129500000Y-56714000D03*
G36*
G01*
X128502370Y-56645201D02*
X128542368Y-56065201D01*
G75*
G02*
X129608798Y-55136369I997631J-68799D01*
G01*
X129608798Y-55136369D01*
G75*
G02*
X130537630Y-56202799I-68799J-997631D01*
G01*
X130497632Y-56782799D01*
G75*
G02*
X129431202Y-57711631I-997631J68799D01*
G01*
X129431202Y-57711631D01*
G75*
G02*
X128502370Y-56645201I68799J997631D01*
G01*
G37*
%TD*%
%TO.C,S-A3*%
G36*
G01*
X145324294Y-55687719D02*
X145778284Y-54796713D01*
G75*
G02*
X146450782Y-54578205I445503J-226995D01*
G01*
X148589198Y-55667782D01*
G75*
G02*
X148807706Y-56340280I-226995J-445503D01*
G01*
X148353716Y-57231287D01*
G75*
G02*
X147681218Y-57449795I-445503J226995D01*
G01*
X145542802Y-56360218D01*
G75*
G02*
X145324294Y-55687720I226995J445503D01*
G01*
G37*
G36*
G01*
X151116668Y-56723224D02*
X151517368Y-57169810D01*
G75*
G02*
X151463833Y-58158311I-521018J-467483D01*
G01*
X151463833Y-58158311D01*
G75*
G02*
X150475332Y-58104776I-467483J521018D01*
G01*
X150074632Y-57658190D01*
G75*
G02*
X150128167Y-56669689I521018J467483D01*
G01*
X150128167Y-56669689D01*
G75*
G02*
X151116668Y-56723224I467483J-521018D01*
G01*
G37*
X140796000Y-57414000D03*
X145796000Y-55314000D03*
G36*
G01*
X148687280Y-56527043D02*
X150331188Y-58359208D01*
G75*
G02*
X150273828Y-59418316I-558234J-500874D01*
G01*
X150273828Y-59418316D01*
G75*
G02*
X149214720Y-59360956I-500874J558234D01*
G01*
X147570812Y-57528792D01*
G75*
G02*
X147628172Y-56469684I558234J500874D01*
G01*
X147628172Y-56469684D01*
G75*
G02*
X148687280Y-56527044I500874J-558234D01*
G01*
G37*
G36*
G01*
X142298369Y-56782799D02*
X142258370Y-56202799D01*
G75*
G02*
X143187202Y-55136369I997631J68799D01*
G01*
X143187202Y-55136369D01*
G75*
G02*
X144253632Y-56065201I68799J-997631D01*
G01*
X144293630Y-56645201D01*
G75*
G02*
X143364798Y-57711631I-997631J-68799D01*
G01*
X143364798Y-57711631D01*
G75*
G02*
X142298368Y-56782799I-68799J997631D01*
G01*
G37*
G36*
G01*
X144040307Y-57881828D02*
X142730317Y-59341837D01*
G75*
G02*
X141318172Y-59418316I-744312J667833D01*
G01*
X141318172Y-59418316D01*
G75*
G02*
X141241693Y-58006171I667833J744312D01*
G01*
X142551683Y-56546163D01*
G75*
G02*
X143963828Y-56469684I744312J-667833D01*
G01*
X143963828Y-56469684D01*
G75*
G02*
X144040307Y-57881829I-667833J-744312D01*
G01*
G37*
X143256000Y-56134000D03*
X143296000Y-56714000D03*
G36*
G01*
X148938167Y-57929688D02*
X148938168Y-57929688D01*
G75*
G02*
X149997276Y-57987048I500874J-558234D01*
G01*
X150331192Y-58359204D01*
G75*
G02*
X150273832Y-59418312I-558234J-500874D01*
G01*
X150273832Y-59418312D01*
G75*
G02*
X149214724Y-59360952I-500874J558234D01*
G01*
X148880808Y-58988796D01*
G75*
G02*
X148938168Y-57929688I558234J500874D01*
G01*
G37*
X148296000Y-57214000D03*
X141986000Y-58674000D03*
X143296000Y-57214000D03*
X148336000Y-56134000D03*
X148296000Y-56714000D03*
G36*
G01*
X147298370Y-56645201D02*
X147338368Y-56065201D01*
G75*
G02*
X148404798Y-55136369I997631J-68799D01*
G01*
X148404798Y-55136369D01*
G75*
G02*
X149333630Y-56202799I-68799J-997631D01*
G01*
X149293632Y-56782799D01*
G75*
G02*
X148227202Y-57711631I-997631J68799D01*
G01*
X148227202Y-57711631D01*
G75*
G02*
X147298370Y-56645201I68799J997631D01*
G01*
G37*
%TD*%
%TO.C,S-A4*%
G36*
G01*
X164120294Y-55687719D02*
X164574284Y-54796713D01*
G75*
G02*
X165246782Y-54578205I445503J-226995D01*
G01*
X167385198Y-55667782D01*
G75*
G02*
X167603706Y-56340280I-226995J-445503D01*
G01*
X167149716Y-57231287D01*
G75*
G02*
X166477218Y-57449795I-445503J226995D01*
G01*
X164338802Y-56360218D01*
G75*
G02*
X164120294Y-55687720I226995J445503D01*
G01*
G37*
G36*
G01*
X169912668Y-56723224D02*
X170313368Y-57169810D01*
G75*
G02*
X170259833Y-58158311I-521018J-467483D01*
G01*
X170259833Y-58158311D01*
G75*
G02*
X169271332Y-58104776I-467483J521018D01*
G01*
X168870632Y-57658190D01*
G75*
G02*
X168924167Y-56669689I521018J467483D01*
G01*
X168924167Y-56669689D01*
G75*
G02*
X169912668Y-56723224I467483J-521018D01*
G01*
G37*
X159592000Y-57414000D03*
X164592000Y-55314000D03*
G36*
G01*
X167483280Y-56527043D02*
X169127188Y-58359208D01*
G75*
G02*
X169069828Y-59418316I-558234J-500874D01*
G01*
X169069828Y-59418316D01*
G75*
G02*
X168010720Y-59360956I-500874J558234D01*
G01*
X166366812Y-57528792D01*
G75*
G02*
X166424172Y-56469684I558234J500874D01*
G01*
X166424172Y-56469684D01*
G75*
G02*
X167483280Y-56527044I500874J-558234D01*
G01*
G37*
G36*
G01*
X161094369Y-56782799D02*
X161054370Y-56202799D01*
G75*
G02*
X161983202Y-55136369I997631J68799D01*
G01*
X161983202Y-55136369D01*
G75*
G02*
X163049632Y-56065201I68799J-997631D01*
G01*
X163089630Y-56645201D01*
G75*
G02*
X162160798Y-57711631I-997631J-68799D01*
G01*
X162160798Y-57711631D01*
G75*
G02*
X161094368Y-56782799I-68799J997631D01*
G01*
G37*
G36*
G01*
X162836307Y-57881828D02*
X161526317Y-59341837D01*
G75*
G02*
X160114172Y-59418316I-744312J667833D01*
G01*
X160114172Y-59418316D01*
G75*
G02*
X160037693Y-58006171I667833J744312D01*
G01*
X161347683Y-56546163D01*
G75*
G02*
X162759828Y-56469684I744312J-667833D01*
G01*
X162759828Y-56469684D01*
G75*
G02*
X162836307Y-57881829I-667833J-744312D01*
G01*
G37*
X162052000Y-56134000D03*
X162092000Y-56714000D03*
G36*
G01*
X167734167Y-57929688D02*
X167734168Y-57929688D01*
G75*
G02*
X168793276Y-57987048I500874J-558234D01*
G01*
X169127192Y-58359204D01*
G75*
G02*
X169069832Y-59418312I-558234J-500874D01*
G01*
X169069832Y-59418312D01*
G75*
G02*
X168010724Y-59360952I-500874J558234D01*
G01*
X167676808Y-58988796D01*
G75*
G02*
X167734168Y-57929688I558234J500874D01*
G01*
G37*
X167092000Y-57214000D03*
X160782000Y-58674000D03*
X162092000Y-57214000D03*
X167132000Y-56134000D03*
X167092000Y-56714000D03*
G36*
G01*
X166094370Y-56645201D02*
X166134368Y-56065201D01*
G75*
G02*
X167200798Y-55136369I997631J-68799D01*
G01*
X167200798Y-55136369D01*
G75*
G02*
X168129630Y-56202799I-68799J-997631D01*
G01*
X168089632Y-56782799D01*
G75*
G02*
X167023202Y-57711631I-997631J68799D01*
G01*
X167023202Y-57711631D01*
G75*
G02*
X166094370Y-56645201I68799J997631D01*
G01*
G37*
%TD*%
%TO.C,S-A5*%
G36*
G01*
X182916294Y-55687719D02*
X183370284Y-54796713D01*
G75*
G02*
X184042782Y-54578205I445503J-226995D01*
G01*
X186181198Y-55667782D01*
G75*
G02*
X186399706Y-56340280I-226995J-445503D01*
G01*
X185945716Y-57231287D01*
G75*
G02*
X185273218Y-57449795I-445503J226995D01*
G01*
X183134802Y-56360218D01*
G75*
G02*
X182916294Y-55687720I226995J445503D01*
G01*
G37*
G36*
G01*
X188708668Y-56723224D02*
X189109368Y-57169810D01*
G75*
G02*
X189055833Y-58158311I-521018J-467483D01*
G01*
X189055833Y-58158311D01*
G75*
G02*
X188067332Y-58104776I-467483J521018D01*
G01*
X187666632Y-57658190D01*
G75*
G02*
X187720167Y-56669689I521018J467483D01*
G01*
X187720167Y-56669689D01*
G75*
G02*
X188708668Y-56723224I467483J-521018D01*
G01*
G37*
X178388000Y-57414000D03*
X183388000Y-55314000D03*
G36*
G01*
X186279280Y-56527043D02*
X187923188Y-58359208D01*
G75*
G02*
X187865828Y-59418316I-558234J-500874D01*
G01*
X187865828Y-59418316D01*
G75*
G02*
X186806720Y-59360956I-500874J558234D01*
G01*
X185162812Y-57528792D01*
G75*
G02*
X185220172Y-56469684I558234J500874D01*
G01*
X185220172Y-56469684D01*
G75*
G02*
X186279280Y-56527044I500874J-558234D01*
G01*
G37*
G36*
G01*
X179890369Y-56782799D02*
X179850370Y-56202799D01*
G75*
G02*
X180779202Y-55136369I997631J68799D01*
G01*
X180779202Y-55136369D01*
G75*
G02*
X181845632Y-56065201I68799J-997631D01*
G01*
X181885630Y-56645201D01*
G75*
G02*
X180956798Y-57711631I-997631J-68799D01*
G01*
X180956798Y-57711631D01*
G75*
G02*
X179890368Y-56782799I-68799J997631D01*
G01*
G37*
G36*
G01*
X181632307Y-57881828D02*
X180322317Y-59341837D01*
G75*
G02*
X178910172Y-59418316I-744312J667833D01*
G01*
X178910172Y-59418316D01*
G75*
G02*
X178833693Y-58006171I667833J744312D01*
G01*
X180143683Y-56546163D01*
G75*
G02*
X181555828Y-56469684I744312J-667833D01*
G01*
X181555828Y-56469684D01*
G75*
G02*
X181632307Y-57881829I-667833J-744312D01*
G01*
G37*
X180848000Y-56134000D03*
X180888000Y-56714000D03*
G36*
G01*
X186530167Y-57929688D02*
X186530168Y-57929688D01*
G75*
G02*
X187589276Y-57987048I500874J-558234D01*
G01*
X187923192Y-58359204D01*
G75*
G02*
X187865832Y-59418312I-558234J-500874D01*
G01*
X187865832Y-59418312D01*
G75*
G02*
X186806724Y-59360952I-500874J558234D01*
G01*
X186472808Y-58988796D01*
G75*
G02*
X186530168Y-57929688I558234J500874D01*
G01*
G37*
X185888000Y-57214000D03*
X179578000Y-58674000D03*
X180888000Y-57214000D03*
X185928000Y-56134000D03*
X185888000Y-56714000D03*
G36*
G01*
X184890370Y-56645201D02*
X184930368Y-56065201D01*
G75*
G02*
X185996798Y-55136369I997631J-68799D01*
G01*
X185996798Y-55136369D01*
G75*
G02*
X186925630Y-56202799I-68799J-997631D01*
G01*
X186885632Y-56782799D01*
G75*
G02*
X185819202Y-57711631I-997631J68799D01*
G01*
X185819202Y-57711631D01*
G75*
G02*
X184890370Y-56645201I68799J997631D01*
G01*
G37*
%TD*%
%TO.C,S-A6*%
G36*
G01*
X201712294Y-55687719D02*
X202166284Y-54796713D01*
G75*
G02*
X202838782Y-54578205I445503J-226995D01*
G01*
X204977198Y-55667782D01*
G75*
G02*
X205195706Y-56340280I-226995J-445503D01*
G01*
X204741716Y-57231287D01*
G75*
G02*
X204069218Y-57449795I-445503J226995D01*
G01*
X201930802Y-56360218D01*
G75*
G02*
X201712294Y-55687720I226995J445503D01*
G01*
G37*
G36*
G01*
X207504668Y-56723224D02*
X207905368Y-57169810D01*
G75*
G02*
X207851833Y-58158311I-521018J-467483D01*
G01*
X207851833Y-58158311D01*
G75*
G02*
X206863332Y-58104776I-467483J521018D01*
G01*
X206462632Y-57658190D01*
G75*
G02*
X206516167Y-56669689I521018J467483D01*
G01*
X206516167Y-56669689D01*
G75*
G02*
X207504668Y-56723224I467483J-521018D01*
G01*
G37*
X197184000Y-57414000D03*
X202184000Y-55314000D03*
G36*
G01*
X205075280Y-56527043D02*
X206719188Y-58359208D01*
G75*
G02*
X206661828Y-59418316I-558234J-500874D01*
G01*
X206661828Y-59418316D01*
G75*
G02*
X205602720Y-59360956I-500874J558234D01*
G01*
X203958812Y-57528792D01*
G75*
G02*
X204016172Y-56469684I558234J500874D01*
G01*
X204016172Y-56469684D01*
G75*
G02*
X205075280Y-56527044I500874J-558234D01*
G01*
G37*
G36*
G01*
X198686369Y-56782799D02*
X198646370Y-56202799D01*
G75*
G02*
X199575202Y-55136369I997631J68799D01*
G01*
X199575202Y-55136369D01*
G75*
G02*
X200641632Y-56065201I68799J-997631D01*
G01*
X200681630Y-56645201D01*
G75*
G02*
X199752798Y-57711631I-997631J-68799D01*
G01*
X199752798Y-57711631D01*
G75*
G02*
X198686368Y-56782799I-68799J997631D01*
G01*
G37*
G36*
G01*
X200428307Y-57881828D02*
X199118317Y-59341837D01*
G75*
G02*
X197706172Y-59418316I-744312J667833D01*
G01*
X197706172Y-59418316D01*
G75*
G02*
X197629693Y-58006171I667833J744312D01*
G01*
X198939683Y-56546163D01*
G75*
G02*
X200351828Y-56469684I744312J-667833D01*
G01*
X200351828Y-56469684D01*
G75*
G02*
X200428307Y-57881829I-667833J-744312D01*
G01*
G37*
X199644000Y-56134000D03*
X199684000Y-56714000D03*
G36*
G01*
X205326167Y-57929688D02*
X205326168Y-57929688D01*
G75*
G02*
X206385276Y-57987048I500874J-558234D01*
G01*
X206719192Y-58359204D01*
G75*
G02*
X206661832Y-59418312I-558234J-500874D01*
G01*
X206661832Y-59418312D01*
G75*
G02*
X205602724Y-59360952I-500874J558234D01*
G01*
X205268808Y-58988796D01*
G75*
G02*
X205326168Y-57929688I558234J500874D01*
G01*
G37*
X204684000Y-57214000D03*
X198374000Y-58674000D03*
X199684000Y-57214000D03*
X204724000Y-56134000D03*
X204684000Y-56714000D03*
G36*
G01*
X203686370Y-56645201D02*
X203726368Y-56065201D01*
G75*
G02*
X204792798Y-55136369I997631J-68799D01*
G01*
X204792798Y-55136369D01*
G75*
G02*
X205721630Y-56202799I-68799J-997631D01*
G01*
X205681632Y-56782799D01*
G75*
G02*
X204615202Y-57711631I-997631J68799D01*
G01*
X204615202Y-57711631D01*
G75*
G02*
X203686370Y-56645201I68799J997631D01*
G01*
G37*
%TD*%
%TO.C,S-A7*%
G36*
G01*
X220508294Y-55687719D02*
X220962284Y-54796713D01*
G75*
G02*
X221634782Y-54578205I445503J-226995D01*
G01*
X223773198Y-55667782D01*
G75*
G02*
X223991706Y-56340280I-226995J-445503D01*
G01*
X223537716Y-57231287D01*
G75*
G02*
X222865218Y-57449795I-445503J226995D01*
G01*
X220726802Y-56360218D01*
G75*
G02*
X220508294Y-55687720I226995J445503D01*
G01*
G37*
G36*
G01*
X226300668Y-56723224D02*
X226701368Y-57169810D01*
G75*
G02*
X226647833Y-58158311I-521018J-467483D01*
G01*
X226647833Y-58158311D01*
G75*
G02*
X225659332Y-58104776I-467483J521018D01*
G01*
X225258632Y-57658190D01*
G75*
G02*
X225312167Y-56669689I521018J467483D01*
G01*
X225312167Y-56669689D01*
G75*
G02*
X226300668Y-56723224I467483J-521018D01*
G01*
G37*
X215980000Y-57414000D03*
X220980000Y-55314000D03*
G36*
G01*
X223871280Y-56527043D02*
X225515188Y-58359208D01*
G75*
G02*
X225457828Y-59418316I-558234J-500874D01*
G01*
X225457828Y-59418316D01*
G75*
G02*
X224398720Y-59360956I-500874J558234D01*
G01*
X222754812Y-57528792D01*
G75*
G02*
X222812172Y-56469684I558234J500874D01*
G01*
X222812172Y-56469684D01*
G75*
G02*
X223871280Y-56527044I500874J-558234D01*
G01*
G37*
G36*
G01*
X217482369Y-56782799D02*
X217442370Y-56202799D01*
G75*
G02*
X218371202Y-55136369I997631J68799D01*
G01*
X218371202Y-55136369D01*
G75*
G02*
X219437632Y-56065201I68799J-997631D01*
G01*
X219477630Y-56645201D01*
G75*
G02*
X218548798Y-57711631I-997631J-68799D01*
G01*
X218548798Y-57711631D01*
G75*
G02*
X217482368Y-56782799I-68799J997631D01*
G01*
G37*
G36*
G01*
X219224307Y-57881828D02*
X217914317Y-59341837D01*
G75*
G02*
X216502172Y-59418316I-744312J667833D01*
G01*
X216502172Y-59418316D01*
G75*
G02*
X216425693Y-58006171I667833J744312D01*
G01*
X217735683Y-56546163D01*
G75*
G02*
X219147828Y-56469684I744312J-667833D01*
G01*
X219147828Y-56469684D01*
G75*
G02*
X219224307Y-57881829I-667833J-744312D01*
G01*
G37*
X218440000Y-56134000D03*
X218480000Y-56714000D03*
G36*
G01*
X224122167Y-57929688D02*
X224122168Y-57929688D01*
G75*
G02*
X225181276Y-57987048I500874J-558234D01*
G01*
X225515192Y-58359204D01*
G75*
G02*
X225457832Y-59418312I-558234J-500874D01*
G01*
X225457832Y-59418312D01*
G75*
G02*
X224398724Y-59360952I-500874J558234D01*
G01*
X224064808Y-58988796D01*
G75*
G02*
X224122168Y-57929688I558234J500874D01*
G01*
G37*
X223480000Y-57214000D03*
X217170000Y-58674000D03*
X218480000Y-57214000D03*
X223520000Y-56134000D03*
X223480000Y-56714000D03*
G36*
G01*
X222482370Y-56645201D02*
X222522368Y-56065201D01*
G75*
G02*
X223588798Y-55136369I997631J-68799D01*
G01*
X223588798Y-55136369D01*
G75*
G02*
X224517630Y-56202799I-68799J-997631D01*
G01*
X224477632Y-56782799D01*
G75*
G02*
X223411202Y-57711631I-997631J68799D01*
G01*
X223411202Y-57711631D01*
G75*
G02*
X222482370Y-56645201I68799J997631D01*
G01*
G37*
%TD*%
%TO.C,S-A8*%
G36*
G01*
X239304294Y-55687719D02*
X239758284Y-54796713D01*
G75*
G02*
X240430782Y-54578205I445503J-226995D01*
G01*
X242569198Y-55667782D01*
G75*
G02*
X242787706Y-56340280I-226995J-445503D01*
G01*
X242333716Y-57231287D01*
G75*
G02*
X241661218Y-57449795I-445503J226995D01*
G01*
X239522802Y-56360218D01*
G75*
G02*
X239304294Y-55687720I226995J445503D01*
G01*
G37*
G36*
G01*
X245096668Y-56723224D02*
X245497368Y-57169810D01*
G75*
G02*
X245443833Y-58158311I-521018J-467483D01*
G01*
X245443833Y-58158311D01*
G75*
G02*
X244455332Y-58104776I-467483J521018D01*
G01*
X244054632Y-57658190D01*
G75*
G02*
X244108167Y-56669689I521018J467483D01*
G01*
X244108167Y-56669689D01*
G75*
G02*
X245096668Y-56723224I467483J-521018D01*
G01*
G37*
X234776000Y-57414000D03*
X239776000Y-55314000D03*
G36*
G01*
X242667280Y-56527043D02*
X244311188Y-58359208D01*
G75*
G02*
X244253828Y-59418316I-558234J-500874D01*
G01*
X244253828Y-59418316D01*
G75*
G02*
X243194720Y-59360956I-500874J558234D01*
G01*
X241550812Y-57528792D01*
G75*
G02*
X241608172Y-56469684I558234J500874D01*
G01*
X241608172Y-56469684D01*
G75*
G02*
X242667280Y-56527044I500874J-558234D01*
G01*
G37*
G36*
G01*
X236278369Y-56782799D02*
X236238370Y-56202799D01*
G75*
G02*
X237167202Y-55136369I997631J68799D01*
G01*
X237167202Y-55136369D01*
G75*
G02*
X238233632Y-56065201I68799J-997631D01*
G01*
X238273630Y-56645201D01*
G75*
G02*
X237344798Y-57711631I-997631J-68799D01*
G01*
X237344798Y-57711631D01*
G75*
G02*
X236278368Y-56782799I-68799J997631D01*
G01*
G37*
G36*
G01*
X238020307Y-57881828D02*
X236710317Y-59341837D01*
G75*
G02*
X235298172Y-59418316I-744312J667833D01*
G01*
X235298172Y-59418316D01*
G75*
G02*
X235221693Y-58006171I667833J744312D01*
G01*
X236531683Y-56546163D01*
G75*
G02*
X237943828Y-56469684I744312J-667833D01*
G01*
X237943828Y-56469684D01*
G75*
G02*
X238020307Y-57881829I-667833J-744312D01*
G01*
G37*
X237236000Y-56134000D03*
X237276000Y-56714000D03*
G36*
G01*
X242918167Y-57929688D02*
X242918168Y-57929688D01*
G75*
G02*
X243977276Y-57987048I500874J-558234D01*
G01*
X244311192Y-58359204D01*
G75*
G02*
X244253832Y-59418312I-558234J-500874D01*
G01*
X244253832Y-59418312D01*
G75*
G02*
X243194724Y-59360952I-500874J558234D01*
G01*
X242860808Y-58988796D01*
G75*
G02*
X242918168Y-57929688I558234J500874D01*
G01*
G37*
X242276000Y-57214000D03*
X235966000Y-58674000D03*
X237276000Y-57214000D03*
X242316000Y-56134000D03*
X242276000Y-56714000D03*
G36*
G01*
X241278370Y-56645201D02*
X241318368Y-56065201D01*
G75*
G02*
X242384798Y-55136369I997631J-68799D01*
G01*
X242384798Y-55136369D01*
G75*
G02*
X243313630Y-56202799I-68799J-997631D01*
G01*
X243273632Y-56782799D01*
G75*
G02*
X242207202Y-57711631I-997631J68799D01*
G01*
X242207202Y-57711631D01*
G75*
G02*
X241278370Y-56645201I68799J997631D01*
G01*
G37*
%TD*%
%TO.C,S-A9*%
G36*
G01*
X258100294Y-55687719D02*
X258554284Y-54796713D01*
G75*
G02*
X259226782Y-54578205I445503J-226995D01*
G01*
X261365198Y-55667782D01*
G75*
G02*
X261583706Y-56340280I-226995J-445503D01*
G01*
X261129716Y-57231287D01*
G75*
G02*
X260457218Y-57449795I-445503J226995D01*
G01*
X258318802Y-56360218D01*
G75*
G02*
X258100294Y-55687720I226995J445503D01*
G01*
G37*
G36*
G01*
X263892668Y-56723224D02*
X264293368Y-57169810D01*
G75*
G02*
X264239833Y-58158311I-521018J-467483D01*
G01*
X264239833Y-58158311D01*
G75*
G02*
X263251332Y-58104776I-467483J521018D01*
G01*
X262850632Y-57658190D01*
G75*
G02*
X262904167Y-56669689I521018J467483D01*
G01*
X262904167Y-56669689D01*
G75*
G02*
X263892668Y-56723224I467483J-521018D01*
G01*
G37*
X253572000Y-57414000D03*
X258572000Y-55314000D03*
G36*
G01*
X261463280Y-56527043D02*
X263107188Y-58359208D01*
G75*
G02*
X263049828Y-59418316I-558234J-500874D01*
G01*
X263049828Y-59418316D01*
G75*
G02*
X261990720Y-59360956I-500874J558234D01*
G01*
X260346812Y-57528792D01*
G75*
G02*
X260404172Y-56469684I558234J500874D01*
G01*
X260404172Y-56469684D01*
G75*
G02*
X261463280Y-56527044I500874J-558234D01*
G01*
G37*
G36*
G01*
X255074369Y-56782799D02*
X255034370Y-56202799D01*
G75*
G02*
X255963202Y-55136369I997631J68799D01*
G01*
X255963202Y-55136369D01*
G75*
G02*
X257029632Y-56065201I68799J-997631D01*
G01*
X257069630Y-56645201D01*
G75*
G02*
X256140798Y-57711631I-997631J-68799D01*
G01*
X256140798Y-57711631D01*
G75*
G02*
X255074368Y-56782799I-68799J997631D01*
G01*
G37*
G36*
G01*
X256816307Y-57881828D02*
X255506317Y-59341837D01*
G75*
G02*
X254094172Y-59418316I-744312J667833D01*
G01*
X254094172Y-59418316D01*
G75*
G02*
X254017693Y-58006171I667833J744312D01*
G01*
X255327683Y-56546163D01*
G75*
G02*
X256739828Y-56469684I744312J-667833D01*
G01*
X256739828Y-56469684D01*
G75*
G02*
X256816307Y-57881829I-667833J-744312D01*
G01*
G37*
X256032000Y-56134000D03*
X256072000Y-56714000D03*
G36*
G01*
X261714167Y-57929688D02*
X261714168Y-57929688D01*
G75*
G02*
X262773276Y-57987048I500874J-558234D01*
G01*
X263107192Y-58359204D01*
G75*
G02*
X263049832Y-59418312I-558234J-500874D01*
G01*
X263049832Y-59418312D01*
G75*
G02*
X261990724Y-59360952I-500874J558234D01*
G01*
X261656808Y-58988796D01*
G75*
G02*
X261714168Y-57929688I558234J500874D01*
G01*
G37*
X261072000Y-57214000D03*
X254762000Y-58674000D03*
X256072000Y-57214000D03*
X261112000Y-56134000D03*
X261072000Y-56714000D03*
G36*
G01*
X260074370Y-56645201D02*
X260114368Y-56065201D01*
G75*
G02*
X261180798Y-55136369I997631J-68799D01*
G01*
X261180798Y-55136369D01*
G75*
G02*
X262109630Y-56202799I-68799J-997631D01*
G01*
X262069632Y-56782799D01*
G75*
G02*
X261003202Y-57711631I-997631J68799D01*
G01*
X261003202Y-57711631D01*
G75*
G02*
X260074370Y-56645201I68799J997631D01*
G01*
G37*
%TD*%
%TO.C,S-A10*%
G36*
G01*
X276896294Y-55687719D02*
X277350284Y-54796713D01*
G75*
G02*
X278022782Y-54578205I445503J-226995D01*
G01*
X280161198Y-55667782D01*
G75*
G02*
X280379706Y-56340280I-226995J-445503D01*
G01*
X279925716Y-57231287D01*
G75*
G02*
X279253218Y-57449795I-445503J226995D01*
G01*
X277114802Y-56360218D01*
G75*
G02*
X276896294Y-55687720I226995J445503D01*
G01*
G37*
G36*
G01*
X282688668Y-56723224D02*
X283089368Y-57169810D01*
G75*
G02*
X283035833Y-58158311I-521018J-467483D01*
G01*
X283035833Y-58158311D01*
G75*
G02*
X282047332Y-58104776I-467483J521018D01*
G01*
X281646632Y-57658190D01*
G75*
G02*
X281700167Y-56669689I521018J467483D01*
G01*
X281700167Y-56669689D01*
G75*
G02*
X282688668Y-56723224I467483J-521018D01*
G01*
G37*
X272368000Y-57414000D03*
X277368000Y-55314000D03*
G36*
G01*
X280259280Y-56527043D02*
X281903188Y-58359208D01*
G75*
G02*
X281845828Y-59418316I-558234J-500874D01*
G01*
X281845828Y-59418316D01*
G75*
G02*
X280786720Y-59360956I-500874J558234D01*
G01*
X279142812Y-57528792D01*
G75*
G02*
X279200172Y-56469684I558234J500874D01*
G01*
X279200172Y-56469684D01*
G75*
G02*
X280259280Y-56527044I500874J-558234D01*
G01*
G37*
G36*
G01*
X273870369Y-56782799D02*
X273830370Y-56202799D01*
G75*
G02*
X274759202Y-55136369I997631J68799D01*
G01*
X274759202Y-55136369D01*
G75*
G02*
X275825632Y-56065201I68799J-997631D01*
G01*
X275865630Y-56645201D01*
G75*
G02*
X274936798Y-57711631I-997631J-68799D01*
G01*
X274936798Y-57711631D01*
G75*
G02*
X273870368Y-56782799I-68799J997631D01*
G01*
G37*
G36*
G01*
X275612307Y-57881828D02*
X274302317Y-59341837D01*
G75*
G02*
X272890172Y-59418316I-744312J667833D01*
G01*
X272890172Y-59418316D01*
G75*
G02*
X272813693Y-58006171I667833J744312D01*
G01*
X274123683Y-56546163D01*
G75*
G02*
X275535828Y-56469684I744312J-667833D01*
G01*
X275535828Y-56469684D01*
G75*
G02*
X275612307Y-57881829I-667833J-744312D01*
G01*
G37*
X274828000Y-56134000D03*
X274868000Y-56714000D03*
G36*
G01*
X280510167Y-57929688D02*
X280510168Y-57929688D01*
G75*
G02*
X281569276Y-57987048I500874J-558234D01*
G01*
X281903192Y-58359204D01*
G75*
G02*
X281845832Y-59418312I-558234J-500874D01*
G01*
X281845832Y-59418312D01*
G75*
G02*
X280786724Y-59360952I-500874J558234D01*
G01*
X280452808Y-58988796D01*
G75*
G02*
X280510168Y-57929688I558234J500874D01*
G01*
G37*
X279868000Y-57214000D03*
X273558000Y-58674000D03*
X274868000Y-57214000D03*
X279908000Y-56134000D03*
X279868000Y-56714000D03*
G36*
G01*
X278870370Y-56645201D02*
X278910368Y-56065201D01*
G75*
G02*
X279976798Y-55136369I997631J-68799D01*
G01*
X279976798Y-55136369D01*
G75*
G02*
X280905630Y-56202799I-68799J-997631D01*
G01*
X280865632Y-56782799D01*
G75*
G02*
X279799202Y-57711631I-997631J68799D01*
G01*
X279799202Y-57711631D01*
G75*
G02*
X278870370Y-56645201I68799J997631D01*
G01*
G37*
%TD*%
%TO.C,S-A11*%
G36*
G01*
X295692294Y-55687719D02*
X296146284Y-54796713D01*
G75*
G02*
X296818782Y-54578205I445503J-226995D01*
G01*
X298957198Y-55667782D01*
G75*
G02*
X299175706Y-56340280I-226995J-445503D01*
G01*
X298721716Y-57231287D01*
G75*
G02*
X298049218Y-57449795I-445503J226995D01*
G01*
X295910802Y-56360218D01*
G75*
G02*
X295692294Y-55687720I226995J445503D01*
G01*
G37*
G36*
G01*
X301484668Y-56723224D02*
X301885368Y-57169810D01*
G75*
G02*
X301831833Y-58158311I-521018J-467483D01*
G01*
X301831833Y-58158311D01*
G75*
G02*
X300843332Y-58104776I-467483J521018D01*
G01*
X300442632Y-57658190D01*
G75*
G02*
X300496167Y-56669689I521018J467483D01*
G01*
X300496167Y-56669689D01*
G75*
G02*
X301484668Y-56723224I467483J-521018D01*
G01*
G37*
X291164000Y-57414000D03*
X296164000Y-55314000D03*
G36*
G01*
X299055280Y-56527043D02*
X300699188Y-58359208D01*
G75*
G02*
X300641828Y-59418316I-558234J-500874D01*
G01*
X300641828Y-59418316D01*
G75*
G02*
X299582720Y-59360956I-500874J558234D01*
G01*
X297938812Y-57528792D01*
G75*
G02*
X297996172Y-56469684I558234J500874D01*
G01*
X297996172Y-56469684D01*
G75*
G02*
X299055280Y-56527044I500874J-558234D01*
G01*
G37*
G36*
G01*
X292666369Y-56782799D02*
X292626370Y-56202799D01*
G75*
G02*
X293555202Y-55136369I997631J68799D01*
G01*
X293555202Y-55136369D01*
G75*
G02*
X294621632Y-56065201I68799J-997631D01*
G01*
X294661630Y-56645201D01*
G75*
G02*
X293732798Y-57711631I-997631J-68799D01*
G01*
X293732798Y-57711631D01*
G75*
G02*
X292666368Y-56782799I-68799J997631D01*
G01*
G37*
G36*
G01*
X294408307Y-57881828D02*
X293098317Y-59341837D01*
G75*
G02*
X291686172Y-59418316I-744312J667833D01*
G01*
X291686172Y-59418316D01*
G75*
G02*
X291609693Y-58006171I667833J744312D01*
G01*
X292919683Y-56546163D01*
G75*
G02*
X294331828Y-56469684I744312J-667833D01*
G01*
X294331828Y-56469684D01*
G75*
G02*
X294408307Y-57881829I-667833J-744312D01*
G01*
G37*
X293624000Y-56134000D03*
X293664000Y-56714000D03*
G36*
G01*
X299306167Y-57929688D02*
X299306168Y-57929688D01*
G75*
G02*
X300365276Y-57987048I500874J-558234D01*
G01*
X300699192Y-58359204D01*
G75*
G02*
X300641832Y-59418312I-558234J-500874D01*
G01*
X300641832Y-59418312D01*
G75*
G02*
X299582724Y-59360952I-500874J558234D01*
G01*
X299248808Y-58988796D01*
G75*
G02*
X299306168Y-57929688I558234J500874D01*
G01*
G37*
X298664000Y-57214000D03*
X292354000Y-58674000D03*
X293664000Y-57214000D03*
X298704000Y-56134000D03*
X298664000Y-56714000D03*
G36*
G01*
X297666370Y-56645201D02*
X297706368Y-56065201D01*
G75*
G02*
X298772798Y-55136369I997631J-68799D01*
G01*
X298772798Y-55136369D01*
G75*
G02*
X299701630Y-56202799I-68799J-997631D01*
G01*
X299661632Y-56782799D01*
G75*
G02*
X298595202Y-57711631I-997631J68799D01*
G01*
X298595202Y-57711631D01*
G75*
G02*
X297666370Y-56645201I68799J997631D01*
G01*
G37*
%TD*%
%TO.C,S-B0*%
G36*
G01*
X88936294Y-74483719D02*
X89390284Y-73592713D01*
G75*
G02*
X90062782Y-73374205I445503J-226995D01*
G01*
X92201198Y-74463782D01*
G75*
G02*
X92419706Y-75136280I-226995J-445503D01*
G01*
X91965716Y-76027287D01*
G75*
G02*
X91293218Y-76245795I-445503J226995D01*
G01*
X89154802Y-75156218D01*
G75*
G02*
X88936294Y-74483720I226995J445503D01*
G01*
G37*
G36*
G01*
X94728668Y-75519224D02*
X95129368Y-75965810D01*
G75*
G02*
X95075833Y-76954311I-521018J-467483D01*
G01*
X95075833Y-76954311D01*
G75*
G02*
X94087332Y-76900776I-467483J521018D01*
G01*
X93686632Y-76454190D01*
G75*
G02*
X93740167Y-75465689I521018J467483D01*
G01*
X93740167Y-75465689D01*
G75*
G02*
X94728668Y-75519224I467483J-521018D01*
G01*
G37*
X84408000Y-76210000D03*
X89408000Y-74110000D03*
G36*
G01*
X92299280Y-75323043D02*
X93943188Y-77155208D01*
G75*
G02*
X93885828Y-78214316I-558234J-500874D01*
G01*
X93885828Y-78214316D01*
G75*
G02*
X92826720Y-78156956I-500874J558234D01*
G01*
X91182812Y-76324792D01*
G75*
G02*
X91240172Y-75265684I558234J500874D01*
G01*
X91240172Y-75265684D01*
G75*
G02*
X92299280Y-75323044I500874J-558234D01*
G01*
G37*
G36*
G01*
X85910369Y-75578799D02*
X85870370Y-74998799D01*
G75*
G02*
X86799202Y-73932369I997631J68799D01*
G01*
X86799202Y-73932369D01*
G75*
G02*
X87865632Y-74861201I68799J-997631D01*
G01*
X87905630Y-75441201D01*
G75*
G02*
X86976798Y-76507631I-997631J-68799D01*
G01*
X86976798Y-76507631D01*
G75*
G02*
X85910368Y-75578799I-68799J997631D01*
G01*
G37*
G36*
G01*
X87652307Y-76677828D02*
X86342317Y-78137837D01*
G75*
G02*
X84930172Y-78214316I-744312J667833D01*
G01*
X84930172Y-78214316D01*
G75*
G02*
X84853693Y-76802171I667833J744312D01*
G01*
X86163683Y-75342163D01*
G75*
G02*
X87575828Y-75265684I744312J-667833D01*
G01*
X87575828Y-75265684D01*
G75*
G02*
X87652307Y-76677829I-667833J-744312D01*
G01*
G37*
X86868000Y-74930000D03*
X86908000Y-75510000D03*
G36*
G01*
X92550167Y-76725688D02*
X92550168Y-76725688D01*
G75*
G02*
X93609276Y-76783048I500874J-558234D01*
G01*
X93943192Y-77155204D01*
G75*
G02*
X93885832Y-78214312I-558234J-500874D01*
G01*
X93885832Y-78214312D01*
G75*
G02*
X92826724Y-78156952I-500874J558234D01*
G01*
X92492808Y-77784796D01*
G75*
G02*
X92550168Y-76725688I558234J500874D01*
G01*
G37*
X91908000Y-76010000D03*
X85598000Y-77470000D03*
X86908000Y-76010000D03*
X91948000Y-74930000D03*
X91908000Y-75510000D03*
G36*
G01*
X90910370Y-75441201D02*
X90950368Y-74861201D01*
G75*
G02*
X92016798Y-73932369I997631J-68799D01*
G01*
X92016798Y-73932369D01*
G75*
G02*
X92945630Y-74998799I-68799J-997631D01*
G01*
X92905632Y-75578799D01*
G75*
G02*
X91839202Y-76507631I-997631J68799D01*
G01*
X91839202Y-76507631D01*
G75*
G02*
X90910370Y-75441201I68799J997631D01*
G01*
G37*
%TD*%
%TO.C,S-B1*%
G36*
G01*
X107732294Y-74483719D02*
X108186284Y-73592713D01*
G75*
G02*
X108858782Y-73374205I445503J-226995D01*
G01*
X110997198Y-74463782D01*
G75*
G02*
X111215706Y-75136280I-226995J-445503D01*
G01*
X110761716Y-76027287D01*
G75*
G02*
X110089218Y-76245795I-445503J226995D01*
G01*
X107950802Y-75156218D01*
G75*
G02*
X107732294Y-74483720I226995J445503D01*
G01*
G37*
G36*
G01*
X113524668Y-75519224D02*
X113925368Y-75965810D01*
G75*
G02*
X113871833Y-76954311I-521018J-467483D01*
G01*
X113871833Y-76954311D01*
G75*
G02*
X112883332Y-76900776I-467483J521018D01*
G01*
X112482632Y-76454190D01*
G75*
G02*
X112536167Y-75465689I521018J467483D01*
G01*
X112536167Y-75465689D01*
G75*
G02*
X113524668Y-75519224I467483J-521018D01*
G01*
G37*
X103204000Y-76210000D03*
X108204000Y-74110000D03*
G36*
G01*
X111095280Y-75323043D02*
X112739188Y-77155208D01*
G75*
G02*
X112681828Y-78214316I-558234J-500874D01*
G01*
X112681828Y-78214316D01*
G75*
G02*
X111622720Y-78156956I-500874J558234D01*
G01*
X109978812Y-76324792D01*
G75*
G02*
X110036172Y-75265684I558234J500874D01*
G01*
X110036172Y-75265684D01*
G75*
G02*
X111095280Y-75323044I500874J-558234D01*
G01*
G37*
G36*
G01*
X104706369Y-75578799D02*
X104666370Y-74998799D01*
G75*
G02*
X105595202Y-73932369I997631J68799D01*
G01*
X105595202Y-73932369D01*
G75*
G02*
X106661632Y-74861201I68799J-997631D01*
G01*
X106701630Y-75441201D01*
G75*
G02*
X105772798Y-76507631I-997631J-68799D01*
G01*
X105772798Y-76507631D01*
G75*
G02*
X104706368Y-75578799I-68799J997631D01*
G01*
G37*
G36*
G01*
X106448307Y-76677828D02*
X105138317Y-78137837D01*
G75*
G02*
X103726172Y-78214316I-744312J667833D01*
G01*
X103726172Y-78214316D01*
G75*
G02*
X103649693Y-76802171I667833J744312D01*
G01*
X104959683Y-75342163D01*
G75*
G02*
X106371828Y-75265684I744312J-667833D01*
G01*
X106371828Y-75265684D01*
G75*
G02*
X106448307Y-76677829I-667833J-744312D01*
G01*
G37*
X105664000Y-74930000D03*
X105704000Y-75510000D03*
G36*
G01*
X111346167Y-76725688D02*
X111346168Y-76725688D01*
G75*
G02*
X112405276Y-76783048I500874J-558234D01*
G01*
X112739192Y-77155204D01*
G75*
G02*
X112681832Y-78214312I-558234J-500874D01*
G01*
X112681832Y-78214312D01*
G75*
G02*
X111622724Y-78156952I-500874J558234D01*
G01*
X111288808Y-77784796D01*
G75*
G02*
X111346168Y-76725688I558234J500874D01*
G01*
G37*
X110704000Y-76010000D03*
X104394000Y-77470000D03*
X105704000Y-76010000D03*
X110744000Y-74930000D03*
X110704000Y-75510000D03*
G36*
G01*
X109706370Y-75441201D02*
X109746368Y-74861201D01*
G75*
G02*
X110812798Y-73932369I997631J-68799D01*
G01*
X110812798Y-73932369D01*
G75*
G02*
X111741630Y-74998799I-68799J-997631D01*
G01*
X111701632Y-75578799D01*
G75*
G02*
X110635202Y-76507631I-997631J68799D01*
G01*
X110635202Y-76507631D01*
G75*
G02*
X109706370Y-75441201I68799J997631D01*
G01*
G37*
%TD*%
%TO.C,S-B2*%
G36*
G01*
X126528294Y-74483719D02*
X126982284Y-73592713D01*
G75*
G02*
X127654782Y-73374205I445503J-226995D01*
G01*
X129793198Y-74463782D01*
G75*
G02*
X130011706Y-75136280I-226995J-445503D01*
G01*
X129557716Y-76027287D01*
G75*
G02*
X128885218Y-76245795I-445503J226995D01*
G01*
X126746802Y-75156218D01*
G75*
G02*
X126528294Y-74483720I226995J445503D01*
G01*
G37*
G36*
G01*
X132320668Y-75519224D02*
X132721368Y-75965810D01*
G75*
G02*
X132667833Y-76954311I-521018J-467483D01*
G01*
X132667833Y-76954311D01*
G75*
G02*
X131679332Y-76900776I-467483J521018D01*
G01*
X131278632Y-76454190D01*
G75*
G02*
X131332167Y-75465689I521018J467483D01*
G01*
X131332167Y-75465689D01*
G75*
G02*
X132320668Y-75519224I467483J-521018D01*
G01*
G37*
X122000000Y-76210000D03*
X127000000Y-74110000D03*
G36*
G01*
X129891280Y-75323043D02*
X131535188Y-77155208D01*
G75*
G02*
X131477828Y-78214316I-558234J-500874D01*
G01*
X131477828Y-78214316D01*
G75*
G02*
X130418720Y-78156956I-500874J558234D01*
G01*
X128774812Y-76324792D01*
G75*
G02*
X128832172Y-75265684I558234J500874D01*
G01*
X128832172Y-75265684D01*
G75*
G02*
X129891280Y-75323044I500874J-558234D01*
G01*
G37*
G36*
G01*
X123502369Y-75578799D02*
X123462370Y-74998799D01*
G75*
G02*
X124391202Y-73932369I997631J68799D01*
G01*
X124391202Y-73932369D01*
G75*
G02*
X125457632Y-74861201I68799J-997631D01*
G01*
X125497630Y-75441201D01*
G75*
G02*
X124568798Y-76507631I-997631J-68799D01*
G01*
X124568798Y-76507631D01*
G75*
G02*
X123502368Y-75578799I-68799J997631D01*
G01*
G37*
G36*
G01*
X125244307Y-76677828D02*
X123934317Y-78137837D01*
G75*
G02*
X122522172Y-78214316I-744312J667833D01*
G01*
X122522172Y-78214316D01*
G75*
G02*
X122445693Y-76802171I667833J744312D01*
G01*
X123755683Y-75342163D01*
G75*
G02*
X125167828Y-75265684I744312J-667833D01*
G01*
X125167828Y-75265684D01*
G75*
G02*
X125244307Y-76677829I-667833J-744312D01*
G01*
G37*
X124460000Y-74930000D03*
X124500000Y-75510000D03*
G36*
G01*
X130142167Y-76725688D02*
X130142168Y-76725688D01*
G75*
G02*
X131201276Y-76783048I500874J-558234D01*
G01*
X131535192Y-77155204D01*
G75*
G02*
X131477832Y-78214312I-558234J-500874D01*
G01*
X131477832Y-78214312D01*
G75*
G02*
X130418724Y-78156952I-500874J558234D01*
G01*
X130084808Y-77784796D01*
G75*
G02*
X130142168Y-76725688I558234J500874D01*
G01*
G37*
X129500000Y-76010000D03*
X123190000Y-77470000D03*
X124500000Y-76010000D03*
X129540000Y-74930000D03*
X129500000Y-75510000D03*
G36*
G01*
X128502370Y-75441201D02*
X128542368Y-74861201D01*
G75*
G02*
X129608798Y-73932369I997631J-68799D01*
G01*
X129608798Y-73932369D01*
G75*
G02*
X130537630Y-74998799I-68799J-997631D01*
G01*
X130497632Y-75578799D01*
G75*
G02*
X129431202Y-76507631I-997631J68799D01*
G01*
X129431202Y-76507631D01*
G75*
G02*
X128502370Y-75441201I68799J997631D01*
G01*
G37*
%TD*%
%TO.C,S-B3*%
G36*
G01*
X145324294Y-74483719D02*
X145778284Y-73592713D01*
G75*
G02*
X146450782Y-73374205I445503J-226995D01*
G01*
X148589198Y-74463782D01*
G75*
G02*
X148807706Y-75136280I-226995J-445503D01*
G01*
X148353716Y-76027287D01*
G75*
G02*
X147681218Y-76245795I-445503J226995D01*
G01*
X145542802Y-75156218D01*
G75*
G02*
X145324294Y-74483720I226995J445503D01*
G01*
G37*
G36*
G01*
X151116668Y-75519224D02*
X151517368Y-75965810D01*
G75*
G02*
X151463833Y-76954311I-521018J-467483D01*
G01*
X151463833Y-76954311D01*
G75*
G02*
X150475332Y-76900776I-467483J521018D01*
G01*
X150074632Y-76454190D01*
G75*
G02*
X150128167Y-75465689I521018J467483D01*
G01*
X150128167Y-75465689D01*
G75*
G02*
X151116668Y-75519224I467483J-521018D01*
G01*
G37*
X140796000Y-76210000D03*
X145796000Y-74110000D03*
G36*
G01*
X148687280Y-75323043D02*
X150331188Y-77155208D01*
G75*
G02*
X150273828Y-78214316I-558234J-500874D01*
G01*
X150273828Y-78214316D01*
G75*
G02*
X149214720Y-78156956I-500874J558234D01*
G01*
X147570812Y-76324792D01*
G75*
G02*
X147628172Y-75265684I558234J500874D01*
G01*
X147628172Y-75265684D01*
G75*
G02*
X148687280Y-75323044I500874J-558234D01*
G01*
G37*
G36*
G01*
X142298369Y-75578799D02*
X142258370Y-74998799D01*
G75*
G02*
X143187202Y-73932369I997631J68799D01*
G01*
X143187202Y-73932369D01*
G75*
G02*
X144253632Y-74861201I68799J-997631D01*
G01*
X144293630Y-75441201D01*
G75*
G02*
X143364798Y-76507631I-997631J-68799D01*
G01*
X143364798Y-76507631D01*
G75*
G02*
X142298368Y-75578799I-68799J997631D01*
G01*
G37*
G36*
G01*
X144040307Y-76677828D02*
X142730317Y-78137837D01*
G75*
G02*
X141318172Y-78214316I-744312J667833D01*
G01*
X141318172Y-78214316D01*
G75*
G02*
X141241693Y-76802171I667833J744312D01*
G01*
X142551683Y-75342163D01*
G75*
G02*
X143963828Y-75265684I744312J-667833D01*
G01*
X143963828Y-75265684D01*
G75*
G02*
X144040307Y-76677829I-667833J-744312D01*
G01*
G37*
X143256000Y-74930000D03*
X143296000Y-75510000D03*
G36*
G01*
X148938167Y-76725688D02*
X148938168Y-76725688D01*
G75*
G02*
X149997276Y-76783048I500874J-558234D01*
G01*
X150331192Y-77155204D01*
G75*
G02*
X150273832Y-78214312I-558234J-500874D01*
G01*
X150273832Y-78214312D01*
G75*
G02*
X149214724Y-78156952I-500874J558234D01*
G01*
X148880808Y-77784796D01*
G75*
G02*
X148938168Y-76725688I558234J500874D01*
G01*
G37*
X148296000Y-76010000D03*
X141986000Y-77470000D03*
X143296000Y-76010000D03*
X148336000Y-74930000D03*
X148296000Y-75510000D03*
G36*
G01*
X147298370Y-75441201D02*
X147338368Y-74861201D01*
G75*
G02*
X148404798Y-73932369I997631J-68799D01*
G01*
X148404798Y-73932369D01*
G75*
G02*
X149333630Y-74998799I-68799J-997631D01*
G01*
X149293632Y-75578799D01*
G75*
G02*
X148227202Y-76507631I-997631J68799D01*
G01*
X148227202Y-76507631D01*
G75*
G02*
X147298370Y-75441201I68799J997631D01*
G01*
G37*
%TD*%
%TO.C,S-B4*%
G36*
G01*
X164120294Y-74483719D02*
X164574284Y-73592713D01*
G75*
G02*
X165246782Y-73374205I445503J-226995D01*
G01*
X167385198Y-74463782D01*
G75*
G02*
X167603706Y-75136280I-226995J-445503D01*
G01*
X167149716Y-76027287D01*
G75*
G02*
X166477218Y-76245795I-445503J226995D01*
G01*
X164338802Y-75156218D01*
G75*
G02*
X164120294Y-74483720I226995J445503D01*
G01*
G37*
G36*
G01*
X169912668Y-75519224D02*
X170313368Y-75965810D01*
G75*
G02*
X170259833Y-76954311I-521018J-467483D01*
G01*
X170259833Y-76954311D01*
G75*
G02*
X169271332Y-76900776I-467483J521018D01*
G01*
X168870632Y-76454190D01*
G75*
G02*
X168924167Y-75465689I521018J467483D01*
G01*
X168924167Y-75465689D01*
G75*
G02*
X169912668Y-75519224I467483J-521018D01*
G01*
G37*
X159592000Y-76210000D03*
X164592000Y-74110000D03*
G36*
G01*
X167483280Y-75323043D02*
X169127188Y-77155208D01*
G75*
G02*
X169069828Y-78214316I-558234J-500874D01*
G01*
X169069828Y-78214316D01*
G75*
G02*
X168010720Y-78156956I-500874J558234D01*
G01*
X166366812Y-76324792D01*
G75*
G02*
X166424172Y-75265684I558234J500874D01*
G01*
X166424172Y-75265684D01*
G75*
G02*
X167483280Y-75323044I500874J-558234D01*
G01*
G37*
G36*
G01*
X161094369Y-75578799D02*
X161054370Y-74998799D01*
G75*
G02*
X161983202Y-73932369I997631J68799D01*
G01*
X161983202Y-73932369D01*
G75*
G02*
X163049632Y-74861201I68799J-997631D01*
G01*
X163089630Y-75441201D01*
G75*
G02*
X162160798Y-76507631I-997631J-68799D01*
G01*
X162160798Y-76507631D01*
G75*
G02*
X161094368Y-75578799I-68799J997631D01*
G01*
G37*
G36*
G01*
X162836307Y-76677828D02*
X161526317Y-78137837D01*
G75*
G02*
X160114172Y-78214316I-744312J667833D01*
G01*
X160114172Y-78214316D01*
G75*
G02*
X160037693Y-76802171I667833J744312D01*
G01*
X161347683Y-75342163D01*
G75*
G02*
X162759828Y-75265684I744312J-667833D01*
G01*
X162759828Y-75265684D01*
G75*
G02*
X162836307Y-76677829I-667833J-744312D01*
G01*
G37*
X162052000Y-74930000D03*
X162092000Y-75510000D03*
G36*
G01*
X167734167Y-76725688D02*
X167734168Y-76725688D01*
G75*
G02*
X168793276Y-76783048I500874J-558234D01*
G01*
X169127192Y-77155204D01*
G75*
G02*
X169069832Y-78214312I-558234J-500874D01*
G01*
X169069832Y-78214312D01*
G75*
G02*
X168010724Y-78156952I-500874J558234D01*
G01*
X167676808Y-77784796D01*
G75*
G02*
X167734168Y-76725688I558234J500874D01*
G01*
G37*
X167092000Y-76010000D03*
X160782000Y-77470000D03*
X162092000Y-76010000D03*
X167132000Y-74930000D03*
X167092000Y-75510000D03*
G36*
G01*
X166094370Y-75441201D02*
X166134368Y-74861201D01*
G75*
G02*
X167200798Y-73932369I997631J-68799D01*
G01*
X167200798Y-73932369D01*
G75*
G02*
X168129630Y-74998799I-68799J-997631D01*
G01*
X168089632Y-75578799D01*
G75*
G02*
X167023202Y-76507631I-997631J68799D01*
G01*
X167023202Y-76507631D01*
G75*
G02*
X166094370Y-75441201I68799J997631D01*
G01*
G37*
%TD*%
%TO.C,S-B5*%
G36*
G01*
X182916294Y-74483719D02*
X183370284Y-73592713D01*
G75*
G02*
X184042782Y-73374205I445503J-226995D01*
G01*
X186181198Y-74463782D01*
G75*
G02*
X186399706Y-75136280I-226995J-445503D01*
G01*
X185945716Y-76027287D01*
G75*
G02*
X185273218Y-76245795I-445503J226995D01*
G01*
X183134802Y-75156218D01*
G75*
G02*
X182916294Y-74483720I226995J445503D01*
G01*
G37*
G36*
G01*
X188708668Y-75519224D02*
X189109368Y-75965810D01*
G75*
G02*
X189055833Y-76954311I-521018J-467483D01*
G01*
X189055833Y-76954311D01*
G75*
G02*
X188067332Y-76900776I-467483J521018D01*
G01*
X187666632Y-76454190D01*
G75*
G02*
X187720167Y-75465689I521018J467483D01*
G01*
X187720167Y-75465689D01*
G75*
G02*
X188708668Y-75519224I467483J-521018D01*
G01*
G37*
X178388000Y-76210000D03*
X183388000Y-74110000D03*
G36*
G01*
X186279280Y-75323043D02*
X187923188Y-77155208D01*
G75*
G02*
X187865828Y-78214316I-558234J-500874D01*
G01*
X187865828Y-78214316D01*
G75*
G02*
X186806720Y-78156956I-500874J558234D01*
G01*
X185162812Y-76324792D01*
G75*
G02*
X185220172Y-75265684I558234J500874D01*
G01*
X185220172Y-75265684D01*
G75*
G02*
X186279280Y-75323044I500874J-558234D01*
G01*
G37*
G36*
G01*
X179890369Y-75578799D02*
X179850370Y-74998799D01*
G75*
G02*
X180779202Y-73932369I997631J68799D01*
G01*
X180779202Y-73932369D01*
G75*
G02*
X181845632Y-74861201I68799J-997631D01*
G01*
X181885630Y-75441201D01*
G75*
G02*
X180956798Y-76507631I-997631J-68799D01*
G01*
X180956798Y-76507631D01*
G75*
G02*
X179890368Y-75578799I-68799J997631D01*
G01*
G37*
G36*
G01*
X181632307Y-76677828D02*
X180322317Y-78137837D01*
G75*
G02*
X178910172Y-78214316I-744312J667833D01*
G01*
X178910172Y-78214316D01*
G75*
G02*
X178833693Y-76802171I667833J744312D01*
G01*
X180143683Y-75342163D01*
G75*
G02*
X181555828Y-75265684I744312J-667833D01*
G01*
X181555828Y-75265684D01*
G75*
G02*
X181632307Y-76677829I-667833J-744312D01*
G01*
G37*
X180848000Y-74930000D03*
X180888000Y-75510000D03*
G36*
G01*
X186530167Y-76725688D02*
X186530168Y-76725688D01*
G75*
G02*
X187589276Y-76783048I500874J-558234D01*
G01*
X187923192Y-77155204D01*
G75*
G02*
X187865832Y-78214312I-558234J-500874D01*
G01*
X187865832Y-78214312D01*
G75*
G02*
X186806724Y-78156952I-500874J558234D01*
G01*
X186472808Y-77784796D01*
G75*
G02*
X186530168Y-76725688I558234J500874D01*
G01*
G37*
X185888000Y-76010000D03*
X179578000Y-77470000D03*
X180888000Y-76010000D03*
X185928000Y-74930000D03*
X185888000Y-75510000D03*
G36*
G01*
X184890370Y-75441201D02*
X184930368Y-74861201D01*
G75*
G02*
X185996798Y-73932369I997631J-68799D01*
G01*
X185996798Y-73932369D01*
G75*
G02*
X186925630Y-74998799I-68799J-997631D01*
G01*
X186885632Y-75578799D01*
G75*
G02*
X185819202Y-76507631I-997631J68799D01*
G01*
X185819202Y-76507631D01*
G75*
G02*
X184890370Y-75441201I68799J997631D01*
G01*
G37*
%TD*%
%TO.C,S-B6*%
G36*
G01*
X201712294Y-74483719D02*
X202166284Y-73592713D01*
G75*
G02*
X202838782Y-73374205I445503J-226995D01*
G01*
X204977198Y-74463782D01*
G75*
G02*
X205195706Y-75136280I-226995J-445503D01*
G01*
X204741716Y-76027287D01*
G75*
G02*
X204069218Y-76245795I-445503J226995D01*
G01*
X201930802Y-75156218D01*
G75*
G02*
X201712294Y-74483720I226995J445503D01*
G01*
G37*
G36*
G01*
X207504668Y-75519224D02*
X207905368Y-75965810D01*
G75*
G02*
X207851833Y-76954311I-521018J-467483D01*
G01*
X207851833Y-76954311D01*
G75*
G02*
X206863332Y-76900776I-467483J521018D01*
G01*
X206462632Y-76454190D01*
G75*
G02*
X206516167Y-75465689I521018J467483D01*
G01*
X206516167Y-75465689D01*
G75*
G02*
X207504668Y-75519224I467483J-521018D01*
G01*
G37*
X197184000Y-76210000D03*
X202184000Y-74110000D03*
G36*
G01*
X205075280Y-75323043D02*
X206719188Y-77155208D01*
G75*
G02*
X206661828Y-78214316I-558234J-500874D01*
G01*
X206661828Y-78214316D01*
G75*
G02*
X205602720Y-78156956I-500874J558234D01*
G01*
X203958812Y-76324792D01*
G75*
G02*
X204016172Y-75265684I558234J500874D01*
G01*
X204016172Y-75265684D01*
G75*
G02*
X205075280Y-75323044I500874J-558234D01*
G01*
G37*
G36*
G01*
X198686369Y-75578799D02*
X198646370Y-74998799D01*
G75*
G02*
X199575202Y-73932369I997631J68799D01*
G01*
X199575202Y-73932369D01*
G75*
G02*
X200641632Y-74861201I68799J-997631D01*
G01*
X200681630Y-75441201D01*
G75*
G02*
X199752798Y-76507631I-997631J-68799D01*
G01*
X199752798Y-76507631D01*
G75*
G02*
X198686368Y-75578799I-68799J997631D01*
G01*
G37*
G36*
G01*
X200428307Y-76677828D02*
X199118317Y-78137837D01*
G75*
G02*
X197706172Y-78214316I-744312J667833D01*
G01*
X197706172Y-78214316D01*
G75*
G02*
X197629693Y-76802171I667833J744312D01*
G01*
X198939683Y-75342163D01*
G75*
G02*
X200351828Y-75265684I744312J-667833D01*
G01*
X200351828Y-75265684D01*
G75*
G02*
X200428307Y-76677829I-667833J-744312D01*
G01*
G37*
X199644000Y-74930000D03*
X199684000Y-75510000D03*
G36*
G01*
X205326167Y-76725688D02*
X205326168Y-76725688D01*
G75*
G02*
X206385276Y-76783048I500874J-558234D01*
G01*
X206719192Y-77155204D01*
G75*
G02*
X206661832Y-78214312I-558234J-500874D01*
G01*
X206661832Y-78214312D01*
G75*
G02*
X205602724Y-78156952I-500874J558234D01*
G01*
X205268808Y-77784796D01*
G75*
G02*
X205326168Y-76725688I558234J500874D01*
G01*
G37*
X204684000Y-76010000D03*
X198374000Y-77470000D03*
X199684000Y-76010000D03*
X204724000Y-74930000D03*
X204684000Y-75510000D03*
G36*
G01*
X203686370Y-75441201D02*
X203726368Y-74861201D01*
G75*
G02*
X204792798Y-73932369I997631J-68799D01*
G01*
X204792798Y-73932369D01*
G75*
G02*
X205721630Y-74998799I-68799J-997631D01*
G01*
X205681632Y-75578799D01*
G75*
G02*
X204615202Y-76507631I-997631J68799D01*
G01*
X204615202Y-76507631D01*
G75*
G02*
X203686370Y-75441201I68799J997631D01*
G01*
G37*
%TD*%
%TO.C,S-B7*%
G36*
G01*
X220508294Y-74483719D02*
X220962284Y-73592713D01*
G75*
G02*
X221634782Y-73374205I445503J-226995D01*
G01*
X223773198Y-74463782D01*
G75*
G02*
X223991706Y-75136280I-226995J-445503D01*
G01*
X223537716Y-76027287D01*
G75*
G02*
X222865218Y-76245795I-445503J226995D01*
G01*
X220726802Y-75156218D01*
G75*
G02*
X220508294Y-74483720I226995J445503D01*
G01*
G37*
G36*
G01*
X226300668Y-75519224D02*
X226701368Y-75965810D01*
G75*
G02*
X226647833Y-76954311I-521018J-467483D01*
G01*
X226647833Y-76954311D01*
G75*
G02*
X225659332Y-76900776I-467483J521018D01*
G01*
X225258632Y-76454190D01*
G75*
G02*
X225312167Y-75465689I521018J467483D01*
G01*
X225312167Y-75465689D01*
G75*
G02*
X226300668Y-75519224I467483J-521018D01*
G01*
G37*
X215980000Y-76210000D03*
X220980000Y-74110000D03*
G36*
G01*
X223871280Y-75323043D02*
X225515188Y-77155208D01*
G75*
G02*
X225457828Y-78214316I-558234J-500874D01*
G01*
X225457828Y-78214316D01*
G75*
G02*
X224398720Y-78156956I-500874J558234D01*
G01*
X222754812Y-76324792D01*
G75*
G02*
X222812172Y-75265684I558234J500874D01*
G01*
X222812172Y-75265684D01*
G75*
G02*
X223871280Y-75323044I500874J-558234D01*
G01*
G37*
G36*
G01*
X217482369Y-75578799D02*
X217442370Y-74998799D01*
G75*
G02*
X218371202Y-73932369I997631J68799D01*
G01*
X218371202Y-73932369D01*
G75*
G02*
X219437632Y-74861201I68799J-997631D01*
G01*
X219477630Y-75441201D01*
G75*
G02*
X218548798Y-76507631I-997631J-68799D01*
G01*
X218548798Y-76507631D01*
G75*
G02*
X217482368Y-75578799I-68799J997631D01*
G01*
G37*
G36*
G01*
X219224307Y-76677828D02*
X217914317Y-78137837D01*
G75*
G02*
X216502172Y-78214316I-744312J667833D01*
G01*
X216502172Y-78214316D01*
G75*
G02*
X216425693Y-76802171I667833J744312D01*
G01*
X217735683Y-75342163D01*
G75*
G02*
X219147828Y-75265684I744312J-667833D01*
G01*
X219147828Y-75265684D01*
G75*
G02*
X219224307Y-76677829I-667833J-744312D01*
G01*
G37*
X218440000Y-74930000D03*
X218480000Y-75510000D03*
G36*
G01*
X224122167Y-76725688D02*
X224122168Y-76725688D01*
G75*
G02*
X225181276Y-76783048I500874J-558234D01*
G01*
X225515192Y-77155204D01*
G75*
G02*
X225457832Y-78214312I-558234J-500874D01*
G01*
X225457832Y-78214312D01*
G75*
G02*
X224398724Y-78156952I-500874J558234D01*
G01*
X224064808Y-77784796D01*
G75*
G02*
X224122168Y-76725688I558234J500874D01*
G01*
G37*
X223480000Y-76010000D03*
X217170000Y-77470000D03*
X218480000Y-76010000D03*
X223520000Y-74930000D03*
X223480000Y-75510000D03*
G36*
G01*
X222482370Y-75441201D02*
X222522368Y-74861201D01*
G75*
G02*
X223588798Y-73932369I997631J-68799D01*
G01*
X223588798Y-73932369D01*
G75*
G02*
X224517630Y-74998799I-68799J-997631D01*
G01*
X224477632Y-75578799D01*
G75*
G02*
X223411202Y-76507631I-997631J68799D01*
G01*
X223411202Y-76507631D01*
G75*
G02*
X222482370Y-75441201I68799J997631D01*
G01*
G37*
%TD*%
%TO.C,S-B8*%
G36*
G01*
X239304294Y-74483719D02*
X239758284Y-73592713D01*
G75*
G02*
X240430782Y-73374205I445503J-226995D01*
G01*
X242569198Y-74463782D01*
G75*
G02*
X242787706Y-75136280I-226995J-445503D01*
G01*
X242333716Y-76027287D01*
G75*
G02*
X241661218Y-76245795I-445503J226995D01*
G01*
X239522802Y-75156218D01*
G75*
G02*
X239304294Y-74483720I226995J445503D01*
G01*
G37*
G36*
G01*
X245096668Y-75519224D02*
X245497368Y-75965810D01*
G75*
G02*
X245443833Y-76954311I-521018J-467483D01*
G01*
X245443833Y-76954311D01*
G75*
G02*
X244455332Y-76900776I-467483J521018D01*
G01*
X244054632Y-76454190D01*
G75*
G02*
X244108167Y-75465689I521018J467483D01*
G01*
X244108167Y-75465689D01*
G75*
G02*
X245096668Y-75519224I467483J-521018D01*
G01*
G37*
X234776000Y-76210000D03*
X239776000Y-74110000D03*
G36*
G01*
X242667280Y-75323043D02*
X244311188Y-77155208D01*
G75*
G02*
X244253828Y-78214316I-558234J-500874D01*
G01*
X244253828Y-78214316D01*
G75*
G02*
X243194720Y-78156956I-500874J558234D01*
G01*
X241550812Y-76324792D01*
G75*
G02*
X241608172Y-75265684I558234J500874D01*
G01*
X241608172Y-75265684D01*
G75*
G02*
X242667280Y-75323044I500874J-558234D01*
G01*
G37*
G36*
G01*
X236278369Y-75578799D02*
X236238370Y-74998799D01*
G75*
G02*
X237167202Y-73932369I997631J68799D01*
G01*
X237167202Y-73932369D01*
G75*
G02*
X238233632Y-74861201I68799J-997631D01*
G01*
X238273630Y-75441201D01*
G75*
G02*
X237344798Y-76507631I-997631J-68799D01*
G01*
X237344798Y-76507631D01*
G75*
G02*
X236278368Y-75578799I-68799J997631D01*
G01*
G37*
G36*
G01*
X238020307Y-76677828D02*
X236710317Y-78137837D01*
G75*
G02*
X235298172Y-78214316I-744312J667833D01*
G01*
X235298172Y-78214316D01*
G75*
G02*
X235221693Y-76802171I667833J744312D01*
G01*
X236531683Y-75342163D01*
G75*
G02*
X237943828Y-75265684I744312J-667833D01*
G01*
X237943828Y-75265684D01*
G75*
G02*
X238020307Y-76677829I-667833J-744312D01*
G01*
G37*
X237236000Y-74930000D03*
X237276000Y-75510000D03*
G36*
G01*
X242918167Y-76725688D02*
X242918168Y-76725688D01*
G75*
G02*
X243977276Y-76783048I500874J-558234D01*
G01*
X244311192Y-77155204D01*
G75*
G02*
X244253832Y-78214312I-558234J-500874D01*
G01*
X244253832Y-78214312D01*
G75*
G02*
X243194724Y-78156952I-500874J558234D01*
G01*
X242860808Y-77784796D01*
G75*
G02*
X242918168Y-76725688I558234J500874D01*
G01*
G37*
X242276000Y-76010000D03*
X235966000Y-77470000D03*
X237276000Y-76010000D03*
X242316000Y-74930000D03*
X242276000Y-75510000D03*
G36*
G01*
X241278370Y-75441201D02*
X241318368Y-74861201D01*
G75*
G02*
X242384798Y-73932369I997631J-68799D01*
G01*
X242384798Y-73932369D01*
G75*
G02*
X243313630Y-74998799I-68799J-997631D01*
G01*
X243273632Y-75578799D01*
G75*
G02*
X242207202Y-76507631I-997631J68799D01*
G01*
X242207202Y-76507631D01*
G75*
G02*
X241278370Y-75441201I68799J997631D01*
G01*
G37*
%TD*%
%TO.C,S-B9*%
G36*
G01*
X258100294Y-74483719D02*
X258554284Y-73592713D01*
G75*
G02*
X259226782Y-73374205I445503J-226995D01*
G01*
X261365198Y-74463782D01*
G75*
G02*
X261583706Y-75136280I-226995J-445503D01*
G01*
X261129716Y-76027287D01*
G75*
G02*
X260457218Y-76245795I-445503J226995D01*
G01*
X258318802Y-75156218D01*
G75*
G02*
X258100294Y-74483720I226995J445503D01*
G01*
G37*
G36*
G01*
X263892668Y-75519224D02*
X264293368Y-75965810D01*
G75*
G02*
X264239833Y-76954311I-521018J-467483D01*
G01*
X264239833Y-76954311D01*
G75*
G02*
X263251332Y-76900776I-467483J521018D01*
G01*
X262850632Y-76454190D01*
G75*
G02*
X262904167Y-75465689I521018J467483D01*
G01*
X262904167Y-75465689D01*
G75*
G02*
X263892668Y-75519224I467483J-521018D01*
G01*
G37*
X253572000Y-76210000D03*
X258572000Y-74110000D03*
G36*
G01*
X261463280Y-75323043D02*
X263107188Y-77155208D01*
G75*
G02*
X263049828Y-78214316I-558234J-500874D01*
G01*
X263049828Y-78214316D01*
G75*
G02*
X261990720Y-78156956I-500874J558234D01*
G01*
X260346812Y-76324792D01*
G75*
G02*
X260404172Y-75265684I558234J500874D01*
G01*
X260404172Y-75265684D01*
G75*
G02*
X261463280Y-75323044I500874J-558234D01*
G01*
G37*
G36*
G01*
X255074369Y-75578799D02*
X255034370Y-74998799D01*
G75*
G02*
X255963202Y-73932369I997631J68799D01*
G01*
X255963202Y-73932369D01*
G75*
G02*
X257029632Y-74861201I68799J-997631D01*
G01*
X257069630Y-75441201D01*
G75*
G02*
X256140798Y-76507631I-997631J-68799D01*
G01*
X256140798Y-76507631D01*
G75*
G02*
X255074368Y-75578799I-68799J997631D01*
G01*
G37*
G36*
G01*
X256816307Y-76677828D02*
X255506317Y-78137837D01*
G75*
G02*
X254094172Y-78214316I-744312J667833D01*
G01*
X254094172Y-78214316D01*
G75*
G02*
X254017693Y-76802171I667833J744312D01*
G01*
X255327683Y-75342163D01*
G75*
G02*
X256739828Y-75265684I744312J-667833D01*
G01*
X256739828Y-75265684D01*
G75*
G02*
X256816307Y-76677829I-667833J-744312D01*
G01*
G37*
X256032000Y-74930000D03*
X256072000Y-75510000D03*
G36*
G01*
X261714167Y-76725688D02*
X261714168Y-76725688D01*
G75*
G02*
X262773276Y-76783048I500874J-558234D01*
G01*
X263107192Y-77155204D01*
G75*
G02*
X263049832Y-78214312I-558234J-500874D01*
G01*
X263049832Y-78214312D01*
G75*
G02*
X261990724Y-78156952I-500874J558234D01*
G01*
X261656808Y-77784796D01*
G75*
G02*
X261714168Y-76725688I558234J500874D01*
G01*
G37*
X261072000Y-76010000D03*
X254762000Y-77470000D03*
X256072000Y-76010000D03*
X261112000Y-74930000D03*
X261072000Y-75510000D03*
G36*
G01*
X260074370Y-75441201D02*
X260114368Y-74861201D01*
G75*
G02*
X261180798Y-73932369I997631J-68799D01*
G01*
X261180798Y-73932369D01*
G75*
G02*
X262109630Y-74998799I-68799J-997631D01*
G01*
X262069632Y-75578799D01*
G75*
G02*
X261003202Y-76507631I-997631J68799D01*
G01*
X261003202Y-76507631D01*
G75*
G02*
X260074370Y-75441201I68799J997631D01*
G01*
G37*
%TD*%
%TO.C,S-B10*%
G36*
G01*
X276896294Y-74483719D02*
X277350284Y-73592713D01*
G75*
G02*
X278022782Y-73374205I445503J-226995D01*
G01*
X280161198Y-74463782D01*
G75*
G02*
X280379706Y-75136280I-226995J-445503D01*
G01*
X279925716Y-76027287D01*
G75*
G02*
X279253218Y-76245795I-445503J226995D01*
G01*
X277114802Y-75156218D01*
G75*
G02*
X276896294Y-74483720I226995J445503D01*
G01*
G37*
G36*
G01*
X282688668Y-75519224D02*
X283089368Y-75965810D01*
G75*
G02*
X283035833Y-76954311I-521018J-467483D01*
G01*
X283035833Y-76954311D01*
G75*
G02*
X282047332Y-76900776I-467483J521018D01*
G01*
X281646632Y-76454190D01*
G75*
G02*
X281700167Y-75465689I521018J467483D01*
G01*
X281700167Y-75465689D01*
G75*
G02*
X282688668Y-75519224I467483J-521018D01*
G01*
G37*
X272368000Y-76210000D03*
X277368000Y-74110000D03*
G36*
G01*
X280259280Y-75323043D02*
X281903188Y-77155208D01*
G75*
G02*
X281845828Y-78214316I-558234J-500874D01*
G01*
X281845828Y-78214316D01*
G75*
G02*
X280786720Y-78156956I-500874J558234D01*
G01*
X279142812Y-76324792D01*
G75*
G02*
X279200172Y-75265684I558234J500874D01*
G01*
X279200172Y-75265684D01*
G75*
G02*
X280259280Y-75323044I500874J-558234D01*
G01*
G37*
G36*
G01*
X273870369Y-75578799D02*
X273830370Y-74998799D01*
G75*
G02*
X274759202Y-73932369I997631J68799D01*
G01*
X274759202Y-73932369D01*
G75*
G02*
X275825632Y-74861201I68799J-997631D01*
G01*
X275865630Y-75441201D01*
G75*
G02*
X274936798Y-76507631I-997631J-68799D01*
G01*
X274936798Y-76507631D01*
G75*
G02*
X273870368Y-75578799I-68799J997631D01*
G01*
G37*
G36*
G01*
X275612307Y-76677828D02*
X274302317Y-78137837D01*
G75*
G02*
X272890172Y-78214316I-744312J667833D01*
G01*
X272890172Y-78214316D01*
G75*
G02*
X272813693Y-76802171I667833J744312D01*
G01*
X274123683Y-75342163D01*
G75*
G02*
X275535828Y-75265684I744312J-667833D01*
G01*
X275535828Y-75265684D01*
G75*
G02*
X275612307Y-76677829I-667833J-744312D01*
G01*
G37*
X274828000Y-74930000D03*
X274868000Y-75510000D03*
G36*
G01*
X280510167Y-76725688D02*
X280510168Y-76725688D01*
G75*
G02*
X281569276Y-76783048I500874J-558234D01*
G01*
X281903192Y-77155204D01*
G75*
G02*
X281845832Y-78214312I-558234J-500874D01*
G01*
X281845832Y-78214312D01*
G75*
G02*
X280786724Y-78156952I-500874J558234D01*
G01*
X280452808Y-77784796D01*
G75*
G02*
X280510168Y-76725688I558234J500874D01*
G01*
G37*
X279868000Y-76010000D03*
X273558000Y-77470000D03*
X274868000Y-76010000D03*
X279908000Y-74930000D03*
X279868000Y-75510000D03*
G36*
G01*
X278870370Y-75441201D02*
X278910368Y-74861201D01*
G75*
G02*
X279976798Y-73932369I997631J-68799D01*
G01*
X279976798Y-73932369D01*
G75*
G02*
X280905630Y-74998799I-68799J-997631D01*
G01*
X280865632Y-75578799D01*
G75*
G02*
X279799202Y-76507631I-997631J68799D01*
G01*
X279799202Y-76507631D01*
G75*
G02*
X278870370Y-75441201I68799J997631D01*
G01*
G37*
%TD*%
%TO.C,S-B11*%
G36*
G01*
X295692294Y-74483719D02*
X296146284Y-73592713D01*
G75*
G02*
X296818782Y-73374205I445503J-226995D01*
G01*
X298957198Y-74463782D01*
G75*
G02*
X299175706Y-75136280I-226995J-445503D01*
G01*
X298721716Y-76027287D01*
G75*
G02*
X298049218Y-76245795I-445503J226995D01*
G01*
X295910802Y-75156218D01*
G75*
G02*
X295692294Y-74483720I226995J445503D01*
G01*
G37*
G36*
G01*
X301484668Y-75519224D02*
X301885368Y-75965810D01*
G75*
G02*
X301831833Y-76954311I-521018J-467483D01*
G01*
X301831833Y-76954311D01*
G75*
G02*
X300843332Y-76900776I-467483J521018D01*
G01*
X300442632Y-76454190D01*
G75*
G02*
X300496167Y-75465689I521018J467483D01*
G01*
X300496167Y-75465689D01*
G75*
G02*
X301484668Y-75519224I467483J-521018D01*
G01*
G37*
X291164000Y-76210000D03*
X296164000Y-74110000D03*
G36*
G01*
X299055280Y-75323043D02*
X300699188Y-77155208D01*
G75*
G02*
X300641828Y-78214316I-558234J-500874D01*
G01*
X300641828Y-78214316D01*
G75*
G02*
X299582720Y-78156956I-500874J558234D01*
G01*
X297938812Y-76324792D01*
G75*
G02*
X297996172Y-75265684I558234J500874D01*
G01*
X297996172Y-75265684D01*
G75*
G02*
X299055280Y-75323044I500874J-558234D01*
G01*
G37*
G36*
G01*
X292666369Y-75578799D02*
X292626370Y-74998799D01*
G75*
G02*
X293555202Y-73932369I997631J68799D01*
G01*
X293555202Y-73932369D01*
G75*
G02*
X294621632Y-74861201I68799J-997631D01*
G01*
X294661630Y-75441201D01*
G75*
G02*
X293732798Y-76507631I-997631J-68799D01*
G01*
X293732798Y-76507631D01*
G75*
G02*
X292666368Y-75578799I-68799J997631D01*
G01*
G37*
G36*
G01*
X294408307Y-76677828D02*
X293098317Y-78137837D01*
G75*
G02*
X291686172Y-78214316I-744312J667833D01*
G01*
X291686172Y-78214316D01*
G75*
G02*
X291609693Y-76802171I667833J744312D01*
G01*
X292919683Y-75342163D01*
G75*
G02*
X294331828Y-75265684I744312J-667833D01*
G01*
X294331828Y-75265684D01*
G75*
G02*
X294408307Y-76677829I-667833J-744312D01*
G01*
G37*
X293624000Y-74930000D03*
X293664000Y-75510000D03*
G36*
G01*
X299306167Y-76725688D02*
X299306168Y-76725688D01*
G75*
G02*
X300365276Y-76783048I500874J-558234D01*
G01*
X300699192Y-77155204D01*
G75*
G02*
X300641832Y-78214312I-558234J-500874D01*
G01*
X300641832Y-78214312D01*
G75*
G02*
X299582724Y-78156952I-500874J558234D01*
G01*
X299248808Y-77784796D01*
G75*
G02*
X299306168Y-76725688I558234J500874D01*
G01*
G37*
X298664000Y-76010000D03*
X292354000Y-77470000D03*
X293664000Y-76010000D03*
X298704000Y-74930000D03*
X298664000Y-75510000D03*
G36*
G01*
X297666370Y-75441201D02*
X297706368Y-74861201D01*
G75*
G02*
X298772798Y-73932369I997631J-68799D01*
G01*
X298772798Y-73932369D01*
G75*
G02*
X299701630Y-74998799I-68799J-997631D01*
G01*
X299661632Y-75578799D01*
G75*
G02*
X298595202Y-76507631I-997631J68799D01*
G01*
X298595202Y-76507631D01*
G75*
G02*
X297666370Y-75441201I68799J997631D01*
G01*
G37*
%TD*%
%TO.C,S-C0*%
G36*
G01*
X64806294Y-93279719D02*
X65260284Y-92388713D01*
G75*
G02*
X65932782Y-92170205I445503J-226995D01*
G01*
X68071198Y-93259782D01*
G75*
G02*
X68289706Y-93932280I-226995J-445503D01*
G01*
X67835716Y-94823287D01*
G75*
G02*
X67163218Y-95041795I-445503J226995D01*
G01*
X65024802Y-93952218D01*
G75*
G02*
X64806294Y-93279720I226995J445503D01*
G01*
G37*
G36*
G01*
X70598668Y-94315224D02*
X70999368Y-94761810D01*
G75*
G02*
X70945833Y-95750311I-521018J-467483D01*
G01*
X70945833Y-95750311D01*
G75*
G02*
X69957332Y-95696776I-467483J521018D01*
G01*
X69556632Y-95250190D01*
G75*
G02*
X69610167Y-94261689I521018J467483D01*
G01*
X69610167Y-94261689D01*
G75*
G02*
X70598668Y-94315224I467483J-521018D01*
G01*
G37*
X60278000Y-95006000D03*
X65278000Y-92906000D03*
G36*
G01*
X68169280Y-94119043D02*
X69813188Y-95951208D01*
G75*
G02*
X69755828Y-97010316I-558234J-500874D01*
G01*
X69755828Y-97010316D01*
G75*
G02*
X68696720Y-96952956I-500874J558234D01*
G01*
X67052812Y-95120792D01*
G75*
G02*
X67110172Y-94061684I558234J500874D01*
G01*
X67110172Y-94061684D01*
G75*
G02*
X68169280Y-94119044I500874J-558234D01*
G01*
G37*
G36*
G01*
X61780369Y-94374799D02*
X61740370Y-93794799D01*
G75*
G02*
X62669202Y-92728369I997631J68799D01*
G01*
X62669202Y-92728369D01*
G75*
G02*
X63735632Y-93657201I68799J-997631D01*
G01*
X63775630Y-94237201D01*
G75*
G02*
X62846798Y-95303631I-997631J-68799D01*
G01*
X62846798Y-95303631D01*
G75*
G02*
X61780368Y-94374799I-68799J997631D01*
G01*
G37*
G36*
G01*
X63522307Y-95473828D02*
X62212317Y-96933837D01*
G75*
G02*
X60800172Y-97010316I-744312J667833D01*
G01*
X60800172Y-97010316D01*
G75*
G02*
X60723693Y-95598171I667833J744312D01*
G01*
X62033683Y-94138163D01*
G75*
G02*
X63445828Y-94061684I744312J-667833D01*
G01*
X63445828Y-94061684D01*
G75*
G02*
X63522307Y-95473829I-667833J-744312D01*
G01*
G37*
X62738000Y-93726000D03*
X62778000Y-94306000D03*
G36*
G01*
X68420167Y-95521688D02*
X68420168Y-95521688D01*
G75*
G02*
X69479276Y-95579048I500874J-558234D01*
G01*
X69813192Y-95951204D01*
G75*
G02*
X69755832Y-97010312I-558234J-500874D01*
G01*
X69755832Y-97010312D01*
G75*
G02*
X68696724Y-96952952I-500874J558234D01*
G01*
X68362808Y-96580796D01*
G75*
G02*
X68420168Y-95521688I558234J500874D01*
G01*
G37*
X67778000Y-94806000D03*
X61468000Y-96266000D03*
X62778000Y-94806000D03*
X67818000Y-93726000D03*
X67778000Y-94306000D03*
G36*
G01*
X66780370Y-94237201D02*
X66820368Y-93657201D01*
G75*
G02*
X67886798Y-92728369I997631J-68799D01*
G01*
X67886798Y-92728369D01*
G75*
G02*
X68815630Y-93794799I-68799J-997631D01*
G01*
X68775632Y-94374799D01*
G75*
G02*
X67709202Y-95303631I-997631J68799D01*
G01*
X67709202Y-95303631D01*
G75*
G02*
X66780370Y-94237201I68799J997631D01*
G01*
G37*
%TD*%
%TO.C,S-C1*%
G36*
G01*
X88936294Y-93279719D02*
X89390284Y-92388713D01*
G75*
G02*
X90062782Y-92170205I445503J-226995D01*
G01*
X92201198Y-93259782D01*
G75*
G02*
X92419706Y-93932280I-226995J-445503D01*
G01*
X91965716Y-94823287D01*
G75*
G02*
X91293218Y-95041795I-445503J226995D01*
G01*
X89154802Y-93952218D01*
G75*
G02*
X88936294Y-93279720I226995J445503D01*
G01*
G37*
G36*
G01*
X94728668Y-94315224D02*
X95129368Y-94761810D01*
G75*
G02*
X95075833Y-95750311I-521018J-467483D01*
G01*
X95075833Y-95750311D01*
G75*
G02*
X94087332Y-95696776I-467483J521018D01*
G01*
X93686632Y-95250190D01*
G75*
G02*
X93740167Y-94261689I521018J467483D01*
G01*
X93740167Y-94261689D01*
G75*
G02*
X94728668Y-94315224I467483J-521018D01*
G01*
G37*
X84408000Y-95006000D03*
X89408000Y-92906000D03*
G36*
G01*
X92299280Y-94119043D02*
X93943188Y-95951208D01*
G75*
G02*
X93885828Y-97010316I-558234J-500874D01*
G01*
X93885828Y-97010316D01*
G75*
G02*
X92826720Y-96952956I-500874J558234D01*
G01*
X91182812Y-95120792D01*
G75*
G02*
X91240172Y-94061684I558234J500874D01*
G01*
X91240172Y-94061684D01*
G75*
G02*
X92299280Y-94119044I500874J-558234D01*
G01*
G37*
G36*
G01*
X85910369Y-94374799D02*
X85870370Y-93794799D01*
G75*
G02*
X86799202Y-92728369I997631J68799D01*
G01*
X86799202Y-92728369D01*
G75*
G02*
X87865632Y-93657201I68799J-997631D01*
G01*
X87905630Y-94237201D01*
G75*
G02*
X86976798Y-95303631I-997631J-68799D01*
G01*
X86976798Y-95303631D01*
G75*
G02*
X85910368Y-94374799I-68799J997631D01*
G01*
G37*
G36*
G01*
X87652307Y-95473828D02*
X86342317Y-96933837D01*
G75*
G02*
X84930172Y-97010316I-744312J667833D01*
G01*
X84930172Y-97010316D01*
G75*
G02*
X84853693Y-95598171I667833J744312D01*
G01*
X86163683Y-94138163D01*
G75*
G02*
X87575828Y-94061684I744312J-667833D01*
G01*
X87575828Y-94061684D01*
G75*
G02*
X87652307Y-95473829I-667833J-744312D01*
G01*
G37*
X86868000Y-93726000D03*
X86908000Y-94306000D03*
G36*
G01*
X92550167Y-95521688D02*
X92550168Y-95521688D01*
G75*
G02*
X93609276Y-95579048I500874J-558234D01*
G01*
X93943192Y-95951204D01*
G75*
G02*
X93885832Y-97010312I-558234J-500874D01*
G01*
X93885832Y-97010312D01*
G75*
G02*
X92826724Y-96952952I-500874J558234D01*
G01*
X92492808Y-96580796D01*
G75*
G02*
X92550168Y-95521688I558234J500874D01*
G01*
G37*
X91908000Y-94806000D03*
X85598000Y-96266000D03*
X86908000Y-94806000D03*
X91948000Y-93726000D03*
X91908000Y-94306000D03*
G36*
G01*
X90910370Y-94237201D02*
X90950368Y-93657201D01*
G75*
G02*
X92016798Y-92728369I997631J-68799D01*
G01*
X92016798Y-92728369D01*
G75*
G02*
X92945630Y-93794799I-68799J-997631D01*
G01*
X92905632Y-94374799D01*
G75*
G02*
X91839202Y-95303631I-997631J68799D01*
G01*
X91839202Y-95303631D01*
G75*
G02*
X90910370Y-94237201I68799J997631D01*
G01*
G37*
%TD*%
%TO.C,S-C2*%
G36*
G01*
X107732294Y-93279719D02*
X108186284Y-92388713D01*
G75*
G02*
X108858782Y-92170205I445503J-226995D01*
G01*
X110997198Y-93259782D01*
G75*
G02*
X111215706Y-93932280I-226995J-445503D01*
G01*
X110761716Y-94823287D01*
G75*
G02*
X110089218Y-95041795I-445503J226995D01*
G01*
X107950802Y-93952218D01*
G75*
G02*
X107732294Y-93279720I226995J445503D01*
G01*
G37*
G36*
G01*
X113524668Y-94315224D02*
X113925368Y-94761810D01*
G75*
G02*
X113871833Y-95750311I-521018J-467483D01*
G01*
X113871833Y-95750311D01*
G75*
G02*
X112883332Y-95696776I-467483J521018D01*
G01*
X112482632Y-95250190D01*
G75*
G02*
X112536167Y-94261689I521018J467483D01*
G01*
X112536167Y-94261689D01*
G75*
G02*
X113524668Y-94315224I467483J-521018D01*
G01*
G37*
X103204000Y-95006000D03*
X108204000Y-92906000D03*
G36*
G01*
X111095280Y-94119043D02*
X112739188Y-95951208D01*
G75*
G02*
X112681828Y-97010316I-558234J-500874D01*
G01*
X112681828Y-97010316D01*
G75*
G02*
X111622720Y-96952956I-500874J558234D01*
G01*
X109978812Y-95120792D01*
G75*
G02*
X110036172Y-94061684I558234J500874D01*
G01*
X110036172Y-94061684D01*
G75*
G02*
X111095280Y-94119044I500874J-558234D01*
G01*
G37*
G36*
G01*
X104706369Y-94374799D02*
X104666370Y-93794799D01*
G75*
G02*
X105595202Y-92728369I997631J68799D01*
G01*
X105595202Y-92728369D01*
G75*
G02*
X106661632Y-93657201I68799J-997631D01*
G01*
X106701630Y-94237201D01*
G75*
G02*
X105772798Y-95303631I-997631J-68799D01*
G01*
X105772798Y-95303631D01*
G75*
G02*
X104706368Y-94374799I-68799J997631D01*
G01*
G37*
G36*
G01*
X106448307Y-95473828D02*
X105138317Y-96933837D01*
G75*
G02*
X103726172Y-97010316I-744312J667833D01*
G01*
X103726172Y-97010316D01*
G75*
G02*
X103649693Y-95598171I667833J744312D01*
G01*
X104959683Y-94138163D01*
G75*
G02*
X106371828Y-94061684I744312J-667833D01*
G01*
X106371828Y-94061684D01*
G75*
G02*
X106448307Y-95473829I-667833J-744312D01*
G01*
G37*
X105664000Y-93726000D03*
X105704000Y-94306000D03*
G36*
G01*
X111346167Y-95521688D02*
X111346168Y-95521688D01*
G75*
G02*
X112405276Y-95579048I500874J-558234D01*
G01*
X112739192Y-95951204D01*
G75*
G02*
X112681832Y-97010312I-558234J-500874D01*
G01*
X112681832Y-97010312D01*
G75*
G02*
X111622724Y-96952952I-500874J558234D01*
G01*
X111288808Y-96580796D01*
G75*
G02*
X111346168Y-95521688I558234J500874D01*
G01*
G37*
X110704000Y-94806000D03*
X104394000Y-96266000D03*
X105704000Y-94806000D03*
X110744000Y-93726000D03*
X110704000Y-94306000D03*
G36*
G01*
X109706370Y-94237201D02*
X109746368Y-93657201D01*
G75*
G02*
X110812798Y-92728369I997631J-68799D01*
G01*
X110812798Y-92728369D01*
G75*
G02*
X111741630Y-93794799I-68799J-997631D01*
G01*
X111701632Y-94374799D01*
G75*
G02*
X110635202Y-95303631I-997631J68799D01*
G01*
X110635202Y-95303631D01*
G75*
G02*
X109706370Y-94237201I68799J997631D01*
G01*
G37*
%TD*%
%TO.C,S-C3*%
G36*
G01*
X126528294Y-93279719D02*
X126982284Y-92388713D01*
G75*
G02*
X127654782Y-92170205I445503J-226995D01*
G01*
X129793198Y-93259782D01*
G75*
G02*
X130011706Y-93932280I-226995J-445503D01*
G01*
X129557716Y-94823287D01*
G75*
G02*
X128885218Y-95041795I-445503J226995D01*
G01*
X126746802Y-93952218D01*
G75*
G02*
X126528294Y-93279720I226995J445503D01*
G01*
G37*
G36*
G01*
X132320668Y-94315224D02*
X132721368Y-94761810D01*
G75*
G02*
X132667833Y-95750311I-521018J-467483D01*
G01*
X132667833Y-95750311D01*
G75*
G02*
X131679332Y-95696776I-467483J521018D01*
G01*
X131278632Y-95250190D01*
G75*
G02*
X131332167Y-94261689I521018J467483D01*
G01*
X131332167Y-94261689D01*
G75*
G02*
X132320668Y-94315224I467483J-521018D01*
G01*
G37*
X122000000Y-95006000D03*
X127000000Y-92906000D03*
G36*
G01*
X129891280Y-94119043D02*
X131535188Y-95951208D01*
G75*
G02*
X131477828Y-97010316I-558234J-500874D01*
G01*
X131477828Y-97010316D01*
G75*
G02*
X130418720Y-96952956I-500874J558234D01*
G01*
X128774812Y-95120792D01*
G75*
G02*
X128832172Y-94061684I558234J500874D01*
G01*
X128832172Y-94061684D01*
G75*
G02*
X129891280Y-94119044I500874J-558234D01*
G01*
G37*
G36*
G01*
X123502369Y-94374799D02*
X123462370Y-93794799D01*
G75*
G02*
X124391202Y-92728369I997631J68799D01*
G01*
X124391202Y-92728369D01*
G75*
G02*
X125457632Y-93657201I68799J-997631D01*
G01*
X125497630Y-94237201D01*
G75*
G02*
X124568798Y-95303631I-997631J-68799D01*
G01*
X124568798Y-95303631D01*
G75*
G02*
X123502368Y-94374799I-68799J997631D01*
G01*
G37*
G36*
G01*
X125244307Y-95473828D02*
X123934317Y-96933837D01*
G75*
G02*
X122522172Y-97010316I-744312J667833D01*
G01*
X122522172Y-97010316D01*
G75*
G02*
X122445693Y-95598171I667833J744312D01*
G01*
X123755683Y-94138163D01*
G75*
G02*
X125167828Y-94061684I744312J-667833D01*
G01*
X125167828Y-94061684D01*
G75*
G02*
X125244307Y-95473829I-667833J-744312D01*
G01*
G37*
X124460000Y-93726000D03*
X124500000Y-94306000D03*
G36*
G01*
X130142167Y-95521688D02*
X130142168Y-95521688D01*
G75*
G02*
X131201276Y-95579048I500874J-558234D01*
G01*
X131535192Y-95951204D01*
G75*
G02*
X131477832Y-97010312I-558234J-500874D01*
G01*
X131477832Y-97010312D01*
G75*
G02*
X130418724Y-96952952I-500874J558234D01*
G01*
X130084808Y-96580796D01*
G75*
G02*
X130142168Y-95521688I558234J500874D01*
G01*
G37*
X129500000Y-94806000D03*
X123190000Y-96266000D03*
X124500000Y-94806000D03*
X129540000Y-93726000D03*
X129500000Y-94306000D03*
G36*
G01*
X128502370Y-94237201D02*
X128542368Y-93657201D01*
G75*
G02*
X129608798Y-92728369I997631J-68799D01*
G01*
X129608798Y-92728369D01*
G75*
G02*
X130537630Y-93794799I-68799J-997631D01*
G01*
X130497632Y-94374799D01*
G75*
G02*
X129431202Y-95303631I-997631J68799D01*
G01*
X129431202Y-95303631D01*
G75*
G02*
X128502370Y-94237201I68799J997631D01*
G01*
G37*
%TD*%
%TO.C,S-C4*%
G36*
G01*
X145324294Y-93279719D02*
X145778284Y-92388713D01*
G75*
G02*
X146450782Y-92170205I445503J-226995D01*
G01*
X148589198Y-93259782D01*
G75*
G02*
X148807706Y-93932280I-226995J-445503D01*
G01*
X148353716Y-94823287D01*
G75*
G02*
X147681218Y-95041795I-445503J226995D01*
G01*
X145542802Y-93952218D01*
G75*
G02*
X145324294Y-93279720I226995J445503D01*
G01*
G37*
G36*
G01*
X151116668Y-94315224D02*
X151517368Y-94761810D01*
G75*
G02*
X151463833Y-95750311I-521018J-467483D01*
G01*
X151463833Y-95750311D01*
G75*
G02*
X150475332Y-95696776I-467483J521018D01*
G01*
X150074632Y-95250190D01*
G75*
G02*
X150128167Y-94261689I521018J467483D01*
G01*
X150128167Y-94261689D01*
G75*
G02*
X151116668Y-94315224I467483J-521018D01*
G01*
G37*
X140796000Y-95006000D03*
X145796000Y-92906000D03*
G36*
G01*
X148687280Y-94119043D02*
X150331188Y-95951208D01*
G75*
G02*
X150273828Y-97010316I-558234J-500874D01*
G01*
X150273828Y-97010316D01*
G75*
G02*
X149214720Y-96952956I-500874J558234D01*
G01*
X147570812Y-95120792D01*
G75*
G02*
X147628172Y-94061684I558234J500874D01*
G01*
X147628172Y-94061684D01*
G75*
G02*
X148687280Y-94119044I500874J-558234D01*
G01*
G37*
G36*
G01*
X142298369Y-94374799D02*
X142258370Y-93794799D01*
G75*
G02*
X143187202Y-92728369I997631J68799D01*
G01*
X143187202Y-92728369D01*
G75*
G02*
X144253632Y-93657201I68799J-997631D01*
G01*
X144293630Y-94237201D01*
G75*
G02*
X143364798Y-95303631I-997631J-68799D01*
G01*
X143364798Y-95303631D01*
G75*
G02*
X142298368Y-94374799I-68799J997631D01*
G01*
G37*
G36*
G01*
X144040307Y-95473828D02*
X142730317Y-96933837D01*
G75*
G02*
X141318172Y-97010316I-744312J667833D01*
G01*
X141318172Y-97010316D01*
G75*
G02*
X141241693Y-95598171I667833J744312D01*
G01*
X142551683Y-94138163D01*
G75*
G02*
X143963828Y-94061684I744312J-667833D01*
G01*
X143963828Y-94061684D01*
G75*
G02*
X144040307Y-95473829I-667833J-744312D01*
G01*
G37*
X143256000Y-93726000D03*
X143296000Y-94306000D03*
G36*
G01*
X148938167Y-95521688D02*
X148938168Y-95521688D01*
G75*
G02*
X149997276Y-95579048I500874J-558234D01*
G01*
X150331192Y-95951204D01*
G75*
G02*
X150273832Y-97010312I-558234J-500874D01*
G01*
X150273832Y-97010312D01*
G75*
G02*
X149214724Y-96952952I-500874J558234D01*
G01*
X148880808Y-96580796D01*
G75*
G02*
X148938168Y-95521688I558234J500874D01*
G01*
G37*
X148296000Y-94806000D03*
X141986000Y-96266000D03*
X143296000Y-94806000D03*
X148336000Y-93726000D03*
X148296000Y-94306000D03*
G36*
G01*
X147298370Y-94237201D02*
X147338368Y-93657201D01*
G75*
G02*
X148404798Y-92728369I997631J-68799D01*
G01*
X148404798Y-92728369D01*
G75*
G02*
X149333630Y-93794799I-68799J-997631D01*
G01*
X149293632Y-94374799D01*
G75*
G02*
X148227202Y-95303631I-997631J68799D01*
G01*
X148227202Y-95303631D01*
G75*
G02*
X147298370Y-94237201I68799J997631D01*
G01*
G37*
%TD*%
%TO.C,S-C5*%
G36*
G01*
X164120294Y-93279719D02*
X164574284Y-92388713D01*
G75*
G02*
X165246782Y-92170205I445503J-226995D01*
G01*
X167385198Y-93259782D01*
G75*
G02*
X167603706Y-93932280I-226995J-445503D01*
G01*
X167149716Y-94823287D01*
G75*
G02*
X166477218Y-95041795I-445503J226995D01*
G01*
X164338802Y-93952218D01*
G75*
G02*
X164120294Y-93279720I226995J445503D01*
G01*
G37*
G36*
G01*
X169912668Y-94315224D02*
X170313368Y-94761810D01*
G75*
G02*
X170259833Y-95750311I-521018J-467483D01*
G01*
X170259833Y-95750311D01*
G75*
G02*
X169271332Y-95696776I-467483J521018D01*
G01*
X168870632Y-95250190D01*
G75*
G02*
X168924167Y-94261689I521018J467483D01*
G01*
X168924167Y-94261689D01*
G75*
G02*
X169912668Y-94315224I467483J-521018D01*
G01*
G37*
X159592000Y-95006000D03*
X164592000Y-92906000D03*
G36*
G01*
X167483280Y-94119043D02*
X169127188Y-95951208D01*
G75*
G02*
X169069828Y-97010316I-558234J-500874D01*
G01*
X169069828Y-97010316D01*
G75*
G02*
X168010720Y-96952956I-500874J558234D01*
G01*
X166366812Y-95120792D01*
G75*
G02*
X166424172Y-94061684I558234J500874D01*
G01*
X166424172Y-94061684D01*
G75*
G02*
X167483280Y-94119044I500874J-558234D01*
G01*
G37*
G36*
G01*
X161094369Y-94374799D02*
X161054370Y-93794799D01*
G75*
G02*
X161983202Y-92728369I997631J68799D01*
G01*
X161983202Y-92728369D01*
G75*
G02*
X163049632Y-93657201I68799J-997631D01*
G01*
X163089630Y-94237201D01*
G75*
G02*
X162160798Y-95303631I-997631J-68799D01*
G01*
X162160798Y-95303631D01*
G75*
G02*
X161094368Y-94374799I-68799J997631D01*
G01*
G37*
G36*
G01*
X162836307Y-95473828D02*
X161526317Y-96933837D01*
G75*
G02*
X160114172Y-97010316I-744312J667833D01*
G01*
X160114172Y-97010316D01*
G75*
G02*
X160037693Y-95598171I667833J744312D01*
G01*
X161347683Y-94138163D01*
G75*
G02*
X162759828Y-94061684I744312J-667833D01*
G01*
X162759828Y-94061684D01*
G75*
G02*
X162836307Y-95473829I-667833J-744312D01*
G01*
G37*
X162052000Y-93726000D03*
X162092000Y-94306000D03*
G36*
G01*
X167734167Y-95521688D02*
X167734168Y-95521688D01*
G75*
G02*
X168793276Y-95579048I500874J-558234D01*
G01*
X169127192Y-95951204D01*
G75*
G02*
X169069832Y-97010312I-558234J-500874D01*
G01*
X169069832Y-97010312D01*
G75*
G02*
X168010724Y-96952952I-500874J558234D01*
G01*
X167676808Y-96580796D01*
G75*
G02*
X167734168Y-95521688I558234J500874D01*
G01*
G37*
X167092000Y-94806000D03*
X160782000Y-96266000D03*
X162092000Y-94806000D03*
X167132000Y-93726000D03*
X167092000Y-94306000D03*
G36*
G01*
X166094370Y-94237201D02*
X166134368Y-93657201D01*
G75*
G02*
X167200798Y-92728369I997631J-68799D01*
G01*
X167200798Y-92728369D01*
G75*
G02*
X168129630Y-93794799I-68799J-997631D01*
G01*
X168089632Y-94374799D01*
G75*
G02*
X167023202Y-95303631I-997631J68799D01*
G01*
X167023202Y-95303631D01*
G75*
G02*
X166094370Y-94237201I68799J997631D01*
G01*
G37*
%TD*%
%TO.C,S-C6*%
G36*
G01*
X182916294Y-93279719D02*
X183370284Y-92388713D01*
G75*
G02*
X184042782Y-92170205I445503J-226995D01*
G01*
X186181198Y-93259782D01*
G75*
G02*
X186399706Y-93932280I-226995J-445503D01*
G01*
X185945716Y-94823287D01*
G75*
G02*
X185273218Y-95041795I-445503J226995D01*
G01*
X183134802Y-93952218D01*
G75*
G02*
X182916294Y-93279720I226995J445503D01*
G01*
G37*
G36*
G01*
X188708668Y-94315224D02*
X189109368Y-94761810D01*
G75*
G02*
X189055833Y-95750311I-521018J-467483D01*
G01*
X189055833Y-95750311D01*
G75*
G02*
X188067332Y-95696776I-467483J521018D01*
G01*
X187666632Y-95250190D01*
G75*
G02*
X187720167Y-94261689I521018J467483D01*
G01*
X187720167Y-94261689D01*
G75*
G02*
X188708668Y-94315224I467483J-521018D01*
G01*
G37*
X178388000Y-95006000D03*
X183388000Y-92906000D03*
G36*
G01*
X186279280Y-94119043D02*
X187923188Y-95951208D01*
G75*
G02*
X187865828Y-97010316I-558234J-500874D01*
G01*
X187865828Y-97010316D01*
G75*
G02*
X186806720Y-96952956I-500874J558234D01*
G01*
X185162812Y-95120792D01*
G75*
G02*
X185220172Y-94061684I558234J500874D01*
G01*
X185220172Y-94061684D01*
G75*
G02*
X186279280Y-94119044I500874J-558234D01*
G01*
G37*
G36*
G01*
X179890369Y-94374799D02*
X179850370Y-93794799D01*
G75*
G02*
X180779202Y-92728369I997631J68799D01*
G01*
X180779202Y-92728369D01*
G75*
G02*
X181845632Y-93657201I68799J-997631D01*
G01*
X181885630Y-94237201D01*
G75*
G02*
X180956798Y-95303631I-997631J-68799D01*
G01*
X180956798Y-95303631D01*
G75*
G02*
X179890368Y-94374799I-68799J997631D01*
G01*
G37*
G36*
G01*
X181632307Y-95473828D02*
X180322317Y-96933837D01*
G75*
G02*
X178910172Y-97010316I-744312J667833D01*
G01*
X178910172Y-97010316D01*
G75*
G02*
X178833693Y-95598171I667833J744312D01*
G01*
X180143683Y-94138163D01*
G75*
G02*
X181555828Y-94061684I744312J-667833D01*
G01*
X181555828Y-94061684D01*
G75*
G02*
X181632307Y-95473829I-667833J-744312D01*
G01*
G37*
X180848000Y-93726000D03*
X180888000Y-94306000D03*
G36*
G01*
X186530167Y-95521688D02*
X186530168Y-95521688D01*
G75*
G02*
X187589276Y-95579048I500874J-558234D01*
G01*
X187923192Y-95951204D01*
G75*
G02*
X187865832Y-97010312I-558234J-500874D01*
G01*
X187865832Y-97010312D01*
G75*
G02*
X186806724Y-96952952I-500874J558234D01*
G01*
X186472808Y-96580796D01*
G75*
G02*
X186530168Y-95521688I558234J500874D01*
G01*
G37*
X185888000Y-94806000D03*
X179578000Y-96266000D03*
X180888000Y-94806000D03*
X185928000Y-93726000D03*
X185888000Y-94306000D03*
G36*
G01*
X184890370Y-94237201D02*
X184930368Y-93657201D01*
G75*
G02*
X185996798Y-92728369I997631J-68799D01*
G01*
X185996798Y-92728369D01*
G75*
G02*
X186925630Y-93794799I-68799J-997631D01*
G01*
X186885632Y-94374799D01*
G75*
G02*
X185819202Y-95303631I-997631J68799D01*
G01*
X185819202Y-95303631D01*
G75*
G02*
X184890370Y-94237201I68799J997631D01*
G01*
G37*
%TD*%
%TO.C,S-C7*%
G36*
G01*
X201712294Y-93279719D02*
X202166284Y-92388713D01*
G75*
G02*
X202838782Y-92170205I445503J-226995D01*
G01*
X204977198Y-93259782D01*
G75*
G02*
X205195706Y-93932280I-226995J-445503D01*
G01*
X204741716Y-94823287D01*
G75*
G02*
X204069218Y-95041795I-445503J226995D01*
G01*
X201930802Y-93952218D01*
G75*
G02*
X201712294Y-93279720I226995J445503D01*
G01*
G37*
G36*
G01*
X207504668Y-94315224D02*
X207905368Y-94761810D01*
G75*
G02*
X207851833Y-95750311I-521018J-467483D01*
G01*
X207851833Y-95750311D01*
G75*
G02*
X206863332Y-95696776I-467483J521018D01*
G01*
X206462632Y-95250190D01*
G75*
G02*
X206516167Y-94261689I521018J467483D01*
G01*
X206516167Y-94261689D01*
G75*
G02*
X207504668Y-94315224I467483J-521018D01*
G01*
G37*
X197184000Y-95006000D03*
X202184000Y-92906000D03*
G36*
G01*
X205075280Y-94119043D02*
X206719188Y-95951208D01*
G75*
G02*
X206661828Y-97010316I-558234J-500874D01*
G01*
X206661828Y-97010316D01*
G75*
G02*
X205602720Y-96952956I-500874J558234D01*
G01*
X203958812Y-95120792D01*
G75*
G02*
X204016172Y-94061684I558234J500874D01*
G01*
X204016172Y-94061684D01*
G75*
G02*
X205075280Y-94119044I500874J-558234D01*
G01*
G37*
G36*
G01*
X198686369Y-94374799D02*
X198646370Y-93794799D01*
G75*
G02*
X199575202Y-92728369I997631J68799D01*
G01*
X199575202Y-92728369D01*
G75*
G02*
X200641632Y-93657201I68799J-997631D01*
G01*
X200681630Y-94237201D01*
G75*
G02*
X199752798Y-95303631I-997631J-68799D01*
G01*
X199752798Y-95303631D01*
G75*
G02*
X198686368Y-94374799I-68799J997631D01*
G01*
G37*
G36*
G01*
X200428307Y-95473828D02*
X199118317Y-96933837D01*
G75*
G02*
X197706172Y-97010316I-744312J667833D01*
G01*
X197706172Y-97010316D01*
G75*
G02*
X197629693Y-95598171I667833J744312D01*
G01*
X198939683Y-94138163D01*
G75*
G02*
X200351828Y-94061684I744312J-667833D01*
G01*
X200351828Y-94061684D01*
G75*
G02*
X200428307Y-95473829I-667833J-744312D01*
G01*
G37*
X199644000Y-93726000D03*
X199684000Y-94306000D03*
G36*
G01*
X205326167Y-95521688D02*
X205326168Y-95521688D01*
G75*
G02*
X206385276Y-95579048I500874J-558234D01*
G01*
X206719192Y-95951204D01*
G75*
G02*
X206661832Y-97010312I-558234J-500874D01*
G01*
X206661832Y-97010312D01*
G75*
G02*
X205602724Y-96952952I-500874J558234D01*
G01*
X205268808Y-96580796D01*
G75*
G02*
X205326168Y-95521688I558234J500874D01*
G01*
G37*
X204684000Y-94806000D03*
X198374000Y-96266000D03*
X199684000Y-94806000D03*
X204724000Y-93726000D03*
X204684000Y-94306000D03*
G36*
G01*
X203686370Y-94237201D02*
X203726368Y-93657201D01*
G75*
G02*
X204792798Y-92728369I997631J-68799D01*
G01*
X204792798Y-92728369D01*
G75*
G02*
X205721630Y-93794799I-68799J-997631D01*
G01*
X205681632Y-94374799D01*
G75*
G02*
X204615202Y-95303631I-997631J68799D01*
G01*
X204615202Y-95303631D01*
G75*
G02*
X203686370Y-94237201I68799J997631D01*
G01*
G37*
%TD*%
%TO.C,S-C8*%
G36*
G01*
X220508294Y-93279719D02*
X220962284Y-92388713D01*
G75*
G02*
X221634782Y-92170205I445503J-226995D01*
G01*
X223773198Y-93259782D01*
G75*
G02*
X223991706Y-93932280I-226995J-445503D01*
G01*
X223537716Y-94823287D01*
G75*
G02*
X222865218Y-95041795I-445503J226995D01*
G01*
X220726802Y-93952218D01*
G75*
G02*
X220508294Y-93279720I226995J445503D01*
G01*
G37*
G36*
G01*
X226300668Y-94315224D02*
X226701368Y-94761810D01*
G75*
G02*
X226647833Y-95750311I-521018J-467483D01*
G01*
X226647833Y-95750311D01*
G75*
G02*
X225659332Y-95696776I-467483J521018D01*
G01*
X225258632Y-95250190D01*
G75*
G02*
X225312167Y-94261689I521018J467483D01*
G01*
X225312167Y-94261689D01*
G75*
G02*
X226300668Y-94315224I467483J-521018D01*
G01*
G37*
X215980000Y-95006000D03*
X220980000Y-92906000D03*
G36*
G01*
X223871280Y-94119043D02*
X225515188Y-95951208D01*
G75*
G02*
X225457828Y-97010316I-558234J-500874D01*
G01*
X225457828Y-97010316D01*
G75*
G02*
X224398720Y-96952956I-500874J558234D01*
G01*
X222754812Y-95120792D01*
G75*
G02*
X222812172Y-94061684I558234J500874D01*
G01*
X222812172Y-94061684D01*
G75*
G02*
X223871280Y-94119044I500874J-558234D01*
G01*
G37*
G36*
G01*
X217482369Y-94374799D02*
X217442370Y-93794799D01*
G75*
G02*
X218371202Y-92728369I997631J68799D01*
G01*
X218371202Y-92728369D01*
G75*
G02*
X219437632Y-93657201I68799J-997631D01*
G01*
X219477630Y-94237201D01*
G75*
G02*
X218548798Y-95303631I-997631J-68799D01*
G01*
X218548798Y-95303631D01*
G75*
G02*
X217482368Y-94374799I-68799J997631D01*
G01*
G37*
G36*
G01*
X219224307Y-95473828D02*
X217914317Y-96933837D01*
G75*
G02*
X216502172Y-97010316I-744312J667833D01*
G01*
X216502172Y-97010316D01*
G75*
G02*
X216425693Y-95598171I667833J744312D01*
G01*
X217735683Y-94138163D01*
G75*
G02*
X219147828Y-94061684I744312J-667833D01*
G01*
X219147828Y-94061684D01*
G75*
G02*
X219224307Y-95473829I-667833J-744312D01*
G01*
G37*
X218440000Y-93726000D03*
X218480000Y-94306000D03*
G36*
G01*
X224122167Y-95521688D02*
X224122168Y-95521688D01*
G75*
G02*
X225181276Y-95579048I500874J-558234D01*
G01*
X225515192Y-95951204D01*
G75*
G02*
X225457832Y-97010312I-558234J-500874D01*
G01*
X225457832Y-97010312D01*
G75*
G02*
X224398724Y-96952952I-500874J558234D01*
G01*
X224064808Y-96580796D01*
G75*
G02*
X224122168Y-95521688I558234J500874D01*
G01*
G37*
X223480000Y-94806000D03*
X217170000Y-96266000D03*
X218480000Y-94806000D03*
X223520000Y-93726000D03*
X223480000Y-94306000D03*
G36*
G01*
X222482370Y-94237201D02*
X222522368Y-93657201D01*
G75*
G02*
X223588798Y-92728369I997631J-68799D01*
G01*
X223588798Y-92728369D01*
G75*
G02*
X224517630Y-93794799I-68799J-997631D01*
G01*
X224477632Y-94374799D01*
G75*
G02*
X223411202Y-95303631I-997631J68799D01*
G01*
X223411202Y-95303631D01*
G75*
G02*
X222482370Y-94237201I68799J997631D01*
G01*
G37*
%TD*%
%TO.C,S-C9*%
G36*
G01*
X239304294Y-93279719D02*
X239758284Y-92388713D01*
G75*
G02*
X240430782Y-92170205I445503J-226995D01*
G01*
X242569198Y-93259782D01*
G75*
G02*
X242787706Y-93932280I-226995J-445503D01*
G01*
X242333716Y-94823287D01*
G75*
G02*
X241661218Y-95041795I-445503J226995D01*
G01*
X239522802Y-93952218D01*
G75*
G02*
X239304294Y-93279720I226995J445503D01*
G01*
G37*
G36*
G01*
X245096668Y-94315224D02*
X245497368Y-94761810D01*
G75*
G02*
X245443833Y-95750311I-521018J-467483D01*
G01*
X245443833Y-95750311D01*
G75*
G02*
X244455332Y-95696776I-467483J521018D01*
G01*
X244054632Y-95250190D01*
G75*
G02*
X244108167Y-94261689I521018J467483D01*
G01*
X244108167Y-94261689D01*
G75*
G02*
X245096668Y-94315224I467483J-521018D01*
G01*
G37*
X234776000Y-95006000D03*
X239776000Y-92906000D03*
G36*
G01*
X242667280Y-94119043D02*
X244311188Y-95951208D01*
G75*
G02*
X244253828Y-97010316I-558234J-500874D01*
G01*
X244253828Y-97010316D01*
G75*
G02*
X243194720Y-96952956I-500874J558234D01*
G01*
X241550812Y-95120792D01*
G75*
G02*
X241608172Y-94061684I558234J500874D01*
G01*
X241608172Y-94061684D01*
G75*
G02*
X242667280Y-94119044I500874J-558234D01*
G01*
G37*
G36*
G01*
X236278369Y-94374799D02*
X236238370Y-93794799D01*
G75*
G02*
X237167202Y-92728369I997631J68799D01*
G01*
X237167202Y-92728369D01*
G75*
G02*
X238233632Y-93657201I68799J-997631D01*
G01*
X238273630Y-94237201D01*
G75*
G02*
X237344798Y-95303631I-997631J-68799D01*
G01*
X237344798Y-95303631D01*
G75*
G02*
X236278368Y-94374799I-68799J997631D01*
G01*
G37*
G36*
G01*
X238020307Y-95473828D02*
X236710317Y-96933837D01*
G75*
G02*
X235298172Y-97010316I-744312J667833D01*
G01*
X235298172Y-97010316D01*
G75*
G02*
X235221693Y-95598171I667833J744312D01*
G01*
X236531683Y-94138163D01*
G75*
G02*
X237943828Y-94061684I744312J-667833D01*
G01*
X237943828Y-94061684D01*
G75*
G02*
X238020307Y-95473829I-667833J-744312D01*
G01*
G37*
X237236000Y-93726000D03*
X237276000Y-94306000D03*
G36*
G01*
X242918167Y-95521688D02*
X242918168Y-95521688D01*
G75*
G02*
X243977276Y-95579048I500874J-558234D01*
G01*
X244311192Y-95951204D01*
G75*
G02*
X244253832Y-97010312I-558234J-500874D01*
G01*
X244253832Y-97010312D01*
G75*
G02*
X243194724Y-96952952I-500874J558234D01*
G01*
X242860808Y-96580796D01*
G75*
G02*
X242918168Y-95521688I558234J500874D01*
G01*
G37*
X242276000Y-94806000D03*
X235966000Y-96266000D03*
X237276000Y-94806000D03*
X242316000Y-93726000D03*
X242276000Y-94306000D03*
G36*
G01*
X241278370Y-94237201D02*
X241318368Y-93657201D01*
G75*
G02*
X242384798Y-92728369I997631J-68799D01*
G01*
X242384798Y-92728369D01*
G75*
G02*
X243313630Y-93794799I-68799J-997631D01*
G01*
X243273632Y-94374799D01*
G75*
G02*
X242207202Y-95303631I-997631J68799D01*
G01*
X242207202Y-95303631D01*
G75*
G02*
X241278370Y-94237201I68799J997631D01*
G01*
G37*
%TD*%
%TO.C,S-C10*%
G36*
G01*
X258100294Y-93279719D02*
X258554284Y-92388713D01*
G75*
G02*
X259226782Y-92170205I445503J-226995D01*
G01*
X261365198Y-93259782D01*
G75*
G02*
X261583706Y-93932280I-226995J-445503D01*
G01*
X261129716Y-94823287D01*
G75*
G02*
X260457218Y-95041795I-445503J226995D01*
G01*
X258318802Y-93952218D01*
G75*
G02*
X258100294Y-93279720I226995J445503D01*
G01*
G37*
G36*
G01*
X263892668Y-94315224D02*
X264293368Y-94761810D01*
G75*
G02*
X264239833Y-95750311I-521018J-467483D01*
G01*
X264239833Y-95750311D01*
G75*
G02*
X263251332Y-95696776I-467483J521018D01*
G01*
X262850632Y-95250190D01*
G75*
G02*
X262904167Y-94261689I521018J467483D01*
G01*
X262904167Y-94261689D01*
G75*
G02*
X263892668Y-94315224I467483J-521018D01*
G01*
G37*
X253572000Y-95006000D03*
X258572000Y-92906000D03*
G36*
G01*
X261463280Y-94119043D02*
X263107188Y-95951208D01*
G75*
G02*
X263049828Y-97010316I-558234J-500874D01*
G01*
X263049828Y-97010316D01*
G75*
G02*
X261990720Y-96952956I-500874J558234D01*
G01*
X260346812Y-95120792D01*
G75*
G02*
X260404172Y-94061684I558234J500874D01*
G01*
X260404172Y-94061684D01*
G75*
G02*
X261463280Y-94119044I500874J-558234D01*
G01*
G37*
G36*
G01*
X255074369Y-94374799D02*
X255034370Y-93794799D01*
G75*
G02*
X255963202Y-92728369I997631J68799D01*
G01*
X255963202Y-92728369D01*
G75*
G02*
X257029632Y-93657201I68799J-997631D01*
G01*
X257069630Y-94237201D01*
G75*
G02*
X256140798Y-95303631I-997631J-68799D01*
G01*
X256140798Y-95303631D01*
G75*
G02*
X255074368Y-94374799I-68799J997631D01*
G01*
G37*
G36*
G01*
X256816307Y-95473828D02*
X255506317Y-96933837D01*
G75*
G02*
X254094172Y-97010316I-744312J667833D01*
G01*
X254094172Y-97010316D01*
G75*
G02*
X254017693Y-95598171I667833J744312D01*
G01*
X255327683Y-94138163D01*
G75*
G02*
X256739828Y-94061684I744312J-667833D01*
G01*
X256739828Y-94061684D01*
G75*
G02*
X256816307Y-95473829I-667833J-744312D01*
G01*
G37*
X256032000Y-93726000D03*
X256072000Y-94306000D03*
G36*
G01*
X261714167Y-95521688D02*
X261714168Y-95521688D01*
G75*
G02*
X262773276Y-95579048I500874J-558234D01*
G01*
X263107192Y-95951204D01*
G75*
G02*
X263049832Y-97010312I-558234J-500874D01*
G01*
X263049832Y-97010312D01*
G75*
G02*
X261990724Y-96952952I-500874J558234D01*
G01*
X261656808Y-96580796D01*
G75*
G02*
X261714168Y-95521688I558234J500874D01*
G01*
G37*
X261072000Y-94806000D03*
X254762000Y-96266000D03*
X256072000Y-94806000D03*
X261112000Y-93726000D03*
X261072000Y-94306000D03*
G36*
G01*
X260074370Y-94237201D02*
X260114368Y-93657201D01*
G75*
G02*
X261180798Y-92728369I997631J-68799D01*
G01*
X261180798Y-92728369D01*
G75*
G02*
X262109630Y-93794799I-68799J-997631D01*
G01*
X262069632Y-94374799D01*
G75*
G02*
X261003202Y-95303631I-997631J68799D01*
G01*
X261003202Y-95303631D01*
G75*
G02*
X260074370Y-94237201I68799J997631D01*
G01*
G37*
%TD*%
%TO.C,S-C11*%
G36*
G01*
X276896294Y-93279719D02*
X277350284Y-92388713D01*
G75*
G02*
X278022782Y-92170205I445503J-226995D01*
G01*
X280161198Y-93259782D01*
G75*
G02*
X280379706Y-93932280I-226995J-445503D01*
G01*
X279925716Y-94823287D01*
G75*
G02*
X279253218Y-95041795I-445503J226995D01*
G01*
X277114802Y-93952218D01*
G75*
G02*
X276896294Y-93279720I226995J445503D01*
G01*
G37*
G36*
G01*
X282688668Y-94315224D02*
X283089368Y-94761810D01*
G75*
G02*
X283035833Y-95750311I-521018J-467483D01*
G01*
X283035833Y-95750311D01*
G75*
G02*
X282047332Y-95696776I-467483J521018D01*
G01*
X281646632Y-95250190D01*
G75*
G02*
X281700167Y-94261689I521018J467483D01*
G01*
X281700167Y-94261689D01*
G75*
G02*
X282688668Y-94315224I467483J-521018D01*
G01*
G37*
X272368000Y-95006000D03*
X277368000Y-92906000D03*
G36*
G01*
X280259280Y-94119043D02*
X281903188Y-95951208D01*
G75*
G02*
X281845828Y-97010316I-558234J-500874D01*
G01*
X281845828Y-97010316D01*
G75*
G02*
X280786720Y-96952956I-500874J558234D01*
G01*
X279142812Y-95120792D01*
G75*
G02*
X279200172Y-94061684I558234J500874D01*
G01*
X279200172Y-94061684D01*
G75*
G02*
X280259280Y-94119044I500874J-558234D01*
G01*
G37*
G36*
G01*
X273870369Y-94374799D02*
X273830370Y-93794799D01*
G75*
G02*
X274759202Y-92728369I997631J68799D01*
G01*
X274759202Y-92728369D01*
G75*
G02*
X275825632Y-93657201I68799J-997631D01*
G01*
X275865630Y-94237201D01*
G75*
G02*
X274936798Y-95303631I-997631J-68799D01*
G01*
X274936798Y-95303631D01*
G75*
G02*
X273870368Y-94374799I-68799J997631D01*
G01*
G37*
G36*
G01*
X275612307Y-95473828D02*
X274302317Y-96933837D01*
G75*
G02*
X272890172Y-97010316I-744312J667833D01*
G01*
X272890172Y-97010316D01*
G75*
G02*
X272813693Y-95598171I667833J744312D01*
G01*
X274123683Y-94138163D01*
G75*
G02*
X275535828Y-94061684I744312J-667833D01*
G01*
X275535828Y-94061684D01*
G75*
G02*
X275612307Y-95473829I-667833J-744312D01*
G01*
G37*
X274828000Y-93726000D03*
X274868000Y-94306000D03*
G36*
G01*
X280510167Y-95521688D02*
X280510168Y-95521688D01*
G75*
G02*
X281569276Y-95579048I500874J-558234D01*
G01*
X281903192Y-95951204D01*
G75*
G02*
X281845832Y-97010312I-558234J-500874D01*
G01*
X281845832Y-97010312D01*
G75*
G02*
X280786724Y-96952952I-500874J558234D01*
G01*
X280452808Y-96580796D01*
G75*
G02*
X280510168Y-95521688I558234J500874D01*
G01*
G37*
X279868000Y-94806000D03*
X273558000Y-96266000D03*
X274868000Y-94806000D03*
X279908000Y-93726000D03*
X279868000Y-94306000D03*
G36*
G01*
X278870370Y-94237201D02*
X278910368Y-93657201D01*
G75*
G02*
X279976798Y-92728369I997631J-68799D01*
G01*
X279976798Y-92728369D01*
G75*
G02*
X280905630Y-93794799I-68799J-997631D01*
G01*
X280865632Y-94374799D01*
G75*
G02*
X279799202Y-95303631I-997631J68799D01*
G01*
X279799202Y-95303631D01*
G75*
G02*
X278870370Y-94237201I68799J997631D01*
G01*
G37*
%TD*%
%TO.C,S-C12*%
G36*
G01*
X295692294Y-93279719D02*
X296146284Y-92388713D01*
G75*
G02*
X296818782Y-92170205I445503J-226995D01*
G01*
X298957198Y-93259782D01*
G75*
G02*
X299175706Y-93932280I-226995J-445503D01*
G01*
X298721716Y-94823287D01*
G75*
G02*
X298049218Y-95041795I-445503J226995D01*
G01*
X295910802Y-93952218D01*
G75*
G02*
X295692294Y-93279720I226995J445503D01*
G01*
G37*
G36*
G01*
X301484668Y-94315224D02*
X301885368Y-94761810D01*
G75*
G02*
X301831833Y-95750311I-521018J-467483D01*
G01*
X301831833Y-95750311D01*
G75*
G02*
X300843332Y-95696776I-467483J521018D01*
G01*
X300442632Y-95250190D01*
G75*
G02*
X300496167Y-94261689I521018J467483D01*
G01*
X300496167Y-94261689D01*
G75*
G02*
X301484668Y-94315224I467483J-521018D01*
G01*
G37*
X291164000Y-95006000D03*
X296164000Y-92906000D03*
G36*
G01*
X299055280Y-94119043D02*
X300699188Y-95951208D01*
G75*
G02*
X300641828Y-97010316I-558234J-500874D01*
G01*
X300641828Y-97010316D01*
G75*
G02*
X299582720Y-96952956I-500874J558234D01*
G01*
X297938812Y-95120792D01*
G75*
G02*
X297996172Y-94061684I558234J500874D01*
G01*
X297996172Y-94061684D01*
G75*
G02*
X299055280Y-94119044I500874J-558234D01*
G01*
G37*
G36*
G01*
X292666369Y-94374799D02*
X292626370Y-93794799D01*
G75*
G02*
X293555202Y-92728369I997631J68799D01*
G01*
X293555202Y-92728369D01*
G75*
G02*
X294621632Y-93657201I68799J-997631D01*
G01*
X294661630Y-94237201D01*
G75*
G02*
X293732798Y-95303631I-997631J-68799D01*
G01*
X293732798Y-95303631D01*
G75*
G02*
X292666368Y-94374799I-68799J997631D01*
G01*
G37*
G36*
G01*
X294408307Y-95473828D02*
X293098317Y-96933837D01*
G75*
G02*
X291686172Y-97010316I-744312J667833D01*
G01*
X291686172Y-97010316D01*
G75*
G02*
X291609693Y-95598171I667833J744312D01*
G01*
X292919683Y-94138163D01*
G75*
G02*
X294331828Y-94061684I744312J-667833D01*
G01*
X294331828Y-94061684D01*
G75*
G02*
X294408307Y-95473829I-667833J-744312D01*
G01*
G37*
X293624000Y-93726000D03*
X293664000Y-94306000D03*
G36*
G01*
X299306167Y-95521688D02*
X299306168Y-95521688D01*
G75*
G02*
X300365276Y-95579048I500874J-558234D01*
G01*
X300699192Y-95951204D01*
G75*
G02*
X300641832Y-97010312I-558234J-500874D01*
G01*
X300641832Y-97010312D01*
G75*
G02*
X299582724Y-96952952I-500874J558234D01*
G01*
X299248808Y-96580796D01*
G75*
G02*
X299306168Y-95521688I558234J500874D01*
G01*
G37*
X298664000Y-94806000D03*
X292354000Y-96266000D03*
X293664000Y-94806000D03*
X298704000Y-93726000D03*
X298664000Y-94306000D03*
G36*
G01*
X297666370Y-94237201D02*
X297706368Y-93657201D01*
G75*
G02*
X298772798Y-92728369I997631J-68799D01*
G01*
X298772798Y-92728369D01*
G75*
G02*
X299701630Y-93794799I-68799J-997631D01*
G01*
X299661632Y-94374799D01*
G75*
G02*
X298595202Y-95303631I-997631J68799D01*
G01*
X298595202Y-95303631D01*
G75*
G02*
X297666370Y-94237201I68799J997631D01*
G01*
G37*
%TD*%
%TO.C,S-D0*%
G36*
G01*
X64806294Y-112075719D02*
X65260284Y-111184713D01*
G75*
G02*
X65932782Y-110966205I445503J-226995D01*
G01*
X68071198Y-112055782D01*
G75*
G02*
X68289706Y-112728280I-226995J-445503D01*
G01*
X67835716Y-113619287D01*
G75*
G02*
X67163218Y-113837795I-445503J226995D01*
G01*
X65024802Y-112748218D01*
G75*
G02*
X64806294Y-112075720I226995J445503D01*
G01*
G37*
G36*
G01*
X70598668Y-113111224D02*
X70999368Y-113557810D01*
G75*
G02*
X70945833Y-114546311I-521018J-467483D01*
G01*
X70945833Y-114546311D01*
G75*
G02*
X69957332Y-114492776I-467483J521018D01*
G01*
X69556632Y-114046190D01*
G75*
G02*
X69610167Y-113057689I521018J467483D01*
G01*
X69610167Y-113057689D01*
G75*
G02*
X70598668Y-113111224I467483J-521018D01*
G01*
G37*
X60278000Y-113802000D03*
X65278000Y-111702000D03*
G36*
G01*
X68169280Y-112915043D02*
X69813188Y-114747208D01*
G75*
G02*
X69755828Y-115806316I-558234J-500874D01*
G01*
X69755828Y-115806316D01*
G75*
G02*
X68696720Y-115748956I-500874J558234D01*
G01*
X67052812Y-113916792D01*
G75*
G02*
X67110172Y-112857684I558234J500874D01*
G01*
X67110172Y-112857684D01*
G75*
G02*
X68169280Y-112915044I500874J-558234D01*
G01*
G37*
G36*
G01*
X61780369Y-113170799D02*
X61740370Y-112590799D01*
G75*
G02*
X62669202Y-111524369I997631J68799D01*
G01*
X62669202Y-111524369D01*
G75*
G02*
X63735632Y-112453201I68799J-997631D01*
G01*
X63775630Y-113033201D01*
G75*
G02*
X62846798Y-114099631I-997631J-68799D01*
G01*
X62846798Y-114099631D01*
G75*
G02*
X61780368Y-113170799I-68799J997631D01*
G01*
G37*
G36*
G01*
X63522307Y-114269828D02*
X62212317Y-115729837D01*
G75*
G02*
X60800172Y-115806316I-744312J667833D01*
G01*
X60800172Y-115806316D01*
G75*
G02*
X60723693Y-114394171I667833J744312D01*
G01*
X62033683Y-112934163D01*
G75*
G02*
X63445828Y-112857684I744312J-667833D01*
G01*
X63445828Y-112857684D01*
G75*
G02*
X63522307Y-114269829I-667833J-744312D01*
G01*
G37*
X62738000Y-112522000D03*
X62778000Y-113102000D03*
G36*
G01*
X68420167Y-114317688D02*
X68420168Y-114317688D01*
G75*
G02*
X69479276Y-114375048I500874J-558234D01*
G01*
X69813192Y-114747204D01*
G75*
G02*
X69755832Y-115806312I-558234J-500874D01*
G01*
X69755832Y-115806312D01*
G75*
G02*
X68696724Y-115748952I-500874J558234D01*
G01*
X68362808Y-115376796D01*
G75*
G02*
X68420168Y-114317688I558234J500874D01*
G01*
G37*
X67778000Y-113602000D03*
X61468000Y-115062000D03*
X62778000Y-113602000D03*
X67818000Y-112522000D03*
X67778000Y-113102000D03*
G36*
G01*
X66780370Y-113033201D02*
X66820368Y-112453201D01*
G75*
G02*
X67886798Y-111524369I997631J-68799D01*
G01*
X67886798Y-111524369D01*
G75*
G02*
X68815630Y-112590799I-68799J-997631D01*
G01*
X68775632Y-113170799D01*
G75*
G02*
X67709202Y-114099631I-997631J68799D01*
G01*
X67709202Y-114099631D01*
G75*
G02*
X66780370Y-113033201I68799J997631D01*
G01*
G37*
%TD*%
%TO.C,S-D1*%
G36*
G01*
X88936294Y-112075719D02*
X89390284Y-111184713D01*
G75*
G02*
X90062782Y-110966205I445503J-226995D01*
G01*
X92201198Y-112055782D01*
G75*
G02*
X92419706Y-112728280I-226995J-445503D01*
G01*
X91965716Y-113619287D01*
G75*
G02*
X91293218Y-113837795I-445503J226995D01*
G01*
X89154802Y-112748218D01*
G75*
G02*
X88936294Y-112075720I226995J445503D01*
G01*
G37*
G36*
G01*
X94728668Y-113111224D02*
X95129368Y-113557810D01*
G75*
G02*
X95075833Y-114546311I-521018J-467483D01*
G01*
X95075833Y-114546311D01*
G75*
G02*
X94087332Y-114492776I-467483J521018D01*
G01*
X93686632Y-114046190D01*
G75*
G02*
X93740167Y-113057689I521018J467483D01*
G01*
X93740167Y-113057689D01*
G75*
G02*
X94728668Y-113111224I467483J-521018D01*
G01*
G37*
X84408000Y-113802000D03*
X89408000Y-111702000D03*
G36*
G01*
X92299280Y-112915043D02*
X93943188Y-114747208D01*
G75*
G02*
X93885828Y-115806316I-558234J-500874D01*
G01*
X93885828Y-115806316D01*
G75*
G02*
X92826720Y-115748956I-500874J558234D01*
G01*
X91182812Y-113916792D01*
G75*
G02*
X91240172Y-112857684I558234J500874D01*
G01*
X91240172Y-112857684D01*
G75*
G02*
X92299280Y-112915044I500874J-558234D01*
G01*
G37*
G36*
G01*
X85910369Y-113170799D02*
X85870370Y-112590799D01*
G75*
G02*
X86799202Y-111524369I997631J68799D01*
G01*
X86799202Y-111524369D01*
G75*
G02*
X87865632Y-112453201I68799J-997631D01*
G01*
X87905630Y-113033201D01*
G75*
G02*
X86976798Y-114099631I-997631J-68799D01*
G01*
X86976798Y-114099631D01*
G75*
G02*
X85910368Y-113170799I-68799J997631D01*
G01*
G37*
G36*
G01*
X87652307Y-114269828D02*
X86342317Y-115729837D01*
G75*
G02*
X84930172Y-115806316I-744312J667833D01*
G01*
X84930172Y-115806316D01*
G75*
G02*
X84853693Y-114394171I667833J744312D01*
G01*
X86163683Y-112934163D01*
G75*
G02*
X87575828Y-112857684I744312J-667833D01*
G01*
X87575828Y-112857684D01*
G75*
G02*
X87652307Y-114269829I-667833J-744312D01*
G01*
G37*
X86868000Y-112522000D03*
X86908000Y-113102000D03*
G36*
G01*
X92550167Y-114317688D02*
X92550168Y-114317688D01*
G75*
G02*
X93609276Y-114375048I500874J-558234D01*
G01*
X93943192Y-114747204D01*
G75*
G02*
X93885832Y-115806312I-558234J-500874D01*
G01*
X93885832Y-115806312D01*
G75*
G02*
X92826724Y-115748952I-500874J558234D01*
G01*
X92492808Y-115376796D01*
G75*
G02*
X92550168Y-114317688I558234J500874D01*
G01*
G37*
X91908000Y-113602000D03*
X85598000Y-115062000D03*
X86908000Y-113602000D03*
X91948000Y-112522000D03*
X91908000Y-113102000D03*
G36*
G01*
X90910370Y-113033201D02*
X90950368Y-112453201D01*
G75*
G02*
X92016798Y-111524369I997631J-68799D01*
G01*
X92016798Y-111524369D01*
G75*
G02*
X92945630Y-112590799I-68799J-997631D01*
G01*
X92905632Y-113170799D01*
G75*
G02*
X91839202Y-114099631I-997631J68799D01*
G01*
X91839202Y-114099631D01*
G75*
G02*
X90910370Y-113033201I68799J997631D01*
G01*
G37*
%TD*%
%TO.C,S-D2*%
G36*
G01*
X107732294Y-112075719D02*
X108186284Y-111184713D01*
G75*
G02*
X108858782Y-110966205I445503J-226995D01*
G01*
X110997198Y-112055782D01*
G75*
G02*
X111215706Y-112728280I-226995J-445503D01*
G01*
X110761716Y-113619287D01*
G75*
G02*
X110089218Y-113837795I-445503J226995D01*
G01*
X107950802Y-112748218D01*
G75*
G02*
X107732294Y-112075720I226995J445503D01*
G01*
G37*
G36*
G01*
X113524668Y-113111224D02*
X113925368Y-113557810D01*
G75*
G02*
X113871833Y-114546311I-521018J-467483D01*
G01*
X113871833Y-114546311D01*
G75*
G02*
X112883332Y-114492776I-467483J521018D01*
G01*
X112482632Y-114046190D01*
G75*
G02*
X112536167Y-113057689I521018J467483D01*
G01*
X112536167Y-113057689D01*
G75*
G02*
X113524668Y-113111224I467483J-521018D01*
G01*
G37*
X103204000Y-113802000D03*
X108204000Y-111702000D03*
G36*
G01*
X111095280Y-112915043D02*
X112739188Y-114747208D01*
G75*
G02*
X112681828Y-115806316I-558234J-500874D01*
G01*
X112681828Y-115806316D01*
G75*
G02*
X111622720Y-115748956I-500874J558234D01*
G01*
X109978812Y-113916792D01*
G75*
G02*
X110036172Y-112857684I558234J500874D01*
G01*
X110036172Y-112857684D01*
G75*
G02*
X111095280Y-112915044I500874J-558234D01*
G01*
G37*
G36*
G01*
X104706369Y-113170799D02*
X104666370Y-112590799D01*
G75*
G02*
X105595202Y-111524369I997631J68799D01*
G01*
X105595202Y-111524369D01*
G75*
G02*
X106661632Y-112453201I68799J-997631D01*
G01*
X106701630Y-113033201D01*
G75*
G02*
X105772798Y-114099631I-997631J-68799D01*
G01*
X105772798Y-114099631D01*
G75*
G02*
X104706368Y-113170799I-68799J997631D01*
G01*
G37*
G36*
G01*
X106448307Y-114269828D02*
X105138317Y-115729837D01*
G75*
G02*
X103726172Y-115806316I-744312J667833D01*
G01*
X103726172Y-115806316D01*
G75*
G02*
X103649693Y-114394171I667833J744312D01*
G01*
X104959683Y-112934163D01*
G75*
G02*
X106371828Y-112857684I744312J-667833D01*
G01*
X106371828Y-112857684D01*
G75*
G02*
X106448307Y-114269829I-667833J-744312D01*
G01*
G37*
X105664000Y-112522000D03*
X105704000Y-113102000D03*
G36*
G01*
X111346167Y-114317688D02*
X111346168Y-114317688D01*
G75*
G02*
X112405276Y-114375048I500874J-558234D01*
G01*
X112739192Y-114747204D01*
G75*
G02*
X112681832Y-115806312I-558234J-500874D01*
G01*
X112681832Y-115806312D01*
G75*
G02*
X111622724Y-115748952I-500874J558234D01*
G01*
X111288808Y-115376796D01*
G75*
G02*
X111346168Y-114317688I558234J500874D01*
G01*
G37*
X110704000Y-113602000D03*
X104394000Y-115062000D03*
X105704000Y-113602000D03*
X110744000Y-112522000D03*
X110704000Y-113102000D03*
G36*
G01*
X109706370Y-113033201D02*
X109746368Y-112453201D01*
G75*
G02*
X110812798Y-111524369I997631J-68799D01*
G01*
X110812798Y-111524369D01*
G75*
G02*
X111741630Y-112590799I-68799J-997631D01*
G01*
X111701632Y-113170799D01*
G75*
G02*
X110635202Y-114099631I-997631J68799D01*
G01*
X110635202Y-114099631D01*
G75*
G02*
X109706370Y-113033201I68799J997631D01*
G01*
G37*
%TD*%
%TO.C,S-D3*%
G36*
G01*
X126528294Y-112075719D02*
X126982284Y-111184713D01*
G75*
G02*
X127654782Y-110966205I445503J-226995D01*
G01*
X129793198Y-112055782D01*
G75*
G02*
X130011706Y-112728280I-226995J-445503D01*
G01*
X129557716Y-113619287D01*
G75*
G02*
X128885218Y-113837795I-445503J226995D01*
G01*
X126746802Y-112748218D01*
G75*
G02*
X126528294Y-112075720I226995J445503D01*
G01*
G37*
G36*
G01*
X132320668Y-113111224D02*
X132721368Y-113557810D01*
G75*
G02*
X132667833Y-114546311I-521018J-467483D01*
G01*
X132667833Y-114546311D01*
G75*
G02*
X131679332Y-114492776I-467483J521018D01*
G01*
X131278632Y-114046190D01*
G75*
G02*
X131332167Y-113057689I521018J467483D01*
G01*
X131332167Y-113057689D01*
G75*
G02*
X132320668Y-113111224I467483J-521018D01*
G01*
G37*
X122000000Y-113802000D03*
X127000000Y-111702000D03*
G36*
G01*
X129891280Y-112915043D02*
X131535188Y-114747208D01*
G75*
G02*
X131477828Y-115806316I-558234J-500874D01*
G01*
X131477828Y-115806316D01*
G75*
G02*
X130418720Y-115748956I-500874J558234D01*
G01*
X128774812Y-113916792D01*
G75*
G02*
X128832172Y-112857684I558234J500874D01*
G01*
X128832172Y-112857684D01*
G75*
G02*
X129891280Y-112915044I500874J-558234D01*
G01*
G37*
G36*
G01*
X123502369Y-113170799D02*
X123462370Y-112590799D01*
G75*
G02*
X124391202Y-111524369I997631J68799D01*
G01*
X124391202Y-111524369D01*
G75*
G02*
X125457632Y-112453201I68799J-997631D01*
G01*
X125497630Y-113033201D01*
G75*
G02*
X124568798Y-114099631I-997631J-68799D01*
G01*
X124568798Y-114099631D01*
G75*
G02*
X123502368Y-113170799I-68799J997631D01*
G01*
G37*
G36*
G01*
X125244307Y-114269828D02*
X123934317Y-115729837D01*
G75*
G02*
X122522172Y-115806316I-744312J667833D01*
G01*
X122522172Y-115806316D01*
G75*
G02*
X122445693Y-114394171I667833J744312D01*
G01*
X123755683Y-112934163D01*
G75*
G02*
X125167828Y-112857684I744312J-667833D01*
G01*
X125167828Y-112857684D01*
G75*
G02*
X125244307Y-114269829I-667833J-744312D01*
G01*
G37*
X124460000Y-112522000D03*
X124500000Y-113102000D03*
G36*
G01*
X130142167Y-114317688D02*
X130142168Y-114317688D01*
G75*
G02*
X131201276Y-114375048I500874J-558234D01*
G01*
X131535192Y-114747204D01*
G75*
G02*
X131477832Y-115806312I-558234J-500874D01*
G01*
X131477832Y-115806312D01*
G75*
G02*
X130418724Y-115748952I-500874J558234D01*
G01*
X130084808Y-115376796D01*
G75*
G02*
X130142168Y-114317688I558234J500874D01*
G01*
G37*
X129500000Y-113602000D03*
X123190000Y-115062000D03*
X124500000Y-113602000D03*
X129540000Y-112522000D03*
X129500000Y-113102000D03*
G36*
G01*
X128502370Y-113033201D02*
X128542368Y-112453201D01*
G75*
G02*
X129608798Y-111524369I997631J-68799D01*
G01*
X129608798Y-111524369D01*
G75*
G02*
X130537630Y-112590799I-68799J-997631D01*
G01*
X130497632Y-113170799D01*
G75*
G02*
X129431202Y-114099631I-997631J68799D01*
G01*
X129431202Y-114099631D01*
G75*
G02*
X128502370Y-113033201I68799J997631D01*
G01*
G37*
%TD*%
%TO.C,S-D4*%
G36*
G01*
X145324294Y-112075719D02*
X145778284Y-111184713D01*
G75*
G02*
X146450782Y-110966205I445503J-226995D01*
G01*
X148589198Y-112055782D01*
G75*
G02*
X148807706Y-112728280I-226995J-445503D01*
G01*
X148353716Y-113619287D01*
G75*
G02*
X147681218Y-113837795I-445503J226995D01*
G01*
X145542802Y-112748218D01*
G75*
G02*
X145324294Y-112075720I226995J445503D01*
G01*
G37*
G36*
G01*
X151116668Y-113111224D02*
X151517368Y-113557810D01*
G75*
G02*
X151463833Y-114546311I-521018J-467483D01*
G01*
X151463833Y-114546311D01*
G75*
G02*
X150475332Y-114492776I-467483J521018D01*
G01*
X150074632Y-114046190D01*
G75*
G02*
X150128167Y-113057689I521018J467483D01*
G01*
X150128167Y-113057689D01*
G75*
G02*
X151116668Y-113111224I467483J-521018D01*
G01*
G37*
X140796000Y-113802000D03*
X145796000Y-111702000D03*
G36*
G01*
X148687280Y-112915043D02*
X150331188Y-114747208D01*
G75*
G02*
X150273828Y-115806316I-558234J-500874D01*
G01*
X150273828Y-115806316D01*
G75*
G02*
X149214720Y-115748956I-500874J558234D01*
G01*
X147570812Y-113916792D01*
G75*
G02*
X147628172Y-112857684I558234J500874D01*
G01*
X147628172Y-112857684D01*
G75*
G02*
X148687280Y-112915044I500874J-558234D01*
G01*
G37*
G36*
G01*
X142298369Y-113170799D02*
X142258370Y-112590799D01*
G75*
G02*
X143187202Y-111524369I997631J68799D01*
G01*
X143187202Y-111524369D01*
G75*
G02*
X144253632Y-112453201I68799J-997631D01*
G01*
X144293630Y-113033201D01*
G75*
G02*
X143364798Y-114099631I-997631J-68799D01*
G01*
X143364798Y-114099631D01*
G75*
G02*
X142298368Y-113170799I-68799J997631D01*
G01*
G37*
G36*
G01*
X144040307Y-114269828D02*
X142730317Y-115729837D01*
G75*
G02*
X141318172Y-115806316I-744312J667833D01*
G01*
X141318172Y-115806316D01*
G75*
G02*
X141241693Y-114394171I667833J744312D01*
G01*
X142551683Y-112934163D01*
G75*
G02*
X143963828Y-112857684I744312J-667833D01*
G01*
X143963828Y-112857684D01*
G75*
G02*
X144040307Y-114269829I-667833J-744312D01*
G01*
G37*
X143256000Y-112522000D03*
X143296000Y-113102000D03*
G36*
G01*
X148938167Y-114317688D02*
X148938168Y-114317688D01*
G75*
G02*
X149997276Y-114375048I500874J-558234D01*
G01*
X150331192Y-114747204D01*
G75*
G02*
X150273832Y-115806312I-558234J-500874D01*
G01*
X150273832Y-115806312D01*
G75*
G02*
X149214724Y-115748952I-500874J558234D01*
G01*
X148880808Y-115376796D01*
G75*
G02*
X148938168Y-114317688I558234J500874D01*
G01*
G37*
X148296000Y-113602000D03*
X141986000Y-115062000D03*
X143296000Y-113602000D03*
X148336000Y-112522000D03*
X148296000Y-113102000D03*
G36*
G01*
X147298370Y-113033201D02*
X147338368Y-112453201D01*
G75*
G02*
X148404798Y-111524369I997631J-68799D01*
G01*
X148404798Y-111524369D01*
G75*
G02*
X149333630Y-112590799I-68799J-997631D01*
G01*
X149293632Y-113170799D01*
G75*
G02*
X148227202Y-114099631I-997631J68799D01*
G01*
X148227202Y-114099631D01*
G75*
G02*
X147298370Y-113033201I68799J997631D01*
G01*
G37*
%TD*%
%TO.C,S-D5*%
G36*
G01*
X164120294Y-112075719D02*
X164574284Y-111184713D01*
G75*
G02*
X165246782Y-110966205I445503J-226995D01*
G01*
X167385198Y-112055782D01*
G75*
G02*
X167603706Y-112728280I-226995J-445503D01*
G01*
X167149716Y-113619287D01*
G75*
G02*
X166477218Y-113837795I-445503J226995D01*
G01*
X164338802Y-112748218D01*
G75*
G02*
X164120294Y-112075720I226995J445503D01*
G01*
G37*
G36*
G01*
X169912668Y-113111224D02*
X170313368Y-113557810D01*
G75*
G02*
X170259833Y-114546311I-521018J-467483D01*
G01*
X170259833Y-114546311D01*
G75*
G02*
X169271332Y-114492776I-467483J521018D01*
G01*
X168870632Y-114046190D01*
G75*
G02*
X168924167Y-113057689I521018J467483D01*
G01*
X168924167Y-113057689D01*
G75*
G02*
X169912668Y-113111224I467483J-521018D01*
G01*
G37*
X159592000Y-113802000D03*
X164592000Y-111702000D03*
G36*
G01*
X167483280Y-112915043D02*
X169127188Y-114747208D01*
G75*
G02*
X169069828Y-115806316I-558234J-500874D01*
G01*
X169069828Y-115806316D01*
G75*
G02*
X168010720Y-115748956I-500874J558234D01*
G01*
X166366812Y-113916792D01*
G75*
G02*
X166424172Y-112857684I558234J500874D01*
G01*
X166424172Y-112857684D01*
G75*
G02*
X167483280Y-112915044I500874J-558234D01*
G01*
G37*
G36*
G01*
X161094369Y-113170799D02*
X161054370Y-112590799D01*
G75*
G02*
X161983202Y-111524369I997631J68799D01*
G01*
X161983202Y-111524369D01*
G75*
G02*
X163049632Y-112453201I68799J-997631D01*
G01*
X163089630Y-113033201D01*
G75*
G02*
X162160798Y-114099631I-997631J-68799D01*
G01*
X162160798Y-114099631D01*
G75*
G02*
X161094368Y-113170799I-68799J997631D01*
G01*
G37*
G36*
G01*
X162836307Y-114269828D02*
X161526317Y-115729837D01*
G75*
G02*
X160114172Y-115806316I-744312J667833D01*
G01*
X160114172Y-115806316D01*
G75*
G02*
X160037693Y-114394171I667833J744312D01*
G01*
X161347683Y-112934163D01*
G75*
G02*
X162759828Y-112857684I744312J-667833D01*
G01*
X162759828Y-112857684D01*
G75*
G02*
X162836307Y-114269829I-667833J-744312D01*
G01*
G37*
X162052000Y-112522000D03*
X162092000Y-113102000D03*
G36*
G01*
X167734167Y-114317688D02*
X167734168Y-114317688D01*
G75*
G02*
X168793276Y-114375048I500874J-558234D01*
G01*
X169127192Y-114747204D01*
G75*
G02*
X169069832Y-115806312I-558234J-500874D01*
G01*
X169069832Y-115806312D01*
G75*
G02*
X168010724Y-115748952I-500874J558234D01*
G01*
X167676808Y-115376796D01*
G75*
G02*
X167734168Y-114317688I558234J500874D01*
G01*
G37*
X167092000Y-113602000D03*
X160782000Y-115062000D03*
X162092000Y-113602000D03*
X167132000Y-112522000D03*
X167092000Y-113102000D03*
G36*
G01*
X166094370Y-113033201D02*
X166134368Y-112453201D01*
G75*
G02*
X167200798Y-111524369I997631J-68799D01*
G01*
X167200798Y-111524369D01*
G75*
G02*
X168129630Y-112590799I-68799J-997631D01*
G01*
X168089632Y-113170799D01*
G75*
G02*
X167023202Y-114099631I-997631J68799D01*
G01*
X167023202Y-114099631D01*
G75*
G02*
X166094370Y-113033201I68799J997631D01*
G01*
G37*
%TD*%
%TO.C,S-D6*%
G36*
G01*
X182916294Y-112075719D02*
X183370284Y-111184713D01*
G75*
G02*
X184042782Y-110966205I445503J-226995D01*
G01*
X186181198Y-112055782D01*
G75*
G02*
X186399706Y-112728280I-226995J-445503D01*
G01*
X185945716Y-113619287D01*
G75*
G02*
X185273218Y-113837795I-445503J226995D01*
G01*
X183134802Y-112748218D01*
G75*
G02*
X182916294Y-112075720I226995J445503D01*
G01*
G37*
G36*
G01*
X188708668Y-113111224D02*
X189109368Y-113557810D01*
G75*
G02*
X189055833Y-114546311I-521018J-467483D01*
G01*
X189055833Y-114546311D01*
G75*
G02*
X188067332Y-114492776I-467483J521018D01*
G01*
X187666632Y-114046190D01*
G75*
G02*
X187720167Y-113057689I521018J467483D01*
G01*
X187720167Y-113057689D01*
G75*
G02*
X188708668Y-113111224I467483J-521018D01*
G01*
G37*
X178388000Y-113802000D03*
X183388000Y-111702000D03*
G36*
G01*
X186279280Y-112915043D02*
X187923188Y-114747208D01*
G75*
G02*
X187865828Y-115806316I-558234J-500874D01*
G01*
X187865828Y-115806316D01*
G75*
G02*
X186806720Y-115748956I-500874J558234D01*
G01*
X185162812Y-113916792D01*
G75*
G02*
X185220172Y-112857684I558234J500874D01*
G01*
X185220172Y-112857684D01*
G75*
G02*
X186279280Y-112915044I500874J-558234D01*
G01*
G37*
G36*
G01*
X179890369Y-113170799D02*
X179850370Y-112590799D01*
G75*
G02*
X180779202Y-111524369I997631J68799D01*
G01*
X180779202Y-111524369D01*
G75*
G02*
X181845632Y-112453201I68799J-997631D01*
G01*
X181885630Y-113033201D01*
G75*
G02*
X180956798Y-114099631I-997631J-68799D01*
G01*
X180956798Y-114099631D01*
G75*
G02*
X179890368Y-113170799I-68799J997631D01*
G01*
G37*
G36*
G01*
X181632307Y-114269828D02*
X180322317Y-115729837D01*
G75*
G02*
X178910172Y-115806316I-744312J667833D01*
G01*
X178910172Y-115806316D01*
G75*
G02*
X178833693Y-114394171I667833J744312D01*
G01*
X180143683Y-112934163D01*
G75*
G02*
X181555828Y-112857684I744312J-667833D01*
G01*
X181555828Y-112857684D01*
G75*
G02*
X181632307Y-114269829I-667833J-744312D01*
G01*
G37*
X180848000Y-112522000D03*
X180888000Y-113102000D03*
G36*
G01*
X186530167Y-114317688D02*
X186530168Y-114317688D01*
G75*
G02*
X187589276Y-114375048I500874J-558234D01*
G01*
X187923192Y-114747204D01*
G75*
G02*
X187865832Y-115806312I-558234J-500874D01*
G01*
X187865832Y-115806312D01*
G75*
G02*
X186806724Y-115748952I-500874J558234D01*
G01*
X186472808Y-115376796D01*
G75*
G02*
X186530168Y-114317688I558234J500874D01*
G01*
G37*
X185888000Y-113602000D03*
X179578000Y-115062000D03*
X180888000Y-113602000D03*
X185928000Y-112522000D03*
X185888000Y-113102000D03*
G36*
G01*
X184890370Y-113033201D02*
X184930368Y-112453201D01*
G75*
G02*
X185996798Y-111524369I997631J-68799D01*
G01*
X185996798Y-111524369D01*
G75*
G02*
X186925630Y-112590799I-68799J-997631D01*
G01*
X186885632Y-113170799D01*
G75*
G02*
X185819202Y-114099631I-997631J68799D01*
G01*
X185819202Y-114099631D01*
G75*
G02*
X184890370Y-113033201I68799J997631D01*
G01*
G37*
%TD*%
%TO.C,S-D7*%
G36*
G01*
X201712294Y-112075719D02*
X202166284Y-111184713D01*
G75*
G02*
X202838782Y-110966205I445503J-226995D01*
G01*
X204977198Y-112055782D01*
G75*
G02*
X205195706Y-112728280I-226995J-445503D01*
G01*
X204741716Y-113619287D01*
G75*
G02*
X204069218Y-113837795I-445503J226995D01*
G01*
X201930802Y-112748218D01*
G75*
G02*
X201712294Y-112075720I226995J445503D01*
G01*
G37*
G36*
G01*
X207504668Y-113111224D02*
X207905368Y-113557810D01*
G75*
G02*
X207851833Y-114546311I-521018J-467483D01*
G01*
X207851833Y-114546311D01*
G75*
G02*
X206863332Y-114492776I-467483J521018D01*
G01*
X206462632Y-114046190D01*
G75*
G02*
X206516167Y-113057689I521018J467483D01*
G01*
X206516167Y-113057689D01*
G75*
G02*
X207504668Y-113111224I467483J-521018D01*
G01*
G37*
X197184000Y-113802000D03*
X202184000Y-111702000D03*
G36*
G01*
X205075280Y-112915043D02*
X206719188Y-114747208D01*
G75*
G02*
X206661828Y-115806316I-558234J-500874D01*
G01*
X206661828Y-115806316D01*
G75*
G02*
X205602720Y-115748956I-500874J558234D01*
G01*
X203958812Y-113916792D01*
G75*
G02*
X204016172Y-112857684I558234J500874D01*
G01*
X204016172Y-112857684D01*
G75*
G02*
X205075280Y-112915044I500874J-558234D01*
G01*
G37*
G36*
G01*
X198686369Y-113170799D02*
X198646370Y-112590799D01*
G75*
G02*
X199575202Y-111524369I997631J68799D01*
G01*
X199575202Y-111524369D01*
G75*
G02*
X200641632Y-112453201I68799J-997631D01*
G01*
X200681630Y-113033201D01*
G75*
G02*
X199752798Y-114099631I-997631J-68799D01*
G01*
X199752798Y-114099631D01*
G75*
G02*
X198686368Y-113170799I-68799J997631D01*
G01*
G37*
G36*
G01*
X200428307Y-114269828D02*
X199118317Y-115729837D01*
G75*
G02*
X197706172Y-115806316I-744312J667833D01*
G01*
X197706172Y-115806316D01*
G75*
G02*
X197629693Y-114394171I667833J744312D01*
G01*
X198939683Y-112934163D01*
G75*
G02*
X200351828Y-112857684I744312J-667833D01*
G01*
X200351828Y-112857684D01*
G75*
G02*
X200428307Y-114269829I-667833J-744312D01*
G01*
G37*
X199644000Y-112522000D03*
X199684000Y-113102000D03*
G36*
G01*
X205326167Y-114317688D02*
X205326168Y-114317688D01*
G75*
G02*
X206385276Y-114375048I500874J-558234D01*
G01*
X206719192Y-114747204D01*
G75*
G02*
X206661832Y-115806312I-558234J-500874D01*
G01*
X206661832Y-115806312D01*
G75*
G02*
X205602724Y-115748952I-500874J558234D01*
G01*
X205268808Y-115376796D01*
G75*
G02*
X205326168Y-114317688I558234J500874D01*
G01*
G37*
X204684000Y-113602000D03*
X198374000Y-115062000D03*
X199684000Y-113602000D03*
X204724000Y-112522000D03*
X204684000Y-113102000D03*
G36*
G01*
X203686370Y-113033201D02*
X203726368Y-112453201D01*
G75*
G02*
X204792798Y-111524369I997631J-68799D01*
G01*
X204792798Y-111524369D01*
G75*
G02*
X205721630Y-112590799I-68799J-997631D01*
G01*
X205681632Y-113170799D01*
G75*
G02*
X204615202Y-114099631I-997631J68799D01*
G01*
X204615202Y-114099631D01*
G75*
G02*
X203686370Y-113033201I68799J997631D01*
G01*
G37*
%TD*%
%TO.C,S-D8*%
G36*
G01*
X220508294Y-112075719D02*
X220962284Y-111184713D01*
G75*
G02*
X221634782Y-110966205I445503J-226995D01*
G01*
X223773198Y-112055782D01*
G75*
G02*
X223991706Y-112728280I-226995J-445503D01*
G01*
X223537716Y-113619287D01*
G75*
G02*
X222865218Y-113837795I-445503J226995D01*
G01*
X220726802Y-112748218D01*
G75*
G02*
X220508294Y-112075720I226995J445503D01*
G01*
G37*
G36*
G01*
X226300668Y-113111224D02*
X226701368Y-113557810D01*
G75*
G02*
X226647833Y-114546311I-521018J-467483D01*
G01*
X226647833Y-114546311D01*
G75*
G02*
X225659332Y-114492776I-467483J521018D01*
G01*
X225258632Y-114046190D01*
G75*
G02*
X225312167Y-113057689I521018J467483D01*
G01*
X225312167Y-113057689D01*
G75*
G02*
X226300668Y-113111224I467483J-521018D01*
G01*
G37*
X215980000Y-113802000D03*
X220980000Y-111702000D03*
G36*
G01*
X223871280Y-112915043D02*
X225515188Y-114747208D01*
G75*
G02*
X225457828Y-115806316I-558234J-500874D01*
G01*
X225457828Y-115806316D01*
G75*
G02*
X224398720Y-115748956I-500874J558234D01*
G01*
X222754812Y-113916792D01*
G75*
G02*
X222812172Y-112857684I558234J500874D01*
G01*
X222812172Y-112857684D01*
G75*
G02*
X223871280Y-112915044I500874J-558234D01*
G01*
G37*
G36*
G01*
X217482369Y-113170799D02*
X217442370Y-112590799D01*
G75*
G02*
X218371202Y-111524369I997631J68799D01*
G01*
X218371202Y-111524369D01*
G75*
G02*
X219437632Y-112453201I68799J-997631D01*
G01*
X219477630Y-113033201D01*
G75*
G02*
X218548798Y-114099631I-997631J-68799D01*
G01*
X218548798Y-114099631D01*
G75*
G02*
X217482368Y-113170799I-68799J997631D01*
G01*
G37*
G36*
G01*
X219224307Y-114269828D02*
X217914317Y-115729837D01*
G75*
G02*
X216502172Y-115806316I-744312J667833D01*
G01*
X216502172Y-115806316D01*
G75*
G02*
X216425693Y-114394171I667833J744312D01*
G01*
X217735683Y-112934163D01*
G75*
G02*
X219147828Y-112857684I744312J-667833D01*
G01*
X219147828Y-112857684D01*
G75*
G02*
X219224307Y-114269829I-667833J-744312D01*
G01*
G37*
X218440000Y-112522000D03*
X218480000Y-113102000D03*
G36*
G01*
X224122167Y-114317688D02*
X224122168Y-114317688D01*
G75*
G02*
X225181276Y-114375048I500874J-558234D01*
G01*
X225515192Y-114747204D01*
G75*
G02*
X225457832Y-115806312I-558234J-500874D01*
G01*
X225457832Y-115806312D01*
G75*
G02*
X224398724Y-115748952I-500874J558234D01*
G01*
X224064808Y-115376796D01*
G75*
G02*
X224122168Y-114317688I558234J500874D01*
G01*
G37*
X223480000Y-113602000D03*
X217170000Y-115062000D03*
X218480000Y-113602000D03*
X223520000Y-112522000D03*
X223480000Y-113102000D03*
G36*
G01*
X222482370Y-113033201D02*
X222522368Y-112453201D01*
G75*
G02*
X223588798Y-111524369I997631J-68799D01*
G01*
X223588798Y-111524369D01*
G75*
G02*
X224517630Y-112590799I-68799J-997631D01*
G01*
X224477632Y-113170799D01*
G75*
G02*
X223411202Y-114099631I-997631J68799D01*
G01*
X223411202Y-114099631D01*
G75*
G02*
X222482370Y-113033201I68799J997631D01*
G01*
G37*
%TD*%
%TO.C,S-D9*%
G36*
G01*
X239304294Y-112075719D02*
X239758284Y-111184713D01*
G75*
G02*
X240430782Y-110966205I445503J-226995D01*
G01*
X242569198Y-112055782D01*
G75*
G02*
X242787706Y-112728280I-226995J-445503D01*
G01*
X242333716Y-113619287D01*
G75*
G02*
X241661218Y-113837795I-445503J226995D01*
G01*
X239522802Y-112748218D01*
G75*
G02*
X239304294Y-112075720I226995J445503D01*
G01*
G37*
G36*
G01*
X245096668Y-113111224D02*
X245497368Y-113557810D01*
G75*
G02*
X245443833Y-114546311I-521018J-467483D01*
G01*
X245443833Y-114546311D01*
G75*
G02*
X244455332Y-114492776I-467483J521018D01*
G01*
X244054632Y-114046190D01*
G75*
G02*
X244108167Y-113057689I521018J467483D01*
G01*
X244108167Y-113057689D01*
G75*
G02*
X245096668Y-113111224I467483J-521018D01*
G01*
G37*
X234776000Y-113802000D03*
X239776000Y-111702000D03*
G36*
G01*
X242667280Y-112915043D02*
X244311188Y-114747208D01*
G75*
G02*
X244253828Y-115806316I-558234J-500874D01*
G01*
X244253828Y-115806316D01*
G75*
G02*
X243194720Y-115748956I-500874J558234D01*
G01*
X241550812Y-113916792D01*
G75*
G02*
X241608172Y-112857684I558234J500874D01*
G01*
X241608172Y-112857684D01*
G75*
G02*
X242667280Y-112915044I500874J-558234D01*
G01*
G37*
G36*
G01*
X236278369Y-113170799D02*
X236238370Y-112590799D01*
G75*
G02*
X237167202Y-111524369I997631J68799D01*
G01*
X237167202Y-111524369D01*
G75*
G02*
X238233632Y-112453201I68799J-997631D01*
G01*
X238273630Y-113033201D01*
G75*
G02*
X237344798Y-114099631I-997631J-68799D01*
G01*
X237344798Y-114099631D01*
G75*
G02*
X236278368Y-113170799I-68799J997631D01*
G01*
G37*
G36*
G01*
X238020307Y-114269828D02*
X236710317Y-115729837D01*
G75*
G02*
X235298172Y-115806316I-744312J667833D01*
G01*
X235298172Y-115806316D01*
G75*
G02*
X235221693Y-114394171I667833J744312D01*
G01*
X236531683Y-112934163D01*
G75*
G02*
X237943828Y-112857684I744312J-667833D01*
G01*
X237943828Y-112857684D01*
G75*
G02*
X238020307Y-114269829I-667833J-744312D01*
G01*
G37*
X237236000Y-112522000D03*
X237276000Y-113102000D03*
G36*
G01*
X242918167Y-114317688D02*
X242918168Y-114317688D01*
G75*
G02*
X243977276Y-114375048I500874J-558234D01*
G01*
X244311192Y-114747204D01*
G75*
G02*
X244253832Y-115806312I-558234J-500874D01*
G01*
X244253832Y-115806312D01*
G75*
G02*
X243194724Y-115748952I-500874J558234D01*
G01*
X242860808Y-115376796D01*
G75*
G02*
X242918168Y-114317688I558234J500874D01*
G01*
G37*
X242276000Y-113602000D03*
X235966000Y-115062000D03*
X237276000Y-113602000D03*
X242316000Y-112522000D03*
X242276000Y-113102000D03*
G36*
G01*
X241278370Y-113033201D02*
X241318368Y-112453201D01*
G75*
G02*
X242384798Y-111524369I997631J-68799D01*
G01*
X242384798Y-111524369D01*
G75*
G02*
X243313630Y-112590799I-68799J-997631D01*
G01*
X243273632Y-113170799D01*
G75*
G02*
X242207202Y-114099631I-997631J68799D01*
G01*
X242207202Y-114099631D01*
G75*
G02*
X241278370Y-113033201I68799J997631D01*
G01*
G37*
%TD*%
%TO.C,S-D10*%
G36*
G01*
X258100294Y-112075719D02*
X258554284Y-111184713D01*
G75*
G02*
X259226782Y-110966205I445503J-226995D01*
G01*
X261365198Y-112055782D01*
G75*
G02*
X261583706Y-112728280I-226995J-445503D01*
G01*
X261129716Y-113619287D01*
G75*
G02*
X260457218Y-113837795I-445503J226995D01*
G01*
X258318802Y-112748218D01*
G75*
G02*
X258100294Y-112075720I226995J445503D01*
G01*
G37*
G36*
G01*
X263892668Y-113111224D02*
X264293368Y-113557810D01*
G75*
G02*
X264239833Y-114546311I-521018J-467483D01*
G01*
X264239833Y-114546311D01*
G75*
G02*
X263251332Y-114492776I-467483J521018D01*
G01*
X262850632Y-114046190D01*
G75*
G02*
X262904167Y-113057689I521018J467483D01*
G01*
X262904167Y-113057689D01*
G75*
G02*
X263892668Y-113111224I467483J-521018D01*
G01*
G37*
X253572000Y-113802000D03*
X258572000Y-111702000D03*
G36*
G01*
X261463280Y-112915043D02*
X263107188Y-114747208D01*
G75*
G02*
X263049828Y-115806316I-558234J-500874D01*
G01*
X263049828Y-115806316D01*
G75*
G02*
X261990720Y-115748956I-500874J558234D01*
G01*
X260346812Y-113916792D01*
G75*
G02*
X260404172Y-112857684I558234J500874D01*
G01*
X260404172Y-112857684D01*
G75*
G02*
X261463280Y-112915044I500874J-558234D01*
G01*
G37*
G36*
G01*
X255074369Y-113170799D02*
X255034370Y-112590799D01*
G75*
G02*
X255963202Y-111524369I997631J68799D01*
G01*
X255963202Y-111524369D01*
G75*
G02*
X257029632Y-112453201I68799J-997631D01*
G01*
X257069630Y-113033201D01*
G75*
G02*
X256140798Y-114099631I-997631J-68799D01*
G01*
X256140798Y-114099631D01*
G75*
G02*
X255074368Y-113170799I-68799J997631D01*
G01*
G37*
G36*
G01*
X256816307Y-114269828D02*
X255506317Y-115729837D01*
G75*
G02*
X254094172Y-115806316I-744312J667833D01*
G01*
X254094172Y-115806316D01*
G75*
G02*
X254017693Y-114394171I667833J744312D01*
G01*
X255327683Y-112934163D01*
G75*
G02*
X256739828Y-112857684I744312J-667833D01*
G01*
X256739828Y-112857684D01*
G75*
G02*
X256816307Y-114269829I-667833J-744312D01*
G01*
G37*
X256032000Y-112522000D03*
X256072000Y-113102000D03*
G36*
G01*
X261714167Y-114317688D02*
X261714168Y-114317688D01*
G75*
G02*
X262773276Y-114375048I500874J-558234D01*
G01*
X263107192Y-114747204D01*
G75*
G02*
X263049832Y-115806312I-558234J-500874D01*
G01*
X263049832Y-115806312D01*
G75*
G02*
X261990724Y-115748952I-500874J558234D01*
G01*
X261656808Y-115376796D01*
G75*
G02*
X261714168Y-114317688I558234J500874D01*
G01*
G37*
X261072000Y-113602000D03*
X254762000Y-115062000D03*
X256072000Y-113602000D03*
X261112000Y-112522000D03*
X261072000Y-113102000D03*
G36*
G01*
X260074370Y-113033201D02*
X260114368Y-112453201D01*
G75*
G02*
X261180798Y-111524369I997631J-68799D01*
G01*
X261180798Y-111524369D01*
G75*
G02*
X262109630Y-112590799I-68799J-997631D01*
G01*
X262069632Y-113170799D01*
G75*
G02*
X261003202Y-114099631I-997631J68799D01*
G01*
X261003202Y-114099631D01*
G75*
G02*
X260074370Y-113033201I68799J997631D01*
G01*
G37*
%TD*%
%TO.C,S-D11*%
G36*
G01*
X276896294Y-112075719D02*
X277350284Y-111184713D01*
G75*
G02*
X278022782Y-110966205I445503J-226995D01*
G01*
X280161198Y-112055782D01*
G75*
G02*
X280379706Y-112728280I-226995J-445503D01*
G01*
X279925716Y-113619287D01*
G75*
G02*
X279253218Y-113837795I-445503J226995D01*
G01*
X277114802Y-112748218D01*
G75*
G02*
X276896294Y-112075720I226995J445503D01*
G01*
G37*
G36*
G01*
X282688668Y-113111224D02*
X283089368Y-113557810D01*
G75*
G02*
X283035833Y-114546311I-521018J-467483D01*
G01*
X283035833Y-114546311D01*
G75*
G02*
X282047332Y-114492776I-467483J521018D01*
G01*
X281646632Y-114046190D01*
G75*
G02*
X281700167Y-113057689I521018J467483D01*
G01*
X281700167Y-113057689D01*
G75*
G02*
X282688668Y-113111224I467483J-521018D01*
G01*
G37*
X272368000Y-113802000D03*
X277368000Y-111702000D03*
G36*
G01*
X280259280Y-112915043D02*
X281903188Y-114747208D01*
G75*
G02*
X281845828Y-115806316I-558234J-500874D01*
G01*
X281845828Y-115806316D01*
G75*
G02*
X280786720Y-115748956I-500874J558234D01*
G01*
X279142812Y-113916792D01*
G75*
G02*
X279200172Y-112857684I558234J500874D01*
G01*
X279200172Y-112857684D01*
G75*
G02*
X280259280Y-112915044I500874J-558234D01*
G01*
G37*
G36*
G01*
X273870369Y-113170799D02*
X273830370Y-112590799D01*
G75*
G02*
X274759202Y-111524369I997631J68799D01*
G01*
X274759202Y-111524369D01*
G75*
G02*
X275825632Y-112453201I68799J-997631D01*
G01*
X275865630Y-113033201D01*
G75*
G02*
X274936798Y-114099631I-997631J-68799D01*
G01*
X274936798Y-114099631D01*
G75*
G02*
X273870368Y-113170799I-68799J997631D01*
G01*
G37*
G36*
G01*
X275612307Y-114269828D02*
X274302317Y-115729837D01*
G75*
G02*
X272890172Y-115806316I-744312J667833D01*
G01*
X272890172Y-115806316D01*
G75*
G02*
X272813693Y-114394171I667833J744312D01*
G01*
X274123683Y-112934163D01*
G75*
G02*
X275535828Y-112857684I744312J-667833D01*
G01*
X275535828Y-112857684D01*
G75*
G02*
X275612307Y-114269829I-667833J-744312D01*
G01*
G37*
X274828000Y-112522000D03*
X274868000Y-113102000D03*
G36*
G01*
X280510167Y-114317688D02*
X280510168Y-114317688D01*
G75*
G02*
X281569276Y-114375048I500874J-558234D01*
G01*
X281903192Y-114747204D01*
G75*
G02*
X281845832Y-115806312I-558234J-500874D01*
G01*
X281845832Y-115806312D01*
G75*
G02*
X280786724Y-115748952I-500874J558234D01*
G01*
X280452808Y-115376796D01*
G75*
G02*
X280510168Y-114317688I558234J500874D01*
G01*
G37*
X279868000Y-113602000D03*
X273558000Y-115062000D03*
X274868000Y-113602000D03*
X279908000Y-112522000D03*
X279868000Y-113102000D03*
G36*
G01*
X278870370Y-113033201D02*
X278910368Y-112453201D01*
G75*
G02*
X279976798Y-111524369I997631J-68799D01*
G01*
X279976798Y-111524369D01*
G75*
G02*
X280905630Y-112590799I-68799J-997631D01*
G01*
X280865632Y-113170799D01*
G75*
G02*
X279799202Y-114099631I-997631J68799D01*
G01*
X279799202Y-114099631D01*
G75*
G02*
X278870370Y-113033201I68799J997631D01*
G01*
G37*
%TD*%
%TO.C,S-D12*%
G36*
G01*
X295692294Y-112075719D02*
X296146284Y-111184713D01*
G75*
G02*
X296818782Y-110966205I445503J-226995D01*
G01*
X298957198Y-112055782D01*
G75*
G02*
X299175706Y-112728280I-226995J-445503D01*
G01*
X298721716Y-113619287D01*
G75*
G02*
X298049218Y-113837795I-445503J226995D01*
G01*
X295910802Y-112748218D01*
G75*
G02*
X295692294Y-112075720I226995J445503D01*
G01*
G37*
G36*
G01*
X301484668Y-113111224D02*
X301885368Y-113557810D01*
G75*
G02*
X301831833Y-114546311I-521018J-467483D01*
G01*
X301831833Y-114546311D01*
G75*
G02*
X300843332Y-114492776I-467483J521018D01*
G01*
X300442632Y-114046190D01*
G75*
G02*
X300496167Y-113057689I521018J467483D01*
G01*
X300496167Y-113057689D01*
G75*
G02*
X301484668Y-113111224I467483J-521018D01*
G01*
G37*
X291164000Y-113802000D03*
X296164000Y-111702000D03*
G36*
G01*
X299055280Y-112915043D02*
X300699188Y-114747208D01*
G75*
G02*
X300641828Y-115806316I-558234J-500874D01*
G01*
X300641828Y-115806316D01*
G75*
G02*
X299582720Y-115748956I-500874J558234D01*
G01*
X297938812Y-113916792D01*
G75*
G02*
X297996172Y-112857684I558234J500874D01*
G01*
X297996172Y-112857684D01*
G75*
G02*
X299055280Y-112915044I500874J-558234D01*
G01*
G37*
G36*
G01*
X292666369Y-113170799D02*
X292626370Y-112590799D01*
G75*
G02*
X293555202Y-111524369I997631J68799D01*
G01*
X293555202Y-111524369D01*
G75*
G02*
X294621632Y-112453201I68799J-997631D01*
G01*
X294661630Y-113033201D01*
G75*
G02*
X293732798Y-114099631I-997631J-68799D01*
G01*
X293732798Y-114099631D01*
G75*
G02*
X292666368Y-113170799I-68799J997631D01*
G01*
G37*
G36*
G01*
X294408307Y-114269828D02*
X293098317Y-115729837D01*
G75*
G02*
X291686172Y-115806316I-744312J667833D01*
G01*
X291686172Y-115806316D01*
G75*
G02*
X291609693Y-114394171I667833J744312D01*
G01*
X292919683Y-112934163D01*
G75*
G02*
X294331828Y-112857684I744312J-667833D01*
G01*
X294331828Y-112857684D01*
G75*
G02*
X294408307Y-114269829I-667833J-744312D01*
G01*
G37*
X293624000Y-112522000D03*
X293664000Y-113102000D03*
G36*
G01*
X299306167Y-114317688D02*
X299306168Y-114317688D01*
G75*
G02*
X300365276Y-114375048I500874J-558234D01*
G01*
X300699192Y-114747204D01*
G75*
G02*
X300641832Y-115806312I-558234J-500874D01*
G01*
X300641832Y-115806312D01*
G75*
G02*
X299582724Y-115748952I-500874J558234D01*
G01*
X299248808Y-115376796D01*
G75*
G02*
X299306168Y-114317688I558234J500874D01*
G01*
G37*
X298664000Y-113602000D03*
X292354000Y-115062000D03*
X293664000Y-113602000D03*
X298704000Y-112522000D03*
X298664000Y-113102000D03*
G36*
G01*
X297666370Y-113033201D02*
X297706368Y-112453201D01*
G75*
G02*
X298772798Y-111524369I997631J-68799D01*
G01*
X298772798Y-111524369D01*
G75*
G02*
X299701630Y-112590799I-68799J-997631D01*
G01*
X299661632Y-113170799D01*
G75*
G02*
X298595202Y-114099631I-997631J68799D01*
G01*
X298595202Y-114099631D01*
G75*
G02*
X297666370Y-113033201I68799J997631D01*
G01*
G37*
%TD*%
%TO.C,S-E0*%
G36*
G01*
X64806294Y-130871719D02*
X65260284Y-129980713D01*
G75*
G02*
X65932782Y-129762205I445503J-226995D01*
G01*
X68071198Y-130851782D01*
G75*
G02*
X68289706Y-131524280I-226995J-445503D01*
G01*
X67835716Y-132415287D01*
G75*
G02*
X67163218Y-132633795I-445503J226995D01*
G01*
X65024802Y-131544218D01*
G75*
G02*
X64806294Y-130871720I226995J445503D01*
G01*
G37*
G36*
G01*
X70598668Y-131907224D02*
X70999368Y-132353810D01*
G75*
G02*
X70945833Y-133342311I-521018J-467483D01*
G01*
X70945833Y-133342311D01*
G75*
G02*
X69957332Y-133288776I-467483J521018D01*
G01*
X69556632Y-132842190D01*
G75*
G02*
X69610167Y-131853689I521018J467483D01*
G01*
X69610167Y-131853689D01*
G75*
G02*
X70598668Y-131907224I467483J-521018D01*
G01*
G37*
X60278000Y-132598000D03*
X65278000Y-130498000D03*
G36*
G01*
X68169280Y-131711043D02*
X69813188Y-133543208D01*
G75*
G02*
X69755828Y-134602316I-558234J-500874D01*
G01*
X69755828Y-134602316D01*
G75*
G02*
X68696720Y-134544956I-500874J558234D01*
G01*
X67052812Y-132712792D01*
G75*
G02*
X67110172Y-131653684I558234J500874D01*
G01*
X67110172Y-131653684D01*
G75*
G02*
X68169280Y-131711044I500874J-558234D01*
G01*
G37*
G36*
G01*
X61780369Y-131966799D02*
X61740370Y-131386799D01*
G75*
G02*
X62669202Y-130320369I997631J68799D01*
G01*
X62669202Y-130320369D01*
G75*
G02*
X63735632Y-131249201I68799J-997631D01*
G01*
X63775630Y-131829201D01*
G75*
G02*
X62846798Y-132895631I-997631J-68799D01*
G01*
X62846798Y-132895631D01*
G75*
G02*
X61780368Y-131966799I-68799J997631D01*
G01*
G37*
G36*
G01*
X63522307Y-133065828D02*
X62212317Y-134525837D01*
G75*
G02*
X60800172Y-134602316I-744312J667833D01*
G01*
X60800172Y-134602316D01*
G75*
G02*
X60723693Y-133190171I667833J744312D01*
G01*
X62033683Y-131730163D01*
G75*
G02*
X63445828Y-131653684I744312J-667833D01*
G01*
X63445828Y-131653684D01*
G75*
G02*
X63522307Y-133065829I-667833J-744312D01*
G01*
G37*
X62738000Y-131318000D03*
X62778000Y-131898000D03*
G36*
G01*
X68420167Y-133113688D02*
X68420168Y-133113688D01*
G75*
G02*
X69479276Y-133171048I500874J-558234D01*
G01*
X69813192Y-133543204D01*
G75*
G02*
X69755832Y-134602312I-558234J-500874D01*
G01*
X69755832Y-134602312D01*
G75*
G02*
X68696724Y-134544952I-500874J558234D01*
G01*
X68362808Y-134172796D01*
G75*
G02*
X68420168Y-133113688I558234J500874D01*
G01*
G37*
X67778000Y-132398000D03*
X61468000Y-133858000D03*
X62778000Y-132398000D03*
X67818000Y-131318000D03*
X67778000Y-131898000D03*
G36*
G01*
X66780370Y-131829201D02*
X66820368Y-131249201D01*
G75*
G02*
X67886798Y-130320369I997631J-68799D01*
G01*
X67886798Y-130320369D01*
G75*
G02*
X68815630Y-131386799I-68799J-997631D01*
G01*
X68775632Y-131966799D01*
G75*
G02*
X67709202Y-132895631I-997631J68799D01*
G01*
X67709202Y-132895631D01*
G75*
G02*
X66780370Y-131829201I68799J997631D01*
G01*
G37*
%TD*%
%TO.C,S-E1*%
G36*
G01*
X88936294Y-130871719D02*
X89390284Y-129980713D01*
G75*
G02*
X90062782Y-129762205I445503J-226995D01*
G01*
X92201198Y-130851782D01*
G75*
G02*
X92419706Y-131524280I-226995J-445503D01*
G01*
X91965716Y-132415287D01*
G75*
G02*
X91293218Y-132633795I-445503J226995D01*
G01*
X89154802Y-131544218D01*
G75*
G02*
X88936294Y-130871720I226995J445503D01*
G01*
G37*
G36*
G01*
X94728668Y-131907224D02*
X95129368Y-132353810D01*
G75*
G02*
X95075833Y-133342311I-521018J-467483D01*
G01*
X95075833Y-133342311D01*
G75*
G02*
X94087332Y-133288776I-467483J521018D01*
G01*
X93686632Y-132842190D01*
G75*
G02*
X93740167Y-131853689I521018J467483D01*
G01*
X93740167Y-131853689D01*
G75*
G02*
X94728668Y-131907224I467483J-521018D01*
G01*
G37*
X84408000Y-132598000D03*
X89408000Y-130498000D03*
G36*
G01*
X92299280Y-131711043D02*
X93943188Y-133543208D01*
G75*
G02*
X93885828Y-134602316I-558234J-500874D01*
G01*
X93885828Y-134602316D01*
G75*
G02*
X92826720Y-134544956I-500874J558234D01*
G01*
X91182812Y-132712792D01*
G75*
G02*
X91240172Y-131653684I558234J500874D01*
G01*
X91240172Y-131653684D01*
G75*
G02*
X92299280Y-131711044I500874J-558234D01*
G01*
G37*
G36*
G01*
X85910369Y-131966799D02*
X85870370Y-131386799D01*
G75*
G02*
X86799202Y-130320369I997631J68799D01*
G01*
X86799202Y-130320369D01*
G75*
G02*
X87865632Y-131249201I68799J-997631D01*
G01*
X87905630Y-131829201D01*
G75*
G02*
X86976798Y-132895631I-997631J-68799D01*
G01*
X86976798Y-132895631D01*
G75*
G02*
X85910368Y-131966799I-68799J997631D01*
G01*
G37*
G36*
G01*
X87652307Y-133065828D02*
X86342317Y-134525837D01*
G75*
G02*
X84930172Y-134602316I-744312J667833D01*
G01*
X84930172Y-134602316D01*
G75*
G02*
X84853693Y-133190171I667833J744312D01*
G01*
X86163683Y-131730163D01*
G75*
G02*
X87575828Y-131653684I744312J-667833D01*
G01*
X87575828Y-131653684D01*
G75*
G02*
X87652307Y-133065829I-667833J-744312D01*
G01*
G37*
X86868000Y-131318000D03*
X86908000Y-131898000D03*
G36*
G01*
X92550167Y-133113688D02*
X92550168Y-133113688D01*
G75*
G02*
X93609276Y-133171048I500874J-558234D01*
G01*
X93943192Y-133543204D01*
G75*
G02*
X93885832Y-134602312I-558234J-500874D01*
G01*
X93885832Y-134602312D01*
G75*
G02*
X92826724Y-134544952I-500874J558234D01*
G01*
X92492808Y-134172796D01*
G75*
G02*
X92550168Y-133113688I558234J500874D01*
G01*
G37*
X91908000Y-132398000D03*
X85598000Y-133858000D03*
X86908000Y-132398000D03*
X91948000Y-131318000D03*
X91908000Y-131898000D03*
G36*
G01*
X90910370Y-131829201D02*
X90950368Y-131249201D01*
G75*
G02*
X92016798Y-130320369I997631J-68799D01*
G01*
X92016798Y-130320369D01*
G75*
G02*
X92945630Y-131386799I-68799J-997631D01*
G01*
X92905632Y-131966799D01*
G75*
G02*
X91839202Y-132895631I-997631J68799D01*
G01*
X91839202Y-132895631D01*
G75*
G02*
X90910370Y-131829201I68799J997631D01*
G01*
G37*
%TD*%
%TO.C,S-E2*%
G36*
G01*
X107732294Y-130871719D02*
X108186284Y-129980713D01*
G75*
G02*
X108858782Y-129762205I445503J-226995D01*
G01*
X110997198Y-130851782D01*
G75*
G02*
X111215706Y-131524280I-226995J-445503D01*
G01*
X110761716Y-132415287D01*
G75*
G02*
X110089218Y-132633795I-445503J226995D01*
G01*
X107950802Y-131544218D01*
G75*
G02*
X107732294Y-130871720I226995J445503D01*
G01*
G37*
G36*
G01*
X113524668Y-131907224D02*
X113925368Y-132353810D01*
G75*
G02*
X113871833Y-133342311I-521018J-467483D01*
G01*
X113871833Y-133342311D01*
G75*
G02*
X112883332Y-133288776I-467483J521018D01*
G01*
X112482632Y-132842190D01*
G75*
G02*
X112536167Y-131853689I521018J467483D01*
G01*
X112536167Y-131853689D01*
G75*
G02*
X113524668Y-131907224I467483J-521018D01*
G01*
G37*
X103204000Y-132598000D03*
X108204000Y-130498000D03*
G36*
G01*
X111095280Y-131711043D02*
X112739188Y-133543208D01*
G75*
G02*
X112681828Y-134602316I-558234J-500874D01*
G01*
X112681828Y-134602316D01*
G75*
G02*
X111622720Y-134544956I-500874J558234D01*
G01*
X109978812Y-132712792D01*
G75*
G02*
X110036172Y-131653684I558234J500874D01*
G01*
X110036172Y-131653684D01*
G75*
G02*
X111095280Y-131711044I500874J-558234D01*
G01*
G37*
G36*
G01*
X104706369Y-131966799D02*
X104666370Y-131386799D01*
G75*
G02*
X105595202Y-130320369I997631J68799D01*
G01*
X105595202Y-130320369D01*
G75*
G02*
X106661632Y-131249201I68799J-997631D01*
G01*
X106701630Y-131829201D01*
G75*
G02*
X105772798Y-132895631I-997631J-68799D01*
G01*
X105772798Y-132895631D01*
G75*
G02*
X104706368Y-131966799I-68799J997631D01*
G01*
G37*
G36*
G01*
X106448307Y-133065828D02*
X105138317Y-134525837D01*
G75*
G02*
X103726172Y-134602316I-744312J667833D01*
G01*
X103726172Y-134602316D01*
G75*
G02*
X103649693Y-133190171I667833J744312D01*
G01*
X104959683Y-131730163D01*
G75*
G02*
X106371828Y-131653684I744312J-667833D01*
G01*
X106371828Y-131653684D01*
G75*
G02*
X106448307Y-133065829I-667833J-744312D01*
G01*
G37*
X105664000Y-131318000D03*
X105704000Y-131898000D03*
G36*
G01*
X111346167Y-133113688D02*
X111346168Y-133113688D01*
G75*
G02*
X112405276Y-133171048I500874J-558234D01*
G01*
X112739192Y-133543204D01*
G75*
G02*
X112681832Y-134602312I-558234J-500874D01*
G01*
X112681832Y-134602312D01*
G75*
G02*
X111622724Y-134544952I-500874J558234D01*
G01*
X111288808Y-134172796D01*
G75*
G02*
X111346168Y-133113688I558234J500874D01*
G01*
G37*
X110704000Y-132398000D03*
X104394000Y-133858000D03*
X105704000Y-132398000D03*
X110744000Y-131318000D03*
X110704000Y-131898000D03*
G36*
G01*
X109706370Y-131829201D02*
X109746368Y-131249201D01*
G75*
G02*
X110812798Y-130320369I997631J-68799D01*
G01*
X110812798Y-130320369D01*
G75*
G02*
X111741630Y-131386799I-68799J-997631D01*
G01*
X111701632Y-131966799D01*
G75*
G02*
X110635202Y-132895631I-997631J68799D01*
G01*
X110635202Y-132895631D01*
G75*
G02*
X109706370Y-131829201I68799J997631D01*
G01*
G37*
%TD*%
%TO.C,S-E3*%
G36*
G01*
X126528294Y-130871719D02*
X126982284Y-129980713D01*
G75*
G02*
X127654782Y-129762205I445503J-226995D01*
G01*
X129793198Y-130851782D01*
G75*
G02*
X130011706Y-131524280I-226995J-445503D01*
G01*
X129557716Y-132415287D01*
G75*
G02*
X128885218Y-132633795I-445503J226995D01*
G01*
X126746802Y-131544218D01*
G75*
G02*
X126528294Y-130871720I226995J445503D01*
G01*
G37*
G36*
G01*
X132320668Y-131907224D02*
X132721368Y-132353810D01*
G75*
G02*
X132667833Y-133342311I-521018J-467483D01*
G01*
X132667833Y-133342311D01*
G75*
G02*
X131679332Y-133288776I-467483J521018D01*
G01*
X131278632Y-132842190D01*
G75*
G02*
X131332167Y-131853689I521018J467483D01*
G01*
X131332167Y-131853689D01*
G75*
G02*
X132320668Y-131907224I467483J-521018D01*
G01*
G37*
X122000000Y-132598000D03*
X127000000Y-130498000D03*
G36*
G01*
X129891280Y-131711043D02*
X131535188Y-133543208D01*
G75*
G02*
X131477828Y-134602316I-558234J-500874D01*
G01*
X131477828Y-134602316D01*
G75*
G02*
X130418720Y-134544956I-500874J558234D01*
G01*
X128774812Y-132712792D01*
G75*
G02*
X128832172Y-131653684I558234J500874D01*
G01*
X128832172Y-131653684D01*
G75*
G02*
X129891280Y-131711044I500874J-558234D01*
G01*
G37*
G36*
G01*
X123502369Y-131966799D02*
X123462370Y-131386799D01*
G75*
G02*
X124391202Y-130320369I997631J68799D01*
G01*
X124391202Y-130320369D01*
G75*
G02*
X125457632Y-131249201I68799J-997631D01*
G01*
X125497630Y-131829201D01*
G75*
G02*
X124568798Y-132895631I-997631J-68799D01*
G01*
X124568798Y-132895631D01*
G75*
G02*
X123502368Y-131966799I-68799J997631D01*
G01*
G37*
G36*
G01*
X125244307Y-133065828D02*
X123934317Y-134525837D01*
G75*
G02*
X122522172Y-134602316I-744312J667833D01*
G01*
X122522172Y-134602316D01*
G75*
G02*
X122445693Y-133190171I667833J744312D01*
G01*
X123755683Y-131730163D01*
G75*
G02*
X125167828Y-131653684I744312J-667833D01*
G01*
X125167828Y-131653684D01*
G75*
G02*
X125244307Y-133065829I-667833J-744312D01*
G01*
G37*
X124460000Y-131318000D03*
X124500000Y-131898000D03*
G36*
G01*
X130142167Y-133113688D02*
X130142168Y-133113688D01*
G75*
G02*
X131201276Y-133171048I500874J-558234D01*
G01*
X131535192Y-133543204D01*
G75*
G02*
X131477832Y-134602312I-558234J-500874D01*
G01*
X131477832Y-134602312D01*
G75*
G02*
X130418724Y-134544952I-500874J558234D01*
G01*
X130084808Y-134172796D01*
G75*
G02*
X130142168Y-133113688I558234J500874D01*
G01*
G37*
X129500000Y-132398000D03*
X123190000Y-133858000D03*
X124500000Y-132398000D03*
X129540000Y-131318000D03*
X129500000Y-131898000D03*
G36*
G01*
X128502370Y-131829201D02*
X128542368Y-131249201D01*
G75*
G02*
X129608798Y-130320369I997631J-68799D01*
G01*
X129608798Y-130320369D01*
G75*
G02*
X130537630Y-131386799I-68799J-997631D01*
G01*
X130497632Y-131966799D01*
G75*
G02*
X129431202Y-132895631I-997631J68799D01*
G01*
X129431202Y-132895631D01*
G75*
G02*
X128502370Y-131829201I68799J997631D01*
G01*
G37*
%TD*%
%TO.C,S-E4*%
G36*
G01*
X145324294Y-130871719D02*
X145778284Y-129980713D01*
G75*
G02*
X146450782Y-129762205I445503J-226995D01*
G01*
X148589198Y-130851782D01*
G75*
G02*
X148807706Y-131524280I-226995J-445503D01*
G01*
X148353716Y-132415287D01*
G75*
G02*
X147681218Y-132633795I-445503J226995D01*
G01*
X145542802Y-131544218D01*
G75*
G02*
X145324294Y-130871720I226995J445503D01*
G01*
G37*
G36*
G01*
X151116668Y-131907224D02*
X151517368Y-132353810D01*
G75*
G02*
X151463833Y-133342311I-521018J-467483D01*
G01*
X151463833Y-133342311D01*
G75*
G02*
X150475332Y-133288776I-467483J521018D01*
G01*
X150074632Y-132842190D01*
G75*
G02*
X150128167Y-131853689I521018J467483D01*
G01*
X150128167Y-131853689D01*
G75*
G02*
X151116668Y-131907224I467483J-521018D01*
G01*
G37*
X140796000Y-132598000D03*
X145796000Y-130498000D03*
G36*
G01*
X148687280Y-131711043D02*
X150331188Y-133543208D01*
G75*
G02*
X150273828Y-134602316I-558234J-500874D01*
G01*
X150273828Y-134602316D01*
G75*
G02*
X149214720Y-134544956I-500874J558234D01*
G01*
X147570812Y-132712792D01*
G75*
G02*
X147628172Y-131653684I558234J500874D01*
G01*
X147628172Y-131653684D01*
G75*
G02*
X148687280Y-131711044I500874J-558234D01*
G01*
G37*
G36*
G01*
X142298369Y-131966799D02*
X142258370Y-131386799D01*
G75*
G02*
X143187202Y-130320369I997631J68799D01*
G01*
X143187202Y-130320369D01*
G75*
G02*
X144253632Y-131249201I68799J-997631D01*
G01*
X144293630Y-131829201D01*
G75*
G02*
X143364798Y-132895631I-997631J-68799D01*
G01*
X143364798Y-132895631D01*
G75*
G02*
X142298368Y-131966799I-68799J997631D01*
G01*
G37*
G36*
G01*
X144040307Y-133065828D02*
X142730317Y-134525837D01*
G75*
G02*
X141318172Y-134602316I-744312J667833D01*
G01*
X141318172Y-134602316D01*
G75*
G02*
X141241693Y-133190171I667833J744312D01*
G01*
X142551683Y-131730163D01*
G75*
G02*
X143963828Y-131653684I744312J-667833D01*
G01*
X143963828Y-131653684D01*
G75*
G02*
X144040307Y-133065829I-667833J-744312D01*
G01*
G37*
X143256000Y-131318000D03*
X143296000Y-131898000D03*
G36*
G01*
X148938167Y-133113688D02*
X148938168Y-133113688D01*
G75*
G02*
X149997276Y-133171048I500874J-558234D01*
G01*
X150331192Y-133543204D01*
G75*
G02*
X150273832Y-134602312I-558234J-500874D01*
G01*
X150273832Y-134602312D01*
G75*
G02*
X149214724Y-134544952I-500874J558234D01*
G01*
X148880808Y-134172796D01*
G75*
G02*
X148938168Y-133113688I558234J500874D01*
G01*
G37*
X148296000Y-132398000D03*
X141986000Y-133858000D03*
X143296000Y-132398000D03*
X148336000Y-131318000D03*
X148296000Y-131898000D03*
G36*
G01*
X147298370Y-131829201D02*
X147338368Y-131249201D01*
G75*
G02*
X148404798Y-130320369I997631J-68799D01*
G01*
X148404798Y-130320369D01*
G75*
G02*
X149333630Y-131386799I-68799J-997631D01*
G01*
X149293632Y-131966799D01*
G75*
G02*
X148227202Y-132895631I-997631J68799D01*
G01*
X148227202Y-132895631D01*
G75*
G02*
X147298370Y-131829201I68799J997631D01*
G01*
G37*
%TD*%
%TO.C,S-E5*%
G36*
G01*
X164120294Y-130871719D02*
X164574284Y-129980713D01*
G75*
G02*
X165246782Y-129762205I445503J-226995D01*
G01*
X167385198Y-130851782D01*
G75*
G02*
X167603706Y-131524280I-226995J-445503D01*
G01*
X167149716Y-132415287D01*
G75*
G02*
X166477218Y-132633795I-445503J226995D01*
G01*
X164338802Y-131544218D01*
G75*
G02*
X164120294Y-130871720I226995J445503D01*
G01*
G37*
G36*
G01*
X169912668Y-131907224D02*
X170313368Y-132353810D01*
G75*
G02*
X170259833Y-133342311I-521018J-467483D01*
G01*
X170259833Y-133342311D01*
G75*
G02*
X169271332Y-133288776I-467483J521018D01*
G01*
X168870632Y-132842190D01*
G75*
G02*
X168924167Y-131853689I521018J467483D01*
G01*
X168924167Y-131853689D01*
G75*
G02*
X169912668Y-131907224I467483J-521018D01*
G01*
G37*
X159592000Y-132598000D03*
X164592000Y-130498000D03*
G36*
G01*
X167483280Y-131711043D02*
X169127188Y-133543208D01*
G75*
G02*
X169069828Y-134602316I-558234J-500874D01*
G01*
X169069828Y-134602316D01*
G75*
G02*
X168010720Y-134544956I-500874J558234D01*
G01*
X166366812Y-132712792D01*
G75*
G02*
X166424172Y-131653684I558234J500874D01*
G01*
X166424172Y-131653684D01*
G75*
G02*
X167483280Y-131711044I500874J-558234D01*
G01*
G37*
G36*
G01*
X161094369Y-131966799D02*
X161054370Y-131386799D01*
G75*
G02*
X161983202Y-130320369I997631J68799D01*
G01*
X161983202Y-130320369D01*
G75*
G02*
X163049632Y-131249201I68799J-997631D01*
G01*
X163089630Y-131829201D01*
G75*
G02*
X162160798Y-132895631I-997631J-68799D01*
G01*
X162160798Y-132895631D01*
G75*
G02*
X161094368Y-131966799I-68799J997631D01*
G01*
G37*
G36*
G01*
X162836307Y-133065828D02*
X161526317Y-134525837D01*
G75*
G02*
X160114172Y-134602316I-744312J667833D01*
G01*
X160114172Y-134602316D01*
G75*
G02*
X160037693Y-133190171I667833J744312D01*
G01*
X161347683Y-131730163D01*
G75*
G02*
X162759828Y-131653684I744312J-667833D01*
G01*
X162759828Y-131653684D01*
G75*
G02*
X162836307Y-133065829I-667833J-744312D01*
G01*
G37*
X162052000Y-131318000D03*
X162092000Y-131898000D03*
G36*
G01*
X167734167Y-133113688D02*
X167734168Y-133113688D01*
G75*
G02*
X168793276Y-133171048I500874J-558234D01*
G01*
X169127192Y-133543204D01*
G75*
G02*
X169069832Y-134602312I-558234J-500874D01*
G01*
X169069832Y-134602312D01*
G75*
G02*
X168010724Y-134544952I-500874J558234D01*
G01*
X167676808Y-134172796D01*
G75*
G02*
X167734168Y-133113688I558234J500874D01*
G01*
G37*
X167092000Y-132398000D03*
X160782000Y-133858000D03*
X162092000Y-132398000D03*
X167132000Y-131318000D03*
X167092000Y-131898000D03*
G36*
G01*
X166094370Y-131829201D02*
X166134368Y-131249201D01*
G75*
G02*
X167200798Y-130320369I997631J-68799D01*
G01*
X167200798Y-130320369D01*
G75*
G02*
X168129630Y-131386799I-68799J-997631D01*
G01*
X168089632Y-131966799D01*
G75*
G02*
X167023202Y-132895631I-997631J68799D01*
G01*
X167023202Y-132895631D01*
G75*
G02*
X166094370Y-131829201I68799J997631D01*
G01*
G37*
%TD*%
%TO.C,S-E8*%
G36*
G01*
X220508294Y-130871719D02*
X220962284Y-129980713D01*
G75*
G02*
X221634782Y-129762205I445503J-226995D01*
G01*
X223773198Y-130851782D01*
G75*
G02*
X223991706Y-131524280I-226995J-445503D01*
G01*
X223537716Y-132415287D01*
G75*
G02*
X222865218Y-132633795I-445503J226995D01*
G01*
X220726802Y-131544218D01*
G75*
G02*
X220508294Y-130871720I226995J445503D01*
G01*
G37*
G36*
G01*
X226300668Y-131907224D02*
X226701368Y-132353810D01*
G75*
G02*
X226647833Y-133342311I-521018J-467483D01*
G01*
X226647833Y-133342311D01*
G75*
G02*
X225659332Y-133288776I-467483J521018D01*
G01*
X225258632Y-132842190D01*
G75*
G02*
X225312167Y-131853689I521018J467483D01*
G01*
X225312167Y-131853689D01*
G75*
G02*
X226300668Y-131907224I467483J-521018D01*
G01*
G37*
X215980000Y-132598000D03*
X220980000Y-130498000D03*
G36*
G01*
X223871280Y-131711043D02*
X225515188Y-133543208D01*
G75*
G02*
X225457828Y-134602316I-558234J-500874D01*
G01*
X225457828Y-134602316D01*
G75*
G02*
X224398720Y-134544956I-500874J558234D01*
G01*
X222754812Y-132712792D01*
G75*
G02*
X222812172Y-131653684I558234J500874D01*
G01*
X222812172Y-131653684D01*
G75*
G02*
X223871280Y-131711044I500874J-558234D01*
G01*
G37*
G36*
G01*
X217482369Y-131966799D02*
X217442370Y-131386799D01*
G75*
G02*
X218371202Y-130320369I997631J68799D01*
G01*
X218371202Y-130320369D01*
G75*
G02*
X219437632Y-131249201I68799J-997631D01*
G01*
X219477630Y-131829201D01*
G75*
G02*
X218548798Y-132895631I-997631J-68799D01*
G01*
X218548798Y-132895631D01*
G75*
G02*
X217482368Y-131966799I-68799J997631D01*
G01*
G37*
G36*
G01*
X219224307Y-133065828D02*
X217914317Y-134525837D01*
G75*
G02*
X216502172Y-134602316I-744312J667833D01*
G01*
X216502172Y-134602316D01*
G75*
G02*
X216425693Y-133190171I667833J744312D01*
G01*
X217735683Y-131730163D01*
G75*
G02*
X219147828Y-131653684I744312J-667833D01*
G01*
X219147828Y-131653684D01*
G75*
G02*
X219224307Y-133065829I-667833J-744312D01*
G01*
G37*
X218440000Y-131318000D03*
X218480000Y-131898000D03*
G36*
G01*
X224122167Y-133113688D02*
X224122168Y-133113688D01*
G75*
G02*
X225181276Y-133171048I500874J-558234D01*
G01*
X225515192Y-133543204D01*
G75*
G02*
X225457832Y-134602312I-558234J-500874D01*
G01*
X225457832Y-134602312D01*
G75*
G02*
X224398724Y-134544952I-500874J558234D01*
G01*
X224064808Y-134172796D01*
G75*
G02*
X224122168Y-133113688I558234J500874D01*
G01*
G37*
X223480000Y-132398000D03*
X217170000Y-133858000D03*
X218480000Y-132398000D03*
X223520000Y-131318000D03*
X223480000Y-131898000D03*
G36*
G01*
X222482370Y-131829201D02*
X222522368Y-131249201D01*
G75*
G02*
X223588798Y-130320369I997631J-68799D01*
G01*
X223588798Y-130320369D01*
G75*
G02*
X224517630Y-131386799I-68799J-997631D01*
G01*
X224477632Y-131966799D01*
G75*
G02*
X223411202Y-132895631I-997631J68799D01*
G01*
X223411202Y-132895631D01*
G75*
G02*
X222482370Y-131829201I68799J997631D01*
G01*
G37*
%TD*%
%TO.C,S-E9*%
G36*
G01*
X239304294Y-130871719D02*
X239758284Y-129980713D01*
G75*
G02*
X240430782Y-129762205I445503J-226995D01*
G01*
X242569198Y-130851782D01*
G75*
G02*
X242787706Y-131524280I-226995J-445503D01*
G01*
X242333716Y-132415287D01*
G75*
G02*
X241661218Y-132633795I-445503J226995D01*
G01*
X239522802Y-131544218D01*
G75*
G02*
X239304294Y-130871720I226995J445503D01*
G01*
G37*
G36*
G01*
X245096668Y-131907224D02*
X245497368Y-132353810D01*
G75*
G02*
X245443833Y-133342311I-521018J-467483D01*
G01*
X245443833Y-133342311D01*
G75*
G02*
X244455332Y-133288776I-467483J521018D01*
G01*
X244054632Y-132842190D01*
G75*
G02*
X244108167Y-131853689I521018J467483D01*
G01*
X244108167Y-131853689D01*
G75*
G02*
X245096668Y-131907224I467483J-521018D01*
G01*
G37*
X234776000Y-132598000D03*
X239776000Y-130498000D03*
G36*
G01*
X242667280Y-131711043D02*
X244311188Y-133543208D01*
G75*
G02*
X244253828Y-134602316I-558234J-500874D01*
G01*
X244253828Y-134602316D01*
G75*
G02*
X243194720Y-134544956I-500874J558234D01*
G01*
X241550812Y-132712792D01*
G75*
G02*
X241608172Y-131653684I558234J500874D01*
G01*
X241608172Y-131653684D01*
G75*
G02*
X242667280Y-131711044I500874J-558234D01*
G01*
G37*
G36*
G01*
X236278369Y-131966799D02*
X236238370Y-131386799D01*
G75*
G02*
X237167202Y-130320369I997631J68799D01*
G01*
X237167202Y-130320369D01*
G75*
G02*
X238233632Y-131249201I68799J-997631D01*
G01*
X238273630Y-131829201D01*
G75*
G02*
X237344798Y-132895631I-997631J-68799D01*
G01*
X237344798Y-132895631D01*
G75*
G02*
X236278368Y-131966799I-68799J997631D01*
G01*
G37*
G36*
G01*
X238020307Y-133065828D02*
X236710317Y-134525837D01*
G75*
G02*
X235298172Y-134602316I-744312J667833D01*
G01*
X235298172Y-134602316D01*
G75*
G02*
X235221693Y-133190171I667833J744312D01*
G01*
X236531683Y-131730163D01*
G75*
G02*
X237943828Y-131653684I744312J-667833D01*
G01*
X237943828Y-131653684D01*
G75*
G02*
X238020307Y-133065829I-667833J-744312D01*
G01*
G37*
X237236000Y-131318000D03*
X237276000Y-131898000D03*
G36*
G01*
X242918167Y-133113688D02*
X242918168Y-133113688D01*
G75*
G02*
X243977276Y-133171048I500874J-558234D01*
G01*
X244311192Y-133543204D01*
G75*
G02*
X244253832Y-134602312I-558234J-500874D01*
G01*
X244253832Y-134602312D01*
G75*
G02*
X243194724Y-134544952I-500874J558234D01*
G01*
X242860808Y-134172796D01*
G75*
G02*
X242918168Y-133113688I558234J500874D01*
G01*
G37*
X242276000Y-132398000D03*
X235966000Y-133858000D03*
X237276000Y-132398000D03*
X242316000Y-131318000D03*
X242276000Y-131898000D03*
G36*
G01*
X241278370Y-131829201D02*
X241318368Y-131249201D01*
G75*
G02*
X242384798Y-130320369I997631J-68799D01*
G01*
X242384798Y-130320369D01*
G75*
G02*
X243313630Y-131386799I-68799J-997631D01*
G01*
X243273632Y-131966799D01*
G75*
G02*
X242207202Y-132895631I-997631J68799D01*
G01*
X242207202Y-132895631D01*
G75*
G02*
X241278370Y-131829201I68799J997631D01*
G01*
G37*
%TD*%
%TO.C,S-E10*%
G36*
G01*
X258100294Y-130871719D02*
X258554284Y-129980713D01*
G75*
G02*
X259226782Y-129762205I445503J-226995D01*
G01*
X261365198Y-130851782D01*
G75*
G02*
X261583706Y-131524280I-226995J-445503D01*
G01*
X261129716Y-132415287D01*
G75*
G02*
X260457218Y-132633795I-445503J226995D01*
G01*
X258318802Y-131544218D01*
G75*
G02*
X258100294Y-130871720I226995J445503D01*
G01*
G37*
G36*
G01*
X263892668Y-131907224D02*
X264293368Y-132353810D01*
G75*
G02*
X264239833Y-133342311I-521018J-467483D01*
G01*
X264239833Y-133342311D01*
G75*
G02*
X263251332Y-133288776I-467483J521018D01*
G01*
X262850632Y-132842190D01*
G75*
G02*
X262904167Y-131853689I521018J467483D01*
G01*
X262904167Y-131853689D01*
G75*
G02*
X263892668Y-131907224I467483J-521018D01*
G01*
G37*
X253572000Y-132598000D03*
X258572000Y-130498000D03*
G36*
G01*
X261463280Y-131711043D02*
X263107188Y-133543208D01*
G75*
G02*
X263049828Y-134602316I-558234J-500874D01*
G01*
X263049828Y-134602316D01*
G75*
G02*
X261990720Y-134544956I-500874J558234D01*
G01*
X260346812Y-132712792D01*
G75*
G02*
X260404172Y-131653684I558234J500874D01*
G01*
X260404172Y-131653684D01*
G75*
G02*
X261463280Y-131711044I500874J-558234D01*
G01*
G37*
G36*
G01*
X255074369Y-131966799D02*
X255034370Y-131386799D01*
G75*
G02*
X255963202Y-130320369I997631J68799D01*
G01*
X255963202Y-130320369D01*
G75*
G02*
X257029632Y-131249201I68799J-997631D01*
G01*
X257069630Y-131829201D01*
G75*
G02*
X256140798Y-132895631I-997631J-68799D01*
G01*
X256140798Y-132895631D01*
G75*
G02*
X255074368Y-131966799I-68799J997631D01*
G01*
G37*
G36*
G01*
X256816307Y-133065828D02*
X255506317Y-134525837D01*
G75*
G02*
X254094172Y-134602316I-744312J667833D01*
G01*
X254094172Y-134602316D01*
G75*
G02*
X254017693Y-133190171I667833J744312D01*
G01*
X255327683Y-131730163D01*
G75*
G02*
X256739828Y-131653684I744312J-667833D01*
G01*
X256739828Y-131653684D01*
G75*
G02*
X256816307Y-133065829I-667833J-744312D01*
G01*
G37*
X256032000Y-131318000D03*
X256072000Y-131898000D03*
G36*
G01*
X261714167Y-133113688D02*
X261714168Y-133113688D01*
G75*
G02*
X262773276Y-133171048I500874J-558234D01*
G01*
X263107192Y-133543204D01*
G75*
G02*
X263049832Y-134602312I-558234J-500874D01*
G01*
X263049832Y-134602312D01*
G75*
G02*
X261990724Y-134544952I-500874J558234D01*
G01*
X261656808Y-134172796D01*
G75*
G02*
X261714168Y-133113688I558234J500874D01*
G01*
G37*
X261072000Y-132398000D03*
X254762000Y-133858000D03*
X256072000Y-132398000D03*
X261112000Y-131318000D03*
X261072000Y-131898000D03*
G36*
G01*
X260074370Y-131829201D02*
X260114368Y-131249201D01*
G75*
G02*
X261180798Y-130320369I997631J-68799D01*
G01*
X261180798Y-130320369D01*
G75*
G02*
X262109630Y-131386799I-68799J-997631D01*
G01*
X262069632Y-131966799D01*
G75*
G02*
X261003202Y-132895631I-997631J68799D01*
G01*
X261003202Y-132895631D01*
G75*
G02*
X260074370Y-131829201I68799J997631D01*
G01*
G37*
%TD*%
%TO.C,S-E11*%
G36*
G01*
X276896294Y-130871719D02*
X277350284Y-129980713D01*
G75*
G02*
X278022782Y-129762205I445503J-226995D01*
G01*
X280161198Y-130851782D01*
G75*
G02*
X280379706Y-131524280I-226995J-445503D01*
G01*
X279925716Y-132415287D01*
G75*
G02*
X279253218Y-132633795I-445503J226995D01*
G01*
X277114802Y-131544218D01*
G75*
G02*
X276896294Y-130871720I226995J445503D01*
G01*
G37*
G36*
G01*
X282688668Y-131907224D02*
X283089368Y-132353810D01*
G75*
G02*
X283035833Y-133342311I-521018J-467483D01*
G01*
X283035833Y-133342311D01*
G75*
G02*
X282047332Y-133288776I-467483J521018D01*
G01*
X281646632Y-132842190D01*
G75*
G02*
X281700167Y-131853689I521018J467483D01*
G01*
X281700167Y-131853689D01*
G75*
G02*
X282688668Y-131907224I467483J-521018D01*
G01*
G37*
X272368000Y-132598000D03*
X277368000Y-130498000D03*
G36*
G01*
X280259280Y-131711043D02*
X281903188Y-133543208D01*
G75*
G02*
X281845828Y-134602316I-558234J-500874D01*
G01*
X281845828Y-134602316D01*
G75*
G02*
X280786720Y-134544956I-500874J558234D01*
G01*
X279142812Y-132712792D01*
G75*
G02*
X279200172Y-131653684I558234J500874D01*
G01*
X279200172Y-131653684D01*
G75*
G02*
X280259280Y-131711044I500874J-558234D01*
G01*
G37*
G36*
G01*
X273870369Y-131966799D02*
X273830370Y-131386799D01*
G75*
G02*
X274759202Y-130320369I997631J68799D01*
G01*
X274759202Y-130320369D01*
G75*
G02*
X275825632Y-131249201I68799J-997631D01*
G01*
X275865630Y-131829201D01*
G75*
G02*
X274936798Y-132895631I-997631J-68799D01*
G01*
X274936798Y-132895631D01*
G75*
G02*
X273870368Y-131966799I-68799J997631D01*
G01*
G37*
G36*
G01*
X275612307Y-133065828D02*
X274302317Y-134525837D01*
G75*
G02*
X272890172Y-134602316I-744312J667833D01*
G01*
X272890172Y-134602316D01*
G75*
G02*
X272813693Y-133190171I667833J744312D01*
G01*
X274123683Y-131730163D01*
G75*
G02*
X275535828Y-131653684I744312J-667833D01*
G01*
X275535828Y-131653684D01*
G75*
G02*
X275612307Y-133065829I-667833J-744312D01*
G01*
G37*
X274828000Y-131318000D03*
X274868000Y-131898000D03*
G36*
G01*
X280510167Y-133113688D02*
X280510168Y-133113688D01*
G75*
G02*
X281569276Y-133171048I500874J-558234D01*
G01*
X281903192Y-133543204D01*
G75*
G02*
X281845832Y-134602312I-558234J-500874D01*
G01*
X281845832Y-134602312D01*
G75*
G02*
X280786724Y-134544952I-500874J558234D01*
G01*
X280452808Y-134172796D01*
G75*
G02*
X280510168Y-133113688I558234J500874D01*
G01*
G37*
X279868000Y-132398000D03*
X273558000Y-133858000D03*
X274868000Y-132398000D03*
X279908000Y-131318000D03*
X279868000Y-131898000D03*
G36*
G01*
X278870370Y-131829201D02*
X278910368Y-131249201D01*
G75*
G02*
X279976798Y-130320369I997631J-68799D01*
G01*
X279976798Y-130320369D01*
G75*
G02*
X280905630Y-131386799I-68799J-997631D01*
G01*
X280865632Y-131966799D01*
G75*
G02*
X279799202Y-132895631I-997631J68799D01*
G01*
X279799202Y-132895631D01*
G75*
G02*
X278870370Y-131829201I68799J997631D01*
G01*
G37*
%TD*%
D15*
%TO.C,D-B5*%
X173990000Y-83820000D03*
D16*
X173990000Y-76200000D03*
%TD*%
D15*
%TO.C,D-B8*%
X230378000Y-83820000D03*
D16*
X230378000Y-76200000D03*
%TD*%
D15*
%TO.C,D-B7*%
X211582000Y-83820000D03*
D16*
X211582000Y-76200000D03*
%TD*%
D15*
%TO.C,D-B6*%
X192786000Y-83820000D03*
D16*
X192786000Y-76200000D03*
%TD*%
D15*
%TO.C,D-E12*%
X286766000Y-139700000D03*
D16*
X286766000Y-132080000D03*
%TD*%
D15*
%TO.C,D-E11*%
X267970000Y-139700000D03*
D16*
X267970000Y-132080000D03*
%TD*%
D15*
%TO.C,D-E10*%
X249174000Y-139700000D03*
D16*
X249174000Y-132080000D03*
%TD*%
D15*
%TO.C,D-E9*%
X230378000Y-139700000D03*
D16*
X230378000Y-132080000D03*
%TD*%
D15*
%TO.C,D-E6*%
X173990000Y-139700000D03*
D16*
X173990000Y-132080000D03*
%TD*%
D15*
%TO.C,D-E5*%
X155194000Y-139700000D03*
D16*
X155194000Y-132080000D03*
%TD*%
D15*
%TO.C,D-E4*%
X136398000Y-139700000D03*
D16*
X136398000Y-132080000D03*
%TD*%
D15*
%TO.C,D-E3*%
X117856000Y-139700000D03*
D16*
X117856000Y-132080000D03*
%TD*%
D15*
%TO.C,D-E2*%
X98806000Y-139954000D03*
D16*
X98806000Y-132334000D03*
%TD*%
D15*
%TO.C,D-D12*%
X286766000Y-121412000D03*
D16*
X286766000Y-113792000D03*
%TD*%
D15*
%TO.C,D-D11*%
X267970000Y-121412000D03*
D16*
X267970000Y-113792000D03*
%TD*%
D15*
%TO.C,D-D10*%
X249174000Y-121412000D03*
D16*
X249174000Y-113792000D03*
%TD*%
D15*
%TO.C,D-D9*%
X230378000Y-121412000D03*
D16*
X230378000Y-113792000D03*
%TD*%
D15*
%TO.C,D-D8*%
X211836000Y-121412000D03*
D16*
X211836000Y-113792000D03*
%TD*%
D15*
%TO.C,D-D7*%
X192786000Y-121412000D03*
D16*
X192786000Y-113792000D03*
%TD*%
D15*
%TO.C,D-D6*%
X173990000Y-121412000D03*
D16*
X173990000Y-113792000D03*
%TD*%
D15*
%TO.C,D-D5*%
X155194000Y-121412000D03*
D16*
X155194000Y-113792000D03*
%TD*%
D15*
%TO.C,D-C11*%
X268224000Y-102616000D03*
D16*
X268224000Y-94996000D03*
%TD*%
D15*
%TO.C,D-C10*%
X249174000Y-102616000D03*
D16*
X249174000Y-94996000D03*
%TD*%
D15*
%TO.C,D-C9*%
X230378000Y-102616000D03*
D16*
X230378000Y-94996000D03*
%TD*%
D15*
%TO.C,D-C8*%
X211582000Y-102616000D03*
D16*
X211582000Y-94996000D03*
%TD*%
D15*
%TO.C,D-C7*%
X192786000Y-102616000D03*
D16*
X192786000Y-94996000D03*
%TD*%
D15*
%TO.C,D-C6*%
X173990000Y-102616000D03*
D16*
X173990000Y-94996000D03*
%TD*%
D15*
%TO.C,D-C5*%
X155194000Y-102616000D03*
D16*
X155194000Y-94996000D03*
%TD*%
D15*
%TO.C,D-B10*%
X267970000Y-83820000D03*
D16*
X267970000Y-76200000D03*
%TD*%
D15*
%TO.C,D-B9*%
X249174000Y-83820000D03*
D16*
X249174000Y-76200000D03*
%TD*%
D15*
%TO.C,D-B0*%
X80010000Y-83566000D03*
D16*
X80010000Y-75946000D03*
%TD*%
D15*
%TO.C,D-A0*%
X80010000Y-64770000D03*
D16*
X80010000Y-57150000D03*
%TD*%
D17*
%TO.C,H10*%
X99060000Y-126492000D03*
%TD*%
%TO.C,H5*%
X286766000Y-70612000D03*
%TD*%
%TO.C,H4*%
X211582000Y-127000000D03*
%TD*%
%TO.C,H3*%
X211582000Y-70612000D03*
%TD*%
%TO.C,H2*%
X98806000Y-70612000D03*
%TD*%
%TO.C,H1*%
X155194000Y-70358000D03*
%TD*%
D15*
%TO.C,D-D1*%
X80010000Y-121412000D03*
D16*
X80010000Y-113792000D03*
%TD*%
D15*
%TO.C,D-C1*%
X80010000Y-102362000D03*
D16*
X80010000Y-94742000D03*
%TD*%
D15*
%TO.C,D-E8*%
X211582000Y-139700000D03*
D16*
X211582000Y-132080000D03*
%TD*%
D18*
%TO.C,U1*%
X70104000Y-85217000D03*
X67564000Y-85217000D03*
X65024000Y-85217000D03*
X62484000Y-85217000D03*
X59944000Y-85217000D03*
D19*
X74422000Y-55372000D03*
X74422000Y-57912000D03*
X74422000Y-60452000D03*
X74422000Y-62992000D03*
X74422000Y-65532000D03*
X74422000Y-68072000D03*
X74422000Y-70612000D03*
X74422000Y-73152000D03*
X74422000Y-75692000D03*
X74422000Y-78232000D03*
X74422000Y-80772000D03*
X74422000Y-83312000D03*
X55626000Y-83312000D03*
X55626000Y-80772000D03*
X55626000Y-78232000D03*
X55626000Y-75692000D03*
X55626000Y-73152000D03*
X55626000Y-70612000D03*
X55626000Y-68072000D03*
X55626000Y-65532000D03*
X55626000Y-62992000D03*
X55626000Y-60452000D03*
X55626000Y-57912000D03*
X55626000Y-55372000D03*
D20*
X59944000Y-83312000D03*
X62484000Y-83312000D03*
X65024000Y-83312000D03*
X67564000Y-83312000D03*
X70104000Y-83312000D03*
X72644000Y-55372000D03*
X57632600Y-83312000D03*
X72644000Y-57912000D03*
X72644000Y-60452000D03*
X72644000Y-62992000D03*
X72644000Y-65532000D03*
X72644000Y-68072000D03*
X72644000Y-70612000D03*
X72644000Y-73152000D03*
X72644000Y-75692000D03*
X72644000Y-78232000D03*
X72644000Y-80772000D03*
X72644000Y-83312000D03*
X57404000Y-80772000D03*
X57404000Y-78232000D03*
X57404000Y-75692000D03*
X57404000Y-73152000D03*
X57404000Y-70612000D03*
X57404000Y-68072000D03*
X57404000Y-65532000D03*
X57404000Y-62992000D03*
X57404000Y-60452000D03*
X57404000Y-57912000D03*
D21*
X57404000Y-55372000D03*
%TD*%
D15*
%TO.C,D-C12*%
X286766000Y-102616000D03*
D16*
X286766000Y-94996000D03*
%TD*%
D15*
%TO.C,D-B11*%
X286766000Y-83820000D03*
D16*
X286766000Y-76200000D03*
%TD*%
D15*
%TO.C,D-A11*%
X286766000Y-64770000D03*
D16*
X286766000Y-57150000D03*
%TD*%
D17*
%TO.C,H13*%
X76962000Y-127000000D03*
%TD*%
D15*
%TO.C,D-E1*%
X79756000Y-139700000D03*
D16*
X79756000Y-132080000D03*
%TD*%
D17*
%TO.C,H12*%
X286512000Y-127000000D03*
%TD*%
%TO.C,H11*%
X155448000Y-127000000D03*
%TD*%
D15*
%TO.C,D-B4*%
X155194000Y-83820000D03*
D16*
X155194000Y-76200000D03*
%TD*%
D15*
%TO.C,D-A10*%
X267970000Y-64770000D03*
D16*
X267970000Y-57150000D03*
%TD*%
D15*
%TO.C,D-A9*%
X249174000Y-64770000D03*
D16*
X249174000Y-57150000D03*
%TD*%
D15*
%TO.C,D-A8*%
X230378000Y-64770000D03*
D16*
X230378000Y-57150000D03*
%TD*%
D15*
%TO.C,D-A7*%
X211582000Y-64770000D03*
D16*
X211582000Y-57150000D03*
%TD*%
D15*
%TO.C,D-A6*%
X192786000Y-64770000D03*
D16*
X192786000Y-57150000D03*
%TD*%
D15*
%TO.C,D-A5*%
X173990000Y-64770000D03*
D16*
X173990000Y-57150000D03*
%TD*%
D15*
%TO.C,D-A4*%
X155194000Y-64770000D03*
D16*
X155194000Y-57150000D03*
%TD*%
D15*
%TO.C,D-D4*%
X136398000Y-121412000D03*
D16*
X136398000Y-113792000D03*
%TD*%
D15*
%TO.C,D-D3*%
X117602000Y-121412000D03*
D16*
X117602000Y-113792000D03*
%TD*%
D15*
%TO.C,D-D2*%
X98806000Y-121412000D03*
D16*
X98806000Y-113792000D03*
%TD*%
D15*
%TO.C,D-C4*%
X136398000Y-102616000D03*
D16*
X136398000Y-94996000D03*
%TD*%
D15*
%TO.C,D-C3*%
X117602000Y-102616000D03*
D16*
X117602000Y-94996000D03*
%TD*%
D15*
%TO.C,D-C2*%
X98806000Y-102616000D03*
D16*
X98806000Y-94996000D03*
%TD*%
D15*
%TO.C,D-B3*%
X136398000Y-83820000D03*
D16*
X136398000Y-76200000D03*
%TD*%
D15*
%TO.C,D-B2*%
X117602000Y-83820000D03*
D16*
X117602000Y-76200000D03*
%TD*%
D15*
%TO.C,D-B1*%
X98806000Y-83820000D03*
D16*
X98806000Y-76200000D03*
%TD*%
D15*
%TO.C,D-A3*%
X136398000Y-64770000D03*
D16*
X136398000Y-57150000D03*
%TD*%
D15*
%TO.C,D-A2*%
X117602000Y-64770000D03*
D16*
X117602000Y-57150000D03*
%TD*%
D15*
%TO.C,D-A1*%
X98806000Y-64770000D03*
D16*
X98806000Y-57150000D03*
%TD*%
D15*
%TO.C,D-E0*%
X55880000Y-139700000D03*
D16*
X55880000Y-132080000D03*
%TD*%
D15*
%TO.C,D-D0*%
X55880000Y-121666000D03*
D16*
X55880000Y-114046000D03*
%TD*%
D15*
%TO.C,D-C0*%
X55880000Y-102616000D03*
D16*
X55880000Y-94996000D03*
%TD*%
M02*
