M48
; DRILL file {KiCad (5.1.6-0-10_14)} date Saturday, April 03, 2021 at 03:29:24 PM
; FORMAT={-:-/ absolute / inch / decimal}
; #@! TF.CreationDate,2021-04-03T15:29:24+02:00
; #@! TF.GenerationSoftware,Kicad,Pcbnew,(5.1.6-0-10_14)
FMAT,2
INCH
T1C0.0157
T2C0.0315
T3C0.0430
T4C0.0472
T5C0.0551
T6C0.0669
T7C0.0709
T8C0.1200
T9C0.1570
T10C0.0669
T11C0.0709
T12C0.1260
T13C0.1570
%
G90
G05
T1
X2.18Y-3.57
X2.21Y-4.91
X2.23Y-3.61
X2.26Y-4.91
X2.31Y-4.91
X2.35Y-4.21
X2.35Y-5.55
X2.35Y-5.5894
X2.35Y-5.63
X2.36Y-3.5585
X2.38Y-4.04
X2.38Y-4.1
X2.4Y-4.2385
X2.4352Y-4.2568
X2.45Y-3.5785
X2.468Y-4.2786
X2.5Y-4.3015
X2.56Y-4.31
X2.99Y-3.67
X3.15Y-3.51
X3.63Y-3.5
X3.6764Y-3.4708
X3.72Y-3.45
X4.5228Y-3.4472
X5.27Y-3.45
X6.01Y-3.45
X6.7428Y-3.4828
X7.4828Y-3.5172
X8.2228Y-4.19
X8.9628Y-4.2028
X9.71Y-4.21
X10.4428Y-4.2372
X11.1828Y-4.2028
X11.92Y-4.21
T2
X3.15Y-3.73
X3.15Y-4.03
X7.59Y-3.74
X7.59Y-4.04
X9.81Y-5.2
X9.81Y-5.5
X3.15Y-4.48
X3.15Y-4.78
X5.37Y-3.0
X5.37Y-3.3
X11.29Y-3.74
X11.29Y-4.04
X5.37Y-3.74
X5.37Y-4.04
X9.81Y-3.0
X9.81Y-3.3
X8.34Y-4.48
X8.34Y-4.78
X2.2Y-4.49
X2.2Y-4.79
X3.14Y-5.2
X3.14Y-5.5
X8.33Y-3.74
X8.33Y-4.04
X10.55Y-5.2
X10.55Y-5.5
X3.89Y-3.0
X3.89Y-3.3
X3.89Y-3.74
X3.89Y-4.04
X3.89Y-4.48
X3.89Y-4.78
X6.85Y-3.0
X6.85Y-3.3
X10.55Y-3.0
X10.55Y-3.3
X9.07Y-4.48
X9.07Y-4.78
X7.59Y-2.25
X7.59Y-2.55
X2.2Y-5.2
X2.2Y-5.5
X9.07Y-3.74
X9.07Y-4.04
X4.64Y-5.2
X4.64Y-5.5
X7.59Y-4.48
X7.59Y-4.78
X6.11Y-3.74
X6.11Y-4.04
X9.81Y-4.48
X9.81Y-4.78
X8.33Y-2.25
X8.33Y-2.55
X3.89Y-2.25
X3.89Y-2.55
X6.11Y-5.2
X6.11Y-5.5
X8.33Y-5.2
X8.33Y-5.5
X7.59Y-3.0
X7.59Y-3.3
X9.81Y-3.74
X9.81Y-4.04
X3.15Y-2.25
X3.15Y-2.55
X5.37Y-4.48
X5.37Y-4.78
X6.85Y-3.74
X6.85Y-4.04
X10.55Y-4.48
X10.55Y-4.78
X9.07Y-2.25
X9.07Y-2.55
X4.63Y-2.25
X4.63Y-2.55
X11.29Y-3.0
X11.29Y-3.3
X8.33Y-3.0
X8.33Y-3.3
X10.56Y-3.74
X10.56Y-4.04
X3.15Y-2.99
X3.15Y-3.29
X6.11Y-2.25
X6.11Y-2.55
X2.2Y-3.74
X2.2Y-4.04
X11.29Y-4.48
X11.29Y-4.78
X9.81Y-2.25
X9.81Y-2.55
X5.37Y-2.25
X5.37Y-2.55
X9.07Y-3.0
X9.07Y-3.3
X6.11Y-4.48
X6.11Y-4.78
X6.85Y-2.25
X6.85Y-2.55
X3.89Y-5.21
X3.89Y-5.51
X10.55Y-2.25
X10.55Y-2.55
X6.85Y-4.48
X6.85Y-4.78
X5.37Y-5.2
X5.37Y-5.5
X11.29Y-5.2
X11.29Y-5.5
X4.63Y-3.0
X4.63Y-3.3
X4.63Y-3.74
X4.63Y-4.04
X6.11Y-3.0
X6.11Y-3.3
X4.63Y-4.48
X4.63Y-4.78
X6.85Y-5.2
X6.85Y-5.5
X11.29Y-2.25
X11.29Y-2.55
X9.07Y-5.2
X9.07Y-5.5
T3
X2.26Y-2.18
X2.26Y-2.28
X2.26Y-2.38
X2.26Y-2.48
X2.26Y-2.58
X2.26Y-2.68
X2.26Y-2.78
X2.26Y-2.88
X2.26Y-2.98
X2.26Y-3.08
X2.26Y-3.18
X2.269Y-3.28
X2.36Y-3.28
X2.46Y-3.28
X2.56Y-3.28
X2.66Y-3.28
X2.76Y-3.28
X2.86Y-2.18
X2.86Y-2.28
X2.86Y-2.38
X2.86Y-2.48
X2.86Y-2.58
X2.86Y-2.68
X2.86Y-2.78
X2.86Y-2.88
X2.86Y-2.98
X2.86Y-3.08
X2.86Y-3.18
X2.86Y-3.28
T4
X7.0231Y-4.4804
X7.12Y-4.43
X7.22Y-4.3977
X7.32Y-4.43
X7.37Y-4.53
X7.4169Y-4.4804
X7.0231Y-3.0004
X7.12Y-2.95
X7.22Y-2.9177
X7.32Y-2.95
X7.37Y-3.05
X7.4169Y-3.0004
X4.0631Y-4.4804
X4.16Y-4.43
X4.26Y-4.3977
X4.36Y-4.43
X4.41Y-4.53
X4.4569Y-4.4804
X9.2431Y-4.4804
X9.34Y-4.43
X9.44Y-4.3977
X9.54Y-4.43
X9.59Y-4.53
X9.6369Y-4.4804
X7.0231Y-3.7404
X7.12Y-3.69
X7.22Y-3.6577
X7.32Y-3.69
X7.37Y-3.79
X7.4169Y-3.7404
X4.8031Y-5.2204
X4.9Y-5.17
X5.0Y-5.1377
X5.1Y-5.17
X5.15Y-5.27
X5.1969Y-5.2204
X4.0631Y-3.0004
X4.16Y-2.95
X4.26Y-2.9177
X4.36Y-2.95
X4.41Y-3.05
X4.4569Y-3.0004
X3.3231Y-3.7404
X3.42Y-3.69
X3.52Y-3.6577
X3.62Y-3.69
X3.67Y-3.79
X3.7169Y-3.7404
X6.2831Y-2.2604
X6.38Y-2.21
X6.48Y-2.1777
X6.58Y-2.21
X6.63Y-2.31
X6.6769Y-2.2604
X5.5431Y-3.0004
X5.64Y-2.95
X5.74Y-2.9177
X5.84Y-2.95
X5.89Y-3.05
X5.9369Y-3.0004
X10.7231Y-3.0004
X10.82Y-2.95
X10.92Y-2.9177
X11.02Y-2.95
X11.07Y-3.05
X11.1169Y-3.0004
X2.3731Y-4.4804
X2.47Y-4.43
X2.57Y-4.3977
X2.67Y-4.43
X2.72Y-4.53
X2.7669Y-4.4804
X7.7631Y-4.4804
X7.86Y-4.43
X7.96Y-4.3977
X8.06Y-4.43
X8.11Y-4.53
X8.1569Y-4.4804
X5.5431Y-3.7404
X5.64Y-3.69
X5.74Y-3.6577
X5.84Y-3.69
X5.89Y-3.79
X5.9369Y-3.7404
X9.2431Y-3.7404
X9.34Y-3.69
X9.44Y-3.6577
X9.54Y-3.69
X9.59Y-3.79
X9.6369Y-3.7404
X11.4631Y-5.2204
X11.56Y-5.17
X11.66Y-5.1377
X11.76Y-5.17
X11.81Y-5.27
X11.8569Y-5.2204
X11.4631Y-2.2604
X11.56Y-2.21
X11.66Y-2.1777
X11.76Y-2.21
X11.81Y-2.31
X11.8569Y-2.2604
X9.9831Y-3.7404
X10.08Y-3.69
X10.18Y-3.6577
X10.28Y-3.69
X10.33Y-3.79
X10.3769Y-3.7404
X9.2431Y-5.2204
X9.34Y-5.17
X9.44Y-5.1377
X9.54Y-5.17
X9.59Y-5.27
X9.6369Y-5.2204
X8.5031Y-2.2604
X8.6Y-2.21
X8.7Y-2.1777
X8.8Y-2.21
X8.85Y-2.31
X8.8969Y-2.2604
X2.3731Y-3.7404
X2.47Y-3.69
X2.57Y-3.6577
X2.67Y-3.69
X2.72Y-3.79
X2.7669Y-3.7404
X5.5431Y-5.2204
X5.64Y-5.17
X5.74Y-5.1377
X5.84Y-5.17
X5.89Y-5.27
X5.9369Y-5.2204
X3.3231Y-2.2604
X3.42Y-2.21
X3.52Y-2.1777
X3.62Y-2.21
X3.67Y-2.31
X3.7169Y-2.2604
X9.2431Y-3.0004
X9.34Y-2.95
X9.44Y-2.9177
X9.54Y-2.95
X9.59Y-3.05
X9.6369Y-3.0004
X4.0631Y-2.2604
X4.16Y-2.21
X4.26Y-2.1777
X4.36Y-2.21
X4.41Y-2.31
X4.4569Y-2.2604
X11.4631Y-4.4804
X11.56Y-4.43
X11.66Y-4.3977
X11.76Y-4.43
X11.81Y-4.53
X11.8569Y-4.4804
X9.9831Y-2.2604
X10.08Y-2.21
X10.18Y-2.1777
X10.28Y-2.21
X10.33Y-2.31
X10.3769Y-2.2604
X8.5031Y-3.7404
X8.6Y-3.69
X8.7Y-3.6577
X8.8Y-3.69
X8.85Y-3.79
X8.8969Y-3.7404
X7.0231Y-2.2604
X7.12Y-2.21
X7.22Y-2.1777
X7.32Y-2.21
X7.37Y-2.31
X7.4169Y-2.2604
X3.3231Y-4.4804
X3.42Y-4.43
X3.52Y-4.3977
X3.62Y-4.43
X3.67Y-4.53
X3.7169Y-4.4804
X3.3231Y-5.2204
X3.42Y-5.17
X3.52Y-5.1377
X3.62Y-5.17
X3.67Y-5.27
X3.7169Y-5.2204
X7.7631Y-3.0004
X7.86Y-2.95
X7.96Y-2.9177
X8.06Y-2.95
X8.11Y-3.05
X8.1569Y-3.0004
X9.9831Y-4.4804
X10.08Y-4.43
X10.18Y-4.3977
X10.28Y-4.43
X10.33Y-4.53
X10.3769Y-4.4804
X4.8031Y-3.0004
X4.9Y-2.95
X5.0Y-2.9177
X5.1Y-2.95
X5.15Y-3.05
X5.1969Y-3.0004
X11.4631Y-3.7404
X11.56Y-3.69
X11.66Y-3.6577
X11.76Y-3.69
X11.81Y-3.79
X11.8569Y-3.7404
X10.7231Y-5.2204
X10.82Y-5.17
X10.92Y-5.1377
X11.02Y-5.17
X11.07Y-5.27
X11.1169Y-5.2204
X6.2831Y-4.4804
X6.38Y-4.43
X6.48Y-4.3977
X6.58Y-4.43
X6.63Y-4.53
X6.6769Y-4.4804
X4.8031Y-2.2604
X4.9Y-2.21
X5.0Y-2.1777
X5.1Y-2.21
X5.15Y-2.31
X5.1969Y-2.2604
X4.0631Y-3.7404
X4.16Y-3.69
X4.26Y-3.6577
X4.36Y-3.69
X4.41Y-3.79
X4.4569Y-3.7404
X8.5031Y-5.2204
X8.6Y-5.17
X8.7Y-5.1377
X8.8Y-5.17
X8.85Y-5.27
X8.8969Y-5.2204
X8.5031Y-4.4804
X8.6Y-4.43
X8.7Y-4.3977
X8.8Y-4.43
X8.85Y-4.53
X8.8969Y-4.4804
X6.2831Y-3.7404
X6.38Y-3.69
X6.48Y-3.6577
X6.58Y-3.69
X6.63Y-3.79
X6.6769Y-3.7404
X4.0631Y-5.2204
X4.16Y-5.17
X4.26Y-5.1377
X4.36Y-5.17
X4.41Y-5.27
X4.4569Y-5.2204
X3.3231Y-3.0004
X3.42Y-2.95
X3.52Y-2.9177
X3.62Y-2.95
X3.67Y-3.05
X3.7169Y-3.0004
X7.49Y-5.17
X7.69Y-5.17
X4.8031Y-4.4804
X4.9Y-4.43
X5.0Y-4.3977
X5.1Y-4.43
X5.15Y-4.53
X5.1969Y-4.4804
X7.7631Y-3.7404
X7.86Y-3.69
X7.96Y-3.6577
X8.06Y-3.69
X8.11Y-3.79
X8.1569Y-3.7404
X5.5431Y-2.2604
X5.64Y-2.21
X5.74Y-2.1777
X5.84Y-2.21
X5.89Y-2.31
X5.9369Y-2.2604
X4.8031Y-3.7404
X4.9Y-3.69
X5.0Y-3.6577
X5.1Y-3.69
X5.15Y-3.79
X5.1969Y-3.7404
X2.3731Y-5.2204
X2.47Y-5.17
X2.57Y-5.1377
X2.67Y-5.17
X2.72Y-5.27
X2.7669Y-5.2204
X10.7231Y-2.2604
X10.82Y-2.21
X10.92Y-2.1777
X11.02Y-2.21
X11.07Y-2.31
X11.1169Y-2.2604
X7.7631Y-2.2604
X7.86Y-2.21
X7.96Y-2.1777
X8.06Y-2.21
X8.11Y-2.31
X8.1569Y-2.2604
X6.2831Y-3.0004
X6.38Y-2.95
X6.48Y-2.9177
X6.58Y-2.95
X6.63Y-3.05
X6.6769Y-3.0004
X11.4631Y-3.0004
X11.56Y-2.95
X11.66Y-2.9177
X11.76Y-2.95
X11.81Y-3.05
X11.8569Y-3.0004
X10.7231Y-3.7404
X10.82Y-3.69
X10.92Y-3.6577
X11.02Y-3.69
X11.07Y-3.79
X11.1169Y-3.7404
X9.9831Y-5.2204
X10.08Y-5.17
X10.18Y-5.1377
X10.28Y-5.17
X10.33Y-5.27
X10.3769Y-5.2204
X8.5031Y-3.0004
X8.6Y-2.95
X8.7Y-2.9177
X8.8Y-2.95
X8.85Y-3.05
X8.8969Y-3.0004
X5.5431Y-4.4804
X5.64Y-4.43
X5.74Y-4.3977
X5.84Y-4.43
X5.89Y-4.53
X5.9369Y-4.4804
X10.7231Y-4.4804
X10.82Y-4.43
X10.92Y-4.3977
X11.02Y-4.43
X11.07Y-4.53
X11.1169Y-4.4804
X6.2831Y-5.2204
X6.38Y-5.17
X6.48Y-5.1377
X6.58Y-5.17
X6.63Y-5.27
X6.6769Y-5.2204
X9.2431Y-2.2604
X9.34Y-2.21
X9.44Y-2.1777
X9.54Y-2.21
X9.59Y-2.31
X9.6369Y-2.2604
X9.9831Y-3.0004
X10.08Y-2.95
X10.18Y-2.9177
X10.28Y-2.95
X10.33Y-3.05
X10.3769Y-3.0004
T5
X4.1616Y-4.4528
X4.1616Y-4.4725
X4.3584Y-4.4528
X4.3584Y-4.4725
X9.3416Y-4.4528
X9.3416Y-4.4725
X9.5384Y-4.4528
X9.5384Y-4.4725
X7.1216Y-3.7128
X7.1216Y-3.7325
X7.3184Y-3.7128
X7.3184Y-3.7325
X4.9016Y-5.1928
X4.9016Y-5.2125
X5.0984Y-5.1928
X5.0984Y-5.2125
X4.1616Y-2.9728
X4.1616Y-2.9925
X4.3584Y-2.9728
X4.3584Y-2.9925
X3.4216Y-3.7128
X3.4216Y-3.7325
X3.6184Y-3.7128
X3.6184Y-3.7325
X6.3816Y-2.2328
X6.3816Y-2.2525
X6.5784Y-2.2328
X6.5784Y-2.2525
X5.6416Y-2.9728
X5.6416Y-2.9925
X5.8384Y-2.9728
X5.8384Y-2.9925
X10.8216Y-2.9728
X10.8216Y-2.9925
X11.0184Y-2.9728
X11.0184Y-2.9925
X2.4716Y-4.4528
X2.4716Y-4.4725
X2.6684Y-4.4528
X2.6684Y-4.4725
X7.8616Y-4.4528
X7.8616Y-4.4725
X8.0584Y-4.4528
X8.0584Y-4.4725
X5.6416Y-3.7128
X5.6416Y-3.7325
X5.8384Y-3.7128
X5.8384Y-3.7325
X9.3416Y-3.7128
X9.3416Y-3.7325
X9.5384Y-3.7128
X9.5384Y-3.7325
X11.5616Y-5.1928
X11.5616Y-5.2125
X11.7584Y-5.1928
X11.7584Y-5.2125
X11.5616Y-2.2328
X11.5616Y-2.2525
X11.7584Y-2.2328
X11.7584Y-2.2525
X10.0816Y-3.7128
X10.0816Y-3.7325
X10.2784Y-3.7128
X10.2784Y-3.7325
X9.3416Y-5.1928
X9.3416Y-5.2125
X9.5384Y-5.1928
X9.5384Y-5.2125
X8.6016Y-2.2328
X8.6016Y-2.2525
X8.7984Y-2.2328
X8.7984Y-2.2525
X2.4716Y-3.7128
X2.4716Y-3.7325
X2.6684Y-3.7128
X2.6684Y-3.7325
X5.6416Y-5.1928
X5.6416Y-5.2125
X5.8384Y-5.1928
X5.8384Y-5.2125
X3.4216Y-2.2328
X3.4216Y-2.2525
X3.6184Y-2.2328
X3.6184Y-2.2525
X9.3416Y-2.9728
X9.3416Y-2.9925
X9.5384Y-2.9728
X9.5384Y-2.9925
X4.1616Y-2.2328
X4.1616Y-2.2525
X4.3584Y-2.2328
X4.3584Y-2.2525
X11.5616Y-4.4528
X11.5616Y-4.4725
X11.7584Y-4.4528
X11.7584Y-4.4725
X10.0816Y-2.2328
X10.0816Y-2.2525
X10.2784Y-2.2328
X10.2784Y-2.2525
X8.6016Y-3.7128
X8.6016Y-3.7325
X8.7984Y-3.7128
X8.7984Y-3.7325
X7.1216Y-2.2328
X7.1216Y-2.2525
X7.3184Y-2.2328
X7.3184Y-2.2525
X3.4216Y-4.4528
X3.4216Y-4.4725
X3.6184Y-4.4528
X3.6184Y-4.4725
X3.4216Y-5.1928
X3.4216Y-5.2125
X3.6184Y-5.1928
X3.6184Y-5.2125
X7.8616Y-2.9728
X7.8616Y-2.9925
X8.0584Y-2.9728
X8.0584Y-2.9925
X10.0816Y-4.4528
X10.0816Y-4.4725
X10.2784Y-4.4528
X10.2784Y-4.4725
X4.9016Y-2.9728
X4.9016Y-2.9925
X5.0984Y-2.9728
X5.0984Y-2.9925
X11.5616Y-3.7128
X11.5616Y-3.7325
X11.7584Y-3.7128
X11.7584Y-3.7325
X10.8216Y-5.1928
X10.8216Y-5.2125
X11.0184Y-5.1928
X11.0184Y-5.2125
X6.3816Y-4.4528
X6.3816Y-4.4725
X6.5784Y-4.4528
X6.5784Y-4.4725
X4.9016Y-2.2328
X4.9016Y-2.2525
X5.0984Y-2.2328
X5.0984Y-2.2525
X4.1616Y-3.7128
X4.1616Y-3.7325
X4.3584Y-3.7128
X4.3584Y-3.7325
X8.6016Y-5.1928
X8.6016Y-5.2125
X8.7984Y-5.1928
X8.7984Y-5.2125
X8.6016Y-4.4528
X8.6016Y-4.4725
X8.7984Y-4.4528
X8.7984Y-4.4725
X6.3816Y-3.7128
X6.3816Y-3.7325
X6.5784Y-3.7128
X6.5784Y-3.7325
X4.1616Y-5.1928
X4.1616Y-5.2125
X4.3584Y-5.1928
X4.3584Y-5.2125
X3.4216Y-2.9728
X3.4216Y-2.9925
X3.6184Y-2.9728
X3.6184Y-2.9925
X7.3931Y-5.2204
X7.44Y-5.2716
X7.4916Y-5.1928
X7.4916Y-5.2125
X7.59Y-5.1377
X7.6884Y-5.1928
X7.6884Y-5.2125
X7.74Y-5.2716
X7.7869Y-5.2204
X4.9016Y-4.4528
X4.9016Y-4.4725
X5.0984Y-4.4528
X5.0984Y-4.4725
X7.8616Y-3.7128
X7.8616Y-3.7325
X8.0584Y-3.7128
X8.0584Y-3.7325
X5.6416Y-2.2328
X5.6416Y-2.2525
X5.8384Y-2.2328
X5.8384Y-2.2525
X4.9016Y-3.7128
X4.9016Y-3.7325
X5.0984Y-3.7128
X5.0984Y-3.7325
X2.4716Y-5.1928
X2.4716Y-5.2125
X2.6684Y-5.1928
X2.6684Y-5.2125
X10.8216Y-2.2328
X10.8216Y-2.2525
X11.0184Y-2.2328
X11.0184Y-2.2525
X7.8616Y-2.2328
X7.8616Y-2.2525
X8.0584Y-2.2328
X8.0584Y-2.2525
X6.3816Y-2.9728
X6.3816Y-2.9925
X6.5784Y-2.9728
X6.5784Y-2.9925
X11.5616Y-2.9728
X11.5616Y-2.9925
X11.7584Y-2.9728
X11.7584Y-2.9925
X10.8216Y-3.7128
X10.8216Y-3.7325
X11.0184Y-3.7128
X11.0184Y-3.7325
X10.0816Y-5.1928
X10.0816Y-5.2125
X10.2784Y-5.1928
X10.2784Y-5.2125
X8.6016Y-2.9728
X8.6016Y-2.9925
X8.7984Y-2.9728
X8.7984Y-2.9925
X5.6416Y-4.4528
X5.6416Y-4.4725
X5.8384Y-4.4528
X5.8384Y-4.4725
X10.8216Y-4.4528
X10.8216Y-4.4725
X11.0184Y-4.4528
X11.0184Y-4.4725
X6.3816Y-5.1928
X6.3816Y-5.2125
X6.5784Y-5.1928
X6.5784Y-5.2125
X9.3416Y-2.2328
X9.3416Y-2.2525
X9.5384Y-2.2328
X9.5384Y-2.2525
X10.0816Y-2.9728
X10.0816Y-2.9925
X10.2784Y-2.9728
X10.2784Y-2.9925
X7.1216Y-4.4528
X7.1216Y-4.4725
X7.3184Y-4.4528
X7.3184Y-4.4725
X7.1216Y-2.9728
X7.1216Y-2.9925
X7.3184Y-2.9728
X7.3184Y-2.9925
T6
X7.3735Y-5.37
X7.8065Y-5.37
T7
X7.39Y-5.37
X7.79Y-5.37
T8
X7.12Y-5.095
X8.06Y-5.095
T9
X7.12Y-5.695
X7.59Y-5.37
X8.06Y-5.695
T10
X4.0435Y-3.89
X4.4765Y-3.89
X8.4835Y-5.37
X8.9165Y-5.37
X8.4835Y-4.63
X8.9165Y-4.63
X6.2635Y-3.89
X6.6965Y-3.89
X4.0435Y-5.37
X4.4765Y-5.37
X3.3035Y-3.15
X3.7365Y-3.15
X4.7835Y-4.63
X5.2165Y-4.63
X7.7435Y-3.89
X8.1765Y-3.89
X5.5235Y-2.41
X5.9565Y-2.41
X4.7835Y-3.89
X5.2165Y-3.89
X2.3535Y-5.37
X2.7865Y-5.37
X10.7035Y-2.41
X11.1365Y-2.41
X7.7435Y-2.41
X8.1765Y-2.41
X6.2635Y-3.15
X6.6965Y-3.15
X11.4435Y-3.15
X11.8765Y-3.15
X10.7035Y-3.89
X11.1365Y-3.89
X9.9635Y-5.37
X10.3965Y-5.37
X8.4835Y-3.15
X8.9165Y-3.15
X5.5235Y-4.63
X5.9565Y-4.63
X10.7035Y-4.63
X11.1365Y-4.63
X6.2635Y-5.37
X6.6965Y-5.37
X9.2235Y-2.41
X9.6565Y-2.41
X9.9635Y-3.15
X10.3965Y-3.15
X7.0035Y-4.63
X7.4365Y-4.63
X7.0035Y-3.15
X7.4365Y-3.15
X4.0435Y-4.63
X4.4765Y-4.63
X9.2235Y-4.63
X9.6565Y-4.63
X7.0035Y-3.89
X7.4365Y-3.89
X4.7835Y-5.37
X5.2165Y-5.37
X4.0435Y-3.15
X4.4765Y-3.15
X3.3035Y-3.89
X3.7365Y-3.89
X6.2635Y-2.41
X6.6965Y-2.41
X5.5235Y-3.15
X5.9565Y-3.15
X10.7035Y-3.15
X11.1365Y-3.15
X2.3535Y-4.63
X2.7865Y-4.63
X7.7435Y-4.63
X8.1765Y-4.63
X5.5235Y-3.89
X5.9565Y-3.89
X9.2235Y-3.89
X9.6565Y-3.89
X11.4435Y-5.37
X11.8765Y-5.37
X11.4435Y-2.41
X11.8765Y-2.41
X9.9635Y-3.89
X10.3965Y-3.89
X9.2235Y-5.37
X9.6565Y-5.37
X8.4835Y-2.41
X8.9165Y-2.41
X2.3535Y-3.89
X2.7865Y-3.89
X5.5235Y-5.37
X5.9565Y-5.37
X3.3035Y-2.41
X3.7365Y-2.41
X9.2235Y-3.15
X9.6565Y-3.15
X4.0435Y-2.41
X4.4765Y-2.41
X11.4435Y-4.63
X11.8765Y-4.63
X9.9635Y-2.41
X10.3965Y-2.41
X8.4835Y-3.89
X8.9165Y-3.89
X7.0035Y-2.41
X7.4365Y-2.41
X3.3035Y-4.63
X3.7365Y-4.63
X3.3035Y-5.37
X3.7365Y-5.37
X7.7435Y-3.15
X8.1765Y-3.15
X9.9635Y-4.63
X10.3965Y-4.63
X4.7835Y-3.15
X5.2165Y-3.15
X11.4435Y-3.89
X11.8765Y-3.89
X10.7035Y-5.37
X11.1365Y-5.37
X6.2635Y-4.63
X6.6965Y-4.63
X4.7835Y-2.41
X5.2165Y-2.41
T11
X11.46Y-5.37
X11.86Y-5.37
X11.46Y-2.41
X11.86Y-2.41
X9.98Y-3.89
X10.38Y-3.89
X9.24Y-5.37
X9.64Y-5.37
X8.5Y-2.41
X8.9Y-2.41
X2.37Y-3.89
X2.77Y-3.89
X5.54Y-5.37
X5.94Y-5.37
X3.32Y-2.41
X3.72Y-2.41
X9.24Y-3.15
X9.64Y-3.15
X4.06Y-2.41
X4.46Y-2.41
X11.46Y-4.63
X11.86Y-4.63
X9.98Y-2.41
X10.38Y-2.41
X8.5Y-3.89
X8.9Y-3.89
X7.02Y-2.41
X7.42Y-2.41
X3.32Y-4.63
X3.72Y-4.63
X3.32Y-5.37
X3.72Y-5.37
X7.76Y-3.15
X8.16Y-3.15
X9.98Y-4.63
X10.38Y-4.63
X4.8Y-3.15
X5.2Y-3.15
X11.46Y-3.89
X11.86Y-3.89
X10.72Y-5.37
X11.12Y-5.37
X6.28Y-4.63
X6.68Y-4.63
X4.8Y-2.41
X5.2Y-2.41
X4.06Y-3.89
X4.46Y-3.89
X8.5Y-5.37
X8.9Y-5.37
X8.5Y-4.63
X8.9Y-4.63
X6.28Y-3.89
X6.68Y-3.89
X4.06Y-5.37
X4.46Y-5.37
X3.32Y-3.15
X3.72Y-3.15
X4.8Y-4.63
X5.2Y-4.63
X7.76Y-3.89
X8.16Y-3.89
X5.54Y-2.41
X5.94Y-2.41
X4.8Y-3.89
X5.2Y-3.89
X2.37Y-5.37
X2.77Y-5.37
X10.72Y-2.41
X11.12Y-2.41
X7.76Y-2.41
X8.16Y-2.41
X6.28Y-3.15
X6.68Y-3.15
X11.46Y-3.15
X11.86Y-3.15
X10.72Y-3.89
X11.12Y-3.89
X9.98Y-5.37
X10.38Y-5.37
X8.5Y-3.15
X8.9Y-3.15
X5.54Y-4.63
X5.94Y-4.63
X10.72Y-4.63
X11.12Y-4.63
X6.28Y-5.37
X6.68Y-5.37
X9.24Y-2.41
X9.64Y-2.41
X9.98Y-3.15
X10.38Y-3.15
X7.02Y-4.63
X7.42Y-4.63
X7.02Y-3.15
X7.42Y-3.15
X4.06Y-4.63
X4.46Y-4.63
X9.24Y-4.63
X9.64Y-4.63
X7.02Y-3.89
X7.42Y-3.89
X4.8Y-5.37
X5.2Y-5.37
X4.06Y-3.15
X4.46Y-3.15
X3.32Y-3.89
X3.72Y-3.89
X6.28Y-2.41
X6.68Y-2.41
X5.54Y-3.15
X5.94Y-3.15
X10.72Y-3.15
X11.12Y-3.15
X2.37Y-4.63
X2.77Y-4.63
X7.76Y-4.63
X8.16Y-4.63
X5.54Y-3.89
X5.94Y-3.89
X9.24Y-3.89
X9.64Y-3.89
T12
X3.89Y-2.78
X6.12Y-5.0
X8.33Y-5.0
X6.11Y-2.77
X3.03Y-5.0
X3.9Y-4.98
X8.33Y-2.78
X11.28Y-5.0
X11.29Y-2.78
T13
X9.44Y-3.15
X4.26Y-2.41
X11.66Y-4.63
X10.18Y-2.41
X8.7Y-3.89
X7.22Y-2.41
X3.52Y-4.63
X3.52Y-5.37
X7.96Y-3.15
X10.18Y-4.63
X5.0Y-3.15
X11.66Y-3.89
X10.92Y-5.37
X6.48Y-4.63
X5.0Y-2.41
X4.26Y-3.89
X8.7Y-5.37
X8.7Y-4.63
X6.48Y-3.89
X4.26Y-5.37
X3.52Y-3.15
X5.0Y-4.63
X7.96Y-3.89
X5.74Y-2.41
X5.0Y-3.89
X2.57Y-5.37
X10.92Y-2.41
X7.96Y-2.41
X6.48Y-3.15
X11.66Y-3.15
X10.92Y-3.89
X10.18Y-5.37
X8.7Y-3.15
X5.74Y-4.63
X10.92Y-4.63
X6.48Y-5.37
X9.44Y-2.41
X10.18Y-3.15
X7.22Y-4.63
X7.22Y-3.15
X4.26Y-4.63
X9.44Y-4.63
X7.22Y-3.89
X5.0Y-5.37
X4.26Y-3.15
X3.52Y-3.89
X6.48Y-2.41
X5.74Y-3.15
X10.92Y-3.15
X2.57Y-4.63
X7.96Y-4.63
X5.74Y-3.89
X9.44Y-3.89
X11.66Y-5.37
X11.66Y-2.41
X10.18Y-3.89
X9.44Y-5.37
X8.7Y-2.41
X2.57Y-3.89
X5.74Y-5.37
X3.52Y-2.41
T4
G00X7.07Y-4.53
M15
G01X7.07Y-4.53
M16
G05
G00X7.07Y-3.05
M15
G01X7.07Y-3.05
M16
G05
G00X4.11Y-4.53
M15
G01X4.11Y-4.53
M16
G05
G00X9.29Y-4.53
M15
G01X9.29Y-4.53
M16
G05
G00X7.07Y-3.79
M15
G01X7.07Y-3.79
M16
G05
G00X4.85Y-5.27
M15
G01X4.85Y-5.27
M16
G05
G00X4.11Y-3.05
M15
G01X4.11Y-3.05
M16
G05
G00X3.37Y-3.79
M15
G01X3.37Y-3.79
M16
G05
G00X6.33Y-2.31
M15
G01X6.33Y-2.31
M16
G05
G00X5.59Y-3.05
M15
G01X5.59Y-3.05
M16
G05
G00X10.77Y-3.05
M15
G01X10.77Y-3.05
M16
G05
G00X2.42Y-4.53
M15
G01X2.42Y-4.53
M16
G05
G00X7.81Y-4.53
M15
G01X7.81Y-4.53
M16
G05
G00X5.59Y-3.79
M15
G01X5.59Y-3.79
M16
G05
G00X9.29Y-3.79
M15
G01X9.29Y-3.79
M16
G05
G00X11.51Y-5.27
M15
G01X11.51Y-5.27
M16
G05
G00X11.51Y-2.31
M15
G01X11.51Y-2.31
M16
G05
G00X10.03Y-3.79
M15
G01X10.03Y-3.79
M16
G05
G00X9.29Y-5.27
M15
G01X9.29Y-5.27
M16
G05
G00X8.55Y-2.31
M15
G01X8.55Y-2.31
M16
G05
G00X2.42Y-3.79
M15
G01X2.42Y-3.79
M16
G05
G00X5.59Y-5.27
M15
G01X5.59Y-5.27
M16
G05
G00X3.37Y-2.31
M15
G01X3.37Y-2.31
M16
G05
G00X9.29Y-3.05
M15
G01X9.29Y-3.05
M16
G05
G00X4.11Y-2.31
M15
G01X4.11Y-2.31
M16
G05
G00X11.51Y-4.53
M15
G01X11.51Y-4.53
M16
G05
G00X10.03Y-2.31
M15
G01X10.03Y-2.31
M16
G05
G00X8.55Y-3.79
M15
G01X8.55Y-3.79
M16
G05
G00X7.07Y-2.31
M15
G01X7.07Y-2.31
M16
G05
G00X3.37Y-4.53
M15
G01X3.37Y-4.53
M16
G05
G00X3.37Y-5.27
M15
G01X3.37Y-5.27
M16
G05
G00X7.81Y-3.05
M15
G01X7.81Y-3.05
M16
G05
G00X10.03Y-4.53
M15
G01X10.03Y-4.53
M16
G05
G00X4.85Y-3.05
M15
G01X4.85Y-3.05
M16
G05
G00X11.51Y-3.79
M15
G01X11.51Y-3.79
M16
G05
G00X10.77Y-5.27
M15
G01X10.77Y-5.27
M16
G05
G00X6.33Y-4.53
M15
G01X6.33Y-4.53
M16
G05
G00X4.85Y-2.31
M15
G01X4.85Y-2.31
M16
G05
G00X4.11Y-3.79
M15
G01X4.11Y-3.79
M16
G05
G00X8.55Y-5.27
M15
G01X8.55Y-5.27
M16
G05
G00X8.55Y-4.53
M15
G01X8.55Y-4.53
M16
G05
G00X6.33Y-3.79
M15
G01X6.33Y-3.79
M16
G05
G00X4.11Y-5.27
M15
G01X4.11Y-5.27
M16
G05
G00X3.37Y-3.05
M15
G01X3.37Y-3.05
M16
G05
G00X4.85Y-4.53
M15
G01X4.85Y-4.53
M16
G05
G00X7.81Y-3.79
M15
G01X7.81Y-3.79
M16
G05
G00X5.59Y-2.31
M15
G01X5.59Y-2.31
M16
G05
G00X4.85Y-3.79
M15
G01X4.85Y-3.79
M16
G05
G00X2.42Y-5.27
M15
G01X2.42Y-5.27
M16
G05
G00X10.77Y-2.31
M15
G01X10.77Y-2.31
M16
G05
G00X7.81Y-2.31
M15
G01X7.81Y-2.31
M16
G05
G00X6.33Y-3.05
M15
G01X6.33Y-3.05
M16
G05
G00X11.51Y-3.05
M15
G01X11.51Y-3.05
M16
G05
G00X10.77Y-3.79
M15
G01X10.77Y-3.79
M16
G05
G00X10.03Y-5.27
M15
G01X10.03Y-5.27
M16
G05
G00X8.55Y-3.05
M15
G01X8.55Y-3.05
M16
G05
G00X5.59Y-4.53
M15
G01X5.59Y-4.53
M16
G05
G00X10.77Y-4.53
M15
G01X10.77Y-4.53
M16
G05
G00X6.33Y-5.27
M15
G01X6.33Y-5.27
M16
G05
G00X9.29Y-2.31
M15
G01X9.29Y-2.31
M16
G05
G00X10.03Y-3.05
M15
G01X10.03Y-3.05
M16
G05
T0
M30
