%TF.GenerationSoftware,KiCad,Pcbnew,(5.1.6-0-10_14)*%
%TF.CreationDate,2021-04-03T15:29:21+02:00*%
%TF.ProjectId,Mech50-keyboard,4d656368-3530-42d6-9b65-79626f617264,rev?*%
%TF.SameCoordinates,Original*%
%TF.FileFunction,OtherDrawing,Comment*%
%FSLAX46Y46*%
G04 Gerber Fmt 4.6, Leading zero omitted, Abs format (unit mm)*
G04 Created by KiCad (PCBNEW (5.1.6-0-10_14)) date 2021-04-03 15:29:21*
%MOMM*%
%LPD*%
G01*
G04 APERTURE LIST*
%ADD10C,0.152400*%
%ADD11C,0.200000*%
%ADD12C,0.304800*%
G04 APERTURE END LIST*
D10*
%TO.C,S-E12*%
X286766000Y-127000000D02*
X305562000Y-127000000D01*
X305562000Y-127000000D02*
X305562000Y-145796000D01*
X305562000Y-145796000D02*
X286766000Y-145796000D01*
X286766000Y-145796000D02*
X286766000Y-127000000D01*
%TO.C,S-E6*%
X173863000Y-127000000D02*
X211709000Y-127000000D01*
X211709000Y-127000000D02*
X211709000Y-145796000D01*
X211709000Y-145796000D02*
X173863000Y-145796000D01*
X173863000Y-145796000D02*
X173863000Y-127000000D01*
%TO.C,S-A0*%
X80010000Y-51816000D02*
X98806000Y-51816000D01*
X98806000Y-51816000D02*
X98806000Y-70612000D01*
X98806000Y-70612000D02*
X80010000Y-70612000D01*
X80010000Y-70612000D02*
X80010000Y-51816000D01*
%TO.C,S-A1*%
X98806000Y-51816000D02*
X117602000Y-51816000D01*
X117602000Y-51816000D02*
X117602000Y-70612000D01*
X117602000Y-70612000D02*
X98806000Y-70612000D01*
X98806000Y-70612000D02*
X98806000Y-51816000D01*
%TO.C,S-A2*%
X117602000Y-51816000D02*
X136398000Y-51816000D01*
X136398000Y-51816000D02*
X136398000Y-70612000D01*
X136398000Y-70612000D02*
X117602000Y-70612000D01*
X117602000Y-70612000D02*
X117602000Y-51816000D01*
%TO.C,S-A3*%
X136398000Y-51816000D02*
X155194000Y-51816000D01*
X155194000Y-51816000D02*
X155194000Y-70612000D01*
X155194000Y-70612000D02*
X136398000Y-70612000D01*
X136398000Y-70612000D02*
X136398000Y-51816000D01*
%TO.C,S-A4*%
X155194000Y-51816000D02*
X173990000Y-51816000D01*
X173990000Y-51816000D02*
X173990000Y-70612000D01*
X173990000Y-70612000D02*
X155194000Y-70612000D01*
X155194000Y-70612000D02*
X155194000Y-51816000D01*
%TO.C,S-A5*%
X173990000Y-51816000D02*
X192786000Y-51816000D01*
X192786000Y-51816000D02*
X192786000Y-70612000D01*
X192786000Y-70612000D02*
X173990000Y-70612000D01*
X173990000Y-70612000D02*
X173990000Y-51816000D01*
%TO.C,S-A6*%
X192786000Y-51816000D02*
X211582000Y-51816000D01*
X211582000Y-51816000D02*
X211582000Y-70612000D01*
X211582000Y-70612000D02*
X192786000Y-70612000D01*
X192786000Y-70612000D02*
X192786000Y-51816000D01*
%TO.C,S-A7*%
X211582000Y-51816000D02*
X230378000Y-51816000D01*
X230378000Y-51816000D02*
X230378000Y-70612000D01*
X230378000Y-70612000D02*
X211582000Y-70612000D01*
X211582000Y-70612000D02*
X211582000Y-51816000D01*
%TO.C,S-A8*%
X230378000Y-51816000D02*
X249174000Y-51816000D01*
X249174000Y-51816000D02*
X249174000Y-70612000D01*
X249174000Y-70612000D02*
X230378000Y-70612000D01*
X230378000Y-70612000D02*
X230378000Y-51816000D01*
%TO.C,S-A9*%
X249174000Y-51816000D02*
X267970000Y-51816000D01*
X267970000Y-51816000D02*
X267970000Y-70612000D01*
X267970000Y-70612000D02*
X249174000Y-70612000D01*
X249174000Y-70612000D02*
X249174000Y-51816000D01*
%TO.C,S-A10*%
X267970000Y-51816000D02*
X286766000Y-51816000D01*
X286766000Y-51816000D02*
X286766000Y-70612000D01*
X286766000Y-70612000D02*
X267970000Y-70612000D01*
X267970000Y-70612000D02*
X267970000Y-51816000D01*
%TO.C,S-A11*%
X286766000Y-51816000D02*
X305562000Y-51816000D01*
X305562000Y-51816000D02*
X305562000Y-70612000D01*
X305562000Y-70612000D02*
X286766000Y-70612000D01*
X286766000Y-70612000D02*
X286766000Y-51816000D01*
%TO.C,S-B0*%
X80010000Y-70612000D02*
X98806000Y-70612000D01*
X98806000Y-70612000D02*
X98806000Y-89408000D01*
X98806000Y-89408000D02*
X80010000Y-89408000D01*
X80010000Y-89408000D02*
X80010000Y-70612000D01*
%TO.C,S-B1*%
X98806000Y-70612000D02*
X117602000Y-70612000D01*
X117602000Y-70612000D02*
X117602000Y-89408000D01*
X117602000Y-89408000D02*
X98806000Y-89408000D01*
X98806000Y-89408000D02*
X98806000Y-70612000D01*
%TO.C,S-B2*%
X117602000Y-70612000D02*
X136398000Y-70612000D01*
X136398000Y-70612000D02*
X136398000Y-89408000D01*
X136398000Y-89408000D02*
X117602000Y-89408000D01*
X117602000Y-89408000D02*
X117602000Y-70612000D01*
%TO.C,S-B3*%
X136398000Y-70612000D02*
X155194000Y-70612000D01*
X155194000Y-70612000D02*
X155194000Y-89408000D01*
X155194000Y-89408000D02*
X136398000Y-89408000D01*
X136398000Y-89408000D02*
X136398000Y-70612000D01*
%TO.C,S-B4*%
X155194000Y-70612000D02*
X173990000Y-70612000D01*
X173990000Y-70612000D02*
X173990000Y-89408000D01*
X173990000Y-89408000D02*
X155194000Y-89408000D01*
X155194000Y-89408000D02*
X155194000Y-70612000D01*
%TO.C,S-B5*%
X173990000Y-70612000D02*
X192786000Y-70612000D01*
X192786000Y-70612000D02*
X192786000Y-89408000D01*
X192786000Y-89408000D02*
X173990000Y-89408000D01*
X173990000Y-89408000D02*
X173990000Y-70612000D01*
%TO.C,S-B6*%
X192786000Y-70612000D02*
X211582000Y-70612000D01*
X211582000Y-70612000D02*
X211582000Y-89408000D01*
X211582000Y-89408000D02*
X192786000Y-89408000D01*
X192786000Y-89408000D02*
X192786000Y-70612000D01*
%TO.C,S-B7*%
X211582000Y-70612000D02*
X230378000Y-70612000D01*
X230378000Y-70612000D02*
X230378000Y-89408000D01*
X230378000Y-89408000D02*
X211582000Y-89408000D01*
X211582000Y-89408000D02*
X211582000Y-70612000D01*
%TO.C,S-B8*%
X230378000Y-70612000D02*
X249174000Y-70612000D01*
X249174000Y-70612000D02*
X249174000Y-89408000D01*
X249174000Y-89408000D02*
X230378000Y-89408000D01*
X230378000Y-89408000D02*
X230378000Y-70612000D01*
%TO.C,S-B9*%
X249174000Y-70612000D02*
X267970000Y-70612000D01*
X267970000Y-70612000D02*
X267970000Y-89408000D01*
X267970000Y-89408000D02*
X249174000Y-89408000D01*
X249174000Y-89408000D02*
X249174000Y-70612000D01*
%TO.C,S-B10*%
X267970000Y-70612000D02*
X286766000Y-70612000D01*
X286766000Y-70612000D02*
X286766000Y-89408000D01*
X286766000Y-89408000D02*
X267970000Y-89408000D01*
X267970000Y-89408000D02*
X267970000Y-70612000D01*
%TO.C,S-B11*%
X286766000Y-70612000D02*
X305562000Y-70612000D01*
X305562000Y-70612000D02*
X305562000Y-89408000D01*
X305562000Y-89408000D02*
X286766000Y-89408000D01*
X286766000Y-89408000D02*
X286766000Y-70612000D01*
%TO.C,S-C0*%
X55880000Y-89408000D02*
X74676000Y-89408000D01*
X74676000Y-89408000D02*
X74676000Y-108204000D01*
X74676000Y-108204000D02*
X55880000Y-108204000D01*
X55880000Y-108204000D02*
X55880000Y-89408000D01*
%TO.C,S-C1*%
X80010000Y-89408000D02*
X98806000Y-89408000D01*
X98806000Y-89408000D02*
X98806000Y-108204000D01*
X98806000Y-108204000D02*
X80010000Y-108204000D01*
X80010000Y-108204000D02*
X80010000Y-89408000D01*
%TO.C,S-C2*%
X98806000Y-89408000D02*
X117602000Y-89408000D01*
X117602000Y-89408000D02*
X117602000Y-108204000D01*
X117602000Y-108204000D02*
X98806000Y-108204000D01*
X98806000Y-108204000D02*
X98806000Y-89408000D01*
%TO.C,S-C3*%
X117602000Y-89408000D02*
X136398000Y-89408000D01*
X136398000Y-89408000D02*
X136398000Y-108204000D01*
X136398000Y-108204000D02*
X117602000Y-108204000D01*
X117602000Y-108204000D02*
X117602000Y-89408000D01*
%TO.C,S-C4*%
X136398000Y-89408000D02*
X155194000Y-89408000D01*
X155194000Y-89408000D02*
X155194000Y-108204000D01*
X155194000Y-108204000D02*
X136398000Y-108204000D01*
X136398000Y-108204000D02*
X136398000Y-89408000D01*
%TO.C,S-C5*%
X155194000Y-89408000D02*
X173990000Y-89408000D01*
X173990000Y-89408000D02*
X173990000Y-108204000D01*
X173990000Y-108204000D02*
X155194000Y-108204000D01*
X155194000Y-108204000D02*
X155194000Y-89408000D01*
%TO.C,S-C6*%
X173990000Y-89408000D02*
X192786000Y-89408000D01*
X192786000Y-89408000D02*
X192786000Y-108204000D01*
X192786000Y-108204000D02*
X173990000Y-108204000D01*
X173990000Y-108204000D02*
X173990000Y-89408000D01*
%TO.C,S-C7*%
X192786000Y-89408000D02*
X211582000Y-89408000D01*
X211582000Y-89408000D02*
X211582000Y-108204000D01*
X211582000Y-108204000D02*
X192786000Y-108204000D01*
X192786000Y-108204000D02*
X192786000Y-89408000D01*
%TO.C,S-C8*%
X211582000Y-89408000D02*
X230378000Y-89408000D01*
X230378000Y-89408000D02*
X230378000Y-108204000D01*
X230378000Y-108204000D02*
X211582000Y-108204000D01*
X211582000Y-108204000D02*
X211582000Y-89408000D01*
%TO.C,S-C9*%
X230378000Y-89408000D02*
X249174000Y-89408000D01*
X249174000Y-89408000D02*
X249174000Y-108204000D01*
X249174000Y-108204000D02*
X230378000Y-108204000D01*
X230378000Y-108204000D02*
X230378000Y-89408000D01*
%TO.C,S-C10*%
X249174000Y-89408000D02*
X267970000Y-89408000D01*
X267970000Y-89408000D02*
X267970000Y-108204000D01*
X267970000Y-108204000D02*
X249174000Y-108204000D01*
X249174000Y-108204000D02*
X249174000Y-89408000D01*
%TO.C,S-C11*%
X267970000Y-89408000D02*
X286766000Y-89408000D01*
X286766000Y-89408000D02*
X286766000Y-108204000D01*
X286766000Y-108204000D02*
X267970000Y-108204000D01*
X267970000Y-108204000D02*
X267970000Y-89408000D01*
%TO.C,S-C12*%
X286766000Y-89408000D02*
X305562000Y-89408000D01*
X305562000Y-89408000D02*
X305562000Y-108204000D01*
X305562000Y-108204000D02*
X286766000Y-108204000D01*
X286766000Y-108204000D02*
X286766000Y-89408000D01*
%TO.C,S-D0*%
X55880000Y-108204000D02*
X74676000Y-108204000D01*
X74676000Y-108204000D02*
X74676000Y-127000000D01*
X74676000Y-127000000D02*
X55880000Y-127000000D01*
X55880000Y-127000000D02*
X55880000Y-108204000D01*
%TO.C,S-D1*%
X80010000Y-108204000D02*
X98806000Y-108204000D01*
X98806000Y-108204000D02*
X98806000Y-127000000D01*
X98806000Y-127000000D02*
X80010000Y-127000000D01*
X80010000Y-127000000D02*
X80010000Y-108204000D01*
%TO.C,S-D2*%
X98806000Y-108204000D02*
X117602000Y-108204000D01*
X117602000Y-108204000D02*
X117602000Y-127000000D01*
X117602000Y-127000000D02*
X98806000Y-127000000D01*
X98806000Y-127000000D02*
X98806000Y-108204000D01*
%TO.C,S-D3*%
X117602000Y-108204000D02*
X136398000Y-108204000D01*
X136398000Y-108204000D02*
X136398000Y-127000000D01*
X136398000Y-127000000D02*
X117602000Y-127000000D01*
X117602000Y-127000000D02*
X117602000Y-108204000D01*
%TO.C,S-D4*%
X136398000Y-108204000D02*
X155194000Y-108204000D01*
X155194000Y-108204000D02*
X155194000Y-127000000D01*
X155194000Y-127000000D02*
X136398000Y-127000000D01*
X136398000Y-127000000D02*
X136398000Y-108204000D01*
%TO.C,S-D5*%
X155194000Y-108204000D02*
X173990000Y-108204000D01*
X173990000Y-108204000D02*
X173990000Y-127000000D01*
X173990000Y-127000000D02*
X155194000Y-127000000D01*
X155194000Y-127000000D02*
X155194000Y-108204000D01*
%TO.C,S-D6*%
X173990000Y-108204000D02*
X192786000Y-108204000D01*
X192786000Y-108204000D02*
X192786000Y-127000000D01*
X192786000Y-127000000D02*
X173990000Y-127000000D01*
X173990000Y-127000000D02*
X173990000Y-108204000D01*
%TO.C,S-D7*%
X192786000Y-108204000D02*
X211582000Y-108204000D01*
X211582000Y-108204000D02*
X211582000Y-127000000D01*
X211582000Y-127000000D02*
X192786000Y-127000000D01*
X192786000Y-127000000D02*
X192786000Y-108204000D01*
%TO.C,S-D8*%
X211582000Y-108204000D02*
X230378000Y-108204000D01*
X230378000Y-108204000D02*
X230378000Y-127000000D01*
X230378000Y-127000000D02*
X211582000Y-127000000D01*
X211582000Y-127000000D02*
X211582000Y-108204000D01*
%TO.C,S-D9*%
X230378000Y-108204000D02*
X249174000Y-108204000D01*
X249174000Y-108204000D02*
X249174000Y-127000000D01*
X249174000Y-127000000D02*
X230378000Y-127000000D01*
X230378000Y-127000000D02*
X230378000Y-108204000D01*
%TO.C,S-D10*%
X249174000Y-108204000D02*
X267970000Y-108204000D01*
X267970000Y-108204000D02*
X267970000Y-127000000D01*
X267970000Y-127000000D02*
X249174000Y-127000000D01*
X249174000Y-127000000D02*
X249174000Y-108204000D01*
%TO.C,S-D11*%
X267970000Y-108204000D02*
X286766000Y-108204000D01*
X286766000Y-108204000D02*
X286766000Y-127000000D01*
X286766000Y-127000000D02*
X267970000Y-127000000D01*
X267970000Y-127000000D02*
X267970000Y-108204000D01*
%TO.C,S-D12*%
X286766000Y-108204000D02*
X305562000Y-108204000D01*
X305562000Y-108204000D02*
X305562000Y-127000000D01*
X305562000Y-127000000D02*
X286766000Y-127000000D01*
X286766000Y-127000000D02*
X286766000Y-108204000D01*
%TO.C,S-E0*%
X55880000Y-127000000D02*
X74676000Y-127000000D01*
X74676000Y-127000000D02*
X74676000Y-145796000D01*
X74676000Y-145796000D02*
X55880000Y-145796000D01*
X55880000Y-145796000D02*
X55880000Y-127000000D01*
%TO.C,S-E1*%
X80010000Y-127000000D02*
X98806000Y-127000000D01*
X98806000Y-127000000D02*
X98806000Y-145796000D01*
X98806000Y-145796000D02*
X80010000Y-145796000D01*
X80010000Y-145796000D02*
X80010000Y-127000000D01*
%TO.C,S-E2*%
X98806000Y-127000000D02*
X117602000Y-127000000D01*
X117602000Y-127000000D02*
X117602000Y-145796000D01*
X117602000Y-145796000D02*
X98806000Y-145796000D01*
X98806000Y-145796000D02*
X98806000Y-127000000D01*
%TO.C,S-E3*%
X117602000Y-127000000D02*
X136398000Y-127000000D01*
X136398000Y-127000000D02*
X136398000Y-145796000D01*
X136398000Y-145796000D02*
X117602000Y-145796000D01*
X117602000Y-145796000D02*
X117602000Y-127000000D01*
%TO.C,S-E4*%
X136398000Y-127000000D02*
X155194000Y-127000000D01*
X155194000Y-127000000D02*
X155194000Y-145796000D01*
X155194000Y-145796000D02*
X136398000Y-145796000D01*
X136398000Y-145796000D02*
X136398000Y-127000000D01*
%TO.C,S-E5*%
X155194000Y-127000000D02*
X173990000Y-127000000D01*
X173990000Y-127000000D02*
X173990000Y-145796000D01*
X173990000Y-145796000D02*
X155194000Y-145796000D01*
X155194000Y-145796000D02*
X155194000Y-127000000D01*
%TO.C,S-E8*%
X211582000Y-127000000D02*
X230378000Y-127000000D01*
X230378000Y-127000000D02*
X230378000Y-145796000D01*
X230378000Y-145796000D02*
X211582000Y-145796000D01*
X211582000Y-145796000D02*
X211582000Y-127000000D01*
%TO.C,S-E9*%
X230378000Y-127000000D02*
X249174000Y-127000000D01*
X249174000Y-127000000D02*
X249174000Y-145796000D01*
X249174000Y-145796000D02*
X230378000Y-145796000D01*
X230378000Y-145796000D02*
X230378000Y-127000000D01*
%TO.C,S-E10*%
X249174000Y-127000000D02*
X267970000Y-127000000D01*
X267970000Y-127000000D02*
X267970000Y-145796000D01*
X267970000Y-145796000D02*
X249174000Y-145796000D01*
X249174000Y-145796000D02*
X249174000Y-127000000D01*
%TO.C,S-E11*%
X267970000Y-127000000D02*
X286766000Y-127000000D01*
X286766000Y-127000000D02*
X286766000Y-145796000D01*
X286766000Y-145796000D02*
X267970000Y-145796000D01*
X267970000Y-145796000D02*
X267970000Y-127000000D01*
D11*
%TO.C,U1*%
X68580000Y-50038000D02*
X68580000Y-55118000D01*
X61214000Y-50038000D02*
X68580000Y-50038000D01*
X61214000Y-55118000D02*
X61214000Y-50038000D01*
X68580000Y-55118000D02*
X61214000Y-55118000D01*
%TD*%
%TO.C,S-E6*%
D12*
X174606857Y-143963571D02*
X174679428Y-143891000D01*
X174824571Y-143818428D01*
X175187428Y-143818428D01*
X175332571Y-143891000D01*
X175405142Y-143963571D01*
X175477714Y-144108714D01*
X175477714Y-144253857D01*
X175405142Y-144471571D01*
X174534285Y-145342428D01*
X175477714Y-145342428D01*
X176130857Y-145197285D02*
X176203428Y-145269857D01*
X176130857Y-145342428D01*
X176058285Y-145269857D01*
X176130857Y-145197285D01*
X176130857Y-145342428D01*
X177146857Y-143818428D02*
X177292000Y-143818428D01*
X177437142Y-143891000D01*
X177509714Y-143963571D01*
X177582285Y-144108714D01*
X177654857Y-144399000D01*
X177654857Y-144761857D01*
X177582285Y-145052142D01*
X177509714Y-145197285D01*
X177437142Y-145269857D01*
X177292000Y-145342428D01*
X177146857Y-145342428D01*
X177001714Y-145269857D01*
X176929142Y-145197285D01*
X176856571Y-145052142D01*
X176784000Y-144761857D01*
X176784000Y-144399000D01*
X176856571Y-144108714D01*
X176929142Y-143963571D01*
X177001714Y-143891000D01*
X177146857Y-143818428D01*
X178598285Y-143818428D02*
X178743428Y-143818428D01*
X178888571Y-143891000D01*
X178961142Y-143963571D01*
X179033714Y-144108714D01*
X179106285Y-144399000D01*
X179106285Y-144761857D01*
X179033714Y-145052142D01*
X178961142Y-145197285D01*
X178888571Y-145269857D01*
X178743428Y-145342428D01*
X178598285Y-145342428D01*
X178453142Y-145269857D01*
X178380571Y-145197285D01*
X178308000Y-145052142D01*
X178235428Y-144761857D01*
X178235428Y-144399000D01*
X178308000Y-144108714D01*
X178380571Y-143963571D01*
X178453142Y-143891000D01*
X178598285Y-143818428D01*
X180412571Y-144326428D02*
X180412571Y-145342428D01*
X179759428Y-144326428D02*
X179759428Y-145124714D01*
X179832000Y-145269857D01*
X179977142Y-145342428D01*
X180194857Y-145342428D01*
X180340000Y-145269857D01*
X180412571Y-145197285D01*
%TD*%
M02*
