%TF.GenerationSoftware,KiCad,Pcbnew,(5.1.6-0-10_14)*%
%TF.CreationDate,2021-04-03T15:29:21+02:00*%
%TF.ProjectId,Mech50-keyboard,4d656368-3530-42d6-9b65-79626f617264,rev?*%
%TF.SameCoordinates,Original*%
%TF.FileFunction,Legend,Bot*%
%TF.FilePolarity,Positive*%
%FSLAX46Y46*%
G04 Gerber Fmt 4.6, Leading zero omitted, Abs format (unit mm)*
G04 Created by KiCad (PCBNEW (5.1.6-0-10_14)) date 2021-04-03 15:29:21*
%MOMM*%
%LPD*%
G01*
G04 APERTURE LIST*
%ADD10C,0.100000*%
%ADD11C,0.381000*%
%ADD12C,0.150000*%
G04 APERTURE END LIST*
D10*
%TO.C,RGB-61*%
G36*
X293364000Y-140078000D02*
G01*
X293964000Y-140078000D01*
X293964000Y-139478000D01*
X293364000Y-140078000D01*
G37*
X293364000Y-140078000D02*
X293964000Y-140078000D01*
X293964000Y-139478000D01*
X293364000Y-140078000D01*
%TO.C,RGB-60*%
G36*
X274568000Y-140078000D02*
G01*
X275168000Y-140078000D01*
X275168000Y-139478000D01*
X274568000Y-140078000D01*
G37*
X274568000Y-140078000D02*
X275168000Y-140078000D01*
X275168000Y-139478000D01*
X274568000Y-140078000D01*
%TO.C,RGB-59*%
G36*
X255518000Y-140078000D02*
G01*
X256118000Y-140078000D01*
X256118000Y-139478000D01*
X255518000Y-140078000D01*
G37*
X255518000Y-140078000D02*
X256118000Y-140078000D01*
X256118000Y-139478000D01*
X255518000Y-140078000D01*
%TO.C,RGB-58*%
G36*
X236976000Y-139824000D02*
G01*
X237576000Y-139824000D01*
X237576000Y-139224000D01*
X236976000Y-139824000D01*
G37*
X236976000Y-139824000D02*
X237576000Y-139824000D01*
X237576000Y-139224000D01*
X236976000Y-139824000D01*
%TO.C,RGB-57*%
G36*
X218180000Y-139824000D02*
G01*
X218780000Y-139824000D01*
X218780000Y-139224000D01*
X218180000Y-139824000D01*
G37*
X218180000Y-139824000D02*
X218780000Y-139824000D01*
X218780000Y-139224000D01*
X218180000Y-139824000D01*
%TO.C,RGB-56*%
G36*
X189986000Y-139570000D02*
G01*
X190586000Y-139570000D01*
X190586000Y-138970000D01*
X189986000Y-139570000D01*
G37*
X189986000Y-139570000D02*
X190586000Y-139570000D01*
X190586000Y-138970000D01*
X189986000Y-139570000D01*
%TO.C,RGB-55*%
G36*
X161538000Y-139570000D02*
G01*
X162138000Y-139570000D01*
X162138000Y-138970000D01*
X161538000Y-139570000D01*
G37*
X161538000Y-139570000D02*
X162138000Y-139570000D01*
X162138000Y-138970000D01*
X161538000Y-139570000D01*
%TO.C,RGB-54*%
G36*
X142996000Y-139570000D02*
G01*
X143596000Y-139570000D01*
X143596000Y-138970000D01*
X142996000Y-139570000D01*
G37*
X142996000Y-139570000D02*
X143596000Y-139570000D01*
X143596000Y-138970000D01*
X142996000Y-139570000D01*
%TO.C,RGB-53*%
G36*
X124200000Y-139570000D02*
G01*
X124800000Y-139570000D01*
X124800000Y-138970000D01*
X124200000Y-139570000D01*
G37*
X124200000Y-139570000D02*
X124800000Y-139570000D01*
X124800000Y-138970000D01*
X124200000Y-139570000D01*
%TO.C,RGB-52*%
G36*
X105404000Y-139570000D02*
G01*
X106004000Y-139570000D01*
X106004000Y-138970000D01*
X105404000Y-139570000D01*
G37*
X105404000Y-139570000D02*
X106004000Y-139570000D01*
X106004000Y-138970000D01*
X105404000Y-139570000D01*
%TO.C,RGB-51*%
G36*
X86608000Y-139570000D02*
G01*
X87208000Y-139570000D01*
X87208000Y-138970000D01*
X86608000Y-139570000D01*
G37*
X86608000Y-139570000D02*
X87208000Y-139570000D01*
X87208000Y-138970000D01*
X86608000Y-139570000D01*
%TO.C,RGB-50*%
G36*
X62478000Y-139570000D02*
G01*
X63078000Y-139570000D01*
X63078000Y-138970000D01*
X62478000Y-139570000D01*
G37*
X62478000Y-139570000D02*
X63078000Y-139570000D01*
X63078000Y-138970000D01*
X62478000Y-139570000D01*
%TO.C,RGB-49*%
G36*
X68078000Y-124082000D02*
G01*
X67478000Y-124082000D01*
X67478000Y-124682000D01*
X68078000Y-124082000D01*
G37*
X68078000Y-124082000D02*
X67478000Y-124082000D01*
X67478000Y-124682000D01*
X68078000Y-124082000D01*
%TO.C,RGB-48*%
G36*
X92462000Y-123828000D02*
G01*
X91862000Y-123828000D01*
X91862000Y-124428000D01*
X92462000Y-123828000D01*
G37*
X92462000Y-123828000D02*
X91862000Y-123828000D01*
X91862000Y-124428000D01*
X92462000Y-123828000D01*
%TO.C,RGB-47*%
G36*
X111258000Y-123828000D02*
G01*
X110658000Y-123828000D01*
X110658000Y-124428000D01*
X111258000Y-123828000D01*
G37*
X111258000Y-123828000D02*
X110658000Y-123828000D01*
X110658000Y-124428000D01*
X111258000Y-123828000D01*
%TO.C,RGB-46*%
G36*
X129800000Y-123828000D02*
G01*
X129200000Y-123828000D01*
X129200000Y-124428000D01*
X129800000Y-123828000D01*
G37*
X129800000Y-123828000D02*
X129200000Y-123828000D01*
X129200000Y-124428000D01*
X129800000Y-123828000D01*
%TO.C,RGB-45*%
G36*
X148596000Y-123574000D02*
G01*
X147996000Y-123574000D01*
X147996000Y-124174000D01*
X148596000Y-123574000D01*
G37*
X148596000Y-123574000D02*
X147996000Y-123574000D01*
X147996000Y-124174000D01*
X148596000Y-123574000D01*
%TO.C,RGB-44*%
G36*
X167138000Y-123574000D02*
G01*
X166538000Y-123574000D01*
X166538000Y-124174000D01*
X167138000Y-123574000D01*
G37*
X167138000Y-123574000D02*
X166538000Y-123574000D01*
X166538000Y-124174000D01*
X167138000Y-123574000D01*
%TO.C,RGB-43*%
G36*
X185934000Y-123574000D02*
G01*
X185334000Y-123574000D01*
X185334000Y-124174000D01*
X185934000Y-123574000D01*
G37*
X185934000Y-123574000D02*
X185334000Y-123574000D01*
X185334000Y-124174000D01*
X185934000Y-123574000D01*
%TO.C,RGB-42*%
G36*
X204730000Y-123574000D02*
G01*
X204130000Y-123574000D01*
X204130000Y-124174000D01*
X204730000Y-123574000D01*
G37*
X204730000Y-123574000D02*
X204130000Y-123574000D01*
X204130000Y-124174000D01*
X204730000Y-123574000D01*
%TO.C,RGB-41*%
G36*
X223526000Y-123828000D02*
G01*
X222926000Y-123828000D01*
X222926000Y-124428000D01*
X223526000Y-123828000D01*
G37*
X223526000Y-123828000D02*
X222926000Y-123828000D01*
X222926000Y-124428000D01*
X223526000Y-123828000D01*
%TO.C,RGB-40*%
G36*
X242576000Y-123828000D02*
G01*
X241976000Y-123828000D01*
X241976000Y-124428000D01*
X242576000Y-123828000D01*
G37*
X242576000Y-123828000D02*
X241976000Y-123828000D01*
X241976000Y-124428000D01*
X242576000Y-123828000D01*
%TO.C,RGB-39*%
G36*
X261372000Y-123828000D02*
G01*
X260772000Y-123828000D01*
X260772000Y-124428000D01*
X261372000Y-123828000D01*
G37*
X261372000Y-123828000D02*
X260772000Y-123828000D01*
X260772000Y-124428000D01*
X261372000Y-123828000D01*
%TO.C,RGB-38*%
G36*
X280168000Y-123828000D02*
G01*
X279568000Y-123828000D01*
X279568000Y-124428000D01*
X280168000Y-123828000D01*
G37*
X280168000Y-123828000D02*
X279568000Y-123828000D01*
X279568000Y-124428000D01*
X280168000Y-123828000D01*
%TO.C,RGB-37*%
G36*
X298710000Y-123828000D02*
G01*
X298110000Y-123828000D01*
X298110000Y-124428000D01*
X298710000Y-123828000D01*
G37*
X298710000Y-123828000D02*
X298110000Y-123828000D01*
X298110000Y-124428000D01*
X298710000Y-123828000D01*
%TO.C,RGB-36*%
G36*
X293364000Y-101978000D02*
G01*
X293964000Y-101978000D01*
X293964000Y-101378000D01*
X293364000Y-101978000D01*
G37*
X293364000Y-101978000D02*
X293964000Y-101978000D01*
X293964000Y-101378000D01*
X293364000Y-101978000D01*
%TO.C,RGB-35*%
G36*
X274568000Y-101978000D02*
G01*
X275168000Y-101978000D01*
X275168000Y-101378000D01*
X274568000Y-101978000D01*
G37*
X274568000Y-101978000D02*
X275168000Y-101978000D01*
X275168000Y-101378000D01*
X274568000Y-101978000D01*
%TO.C,RGB-34*%
G36*
X255772000Y-101978000D02*
G01*
X256372000Y-101978000D01*
X256372000Y-101378000D01*
X255772000Y-101978000D01*
G37*
X255772000Y-101978000D02*
X256372000Y-101978000D01*
X256372000Y-101378000D01*
X255772000Y-101978000D01*
%TO.C,RGB-33*%
G36*
X236976000Y-101978000D02*
G01*
X237576000Y-101978000D01*
X237576000Y-101378000D01*
X236976000Y-101978000D01*
G37*
X236976000Y-101978000D02*
X237576000Y-101978000D01*
X237576000Y-101378000D01*
X236976000Y-101978000D01*
%TO.C,RGB-32*%
G36*
X218180000Y-101978000D02*
G01*
X218780000Y-101978000D01*
X218780000Y-101378000D01*
X218180000Y-101978000D01*
G37*
X218180000Y-101978000D02*
X218780000Y-101978000D01*
X218780000Y-101378000D01*
X218180000Y-101978000D01*
%TO.C,RGB-31*%
G36*
X199384000Y-101978000D02*
G01*
X199984000Y-101978000D01*
X199984000Y-101378000D01*
X199384000Y-101978000D01*
G37*
X199384000Y-101978000D02*
X199984000Y-101978000D01*
X199984000Y-101378000D01*
X199384000Y-101978000D01*
%TO.C,RGB-30*%
G36*
X180588000Y-101978000D02*
G01*
X181188000Y-101978000D01*
X181188000Y-101378000D01*
X180588000Y-101978000D01*
G37*
X180588000Y-101978000D02*
X181188000Y-101978000D01*
X181188000Y-101378000D01*
X180588000Y-101978000D01*
%TO.C,RGB-29*%
G36*
X162046000Y-101978000D02*
G01*
X162646000Y-101978000D01*
X162646000Y-101378000D01*
X162046000Y-101978000D01*
G37*
X162046000Y-101978000D02*
X162646000Y-101978000D01*
X162646000Y-101378000D01*
X162046000Y-101978000D01*
%TO.C,RGB-28*%
G36*
X142996000Y-101978000D02*
G01*
X143596000Y-101978000D01*
X143596000Y-101378000D01*
X142996000Y-101978000D01*
G37*
X142996000Y-101978000D02*
X143596000Y-101978000D01*
X143596000Y-101378000D01*
X142996000Y-101978000D01*
%TO.C,RGB-27*%
G36*
X124200000Y-101978000D02*
G01*
X124800000Y-101978000D01*
X124800000Y-101378000D01*
X124200000Y-101978000D01*
G37*
X124200000Y-101978000D02*
X124800000Y-101978000D01*
X124800000Y-101378000D01*
X124200000Y-101978000D01*
%TO.C,RGB-26*%
G36*
X105404000Y-101978000D02*
G01*
X106004000Y-101978000D01*
X106004000Y-101378000D01*
X105404000Y-101978000D01*
G37*
X105404000Y-101978000D02*
X106004000Y-101978000D01*
X106004000Y-101378000D01*
X105404000Y-101978000D01*
%TO.C,RGB-25*%
G36*
X86608000Y-101978000D02*
G01*
X87208000Y-101978000D01*
X87208000Y-101378000D01*
X86608000Y-101978000D01*
G37*
X86608000Y-101978000D02*
X87208000Y-101978000D01*
X87208000Y-101378000D01*
X86608000Y-101978000D01*
%TO.C,RGB-24*%
G36*
X62478000Y-101978000D02*
G01*
X63078000Y-101978000D01*
X63078000Y-101378000D01*
X62478000Y-101978000D01*
G37*
X62478000Y-101978000D02*
X63078000Y-101978000D01*
X63078000Y-101378000D01*
X62478000Y-101978000D01*
%TO.C,RGB-23*%
G36*
X92208000Y-86236000D02*
G01*
X91608000Y-86236000D01*
X91608000Y-86836000D01*
X92208000Y-86236000D01*
G37*
X92208000Y-86236000D02*
X91608000Y-86236000D01*
X91608000Y-86836000D01*
X92208000Y-86236000D01*
%TO.C,RGB-22*%
G36*
X111004000Y-86236000D02*
G01*
X110404000Y-86236000D01*
X110404000Y-86836000D01*
X111004000Y-86236000D01*
G37*
X111004000Y-86236000D02*
X110404000Y-86236000D01*
X110404000Y-86836000D01*
X111004000Y-86236000D01*
%TO.C,RGB-21*%
G36*
X129800000Y-86236000D02*
G01*
X129200000Y-86236000D01*
X129200000Y-86836000D01*
X129800000Y-86236000D01*
G37*
X129800000Y-86236000D02*
X129200000Y-86236000D01*
X129200000Y-86836000D01*
X129800000Y-86236000D01*
%TO.C,RGB-20*%
G36*
X148596000Y-86236000D02*
G01*
X147996000Y-86236000D01*
X147996000Y-86836000D01*
X148596000Y-86236000D01*
G37*
X148596000Y-86236000D02*
X147996000Y-86236000D01*
X147996000Y-86836000D01*
X148596000Y-86236000D01*
%TO.C,RGB-19*%
G36*
X167392000Y-86236000D02*
G01*
X166792000Y-86236000D01*
X166792000Y-86836000D01*
X167392000Y-86236000D01*
G37*
X167392000Y-86236000D02*
X166792000Y-86236000D01*
X166792000Y-86836000D01*
X167392000Y-86236000D01*
%TO.C,RGB-18*%
G36*
X186442000Y-86236000D02*
G01*
X185842000Y-86236000D01*
X185842000Y-86836000D01*
X186442000Y-86236000D01*
G37*
X186442000Y-86236000D02*
X185842000Y-86236000D01*
X185842000Y-86836000D01*
X186442000Y-86236000D01*
%TO.C,RGB-17*%
G36*
X204984000Y-86236000D02*
G01*
X204384000Y-86236000D01*
X204384000Y-86836000D01*
X204984000Y-86236000D01*
G37*
X204984000Y-86236000D02*
X204384000Y-86236000D01*
X204384000Y-86836000D01*
X204984000Y-86236000D01*
%TO.C,RGB-16*%
G36*
X223780000Y-86236000D02*
G01*
X223180000Y-86236000D01*
X223180000Y-86836000D01*
X223780000Y-86236000D01*
G37*
X223780000Y-86236000D02*
X223180000Y-86236000D01*
X223180000Y-86836000D01*
X223780000Y-86236000D01*
%TO.C,RGB-15*%
G36*
X242576000Y-86236000D02*
G01*
X241976000Y-86236000D01*
X241976000Y-86836000D01*
X242576000Y-86236000D01*
G37*
X242576000Y-86236000D02*
X241976000Y-86236000D01*
X241976000Y-86836000D01*
X242576000Y-86236000D01*
%TO.C,RGB-14*%
G36*
X261372000Y-86236000D02*
G01*
X260772000Y-86236000D01*
X260772000Y-86836000D01*
X261372000Y-86236000D01*
G37*
X261372000Y-86236000D02*
X260772000Y-86236000D01*
X260772000Y-86836000D01*
X261372000Y-86236000D01*
%TO.C,RGB-13*%
G36*
X280168000Y-86236000D02*
G01*
X279568000Y-86236000D01*
X279568000Y-86836000D01*
X280168000Y-86236000D01*
G37*
X280168000Y-86236000D02*
X279568000Y-86236000D01*
X279568000Y-86836000D01*
X280168000Y-86236000D01*
%TO.C,RGB-12*%
G36*
X298964000Y-86490000D02*
G01*
X298364000Y-86490000D01*
X298364000Y-87090000D01*
X298964000Y-86490000D01*
G37*
X298964000Y-86490000D02*
X298364000Y-86490000D01*
X298364000Y-87090000D01*
X298964000Y-86490000D01*
%TO.C,RGB-0*%
G36*
X86608000Y-64640000D02*
G01*
X87208000Y-64640000D01*
X87208000Y-64040000D01*
X86608000Y-64640000D01*
G37*
X86608000Y-64640000D02*
X87208000Y-64640000D01*
X87208000Y-64040000D01*
X86608000Y-64640000D01*
%TO.C,RGB-11*%
G36*
X293364000Y-64894000D02*
G01*
X293964000Y-64894000D01*
X293964000Y-64294000D01*
X293364000Y-64894000D01*
G37*
X293364000Y-64894000D02*
X293964000Y-64894000D01*
X293964000Y-64294000D01*
X293364000Y-64894000D01*
%TO.C,RGB-2*%
G36*
X124200000Y-64640000D02*
G01*
X124800000Y-64640000D01*
X124800000Y-64040000D01*
X124200000Y-64640000D01*
G37*
X124200000Y-64640000D02*
X124800000Y-64640000D01*
X124800000Y-64040000D01*
X124200000Y-64640000D01*
%TO.C,RGB-10*%
G36*
X274568000Y-64894000D02*
G01*
X275168000Y-64894000D01*
X275168000Y-64294000D01*
X274568000Y-64894000D01*
G37*
X274568000Y-64894000D02*
X275168000Y-64894000D01*
X275168000Y-64294000D01*
X274568000Y-64894000D01*
%TO.C,RGB-9*%
G36*
X255772000Y-64894000D02*
G01*
X256372000Y-64894000D01*
X256372000Y-64294000D01*
X255772000Y-64894000D01*
G37*
X255772000Y-64894000D02*
X256372000Y-64894000D01*
X256372000Y-64294000D01*
X255772000Y-64894000D01*
%TO.C,RGB-8*%
G36*
X237230000Y-64894000D02*
G01*
X237830000Y-64894000D01*
X237830000Y-64294000D01*
X237230000Y-64894000D01*
G37*
X237230000Y-64894000D02*
X237830000Y-64894000D01*
X237830000Y-64294000D01*
X237230000Y-64894000D01*
%TO.C,RGB-7*%
G36*
X218434000Y-64894000D02*
G01*
X219034000Y-64894000D01*
X219034000Y-64294000D01*
X218434000Y-64894000D01*
G37*
X218434000Y-64894000D02*
X219034000Y-64894000D01*
X219034000Y-64294000D01*
X218434000Y-64894000D01*
%TO.C,RGB-6*%
G36*
X199384000Y-64640000D02*
G01*
X199984000Y-64640000D01*
X199984000Y-64040000D01*
X199384000Y-64640000D01*
G37*
X199384000Y-64640000D02*
X199984000Y-64640000D01*
X199984000Y-64040000D01*
X199384000Y-64640000D01*
%TO.C,RGB-5*%
G36*
X180588000Y-64640000D02*
G01*
X181188000Y-64640000D01*
X181188000Y-64040000D01*
X180588000Y-64640000D01*
G37*
X180588000Y-64640000D02*
X181188000Y-64640000D01*
X181188000Y-64040000D01*
X180588000Y-64640000D01*
%TO.C,RGB-4*%
G36*
X162046000Y-64640000D02*
G01*
X162646000Y-64640000D01*
X162646000Y-64040000D01*
X162046000Y-64640000D01*
G37*
X162046000Y-64640000D02*
X162646000Y-64640000D01*
X162646000Y-64040000D01*
X162046000Y-64640000D01*
%TO.C,RGB-3*%
G36*
X142996000Y-64640000D02*
G01*
X143596000Y-64640000D01*
X143596000Y-64040000D01*
X142996000Y-64640000D01*
G37*
X142996000Y-64640000D02*
X143596000Y-64640000D01*
X143596000Y-64040000D01*
X142996000Y-64640000D01*
%TO.C,RGB-1*%
G36*
X105404000Y-64640000D02*
G01*
X106004000Y-64640000D01*
X106004000Y-64040000D01*
X105404000Y-64640000D01*
G37*
X105404000Y-64640000D02*
X106004000Y-64640000D01*
X106004000Y-64040000D01*
X105404000Y-64640000D01*
D11*
%TO.C,U1*%
X58674000Y-54102000D02*
X56134000Y-54102000D01*
X73914000Y-51562000D02*
X56134000Y-51562000D01*
X56134000Y-51562000D02*
X56134000Y-84582000D01*
X56134000Y-84582000D02*
X73914000Y-84582000D01*
X73914000Y-84582000D02*
X73914000Y-51562000D01*
D12*
G36*
X70868635Y-59991030D02*
G01*
X70868635Y-60091030D01*
X71368635Y-60091030D01*
X71368635Y-59991030D01*
X70868635Y-59991030D01*
G37*
X70868635Y-59991030D02*
X70868635Y-60091030D01*
X71368635Y-60091030D01*
X71368635Y-59991030D01*
X70868635Y-59991030D01*
G36*
X70868635Y-59991030D02*
G01*
X70868635Y-60291030D01*
X70968635Y-60291030D01*
X70968635Y-59991030D01*
X70868635Y-59991030D01*
G37*
X70868635Y-59991030D02*
X70868635Y-60291030D01*
X70968635Y-60291030D01*
X70968635Y-59991030D01*
X70868635Y-59991030D01*
G36*
X70868635Y-60591030D02*
G01*
X70868635Y-60791030D01*
X70968635Y-60791030D01*
X70968635Y-60591030D01*
X70868635Y-60591030D01*
G37*
X70868635Y-60591030D02*
X70868635Y-60791030D01*
X70968635Y-60791030D01*
X70968635Y-60591030D01*
X70868635Y-60591030D01*
G36*
X71268635Y-59991030D02*
G01*
X71268635Y-60791030D01*
X71368635Y-60791030D01*
X71368635Y-59991030D01*
X71268635Y-59991030D01*
G37*
X71268635Y-59991030D02*
X71268635Y-60791030D01*
X71368635Y-60791030D01*
X71368635Y-59991030D01*
X71268635Y-59991030D01*
G36*
X71068635Y-60391030D02*
G01*
X71068635Y-60491030D01*
X71168635Y-60491030D01*
X71168635Y-60391030D01*
X71068635Y-60391030D01*
G37*
X71068635Y-60391030D02*
X71068635Y-60491030D01*
X71168635Y-60491030D01*
X71168635Y-60391030D01*
X71068635Y-60391030D01*
D11*
X58674000Y-54102000D02*
X58674000Y-56642000D01*
X58674000Y-56642000D02*
X56134000Y-56642000D01*
%TO.C,RGB-61*%
D12*
X297747333Y-143894666D02*
X297980666Y-143561333D01*
X298147333Y-143894666D02*
X298147333Y-143194666D01*
X297880666Y-143194666D01*
X297814000Y-143228000D01*
X297780666Y-143261333D01*
X297747333Y-143328000D01*
X297747333Y-143428000D01*
X297780666Y-143494666D01*
X297814000Y-143528000D01*
X297880666Y-143561333D01*
X298147333Y-143561333D01*
X297080666Y-143228000D02*
X297147333Y-143194666D01*
X297247333Y-143194666D01*
X297347333Y-143228000D01*
X297414000Y-143294666D01*
X297447333Y-143361333D01*
X297480666Y-143494666D01*
X297480666Y-143594666D01*
X297447333Y-143728000D01*
X297414000Y-143794666D01*
X297347333Y-143861333D01*
X297247333Y-143894666D01*
X297180666Y-143894666D01*
X297080666Y-143861333D01*
X297047333Y-143828000D01*
X297047333Y-143594666D01*
X297180666Y-143594666D01*
X296514000Y-143528000D02*
X296414000Y-143561333D01*
X296380666Y-143594666D01*
X296347333Y-143661333D01*
X296347333Y-143761333D01*
X296380666Y-143828000D01*
X296414000Y-143861333D01*
X296480666Y-143894666D01*
X296747333Y-143894666D01*
X296747333Y-143194666D01*
X296514000Y-143194666D01*
X296447333Y-143228000D01*
X296414000Y-143261333D01*
X296380666Y-143328000D01*
X296380666Y-143394666D01*
X296414000Y-143461333D01*
X296447333Y-143494666D01*
X296514000Y-143528000D01*
X296747333Y-143528000D01*
X296047333Y-143628000D02*
X295514000Y-143628000D01*
X294880666Y-143194666D02*
X295014000Y-143194666D01*
X295080666Y-143228000D01*
X295114000Y-143261333D01*
X295180666Y-143361333D01*
X295214000Y-143494666D01*
X295214000Y-143761333D01*
X295180666Y-143828000D01*
X295147333Y-143861333D01*
X295080666Y-143894666D01*
X294947333Y-143894666D01*
X294880666Y-143861333D01*
X294847333Y-143828000D01*
X294814000Y-143761333D01*
X294814000Y-143594666D01*
X294847333Y-143528000D01*
X294880666Y-143494666D01*
X294947333Y-143461333D01*
X295080666Y-143461333D01*
X295147333Y-143494666D01*
X295180666Y-143528000D01*
X295214000Y-143594666D01*
X294147333Y-143894666D02*
X294547333Y-143894666D01*
X294347333Y-143894666D02*
X294347333Y-143194666D01*
X294414000Y-143294666D01*
X294480666Y-143361333D01*
X294547333Y-143394666D01*
%TO.C,RGB-60*%
X278951333Y-143894666D02*
X279184666Y-143561333D01*
X279351333Y-143894666D02*
X279351333Y-143194666D01*
X279084666Y-143194666D01*
X279018000Y-143228000D01*
X278984666Y-143261333D01*
X278951333Y-143328000D01*
X278951333Y-143428000D01*
X278984666Y-143494666D01*
X279018000Y-143528000D01*
X279084666Y-143561333D01*
X279351333Y-143561333D01*
X278284666Y-143228000D02*
X278351333Y-143194666D01*
X278451333Y-143194666D01*
X278551333Y-143228000D01*
X278618000Y-143294666D01*
X278651333Y-143361333D01*
X278684666Y-143494666D01*
X278684666Y-143594666D01*
X278651333Y-143728000D01*
X278618000Y-143794666D01*
X278551333Y-143861333D01*
X278451333Y-143894666D01*
X278384666Y-143894666D01*
X278284666Y-143861333D01*
X278251333Y-143828000D01*
X278251333Y-143594666D01*
X278384666Y-143594666D01*
X277718000Y-143528000D02*
X277618000Y-143561333D01*
X277584666Y-143594666D01*
X277551333Y-143661333D01*
X277551333Y-143761333D01*
X277584666Y-143828000D01*
X277618000Y-143861333D01*
X277684666Y-143894666D01*
X277951333Y-143894666D01*
X277951333Y-143194666D01*
X277718000Y-143194666D01*
X277651333Y-143228000D01*
X277618000Y-143261333D01*
X277584666Y-143328000D01*
X277584666Y-143394666D01*
X277618000Y-143461333D01*
X277651333Y-143494666D01*
X277718000Y-143528000D01*
X277951333Y-143528000D01*
X277251333Y-143628000D02*
X276718000Y-143628000D01*
X276084666Y-143194666D02*
X276218000Y-143194666D01*
X276284666Y-143228000D01*
X276318000Y-143261333D01*
X276384666Y-143361333D01*
X276418000Y-143494666D01*
X276418000Y-143761333D01*
X276384666Y-143828000D01*
X276351333Y-143861333D01*
X276284666Y-143894666D01*
X276151333Y-143894666D01*
X276084666Y-143861333D01*
X276051333Y-143828000D01*
X276018000Y-143761333D01*
X276018000Y-143594666D01*
X276051333Y-143528000D01*
X276084666Y-143494666D01*
X276151333Y-143461333D01*
X276284666Y-143461333D01*
X276351333Y-143494666D01*
X276384666Y-143528000D01*
X276418000Y-143594666D01*
X275584666Y-143194666D02*
X275518000Y-143194666D01*
X275451333Y-143228000D01*
X275418000Y-143261333D01*
X275384666Y-143328000D01*
X275351333Y-143461333D01*
X275351333Y-143628000D01*
X275384666Y-143761333D01*
X275418000Y-143828000D01*
X275451333Y-143861333D01*
X275518000Y-143894666D01*
X275584666Y-143894666D01*
X275651333Y-143861333D01*
X275684666Y-143828000D01*
X275718000Y-143761333D01*
X275751333Y-143628000D01*
X275751333Y-143461333D01*
X275718000Y-143328000D01*
X275684666Y-143261333D01*
X275651333Y-143228000D01*
X275584666Y-143194666D01*
%TO.C,RGB-59*%
X259901333Y-143894666D02*
X260134666Y-143561333D01*
X260301333Y-143894666D02*
X260301333Y-143194666D01*
X260034666Y-143194666D01*
X259968000Y-143228000D01*
X259934666Y-143261333D01*
X259901333Y-143328000D01*
X259901333Y-143428000D01*
X259934666Y-143494666D01*
X259968000Y-143528000D01*
X260034666Y-143561333D01*
X260301333Y-143561333D01*
X259234666Y-143228000D02*
X259301333Y-143194666D01*
X259401333Y-143194666D01*
X259501333Y-143228000D01*
X259568000Y-143294666D01*
X259601333Y-143361333D01*
X259634666Y-143494666D01*
X259634666Y-143594666D01*
X259601333Y-143728000D01*
X259568000Y-143794666D01*
X259501333Y-143861333D01*
X259401333Y-143894666D01*
X259334666Y-143894666D01*
X259234666Y-143861333D01*
X259201333Y-143828000D01*
X259201333Y-143594666D01*
X259334666Y-143594666D01*
X258668000Y-143528000D02*
X258568000Y-143561333D01*
X258534666Y-143594666D01*
X258501333Y-143661333D01*
X258501333Y-143761333D01*
X258534666Y-143828000D01*
X258568000Y-143861333D01*
X258634666Y-143894666D01*
X258901333Y-143894666D01*
X258901333Y-143194666D01*
X258668000Y-143194666D01*
X258601333Y-143228000D01*
X258568000Y-143261333D01*
X258534666Y-143328000D01*
X258534666Y-143394666D01*
X258568000Y-143461333D01*
X258601333Y-143494666D01*
X258668000Y-143528000D01*
X258901333Y-143528000D01*
X258201333Y-143628000D02*
X257668000Y-143628000D01*
X257001333Y-143194666D02*
X257334666Y-143194666D01*
X257368000Y-143528000D01*
X257334666Y-143494666D01*
X257268000Y-143461333D01*
X257101333Y-143461333D01*
X257034666Y-143494666D01*
X257001333Y-143528000D01*
X256968000Y-143594666D01*
X256968000Y-143761333D01*
X257001333Y-143828000D01*
X257034666Y-143861333D01*
X257101333Y-143894666D01*
X257268000Y-143894666D01*
X257334666Y-143861333D01*
X257368000Y-143828000D01*
X256634666Y-143894666D02*
X256501333Y-143894666D01*
X256434666Y-143861333D01*
X256401333Y-143828000D01*
X256334666Y-143728000D01*
X256301333Y-143594666D01*
X256301333Y-143328000D01*
X256334666Y-143261333D01*
X256368000Y-143228000D01*
X256434666Y-143194666D01*
X256568000Y-143194666D01*
X256634666Y-143228000D01*
X256668000Y-143261333D01*
X256701333Y-143328000D01*
X256701333Y-143494666D01*
X256668000Y-143561333D01*
X256634666Y-143594666D01*
X256568000Y-143628000D01*
X256434666Y-143628000D01*
X256368000Y-143594666D01*
X256334666Y-143561333D01*
X256301333Y-143494666D01*
%TO.C,RGB-58*%
X241359333Y-143640666D02*
X241592666Y-143307333D01*
X241759333Y-143640666D02*
X241759333Y-142940666D01*
X241492666Y-142940666D01*
X241426000Y-142974000D01*
X241392666Y-143007333D01*
X241359333Y-143074000D01*
X241359333Y-143174000D01*
X241392666Y-143240666D01*
X241426000Y-143274000D01*
X241492666Y-143307333D01*
X241759333Y-143307333D01*
X240692666Y-142974000D02*
X240759333Y-142940666D01*
X240859333Y-142940666D01*
X240959333Y-142974000D01*
X241026000Y-143040666D01*
X241059333Y-143107333D01*
X241092666Y-143240666D01*
X241092666Y-143340666D01*
X241059333Y-143474000D01*
X241026000Y-143540666D01*
X240959333Y-143607333D01*
X240859333Y-143640666D01*
X240792666Y-143640666D01*
X240692666Y-143607333D01*
X240659333Y-143574000D01*
X240659333Y-143340666D01*
X240792666Y-143340666D01*
X240126000Y-143274000D02*
X240026000Y-143307333D01*
X239992666Y-143340666D01*
X239959333Y-143407333D01*
X239959333Y-143507333D01*
X239992666Y-143574000D01*
X240026000Y-143607333D01*
X240092666Y-143640666D01*
X240359333Y-143640666D01*
X240359333Y-142940666D01*
X240126000Y-142940666D01*
X240059333Y-142974000D01*
X240026000Y-143007333D01*
X239992666Y-143074000D01*
X239992666Y-143140666D01*
X240026000Y-143207333D01*
X240059333Y-143240666D01*
X240126000Y-143274000D01*
X240359333Y-143274000D01*
X239659333Y-143374000D02*
X239126000Y-143374000D01*
X238459333Y-142940666D02*
X238792666Y-142940666D01*
X238826000Y-143274000D01*
X238792666Y-143240666D01*
X238726000Y-143207333D01*
X238559333Y-143207333D01*
X238492666Y-143240666D01*
X238459333Y-143274000D01*
X238426000Y-143340666D01*
X238426000Y-143507333D01*
X238459333Y-143574000D01*
X238492666Y-143607333D01*
X238559333Y-143640666D01*
X238726000Y-143640666D01*
X238792666Y-143607333D01*
X238826000Y-143574000D01*
X238026000Y-143240666D02*
X238092666Y-143207333D01*
X238126000Y-143174000D01*
X238159333Y-143107333D01*
X238159333Y-143074000D01*
X238126000Y-143007333D01*
X238092666Y-142974000D01*
X238026000Y-142940666D01*
X237892666Y-142940666D01*
X237826000Y-142974000D01*
X237792666Y-143007333D01*
X237759333Y-143074000D01*
X237759333Y-143107333D01*
X237792666Y-143174000D01*
X237826000Y-143207333D01*
X237892666Y-143240666D01*
X238026000Y-143240666D01*
X238092666Y-143274000D01*
X238126000Y-143307333D01*
X238159333Y-143374000D01*
X238159333Y-143507333D01*
X238126000Y-143574000D01*
X238092666Y-143607333D01*
X238026000Y-143640666D01*
X237892666Y-143640666D01*
X237826000Y-143607333D01*
X237792666Y-143574000D01*
X237759333Y-143507333D01*
X237759333Y-143374000D01*
X237792666Y-143307333D01*
X237826000Y-143274000D01*
X237892666Y-143240666D01*
%TO.C,RGB-57*%
X222563333Y-143640666D02*
X222796666Y-143307333D01*
X222963333Y-143640666D02*
X222963333Y-142940666D01*
X222696666Y-142940666D01*
X222630000Y-142974000D01*
X222596666Y-143007333D01*
X222563333Y-143074000D01*
X222563333Y-143174000D01*
X222596666Y-143240666D01*
X222630000Y-143274000D01*
X222696666Y-143307333D01*
X222963333Y-143307333D01*
X221896666Y-142974000D02*
X221963333Y-142940666D01*
X222063333Y-142940666D01*
X222163333Y-142974000D01*
X222230000Y-143040666D01*
X222263333Y-143107333D01*
X222296666Y-143240666D01*
X222296666Y-143340666D01*
X222263333Y-143474000D01*
X222230000Y-143540666D01*
X222163333Y-143607333D01*
X222063333Y-143640666D01*
X221996666Y-143640666D01*
X221896666Y-143607333D01*
X221863333Y-143574000D01*
X221863333Y-143340666D01*
X221996666Y-143340666D01*
X221330000Y-143274000D02*
X221230000Y-143307333D01*
X221196666Y-143340666D01*
X221163333Y-143407333D01*
X221163333Y-143507333D01*
X221196666Y-143574000D01*
X221230000Y-143607333D01*
X221296666Y-143640666D01*
X221563333Y-143640666D01*
X221563333Y-142940666D01*
X221330000Y-142940666D01*
X221263333Y-142974000D01*
X221230000Y-143007333D01*
X221196666Y-143074000D01*
X221196666Y-143140666D01*
X221230000Y-143207333D01*
X221263333Y-143240666D01*
X221330000Y-143274000D01*
X221563333Y-143274000D01*
X220863333Y-143374000D02*
X220330000Y-143374000D01*
X219663333Y-142940666D02*
X219996666Y-142940666D01*
X220030000Y-143274000D01*
X219996666Y-143240666D01*
X219930000Y-143207333D01*
X219763333Y-143207333D01*
X219696666Y-143240666D01*
X219663333Y-143274000D01*
X219630000Y-143340666D01*
X219630000Y-143507333D01*
X219663333Y-143574000D01*
X219696666Y-143607333D01*
X219763333Y-143640666D01*
X219930000Y-143640666D01*
X219996666Y-143607333D01*
X220030000Y-143574000D01*
X219396666Y-142940666D02*
X218930000Y-142940666D01*
X219230000Y-143640666D01*
%TO.C,RGB-56*%
X194369333Y-143386666D02*
X194602666Y-143053333D01*
X194769333Y-143386666D02*
X194769333Y-142686666D01*
X194502666Y-142686666D01*
X194436000Y-142720000D01*
X194402666Y-142753333D01*
X194369333Y-142820000D01*
X194369333Y-142920000D01*
X194402666Y-142986666D01*
X194436000Y-143020000D01*
X194502666Y-143053333D01*
X194769333Y-143053333D01*
X193702666Y-142720000D02*
X193769333Y-142686666D01*
X193869333Y-142686666D01*
X193969333Y-142720000D01*
X194036000Y-142786666D01*
X194069333Y-142853333D01*
X194102666Y-142986666D01*
X194102666Y-143086666D01*
X194069333Y-143220000D01*
X194036000Y-143286666D01*
X193969333Y-143353333D01*
X193869333Y-143386666D01*
X193802666Y-143386666D01*
X193702666Y-143353333D01*
X193669333Y-143320000D01*
X193669333Y-143086666D01*
X193802666Y-143086666D01*
X193136000Y-143020000D02*
X193036000Y-143053333D01*
X193002666Y-143086666D01*
X192969333Y-143153333D01*
X192969333Y-143253333D01*
X193002666Y-143320000D01*
X193036000Y-143353333D01*
X193102666Y-143386666D01*
X193369333Y-143386666D01*
X193369333Y-142686666D01*
X193136000Y-142686666D01*
X193069333Y-142720000D01*
X193036000Y-142753333D01*
X193002666Y-142820000D01*
X193002666Y-142886666D01*
X193036000Y-142953333D01*
X193069333Y-142986666D01*
X193136000Y-143020000D01*
X193369333Y-143020000D01*
X192669333Y-143120000D02*
X192136000Y-143120000D01*
X191469333Y-142686666D02*
X191802666Y-142686666D01*
X191836000Y-143020000D01*
X191802666Y-142986666D01*
X191736000Y-142953333D01*
X191569333Y-142953333D01*
X191502666Y-142986666D01*
X191469333Y-143020000D01*
X191436000Y-143086666D01*
X191436000Y-143253333D01*
X191469333Y-143320000D01*
X191502666Y-143353333D01*
X191569333Y-143386666D01*
X191736000Y-143386666D01*
X191802666Y-143353333D01*
X191836000Y-143320000D01*
X190836000Y-142686666D02*
X190969333Y-142686666D01*
X191036000Y-142720000D01*
X191069333Y-142753333D01*
X191136000Y-142853333D01*
X191169333Y-142986666D01*
X191169333Y-143253333D01*
X191136000Y-143320000D01*
X191102666Y-143353333D01*
X191036000Y-143386666D01*
X190902666Y-143386666D01*
X190836000Y-143353333D01*
X190802666Y-143320000D01*
X190769333Y-143253333D01*
X190769333Y-143086666D01*
X190802666Y-143020000D01*
X190836000Y-142986666D01*
X190902666Y-142953333D01*
X191036000Y-142953333D01*
X191102666Y-142986666D01*
X191136000Y-143020000D01*
X191169333Y-143086666D01*
%TO.C,RGB-55*%
X165921333Y-143386666D02*
X166154666Y-143053333D01*
X166321333Y-143386666D02*
X166321333Y-142686666D01*
X166054666Y-142686666D01*
X165988000Y-142720000D01*
X165954666Y-142753333D01*
X165921333Y-142820000D01*
X165921333Y-142920000D01*
X165954666Y-142986666D01*
X165988000Y-143020000D01*
X166054666Y-143053333D01*
X166321333Y-143053333D01*
X165254666Y-142720000D02*
X165321333Y-142686666D01*
X165421333Y-142686666D01*
X165521333Y-142720000D01*
X165588000Y-142786666D01*
X165621333Y-142853333D01*
X165654666Y-142986666D01*
X165654666Y-143086666D01*
X165621333Y-143220000D01*
X165588000Y-143286666D01*
X165521333Y-143353333D01*
X165421333Y-143386666D01*
X165354666Y-143386666D01*
X165254666Y-143353333D01*
X165221333Y-143320000D01*
X165221333Y-143086666D01*
X165354666Y-143086666D01*
X164688000Y-143020000D02*
X164588000Y-143053333D01*
X164554666Y-143086666D01*
X164521333Y-143153333D01*
X164521333Y-143253333D01*
X164554666Y-143320000D01*
X164588000Y-143353333D01*
X164654666Y-143386666D01*
X164921333Y-143386666D01*
X164921333Y-142686666D01*
X164688000Y-142686666D01*
X164621333Y-142720000D01*
X164588000Y-142753333D01*
X164554666Y-142820000D01*
X164554666Y-142886666D01*
X164588000Y-142953333D01*
X164621333Y-142986666D01*
X164688000Y-143020000D01*
X164921333Y-143020000D01*
X164221333Y-143120000D02*
X163688000Y-143120000D01*
X163021333Y-142686666D02*
X163354666Y-142686666D01*
X163388000Y-143020000D01*
X163354666Y-142986666D01*
X163288000Y-142953333D01*
X163121333Y-142953333D01*
X163054666Y-142986666D01*
X163021333Y-143020000D01*
X162988000Y-143086666D01*
X162988000Y-143253333D01*
X163021333Y-143320000D01*
X163054666Y-143353333D01*
X163121333Y-143386666D01*
X163288000Y-143386666D01*
X163354666Y-143353333D01*
X163388000Y-143320000D01*
X162354666Y-142686666D02*
X162688000Y-142686666D01*
X162721333Y-143020000D01*
X162688000Y-142986666D01*
X162621333Y-142953333D01*
X162454666Y-142953333D01*
X162388000Y-142986666D01*
X162354666Y-143020000D01*
X162321333Y-143086666D01*
X162321333Y-143253333D01*
X162354666Y-143320000D01*
X162388000Y-143353333D01*
X162454666Y-143386666D01*
X162621333Y-143386666D01*
X162688000Y-143353333D01*
X162721333Y-143320000D01*
%TO.C,RGB-54*%
X147379333Y-143386666D02*
X147612666Y-143053333D01*
X147779333Y-143386666D02*
X147779333Y-142686666D01*
X147512666Y-142686666D01*
X147446000Y-142720000D01*
X147412666Y-142753333D01*
X147379333Y-142820000D01*
X147379333Y-142920000D01*
X147412666Y-142986666D01*
X147446000Y-143020000D01*
X147512666Y-143053333D01*
X147779333Y-143053333D01*
X146712666Y-142720000D02*
X146779333Y-142686666D01*
X146879333Y-142686666D01*
X146979333Y-142720000D01*
X147046000Y-142786666D01*
X147079333Y-142853333D01*
X147112666Y-142986666D01*
X147112666Y-143086666D01*
X147079333Y-143220000D01*
X147046000Y-143286666D01*
X146979333Y-143353333D01*
X146879333Y-143386666D01*
X146812666Y-143386666D01*
X146712666Y-143353333D01*
X146679333Y-143320000D01*
X146679333Y-143086666D01*
X146812666Y-143086666D01*
X146146000Y-143020000D02*
X146046000Y-143053333D01*
X146012666Y-143086666D01*
X145979333Y-143153333D01*
X145979333Y-143253333D01*
X146012666Y-143320000D01*
X146046000Y-143353333D01*
X146112666Y-143386666D01*
X146379333Y-143386666D01*
X146379333Y-142686666D01*
X146146000Y-142686666D01*
X146079333Y-142720000D01*
X146046000Y-142753333D01*
X146012666Y-142820000D01*
X146012666Y-142886666D01*
X146046000Y-142953333D01*
X146079333Y-142986666D01*
X146146000Y-143020000D01*
X146379333Y-143020000D01*
X145679333Y-143120000D02*
X145146000Y-143120000D01*
X144479333Y-142686666D02*
X144812666Y-142686666D01*
X144846000Y-143020000D01*
X144812666Y-142986666D01*
X144746000Y-142953333D01*
X144579333Y-142953333D01*
X144512666Y-142986666D01*
X144479333Y-143020000D01*
X144446000Y-143086666D01*
X144446000Y-143253333D01*
X144479333Y-143320000D01*
X144512666Y-143353333D01*
X144579333Y-143386666D01*
X144746000Y-143386666D01*
X144812666Y-143353333D01*
X144846000Y-143320000D01*
X143846000Y-142920000D02*
X143846000Y-143386666D01*
X144012666Y-142653333D02*
X144179333Y-143153333D01*
X143746000Y-143153333D01*
%TO.C,RGB-53*%
X128583333Y-143386666D02*
X128816666Y-143053333D01*
X128983333Y-143386666D02*
X128983333Y-142686666D01*
X128716666Y-142686666D01*
X128650000Y-142720000D01*
X128616666Y-142753333D01*
X128583333Y-142820000D01*
X128583333Y-142920000D01*
X128616666Y-142986666D01*
X128650000Y-143020000D01*
X128716666Y-143053333D01*
X128983333Y-143053333D01*
X127916666Y-142720000D02*
X127983333Y-142686666D01*
X128083333Y-142686666D01*
X128183333Y-142720000D01*
X128250000Y-142786666D01*
X128283333Y-142853333D01*
X128316666Y-142986666D01*
X128316666Y-143086666D01*
X128283333Y-143220000D01*
X128250000Y-143286666D01*
X128183333Y-143353333D01*
X128083333Y-143386666D01*
X128016666Y-143386666D01*
X127916666Y-143353333D01*
X127883333Y-143320000D01*
X127883333Y-143086666D01*
X128016666Y-143086666D01*
X127350000Y-143020000D02*
X127250000Y-143053333D01*
X127216666Y-143086666D01*
X127183333Y-143153333D01*
X127183333Y-143253333D01*
X127216666Y-143320000D01*
X127250000Y-143353333D01*
X127316666Y-143386666D01*
X127583333Y-143386666D01*
X127583333Y-142686666D01*
X127350000Y-142686666D01*
X127283333Y-142720000D01*
X127250000Y-142753333D01*
X127216666Y-142820000D01*
X127216666Y-142886666D01*
X127250000Y-142953333D01*
X127283333Y-142986666D01*
X127350000Y-143020000D01*
X127583333Y-143020000D01*
X126883333Y-143120000D02*
X126350000Y-143120000D01*
X125683333Y-142686666D02*
X126016666Y-142686666D01*
X126050000Y-143020000D01*
X126016666Y-142986666D01*
X125950000Y-142953333D01*
X125783333Y-142953333D01*
X125716666Y-142986666D01*
X125683333Y-143020000D01*
X125650000Y-143086666D01*
X125650000Y-143253333D01*
X125683333Y-143320000D01*
X125716666Y-143353333D01*
X125783333Y-143386666D01*
X125950000Y-143386666D01*
X126016666Y-143353333D01*
X126050000Y-143320000D01*
X125416666Y-142686666D02*
X124983333Y-142686666D01*
X125216666Y-142953333D01*
X125116666Y-142953333D01*
X125050000Y-142986666D01*
X125016666Y-143020000D01*
X124983333Y-143086666D01*
X124983333Y-143253333D01*
X125016666Y-143320000D01*
X125050000Y-143353333D01*
X125116666Y-143386666D01*
X125316666Y-143386666D01*
X125383333Y-143353333D01*
X125416666Y-143320000D01*
%TO.C,RGB-52*%
X109787333Y-143386666D02*
X110020666Y-143053333D01*
X110187333Y-143386666D02*
X110187333Y-142686666D01*
X109920666Y-142686666D01*
X109854000Y-142720000D01*
X109820666Y-142753333D01*
X109787333Y-142820000D01*
X109787333Y-142920000D01*
X109820666Y-142986666D01*
X109854000Y-143020000D01*
X109920666Y-143053333D01*
X110187333Y-143053333D01*
X109120666Y-142720000D02*
X109187333Y-142686666D01*
X109287333Y-142686666D01*
X109387333Y-142720000D01*
X109454000Y-142786666D01*
X109487333Y-142853333D01*
X109520666Y-142986666D01*
X109520666Y-143086666D01*
X109487333Y-143220000D01*
X109454000Y-143286666D01*
X109387333Y-143353333D01*
X109287333Y-143386666D01*
X109220666Y-143386666D01*
X109120666Y-143353333D01*
X109087333Y-143320000D01*
X109087333Y-143086666D01*
X109220666Y-143086666D01*
X108554000Y-143020000D02*
X108454000Y-143053333D01*
X108420666Y-143086666D01*
X108387333Y-143153333D01*
X108387333Y-143253333D01*
X108420666Y-143320000D01*
X108454000Y-143353333D01*
X108520666Y-143386666D01*
X108787333Y-143386666D01*
X108787333Y-142686666D01*
X108554000Y-142686666D01*
X108487333Y-142720000D01*
X108454000Y-142753333D01*
X108420666Y-142820000D01*
X108420666Y-142886666D01*
X108454000Y-142953333D01*
X108487333Y-142986666D01*
X108554000Y-143020000D01*
X108787333Y-143020000D01*
X108087333Y-143120000D02*
X107554000Y-143120000D01*
X106887333Y-142686666D02*
X107220666Y-142686666D01*
X107254000Y-143020000D01*
X107220666Y-142986666D01*
X107154000Y-142953333D01*
X106987333Y-142953333D01*
X106920666Y-142986666D01*
X106887333Y-143020000D01*
X106854000Y-143086666D01*
X106854000Y-143253333D01*
X106887333Y-143320000D01*
X106920666Y-143353333D01*
X106987333Y-143386666D01*
X107154000Y-143386666D01*
X107220666Y-143353333D01*
X107254000Y-143320000D01*
X106587333Y-142753333D02*
X106554000Y-142720000D01*
X106487333Y-142686666D01*
X106320666Y-142686666D01*
X106254000Y-142720000D01*
X106220666Y-142753333D01*
X106187333Y-142820000D01*
X106187333Y-142886666D01*
X106220666Y-142986666D01*
X106620666Y-143386666D01*
X106187333Y-143386666D01*
%TO.C,RGB-51*%
X90991333Y-143386666D02*
X91224666Y-143053333D01*
X91391333Y-143386666D02*
X91391333Y-142686666D01*
X91124666Y-142686666D01*
X91058000Y-142720000D01*
X91024666Y-142753333D01*
X90991333Y-142820000D01*
X90991333Y-142920000D01*
X91024666Y-142986666D01*
X91058000Y-143020000D01*
X91124666Y-143053333D01*
X91391333Y-143053333D01*
X90324666Y-142720000D02*
X90391333Y-142686666D01*
X90491333Y-142686666D01*
X90591333Y-142720000D01*
X90658000Y-142786666D01*
X90691333Y-142853333D01*
X90724666Y-142986666D01*
X90724666Y-143086666D01*
X90691333Y-143220000D01*
X90658000Y-143286666D01*
X90591333Y-143353333D01*
X90491333Y-143386666D01*
X90424666Y-143386666D01*
X90324666Y-143353333D01*
X90291333Y-143320000D01*
X90291333Y-143086666D01*
X90424666Y-143086666D01*
X89758000Y-143020000D02*
X89658000Y-143053333D01*
X89624666Y-143086666D01*
X89591333Y-143153333D01*
X89591333Y-143253333D01*
X89624666Y-143320000D01*
X89658000Y-143353333D01*
X89724666Y-143386666D01*
X89991333Y-143386666D01*
X89991333Y-142686666D01*
X89758000Y-142686666D01*
X89691333Y-142720000D01*
X89658000Y-142753333D01*
X89624666Y-142820000D01*
X89624666Y-142886666D01*
X89658000Y-142953333D01*
X89691333Y-142986666D01*
X89758000Y-143020000D01*
X89991333Y-143020000D01*
X89291333Y-143120000D02*
X88758000Y-143120000D01*
X88091333Y-142686666D02*
X88424666Y-142686666D01*
X88458000Y-143020000D01*
X88424666Y-142986666D01*
X88358000Y-142953333D01*
X88191333Y-142953333D01*
X88124666Y-142986666D01*
X88091333Y-143020000D01*
X88058000Y-143086666D01*
X88058000Y-143253333D01*
X88091333Y-143320000D01*
X88124666Y-143353333D01*
X88191333Y-143386666D01*
X88358000Y-143386666D01*
X88424666Y-143353333D01*
X88458000Y-143320000D01*
X87391333Y-143386666D02*
X87791333Y-143386666D01*
X87591333Y-143386666D02*
X87591333Y-142686666D01*
X87658000Y-142786666D01*
X87724666Y-142853333D01*
X87791333Y-142886666D01*
%TO.C,RGB-50*%
X66861333Y-143386666D02*
X67094666Y-143053333D01*
X67261333Y-143386666D02*
X67261333Y-142686666D01*
X66994666Y-142686666D01*
X66928000Y-142720000D01*
X66894666Y-142753333D01*
X66861333Y-142820000D01*
X66861333Y-142920000D01*
X66894666Y-142986666D01*
X66928000Y-143020000D01*
X66994666Y-143053333D01*
X67261333Y-143053333D01*
X66194666Y-142720000D02*
X66261333Y-142686666D01*
X66361333Y-142686666D01*
X66461333Y-142720000D01*
X66528000Y-142786666D01*
X66561333Y-142853333D01*
X66594666Y-142986666D01*
X66594666Y-143086666D01*
X66561333Y-143220000D01*
X66528000Y-143286666D01*
X66461333Y-143353333D01*
X66361333Y-143386666D01*
X66294666Y-143386666D01*
X66194666Y-143353333D01*
X66161333Y-143320000D01*
X66161333Y-143086666D01*
X66294666Y-143086666D01*
X65628000Y-143020000D02*
X65528000Y-143053333D01*
X65494666Y-143086666D01*
X65461333Y-143153333D01*
X65461333Y-143253333D01*
X65494666Y-143320000D01*
X65528000Y-143353333D01*
X65594666Y-143386666D01*
X65861333Y-143386666D01*
X65861333Y-142686666D01*
X65628000Y-142686666D01*
X65561333Y-142720000D01*
X65528000Y-142753333D01*
X65494666Y-142820000D01*
X65494666Y-142886666D01*
X65528000Y-142953333D01*
X65561333Y-142986666D01*
X65628000Y-143020000D01*
X65861333Y-143020000D01*
X65161333Y-143120000D02*
X64628000Y-143120000D01*
X63961333Y-142686666D02*
X64294666Y-142686666D01*
X64328000Y-143020000D01*
X64294666Y-142986666D01*
X64228000Y-142953333D01*
X64061333Y-142953333D01*
X63994666Y-142986666D01*
X63961333Y-143020000D01*
X63928000Y-143086666D01*
X63928000Y-143253333D01*
X63961333Y-143320000D01*
X63994666Y-143353333D01*
X64061333Y-143386666D01*
X64228000Y-143386666D01*
X64294666Y-143353333D01*
X64328000Y-143320000D01*
X63494666Y-142686666D02*
X63428000Y-142686666D01*
X63361333Y-142720000D01*
X63328000Y-142753333D01*
X63294666Y-142820000D01*
X63261333Y-142953333D01*
X63261333Y-143120000D01*
X63294666Y-143253333D01*
X63328000Y-143320000D01*
X63361333Y-143353333D01*
X63428000Y-143386666D01*
X63494666Y-143386666D01*
X63561333Y-143353333D01*
X63594666Y-143320000D01*
X63628000Y-143253333D01*
X63661333Y-143120000D01*
X63661333Y-142953333D01*
X63628000Y-142820000D01*
X63594666Y-142753333D01*
X63561333Y-142720000D01*
X63494666Y-142686666D01*
%TO.C,RGB-49*%
X66861333Y-125792666D02*
X67094666Y-125459333D01*
X67261333Y-125792666D02*
X67261333Y-125092666D01*
X66994666Y-125092666D01*
X66928000Y-125126000D01*
X66894666Y-125159333D01*
X66861333Y-125226000D01*
X66861333Y-125326000D01*
X66894666Y-125392666D01*
X66928000Y-125426000D01*
X66994666Y-125459333D01*
X67261333Y-125459333D01*
X66194666Y-125126000D02*
X66261333Y-125092666D01*
X66361333Y-125092666D01*
X66461333Y-125126000D01*
X66528000Y-125192666D01*
X66561333Y-125259333D01*
X66594666Y-125392666D01*
X66594666Y-125492666D01*
X66561333Y-125626000D01*
X66528000Y-125692666D01*
X66461333Y-125759333D01*
X66361333Y-125792666D01*
X66294666Y-125792666D01*
X66194666Y-125759333D01*
X66161333Y-125726000D01*
X66161333Y-125492666D01*
X66294666Y-125492666D01*
X65628000Y-125426000D02*
X65528000Y-125459333D01*
X65494666Y-125492666D01*
X65461333Y-125559333D01*
X65461333Y-125659333D01*
X65494666Y-125726000D01*
X65528000Y-125759333D01*
X65594666Y-125792666D01*
X65861333Y-125792666D01*
X65861333Y-125092666D01*
X65628000Y-125092666D01*
X65561333Y-125126000D01*
X65528000Y-125159333D01*
X65494666Y-125226000D01*
X65494666Y-125292666D01*
X65528000Y-125359333D01*
X65561333Y-125392666D01*
X65628000Y-125426000D01*
X65861333Y-125426000D01*
X65161333Y-125526000D02*
X64628000Y-125526000D01*
X63994666Y-125326000D02*
X63994666Y-125792666D01*
X64161333Y-125059333D02*
X64328000Y-125559333D01*
X63894666Y-125559333D01*
X63594666Y-125792666D02*
X63461333Y-125792666D01*
X63394666Y-125759333D01*
X63361333Y-125726000D01*
X63294666Y-125626000D01*
X63261333Y-125492666D01*
X63261333Y-125226000D01*
X63294666Y-125159333D01*
X63328000Y-125126000D01*
X63394666Y-125092666D01*
X63528000Y-125092666D01*
X63594666Y-125126000D01*
X63628000Y-125159333D01*
X63661333Y-125226000D01*
X63661333Y-125392666D01*
X63628000Y-125459333D01*
X63594666Y-125492666D01*
X63528000Y-125526000D01*
X63394666Y-125526000D01*
X63328000Y-125492666D01*
X63294666Y-125459333D01*
X63261333Y-125392666D01*
%TO.C,RGB-48*%
X90991333Y-125470666D02*
X91224666Y-125137333D01*
X91391333Y-125470666D02*
X91391333Y-124770666D01*
X91124666Y-124770666D01*
X91058000Y-124804000D01*
X91024666Y-124837333D01*
X90991333Y-124904000D01*
X90991333Y-125004000D01*
X91024666Y-125070666D01*
X91058000Y-125104000D01*
X91124666Y-125137333D01*
X91391333Y-125137333D01*
X90324666Y-124804000D02*
X90391333Y-124770666D01*
X90491333Y-124770666D01*
X90591333Y-124804000D01*
X90658000Y-124870666D01*
X90691333Y-124937333D01*
X90724666Y-125070666D01*
X90724666Y-125170666D01*
X90691333Y-125304000D01*
X90658000Y-125370666D01*
X90591333Y-125437333D01*
X90491333Y-125470666D01*
X90424666Y-125470666D01*
X90324666Y-125437333D01*
X90291333Y-125404000D01*
X90291333Y-125170666D01*
X90424666Y-125170666D01*
X89758000Y-125104000D02*
X89658000Y-125137333D01*
X89624666Y-125170666D01*
X89591333Y-125237333D01*
X89591333Y-125337333D01*
X89624666Y-125404000D01*
X89658000Y-125437333D01*
X89724666Y-125470666D01*
X89991333Y-125470666D01*
X89991333Y-124770666D01*
X89758000Y-124770666D01*
X89691333Y-124804000D01*
X89658000Y-124837333D01*
X89624666Y-124904000D01*
X89624666Y-124970666D01*
X89658000Y-125037333D01*
X89691333Y-125070666D01*
X89758000Y-125104000D01*
X89991333Y-125104000D01*
X89291333Y-125204000D02*
X88758000Y-125204000D01*
X88124666Y-125004000D02*
X88124666Y-125470666D01*
X88291333Y-124737333D02*
X88458000Y-125237333D01*
X88024666Y-125237333D01*
X87658000Y-125070666D02*
X87724666Y-125037333D01*
X87758000Y-125004000D01*
X87791333Y-124937333D01*
X87791333Y-124904000D01*
X87758000Y-124837333D01*
X87724666Y-124804000D01*
X87658000Y-124770666D01*
X87524666Y-124770666D01*
X87458000Y-124804000D01*
X87424666Y-124837333D01*
X87391333Y-124904000D01*
X87391333Y-124937333D01*
X87424666Y-125004000D01*
X87458000Y-125037333D01*
X87524666Y-125070666D01*
X87658000Y-125070666D01*
X87724666Y-125104000D01*
X87758000Y-125137333D01*
X87791333Y-125204000D01*
X87791333Y-125337333D01*
X87758000Y-125404000D01*
X87724666Y-125437333D01*
X87658000Y-125470666D01*
X87524666Y-125470666D01*
X87458000Y-125437333D01*
X87424666Y-125404000D01*
X87391333Y-125337333D01*
X87391333Y-125204000D01*
X87424666Y-125137333D01*
X87458000Y-125104000D01*
X87524666Y-125070666D01*
%TO.C,RGB-47*%
X109787333Y-125470666D02*
X110020666Y-125137333D01*
X110187333Y-125470666D02*
X110187333Y-124770666D01*
X109920666Y-124770666D01*
X109854000Y-124804000D01*
X109820666Y-124837333D01*
X109787333Y-124904000D01*
X109787333Y-125004000D01*
X109820666Y-125070666D01*
X109854000Y-125104000D01*
X109920666Y-125137333D01*
X110187333Y-125137333D01*
X109120666Y-124804000D02*
X109187333Y-124770666D01*
X109287333Y-124770666D01*
X109387333Y-124804000D01*
X109454000Y-124870666D01*
X109487333Y-124937333D01*
X109520666Y-125070666D01*
X109520666Y-125170666D01*
X109487333Y-125304000D01*
X109454000Y-125370666D01*
X109387333Y-125437333D01*
X109287333Y-125470666D01*
X109220666Y-125470666D01*
X109120666Y-125437333D01*
X109087333Y-125404000D01*
X109087333Y-125170666D01*
X109220666Y-125170666D01*
X108554000Y-125104000D02*
X108454000Y-125137333D01*
X108420666Y-125170666D01*
X108387333Y-125237333D01*
X108387333Y-125337333D01*
X108420666Y-125404000D01*
X108454000Y-125437333D01*
X108520666Y-125470666D01*
X108787333Y-125470666D01*
X108787333Y-124770666D01*
X108554000Y-124770666D01*
X108487333Y-124804000D01*
X108454000Y-124837333D01*
X108420666Y-124904000D01*
X108420666Y-124970666D01*
X108454000Y-125037333D01*
X108487333Y-125070666D01*
X108554000Y-125104000D01*
X108787333Y-125104000D01*
X108087333Y-125204000D02*
X107554000Y-125204000D01*
X106920666Y-125004000D02*
X106920666Y-125470666D01*
X107087333Y-124737333D02*
X107254000Y-125237333D01*
X106820666Y-125237333D01*
X106620666Y-124770666D02*
X106154000Y-124770666D01*
X106454000Y-125470666D01*
%TO.C,RGB-46*%
X128329333Y-125470666D02*
X128562666Y-125137333D01*
X128729333Y-125470666D02*
X128729333Y-124770666D01*
X128462666Y-124770666D01*
X128396000Y-124804000D01*
X128362666Y-124837333D01*
X128329333Y-124904000D01*
X128329333Y-125004000D01*
X128362666Y-125070666D01*
X128396000Y-125104000D01*
X128462666Y-125137333D01*
X128729333Y-125137333D01*
X127662666Y-124804000D02*
X127729333Y-124770666D01*
X127829333Y-124770666D01*
X127929333Y-124804000D01*
X127996000Y-124870666D01*
X128029333Y-124937333D01*
X128062666Y-125070666D01*
X128062666Y-125170666D01*
X128029333Y-125304000D01*
X127996000Y-125370666D01*
X127929333Y-125437333D01*
X127829333Y-125470666D01*
X127762666Y-125470666D01*
X127662666Y-125437333D01*
X127629333Y-125404000D01*
X127629333Y-125170666D01*
X127762666Y-125170666D01*
X127096000Y-125104000D02*
X126996000Y-125137333D01*
X126962666Y-125170666D01*
X126929333Y-125237333D01*
X126929333Y-125337333D01*
X126962666Y-125404000D01*
X126996000Y-125437333D01*
X127062666Y-125470666D01*
X127329333Y-125470666D01*
X127329333Y-124770666D01*
X127096000Y-124770666D01*
X127029333Y-124804000D01*
X126996000Y-124837333D01*
X126962666Y-124904000D01*
X126962666Y-124970666D01*
X126996000Y-125037333D01*
X127029333Y-125070666D01*
X127096000Y-125104000D01*
X127329333Y-125104000D01*
X126629333Y-125204000D02*
X126096000Y-125204000D01*
X125462666Y-125004000D02*
X125462666Y-125470666D01*
X125629333Y-124737333D02*
X125796000Y-125237333D01*
X125362666Y-125237333D01*
X124796000Y-124770666D02*
X124929333Y-124770666D01*
X124996000Y-124804000D01*
X125029333Y-124837333D01*
X125096000Y-124937333D01*
X125129333Y-125070666D01*
X125129333Y-125337333D01*
X125096000Y-125404000D01*
X125062666Y-125437333D01*
X124996000Y-125470666D01*
X124862666Y-125470666D01*
X124796000Y-125437333D01*
X124762666Y-125404000D01*
X124729333Y-125337333D01*
X124729333Y-125170666D01*
X124762666Y-125104000D01*
X124796000Y-125070666D01*
X124862666Y-125037333D01*
X124996000Y-125037333D01*
X125062666Y-125070666D01*
X125096000Y-125104000D01*
X125129333Y-125170666D01*
%TO.C,RGB-45*%
X147125333Y-125216666D02*
X147358666Y-124883333D01*
X147525333Y-125216666D02*
X147525333Y-124516666D01*
X147258666Y-124516666D01*
X147192000Y-124550000D01*
X147158666Y-124583333D01*
X147125333Y-124650000D01*
X147125333Y-124750000D01*
X147158666Y-124816666D01*
X147192000Y-124850000D01*
X147258666Y-124883333D01*
X147525333Y-124883333D01*
X146458666Y-124550000D02*
X146525333Y-124516666D01*
X146625333Y-124516666D01*
X146725333Y-124550000D01*
X146792000Y-124616666D01*
X146825333Y-124683333D01*
X146858666Y-124816666D01*
X146858666Y-124916666D01*
X146825333Y-125050000D01*
X146792000Y-125116666D01*
X146725333Y-125183333D01*
X146625333Y-125216666D01*
X146558666Y-125216666D01*
X146458666Y-125183333D01*
X146425333Y-125150000D01*
X146425333Y-124916666D01*
X146558666Y-124916666D01*
X145892000Y-124850000D02*
X145792000Y-124883333D01*
X145758666Y-124916666D01*
X145725333Y-124983333D01*
X145725333Y-125083333D01*
X145758666Y-125150000D01*
X145792000Y-125183333D01*
X145858666Y-125216666D01*
X146125333Y-125216666D01*
X146125333Y-124516666D01*
X145892000Y-124516666D01*
X145825333Y-124550000D01*
X145792000Y-124583333D01*
X145758666Y-124650000D01*
X145758666Y-124716666D01*
X145792000Y-124783333D01*
X145825333Y-124816666D01*
X145892000Y-124850000D01*
X146125333Y-124850000D01*
X145425333Y-124950000D02*
X144892000Y-124950000D01*
X144258666Y-124750000D02*
X144258666Y-125216666D01*
X144425333Y-124483333D02*
X144592000Y-124983333D01*
X144158666Y-124983333D01*
X143558666Y-124516666D02*
X143892000Y-124516666D01*
X143925333Y-124850000D01*
X143892000Y-124816666D01*
X143825333Y-124783333D01*
X143658666Y-124783333D01*
X143592000Y-124816666D01*
X143558666Y-124850000D01*
X143525333Y-124916666D01*
X143525333Y-125083333D01*
X143558666Y-125150000D01*
X143592000Y-125183333D01*
X143658666Y-125216666D01*
X143825333Y-125216666D01*
X143892000Y-125183333D01*
X143925333Y-125150000D01*
%TO.C,RGB-44*%
X165667333Y-125216666D02*
X165900666Y-124883333D01*
X166067333Y-125216666D02*
X166067333Y-124516666D01*
X165800666Y-124516666D01*
X165734000Y-124550000D01*
X165700666Y-124583333D01*
X165667333Y-124650000D01*
X165667333Y-124750000D01*
X165700666Y-124816666D01*
X165734000Y-124850000D01*
X165800666Y-124883333D01*
X166067333Y-124883333D01*
X165000666Y-124550000D02*
X165067333Y-124516666D01*
X165167333Y-124516666D01*
X165267333Y-124550000D01*
X165334000Y-124616666D01*
X165367333Y-124683333D01*
X165400666Y-124816666D01*
X165400666Y-124916666D01*
X165367333Y-125050000D01*
X165334000Y-125116666D01*
X165267333Y-125183333D01*
X165167333Y-125216666D01*
X165100666Y-125216666D01*
X165000666Y-125183333D01*
X164967333Y-125150000D01*
X164967333Y-124916666D01*
X165100666Y-124916666D01*
X164434000Y-124850000D02*
X164334000Y-124883333D01*
X164300666Y-124916666D01*
X164267333Y-124983333D01*
X164267333Y-125083333D01*
X164300666Y-125150000D01*
X164334000Y-125183333D01*
X164400666Y-125216666D01*
X164667333Y-125216666D01*
X164667333Y-124516666D01*
X164434000Y-124516666D01*
X164367333Y-124550000D01*
X164334000Y-124583333D01*
X164300666Y-124650000D01*
X164300666Y-124716666D01*
X164334000Y-124783333D01*
X164367333Y-124816666D01*
X164434000Y-124850000D01*
X164667333Y-124850000D01*
X163967333Y-124950000D02*
X163434000Y-124950000D01*
X162800666Y-124750000D02*
X162800666Y-125216666D01*
X162967333Y-124483333D02*
X163134000Y-124983333D01*
X162700666Y-124983333D01*
X162134000Y-124750000D02*
X162134000Y-125216666D01*
X162300666Y-124483333D02*
X162467333Y-124983333D01*
X162034000Y-124983333D01*
%TO.C,RGB-43*%
X184463333Y-125216666D02*
X184696666Y-124883333D01*
X184863333Y-125216666D02*
X184863333Y-124516666D01*
X184596666Y-124516666D01*
X184530000Y-124550000D01*
X184496666Y-124583333D01*
X184463333Y-124650000D01*
X184463333Y-124750000D01*
X184496666Y-124816666D01*
X184530000Y-124850000D01*
X184596666Y-124883333D01*
X184863333Y-124883333D01*
X183796666Y-124550000D02*
X183863333Y-124516666D01*
X183963333Y-124516666D01*
X184063333Y-124550000D01*
X184130000Y-124616666D01*
X184163333Y-124683333D01*
X184196666Y-124816666D01*
X184196666Y-124916666D01*
X184163333Y-125050000D01*
X184130000Y-125116666D01*
X184063333Y-125183333D01*
X183963333Y-125216666D01*
X183896666Y-125216666D01*
X183796666Y-125183333D01*
X183763333Y-125150000D01*
X183763333Y-124916666D01*
X183896666Y-124916666D01*
X183230000Y-124850000D02*
X183130000Y-124883333D01*
X183096666Y-124916666D01*
X183063333Y-124983333D01*
X183063333Y-125083333D01*
X183096666Y-125150000D01*
X183130000Y-125183333D01*
X183196666Y-125216666D01*
X183463333Y-125216666D01*
X183463333Y-124516666D01*
X183230000Y-124516666D01*
X183163333Y-124550000D01*
X183130000Y-124583333D01*
X183096666Y-124650000D01*
X183096666Y-124716666D01*
X183130000Y-124783333D01*
X183163333Y-124816666D01*
X183230000Y-124850000D01*
X183463333Y-124850000D01*
X182763333Y-124950000D02*
X182230000Y-124950000D01*
X181596666Y-124750000D02*
X181596666Y-125216666D01*
X181763333Y-124483333D02*
X181930000Y-124983333D01*
X181496666Y-124983333D01*
X181296666Y-124516666D02*
X180863333Y-124516666D01*
X181096666Y-124783333D01*
X180996666Y-124783333D01*
X180930000Y-124816666D01*
X180896666Y-124850000D01*
X180863333Y-124916666D01*
X180863333Y-125083333D01*
X180896666Y-125150000D01*
X180930000Y-125183333D01*
X180996666Y-125216666D01*
X181196666Y-125216666D01*
X181263333Y-125183333D01*
X181296666Y-125150000D01*
%TO.C,RGB-42*%
X203259333Y-125216666D02*
X203492666Y-124883333D01*
X203659333Y-125216666D02*
X203659333Y-124516666D01*
X203392666Y-124516666D01*
X203326000Y-124550000D01*
X203292666Y-124583333D01*
X203259333Y-124650000D01*
X203259333Y-124750000D01*
X203292666Y-124816666D01*
X203326000Y-124850000D01*
X203392666Y-124883333D01*
X203659333Y-124883333D01*
X202592666Y-124550000D02*
X202659333Y-124516666D01*
X202759333Y-124516666D01*
X202859333Y-124550000D01*
X202926000Y-124616666D01*
X202959333Y-124683333D01*
X202992666Y-124816666D01*
X202992666Y-124916666D01*
X202959333Y-125050000D01*
X202926000Y-125116666D01*
X202859333Y-125183333D01*
X202759333Y-125216666D01*
X202692666Y-125216666D01*
X202592666Y-125183333D01*
X202559333Y-125150000D01*
X202559333Y-124916666D01*
X202692666Y-124916666D01*
X202026000Y-124850000D02*
X201926000Y-124883333D01*
X201892666Y-124916666D01*
X201859333Y-124983333D01*
X201859333Y-125083333D01*
X201892666Y-125150000D01*
X201926000Y-125183333D01*
X201992666Y-125216666D01*
X202259333Y-125216666D01*
X202259333Y-124516666D01*
X202026000Y-124516666D01*
X201959333Y-124550000D01*
X201926000Y-124583333D01*
X201892666Y-124650000D01*
X201892666Y-124716666D01*
X201926000Y-124783333D01*
X201959333Y-124816666D01*
X202026000Y-124850000D01*
X202259333Y-124850000D01*
X201559333Y-124950000D02*
X201026000Y-124950000D01*
X200392666Y-124750000D02*
X200392666Y-125216666D01*
X200559333Y-124483333D02*
X200726000Y-124983333D01*
X200292666Y-124983333D01*
X200059333Y-124583333D02*
X200026000Y-124550000D01*
X199959333Y-124516666D01*
X199792666Y-124516666D01*
X199726000Y-124550000D01*
X199692666Y-124583333D01*
X199659333Y-124650000D01*
X199659333Y-124716666D01*
X199692666Y-124816666D01*
X200092666Y-125216666D01*
X199659333Y-125216666D01*
%TO.C,RGB-41*%
X222055333Y-125470666D02*
X222288666Y-125137333D01*
X222455333Y-125470666D02*
X222455333Y-124770666D01*
X222188666Y-124770666D01*
X222122000Y-124804000D01*
X222088666Y-124837333D01*
X222055333Y-124904000D01*
X222055333Y-125004000D01*
X222088666Y-125070666D01*
X222122000Y-125104000D01*
X222188666Y-125137333D01*
X222455333Y-125137333D01*
X221388666Y-124804000D02*
X221455333Y-124770666D01*
X221555333Y-124770666D01*
X221655333Y-124804000D01*
X221722000Y-124870666D01*
X221755333Y-124937333D01*
X221788666Y-125070666D01*
X221788666Y-125170666D01*
X221755333Y-125304000D01*
X221722000Y-125370666D01*
X221655333Y-125437333D01*
X221555333Y-125470666D01*
X221488666Y-125470666D01*
X221388666Y-125437333D01*
X221355333Y-125404000D01*
X221355333Y-125170666D01*
X221488666Y-125170666D01*
X220822000Y-125104000D02*
X220722000Y-125137333D01*
X220688666Y-125170666D01*
X220655333Y-125237333D01*
X220655333Y-125337333D01*
X220688666Y-125404000D01*
X220722000Y-125437333D01*
X220788666Y-125470666D01*
X221055333Y-125470666D01*
X221055333Y-124770666D01*
X220822000Y-124770666D01*
X220755333Y-124804000D01*
X220722000Y-124837333D01*
X220688666Y-124904000D01*
X220688666Y-124970666D01*
X220722000Y-125037333D01*
X220755333Y-125070666D01*
X220822000Y-125104000D01*
X221055333Y-125104000D01*
X220355333Y-125204000D02*
X219822000Y-125204000D01*
X219188666Y-125004000D02*
X219188666Y-125470666D01*
X219355333Y-124737333D02*
X219522000Y-125237333D01*
X219088666Y-125237333D01*
X218455333Y-125470666D02*
X218855333Y-125470666D01*
X218655333Y-125470666D02*
X218655333Y-124770666D01*
X218722000Y-124870666D01*
X218788666Y-124937333D01*
X218855333Y-124970666D01*
%TO.C,RGB-40*%
X241105333Y-125470666D02*
X241338666Y-125137333D01*
X241505333Y-125470666D02*
X241505333Y-124770666D01*
X241238666Y-124770666D01*
X241172000Y-124804000D01*
X241138666Y-124837333D01*
X241105333Y-124904000D01*
X241105333Y-125004000D01*
X241138666Y-125070666D01*
X241172000Y-125104000D01*
X241238666Y-125137333D01*
X241505333Y-125137333D01*
X240438666Y-124804000D02*
X240505333Y-124770666D01*
X240605333Y-124770666D01*
X240705333Y-124804000D01*
X240772000Y-124870666D01*
X240805333Y-124937333D01*
X240838666Y-125070666D01*
X240838666Y-125170666D01*
X240805333Y-125304000D01*
X240772000Y-125370666D01*
X240705333Y-125437333D01*
X240605333Y-125470666D01*
X240538666Y-125470666D01*
X240438666Y-125437333D01*
X240405333Y-125404000D01*
X240405333Y-125170666D01*
X240538666Y-125170666D01*
X239872000Y-125104000D02*
X239772000Y-125137333D01*
X239738666Y-125170666D01*
X239705333Y-125237333D01*
X239705333Y-125337333D01*
X239738666Y-125404000D01*
X239772000Y-125437333D01*
X239838666Y-125470666D01*
X240105333Y-125470666D01*
X240105333Y-124770666D01*
X239872000Y-124770666D01*
X239805333Y-124804000D01*
X239772000Y-124837333D01*
X239738666Y-124904000D01*
X239738666Y-124970666D01*
X239772000Y-125037333D01*
X239805333Y-125070666D01*
X239872000Y-125104000D01*
X240105333Y-125104000D01*
X239405333Y-125204000D02*
X238872000Y-125204000D01*
X238238666Y-125004000D02*
X238238666Y-125470666D01*
X238405333Y-124737333D02*
X238572000Y-125237333D01*
X238138666Y-125237333D01*
X237738666Y-124770666D02*
X237672000Y-124770666D01*
X237605333Y-124804000D01*
X237572000Y-124837333D01*
X237538666Y-124904000D01*
X237505333Y-125037333D01*
X237505333Y-125204000D01*
X237538666Y-125337333D01*
X237572000Y-125404000D01*
X237605333Y-125437333D01*
X237672000Y-125470666D01*
X237738666Y-125470666D01*
X237805333Y-125437333D01*
X237838666Y-125404000D01*
X237872000Y-125337333D01*
X237905333Y-125204000D01*
X237905333Y-125037333D01*
X237872000Y-124904000D01*
X237838666Y-124837333D01*
X237805333Y-124804000D01*
X237738666Y-124770666D01*
%TO.C,RGB-39*%
X259901333Y-125470666D02*
X260134666Y-125137333D01*
X260301333Y-125470666D02*
X260301333Y-124770666D01*
X260034666Y-124770666D01*
X259968000Y-124804000D01*
X259934666Y-124837333D01*
X259901333Y-124904000D01*
X259901333Y-125004000D01*
X259934666Y-125070666D01*
X259968000Y-125104000D01*
X260034666Y-125137333D01*
X260301333Y-125137333D01*
X259234666Y-124804000D02*
X259301333Y-124770666D01*
X259401333Y-124770666D01*
X259501333Y-124804000D01*
X259568000Y-124870666D01*
X259601333Y-124937333D01*
X259634666Y-125070666D01*
X259634666Y-125170666D01*
X259601333Y-125304000D01*
X259568000Y-125370666D01*
X259501333Y-125437333D01*
X259401333Y-125470666D01*
X259334666Y-125470666D01*
X259234666Y-125437333D01*
X259201333Y-125404000D01*
X259201333Y-125170666D01*
X259334666Y-125170666D01*
X258668000Y-125104000D02*
X258568000Y-125137333D01*
X258534666Y-125170666D01*
X258501333Y-125237333D01*
X258501333Y-125337333D01*
X258534666Y-125404000D01*
X258568000Y-125437333D01*
X258634666Y-125470666D01*
X258901333Y-125470666D01*
X258901333Y-124770666D01*
X258668000Y-124770666D01*
X258601333Y-124804000D01*
X258568000Y-124837333D01*
X258534666Y-124904000D01*
X258534666Y-124970666D01*
X258568000Y-125037333D01*
X258601333Y-125070666D01*
X258668000Y-125104000D01*
X258901333Y-125104000D01*
X258201333Y-125204000D02*
X257668000Y-125204000D01*
X257401333Y-124770666D02*
X256968000Y-124770666D01*
X257201333Y-125037333D01*
X257101333Y-125037333D01*
X257034666Y-125070666D01*
X257001333Y-125104000D01*
X256968000Y-125170666D01*
X256968000Y-125337333D01*
X257001333Y-125404000D01*
X257034666Y-125437333D01*
X257101333Y-125470666D01*
X257301333Y-125470666D01*
X257368000Y-125437333D01*
X257401333Y-125404000D01*
X256634666Y-125470666D02*
X256501333Y-125470666D01*
X256434666Y-125437333D01*
X256401333Y-125404000D01*
X256334666Y-125304000D01*
X256301333Y-125170666D01*
X256301333Y-124904000D01*
X256334666Y-124837333D01*
X256368000Y-124804000D01*
X256434666Y-124770666D01*
X256568000Y-124770666D01*
X256634666Y-124804000D01*
X256668000Y-124837333D01*
X256701333Y-124904000D01*
X256701333Y-125070666D01*
X256668000Y-125137333D01*
X256634666Y-125170666D01*
X256568000Y-125204000D01*
X256434666Y-125204000D01*
X256368000Y-125170666D01*
X256334666Y-125137333D01*
X256301333Y-125070666D01*
%TO.C,RGB-38*%
X278697333Y-125470666D02*
X278930666Y-125137333D01*
X279097333Y-125470666D02*
X279097333Y-124770666D01*
X278830666Y-124770666D01*
X278764000Y-124804000D01*
X278730666Y-124837333D01*
X278697333Y-124904000D01*
X278697333Y-125004000D01*
X278730666Y-125070666D01*
X278764000Y-125104000D01*
X278830666Y-125137333D01*
X279097333Y-125137333D01*
X278030666Y-124804000D02*
X278097333Y-124770666D01*
X278197333Y-124770666D01*
X278297333Y-124804000D01*
X278364000Y-124870666D01*
X278397333Y-124937333D01*
X278430666Y-125070666D01*
X278430666Y-125170666D01*
X278397333Y-125304000D01*
X278364000Y-125370666D01*
X278297333Y-125437333D01*
X278197333Y-125470666D01*
X278130666Y-125470666D01*
X278030666Y-125437333D01*
X277997333Y-125404000D01*
X277997333Y-125170666D01*
X278130666Y-125170666D01*
X277464000Y-125104000D02*
X277364000Y-125137333D01*
X277330666Y-125170666D01*
X277297333Y-125237333D01*
X277297333Y-125337333D01*
X277330666Y-125404000D01*
X277364000Y-125437333D01*
X277430666Y-125470666D01*
X277697333Y-125470666D01*
X277697333Y-124770666D01*
X277464000Y-124770666D01*
X277397333Y-124804000D01*
X277364000Y-124837333D01*
X277330666Y-124904000D01*
X277330666Y-124970666D01*
X277364000Y-125037333D01*
X277397333Y-125070666D01*
X277464000Y-125104000D01*
X277697333Y-125104000D01*
X276997333Y-125204000D02*
X276464000Y-125204000D01*
X276197333Y-124770666D02*
X275764000Y-124770666D01*
X275997333Y-125037333D01*
X275897333Y-125037333D01*
X275830666Y-125070666D01*
X275797333Y-125104000D01*
X275764000Y-125170666D01*
X275764000Y-125337333D01*
X275797333Y-125404000D01*
X275830666Y-125437333D01*
X275897333Y-125470666D01*
X276097333Y-125470666D01*
X276164000Y-125437333D01*
X276197333Y-125404000D01*
X275364000Y-125070666D02*
X275430666Y-125037333D01*
X275464000Y-125004000D01*
X275497333Y-124937333D01*
X275497333Y-124904000D01*
X275464000Y-124837333D01*
X275430666Y-124804000D01*
X275364000Y-124770666D01*
X275230666Y-124770666D01*
X275164000Y-124804000D01*
X275130666Y-124837333D01*
X275097333Y-124904000D01*
X275097333Y-124937333D01*
X275130666Y-125004000D01*
X275164000Y-125037333D01*
X275230666Y-125070666D01*
X275364000Y-125070666D01*
X275430666Y-125104000D01*
X275464000Y-125137333D01*
X275497333Y-125204000D01*
X275497333Y-125337333D01*
X275464000Y-125404000D01*
X275430666Y-125437333D01*
X275364000Y-125470666D01*
X275230666Y-125470666D01*
X275164000Y-125437333D01*
X275130666Y-125404000D01*
X275097333Y-125337333D01*
X275097333Y-125204000D01*
X275130666Y-125137333D01*
X275164000Y-125104000D01*
X275230666Y-125070666D01*
%TO.C,RGB-37*%
X297239333Y-125470666D02*
X297472666Y-125137333D01*
X297639333Y-125470666D02*
X297639333Y-124770666D01*
X297372666Y-124770666D01*
X297306000Y-124804000D01*
X297272666Y-124837333D01*
X297239333Y-124904000D01*
X297239333Y-125004000D01*
X297272666Y-125070666D01*
X297306000Y-125104000D01*
X297372666Y-125137333D01*
X297639333Y-125137333D01*
X296572666Y-124804000D02*
X296639333Y-124770666D01*
X296739333Y-124770666D01*
X296839333Y-124804000D01*
X296906000Y-124870666D01*
X296939333Y-124937333D01*
X296972666Y-125070666D01*
X296972666Y-125170666D01*
X296939333Y-125304000D01*
X296906000Y-125370666D01*
X296839333Y-125437333D01*
X296739333Y-125470666D01*
X296672666Y-125470666D01*
X296572666Y-125437333D01*
X296539333Y-125404000D01*
X296539333Y-125170666D01*
X296672666Y-125170666D01*
X296006000Y-125104000D02*
X295906000Y-125137333D01*
X295872666Y-125170666D01*
X295839333Y-125237333D01*
X295839333Y-125337333D01*
X295872666Y-125404000D01*
X295906000Y-125437333D01*
X295972666Y-125470666D01*
X296239333Y-125470666D01*
X296239333Y-124770666D01*
X296006000Y-124770666D01*
X295939333Y-124804000D01*
X295906000Y-124837333D01*
X295872666Y-124904000D01*
X295872666Y-124970666D01*
X295906000Y-125037333D01*
X295939333Y-125070666D01*
X296006000Y-125104000D01*
X296239333Y-125104000D01*
X295539333Y-125204000D02*
X295006000Y-125204000D01*
X294739333Y-124770666D02*
X294306000Y-124770666D01*
X294539333Y-125037333D01*
X294439333Y-125037333D01*
X294372666Y-125070666D01*
X294339333Y-125104000D01*
X294306000Y-125170666D01*
X294306000Y-125337333D01*
X294339333Y-125404000D01*
X294372666Y-125437333D01*
X294439333Y-125470666D01*
X294639333Y-125470666D01*
X294706000Y-125437333D01*
X294739333Y-125404000D01*
X294072666Y-124770666D02*
X293606000Y-124770666D01*
X293906000Y-125470666D01*
%TO.C,RGB-36*%
X297747333Y-105794666D02*
X297980666Y-105461333D01*
X298147333Y-105794666D02*
X298147333Y-105094666D01*
X297880666Y-105094666D01*
X297814000Y-105128000D01*
X297780666Y-105161333D01*
X297747333Y-105228000D01*
X297747333Y-105328000D01*
X297780666Y-105394666D01*
X297814000Y-105428000D01*
X297880666Y-105461333D01*
X298147333Y-105461333D01*
X297080666Y-105128000D02*
X297147333Y-105094666D01*
X297247333Y-105094666D01*
X297347333Y-105128000D01*
X297414000Y-105194666D01*
X297447333Y-105261333D01*
X297480666Y-105394666D01*
X297480666Y-105494666D01*
X297447333Y-105628000D01*
X297414000Y-105694666D01*
X297347333Y-105761333D01*
X297247333Y-105794666D01*
X297180666Y-105794666D01*
X297080666Y-105761333D01*
X297047333Y-105728000D01*
X297047333Y-105494666D01*
X297180666Y-105494666D01*
X296514000Y-105428000D02*
X296414000Y-105461333D01*
X296380666Y-105494666D01*
X296347333Y-105561333D01*
X296347333Y-105661333D01*
X296380666Y-105728000D01*
X296414000Y-105761333D01*
X296480666Y-105794666D01*
X296747333Y-105794666D01*
X296747333Y-105094666D01*
X296514000Y-105094666D01*
X296447333Y-105128000D01*
X296414000Y-105161333D01*
X296380666Y-105228000D01*
X296380666Y-105294666D01*
X296414000Y-105361333D01*
X296447333Y-105394666D01*
X296514000Y-105428000D01*
X296747333Y-105428000D01*
X296047333Y-105528000D02*
X295514000Y-105528000D01*
X295247333Y-105094666D02*
X294814000Y-105094666D01*
X295047333Y-105361333D01*
X294947333Y-105361333D01*
X294880666Y-105394666D01*
X294847333Y-105428000D01*
X294814000Y-105494666D01*
X294814000Y-105661333D01*
X294847333Y-105728000D01*
X294880666Y-105761333D01*
X294947333Y-105794666D01*
X295147333Y-105794666D01*
X295214000Y-105761333D01*
X295247333Y-105728000D01*
X294214000Y-105094666D02*
X294347333Y-105094666D01*
X294414000Y-105128000D01*
X294447333Y-105161333D01*
X294514000Y-105261333D01*
X294547333Y-105394666D01*
X294547333Y-105661333D01*
X294514000Y-105728000D01*
X294480666Y-105761333D01*
X294414000Y-105794666D01*
X294280666Y-105794666D01*
X294214000Y-105761333D01*
X294180666Y-105728000D01*
X294147333Y-105661333D01*
X294147333Y-105494666D01*
X294180666Y-105428000D01*
X294214000Y-105394666D01*
X294280666Y-105361333D01*
X294414000Y-105361333D01*
X294480666Y-105394666D01*
X294514000Y-105428000D01*
X294547333Y-105494666D01*
%TO.C,RGB-35*%
X278951333Y-105794666D02*
X279184666Y-105461333D01*
X279351333Y-105794666D02*
X279351333Y-105094666D01*
X279084666Y-105094666D01*
X279018000Y-105128000D01*
X278984666Y-105161333D01*
X278951333Y-105228000D01*
X278951333Y-105328000D01*
X278984666Y-105394666D01*
X279018000Y-105428000D01*
X279084666Y-105461333D01*
X279351333Y-105461333D01*
X278284666Y-105128000D02*
X278351333Y-105094666D01*
X278451333Y-105094666D01*
X278551333Y-105128000D01*
X278618000Y-105194666D01*
X278651333Y-105261333D01*
X278684666Y-105394666D01*
X278684666Y-105494666D01*
X278651333Y-105628000D01*
X278618000Y-105694666D01*
X278551333Y-105761333D01*
X278451333Y-105794666D01*
X278384666Y-105794666D01*
X278284666Y-105761333D01*
X278251333Y-105728000D01*
X278251333Y-105494666D01*
X278384666Y-105494666D01*
X277718000Y-105428000D02*
X277618000Y-105461333D01*
X277584666Y-105494666D01*
X277551333Y-105561333D01*
X277551333Y-105661333D01*
X277584666Y-105728000D01*
X277618000Y-105761333D01*
X277684666Y-105794666D01*
X277951333Y-105794666D01*
X277951333Y-105094666D01*
X277718000Y-105094666D01*
X277651333Y-105128000D01*
X277618000Y-105161333D01*
X277584666Y-105228000D01*
X277584666Y-105294666D01*
X277618000Y-105361333D01*
X277651333Y-105394666D01*
X277718000Y-105428000D01*
X277951333Y-105428000D01*
X277251333Y-105528000D02*
X276718000Y-105528000D01*
X276451333Y-105094666D02*
X276018000Y-105094666D01*
X276251333Y-105361333D01*
X276151333Y-105361333D01*
X276084666Y-105394666D01*
X276051333Y-105428000D01*
X276018000Y-105494666D01*
X276018000Y-105661333D01*
X276051333Y-105728000D01*
X276084666Y-105761333D01*
X276151333Y-105794666D01*
X276351333Y-105794666D01*
X276418000Y-105761333D01*
X276451333Y-105728000D01*
X275384666Y-105094666D02*
X275718000Y-105094666D01*
X275751333Y-105428000D01*
X275718000Y-105394666D01*
X275651333Y-105361333D01*
X275484666Y-105361333D01*
X275418000Y-105394666D01*
X275384666Y-105428000D01*
X275351333Y-105494666D01*
X275351333Y-105661333D01*
X275384666Y-105728000D01*
X275418000Y-105761333D01*
X275484666Y-105794666D01*
X275651333Y-105794666D01*
X275718000Y-105761333D01*
X275751333Y-105728000D01*
%TO.C,RGB-34*%
X260155333Y-105794666D02*
X260388666Y-105461333D01*
X260555333Y-105794666D02*
X260555333Y-105094666D01*
X260288666Y-105094666D01*
X260222000Y-105128000D01*
X260188666Y-105161333D01*
X260155333Y-105228000D01*
X260155333Y-105328000D01*
X260188666Y-105394666D01*
X260222000Y-105428000D01*
X260288666Y-105461333D01*
X260555333Y-105461333D01*
X259488666Y-105128000D02*
X259555333Y-105094666D01*
X259655333Y-105094666D01*
X259755333Y-105128000D01*
X259822000Y-105194666D01*
X259855333Y-105261333D01*
X259888666Y-105394666D01*
X259888666Y-105494666D01*
X259855333Y-105628000D01*
X259822000Y-105694666D01*
X259755333Y-105761333D01*
X259655333Y-105794666D01*
X259588666Y-105794666D01*
X259488666Y-105761333D01*
X259455333Y-105728000D01*
X259455333Y-105494666D01*
X259588666Y-105494666D01*
X258922000Y-105428000D02*
X258822000Y-105461333D01*
X258788666Y-105494666D01*
X258755333Y-105561333D01*
X258755333Y-105661333D01*
X258788666Y-105728000D01*
X258822000Y-105761333D01*
X258888666Y-105794666D01*
X259155333Y-105794666D01*
X259155333Y-105094666D01*
X258922000Y-105094666D01*
X258855333Y-105128000D01*
X258822000Y-105161333D01*
X258788666Y-105228000D01*
X258788666Y-105294666D01*
X258822000Y-105361333D01*
X258855333Y-105394666D01*
X258922000Y-105428000D01*
X259155333Y-105428000D01*
X258455333Y-105528000D02*
X257922000Y-105528000D01*
X257655333Y-105094666D02*
X257222000Y-105094666D01*
X257455333Y-105361333D01*
X257355333Y-105361333D01*
X257288666Y-105394666D01*
X257255333Y-105428000D01*
X257222000Y-105494666D01*
X257222000Y-105661333D01*
X257255333Y-105728000D01*
X257288666Y-105761333D01*
X257355333Y-105794666D01*
X257555333Y-105794666D01*
X257622000Y-105761333D01*
X257655333Y-105728000D01*
X256622000Y-105328000D02*
X256622000Y-105794666D01*
X256788666Y-105061333D02*
X256955333Y-105561333D01*
X256522000Y-105561333D01*
%TO.C,RGB-33*%
X241359333Y-105794666D02*
X241592666Y-105461333D01*
X241759333Y-105794666D02*
X241759333Y-105094666D01*
X241492666Y-105094666D01*
X241426000Y-105128000D01*
X241392666Y-105161333D01*
X241359333Y-105228000D01*
X241359333Y-105328000D01*
X241392666Y-105394666D01*
X241426000Y-105428000D01*
X241492666Y-105461333D01*
X241759333Y-105461333D01*
X240692666Y-105128000D02*
X240759333Y-105094666D01*
X240859333Y-105094666D01*
X240959333Y-105128000D01*
X241026000Y-105194666D01*
X241059333Y-105261333D01*
X241092666Y-105394666D01*
X241092666Y-105494666D01*
X241059333Y-105628000D01*
X241026000Y-105694666D01*
X240959333Y-105761333D01*
X240859333Y-105794666D01*
X240792666Y-105794666D01*
X240692666Y-105761333D01*
X240659333Y-105728000D01*
X240659333Y-105494666D01*
X240792666Y-105494666D01*
X240126000Y-105428000D02*
X240026000Y-105461333D01*
X239992666Y-105494666D01*
X239959333Y-105561333D01*
X239959333Y-105661333D01*
X239992666Y-105728000D01*
X240026000Y-105761333D01*
X240092666Y-105794666D01*
X240359333Y-105794666D01*
X240359333Y-105094666D01*
X240126000Y-105094666D01*
X240059333Y-105128000D01*
X240026000Y-105161333D01*
X239992666Y-105228000D01*
X239992666Y-105294666D01*
X240026000Y-105361333D01*
X240059333Y-105394666D01*
X240126000Y-105428000D01*
X240359333Y-105428000D01*
X239659333Y-105528000D02*
X239126000Y-105528000D01*
X238859333Y-105094666D02*
X238426000Y-105094666D01*
X238659333Y-105361333D01*
X238559333Y-105361333D01*
X238492666Y-105394666D01*
X238459333Y-105428000D01*
X238426000Y-105494666D01*
X238426000Y-105661333D01*
X238459333Y-105728000D01*
X238492666Y-105761333D01*
X238559333Y-105794666D01*
X238759333Y-105794666D01*
X238826000Y-105761333D01*
X238859333Y-105728000D01*
X238192666Y-105094666D02*
X237759333Y-105094666D01*
X237992666Y-105361333D01*
X237892666Y-105361333D01*
X237826000Y-105394666D01*
X237792666Y-105428000D01*
X237759333Y-105494666D01*
X237759333Y-105661333D01*
X237792666Y-105728000D01*
X237826000Y-105761333D01*
X237892666Y-105794666D01*
X238092666Y-105794666D01*
X238159333Y-105761333D01*
X238192666Y-105728000D01*
%TO.C,RGB-32*%
X222563333Y-105794666D02*
X222796666Y-105461333D01*
X222963333Y-105794666D02*
X222963333Y-105094666D01*
X222696666Y-105094666D01*
X222630000Y-105128000D01*
X222596666Y-105161333D01*
X222563333Y-105228000D01*
X222563333Y-105328000D01*
X222596666Y-105394666D01*
X222630000Y-105428000D01*
X222696666Y-105461333D01*
X222963333Y-105461333D01*
X221896666Y-105128000D02*
X221963333Y-105094666D01*
X222063333Y-105094666D01*
X222163333Y-105128000D01*
X222230000Y-105194666D01*
X222263333Y-105261333D01*
X222296666Y-105394666D01*
X222296666Y-105494666D01*
X222263333Y-105628000D01*
X222230000Y-105694666D01*
X222163333Y-105761333D01*
X222063333Y-105794666D01*
X221996666Y-105794666D01*
X221896666Y-105761333D01*
X221863333Y-105728000D01*
X221863333Y-105494666D01*
X221996666Y-105494666D01*
X221330000Y-105428000D02*
X221230000Y-105461333D01*
X221196666Y-105494666D01*
X221163333Y-105561333D01*
X221163333Y-105661333D01*
X221196666Y-105728000D01*
X221230000Y-105761333D01*
X221296666Y-105794666D01*
X221563333Y-105794666D01*
X221563333Y-105094666D01*
X221330000Y-105094666D01*
X221263333Y-105128000D01*
X221230000Y-105161333D01*
X221196666Y-105228000D01*
X221196666Y-105294666D01*
X221230000Y-105361333D01*
X221263333Y-105394666D01*
X221330000Y-105428000D01*
X221563333Y-105428000D01*
X220863333Y-105528000D02*
X220330000Y-105528000D01*
X220063333Y-105094666D02*
X219630000Y-105094666D01*
X219863333Y-105361333D01*
X219763333Y-105361333D01*
X219696666Y-105394666D01*
X219663333Y-105428000D01*
X219630000Y-105494666D01*
X219630000Y-105661333D01*
X219663333Y-105728000D01*
X219696666Y-105761333D01*
X219763333Y-105794666D01*
X219963333Y-105794666D01*
X220030000Y-105761333D01*
X220063333Y-105728000D01*
X219363333Y-105161333D02*
X219330000Y-105128000D01*
X219263333Y-105094666D01*
X219096666Y-105094666D01*
X219030000Y-105128000D01*
X218996666Y-105161333D01*
X218963333Y-105228000D01*
X218963333Y-105294666D01*
X218996666Y-105394666D01*
X219396666Y-105794666D01*
X218963333Y-105794666D01*
%TO.C,RGB-31*%
X203767333Y-105794666D02*
X204000666Y-105461333D01*
X204167333Y-105794666D02*
X204167333Y-105094666D01*
X203900666Y-105094666D01*
X203834000Y-105128000D01*
X203800666Y-105161333D01*
X203767333Y-105228000D01*
X203767333Y-105328000D01*
X203800666Y-105394666D01*
X203834000Y-105428000D01*
X203900666Y-105461333D01*
X204167333Y-105461333D01*
X203100666Y-105128000D02*
X203167333Y-105094666D01*
X203267333Y-105094666D01*
X203367333Y-105128000D01*
X203434000Y-105194666D01*
X203467333Y-105261333D01*
X203500666Y-105394666D01*
X203500666Y-105494666D01*
X203467333Y-105628000D01*
X203434000Y-105694666D01*
X203367333Y-105761333D01*
X203267333Y-105794666D01*
X203200666Y-105794666D01*
X203100666Y-105761333D01*
X203067333Y-105728000D01*
X203067333Y-105494666D01*
X203200666Y-105494666D01*
X202534000Y-105428000D02*
X202434000Y-105461333D01*
X202400666Y-105494666D01*
X202367333Y-105561333D01*
X202367333Y-105661333D01*
X202400666Y-105728000D01*
X202434000Y-105761333D01*
X202500666Y-105794666D01*
X202767333Y-105794666D01*
X202767333Y-105094666D01*
X202534000Y-105094666D01*
X202467333Y-105128000D01*
X202434000Y-105161333D01*
X202400666Y-105228000D01*
X202400666Y-105294666D01*
X202434000Y-105361333D01*
X202467333Y-105394666D01*
X202534000Y-105428000D01*
X202767333Y-105428000D01*
X202067333Y-105528000D02*
X201534000Y-105528000D01*
X201267333Y-105094666D02*
X200834000Y-105094666D01*
X201067333Y-105361333D01*
X200967333Y-105361333D01*
X200900666Y-105394666D01*
X200867333Y-105428000D01*
X200834000Y-105494666D01*
X200834000Y-105661333D01*
X200867333Y-105728000D01*
X200900666Y-105761333D01*
X200967333Y-105794666D01*
X201167333Y-105794666D01*
X201234000Y-105761333D01*
X201267333Y-105728000D01*
X200167333Y-105794666D02*
X200567333Y-105794666D01*
X200367333Y-105794666D02*
X200367333Y-105094666D01*
X200434000Y-105194666D01*
X200500666Y-105261333D01*
X200567333Y-105294666D01*
%TO.C,RGB-30*%
X184971333Y-105794666D02*
X185204666Y-105461333D01*
X185371333Y-105794666D02*
X185371333Y-105094666D01*
X185104666Y-105094666D01*
X185038000Y-105128000D01*
X185004666Y-105161333D01*
X184971333Y-105228000D01*
X184971333Y-105328000D01*
X185004666Y-105394666D01*
X185038000Y-105428000D01*
X185104666Y-105461333D01*
X185371333Y-105461333D01*
X184304666Y-105128000D02*
X184371333Y-105094666D01*
X184471333Y-105094666D01*
X184571333Y-105128000D01*
X184638000Y-105194666D01*
X184671333Y-105261333D01*
X184704666Y-105394666D01*
X184704666Y-105494666D01*
X184671333Y-105628000D01*
X184638000Y-105694666D01*
X184571333Y-105761333D01*
X184471333Y-105794666D01*
X184404666Y-105794666D01*
X184304666Y-105761333D01*
X184271333Y-105728000D01*
X184271333Y-105494666D01*
X184404666Y-105494666D01*
X183738000Y-105428000D02*
X183638000Y-105461333D01*
X183604666Y-105494666D01*
X183571333Y-105561333D01*
X183571333Y-105661333D01*
X183604666Y-105728000D01*
X183638000Y-105761333D01*
X183704666Y-105794666D01*
X183971333Y-105794666D01*
X183971333Y-105094666D01*
X183738000Y-105094666D01*
X183671333Y-105128000D01*
X183638000Y-105161333D01*
X183604666Y-105228000D01*
X183604666Y-105294666D01*
X183638000Y-105361333D01*
X183671333Y-105394666D01*
X183738000Y-105428000D01*
X183971333Y-105428000D01*
X183271333Y-105528000D02*
X182738000Y-105528000D01*
X182471333Y-105094666D02*
X182038000Y-105094666D01*
X182271333Y-105361333D01*
X182171333Y-105361333D01*
X182104666Y-105394666D01*
X182071333Y-105428000D01*
X182038000Y-105494666D01*
X182038000Y-105661333D01*
X182071333Y-105728000D01*
X182104666Y-105761333D01*
X182171333Y-105794666D01*
X182371333Y-105794666D01*
X182438000Y-105761333D01*
X182471333Y-105728000D01*
X181604666Y-105094666D02*
X181538000Y-105094666D01*
X181471333Y-105128000D01*
X181438000Y-105161333D01*
X181404666Y-105228000D01*
X181371333Y-105361333D01*
X181371333Y-105528000D01*
X181404666Y-105661333D01*
X181438000Y-105728000D01*
X181471333Y-105761333D01*
X181538000Y-105794666D01*
X181604666Y-105794666D01*
X181671333Y-105761333D01*
X181704666Y-105728000D01*
X181738000Y-105661333D01*
X181771333Y-105528000D01*
X181771333Y-105361333D01*
X181738000Y-105228000D01*
X181704666Y-105161333D01*
X181671333Y-105128000D01*
X181604666Y-105094666D01*
%TO.C,RGB-29*%
X166429333Y-105794666D02*
X166662666Y-105461333D01*
X166829333Y-105794666D02*
X166829333Y-105094666D01*
X166562666Y-105094666D01*
X166496000Y-105128000D01*
X166462666Y-105161333D01*
X166429333Y-105228000D01*
X166429333Y-105328000D01*
X166462666Y-105394666D01*
X166496000Y-105428000D01*
X166562666Y-105461333D01*
X166829333Y-105461333D01*
X165762666Y-105128000D02*
X165829333Y-105094666D01*
X165929333Y-105094666D01*
X166029333Y-105128000D01*
X166096000Y-105194666D01*
X166129333Y-105261333D01*
X166162666Y-105394666D01*
X166162666Y-105494666D01*
X166129333Y-105628000D01*
X166096000Y-105694666D01*
X166029333Y-105761333D01*
X165929333Y-105794666D01*
X165862666Y-105794666D01*
X165762666Y-105761333D01*
X165729333Y-105728000D01*
X165729333Y-105494666D01*
X165862666Y-105494666D01*
X165196000Y-105428000D02*
X165096000Y-105461333D01*
X165062666Y-105494666D01*
X165029333Y-105561333D01*
X165029333Y-105661333D01*
X165062666Y-105728000D01*
X165096000Y-105761333D01*
X165162666Y-105794666D01*
X165429333Y-105794666D01*
X165429333Y-105094666D01*
X165196000Y-105094666D01*
X165129333Y-105128000D01*
X165096000Y-105161333D01*
X165062666Y-105228000D01*
X165062666Y-105294666D01*
X165096000Y-105361333D01*
X165129333Y-105394666D01*
X165196000Y-105428000D01*
X165429333Y-105428000D01*
X164729333Y-105528000D02*
X164196000Y-105528000D01*
X163896000Y-105161333D02*
X163862666Y-105128000D01*
X163796000Y-105094666D01*
X163629333Y-105094666D01*
X163562666Y-105128000D01*
X163529333Y-105161333D01*
X163496000Y-105228000D01*
X163496000Y-105294666D01*
X163529333Y-105394666D01*
X163929333Y-105794666D01*
X163496000Y-105794666D01*
X163162666Y-105794666D02*
X163029333Y-105794666D01*
X162962666Y-105761333D01*
X162929333Y-105728000D01*
X162862666Y-105628000D01*
X162829333Y-105494666D01*
X162829333Y-105228000D01*
X162862666Y-105161333D01*
X162896000Y-105128000D01*
X162962666Y-105094666D01*
X163096000Y-105094666D01*
X163162666Y-105128000D01*
X163196000Y-105161333D01*
X163229333Y-105228000D01*
X163229333Y-105394666D01*
X163196000Y-105461333D01*
X163162666Y-105494666D01*
X163096000Y-105528000D01*
X162962666Y-105528000D01*
X162896000Y-105494666D01*
X162862666Y-105461333D01*
X162829333Y-105394666D01*
%TO.C,RGB-28*%
X147379333Y-105794666D02*
X147612666Y-105461333D01*
X147779333Y-105794666D02*
X147779333Y-105094666D01*
X147512666Y-105094666D01*
X147446000Y-105128000D01*
X147412666Y-105161333D01*
X147379333Y-105228000D01*
X147379333Y-105328000D01*
X147412666Y-105394666D01*
X147446000Y-105428000D01*
X147512666Y-105461333D01*
X147779333Y-105461333D01*
X146712666Y-105128000D02*
X146779333Y-105094666D01*
X146879333Y-105094666D01*
X146979333Y-105128000D01*
X147046000Y-105194666D01*
X147079333Y-105261333D01*
X147112666Y-105394666D01*
X147112666Y-105494666D01*
X147079333Y-105628000D01*
X147046000Y-105694666D01*
X146979333Y-105761333D01*
X146879333Y-105794666D01*
X146812666Y-105794666D01*
X146712666Y-105761333D01*
X146679333Y-105728000D01*
X146679333Y-105494666D01*
X146812666Y-105494666D01*
X146146000Y-105428000D02*
X146046000Y-105461333D01*
X146012666Y-105494666D01*
X145979333Y-105561333D01*
X145979333Y-105661333D01*
X146012666Y-105728000D01*
X146046000Y-105761333D01*
X146112666Y-105794666D01*
X146379333Y-105794666D01*
X146379333Y-105094666D01*
X146146000Y-105094666D01*
X146079333Y-105128000D01*
X146046000Y-105161333D01*
X146012666Y-105228000D01*
X146012666Y-105294666D01*
X146046000Y-105361333D01*
X146079333Y-105394666D01*
X146146000Y-105428000D01*
X146379333Y-105428000D01*
X145679333Y-105528000D02*
X145146000Y-105528000D01*
X144846000Y-105161333D02*
X144812666Y-105128000D01*
X144746000Y-105094666D01*
X144579333Y-105094666D01*
X144512666Y-105128000D01*
X144479333Y-105161333D01*
X144446000Y-105228000D01*
X144446000Y-105294666D01*
X144479333Y-105394666D01*
X144879333Y-105794666D01*
X144446000Y-105794666D01*
X144046000Y-105394666D02*
X144112666Y-105361333D01*
X144146000Y-105328000D01*
X144179333Y-105261333D01*
X144179333Y-105228000D01*
X144146000Y-105161333D01*
X144112666Y-105128000D01*
X144046000Y-105094666D01*
X143912666Y-105094666D01*
X143846000Y-105128000D01*
X143812666Y-105161333D01*
X143779333Y-105228000D01*
X143779333Y-105261333D01*
X143812666Y-105328000D01*
X143846000Y-105361333D01*
X143912666Y-105394666D01*
X144046000Y-105394666D01*
X144112666Y-105428000D01*
X144146000Y-105461333D01*
X144179333Y-105528000D01*
X144179333Y-105661333D01*
X144146000Y-105728000D01*
X144112666Y-105761333D01*
X144046000Y-105794666D01*
X143912666Y-105794666D01*
X143846000Y-105761333D01*
X143812666Y-105728000D01*
X143779333Y-105661333D01*
X143779333Y-105528000D01*
X143812666Y-105461333D01*
X143846000Y-105428000D01*
X143912666Y-105394666D01*
%TO.C,RGB-27*%
X128583333Y-105794666D02*
X128816666Y-105461333D01*
X128983333Y-105794666D02*
X128983333Y-105094666D01*
X128716666Y-105094666D01*
X128650000Y-105128000D01*
X128616666Y-105161333D01*
X128583333Y-105228000D01*
X128583333Y-105328000D01*
X128616666Y-105394666D01*
X128650000Y-105428000D01*
X128716666Y-105461333D01*
X128983333Y-105461333D01*
X127916666Y-105128000D02*
X127983333Y-105094666D01*
X128083333Y-105094666D01*
X128183333Y-105128000D01*
X128250000Y-105194666D01*
X128283333Y-105261333D01*
X128316666Y-105394666D01*
X128316666Y-105494666D01*
X128283333Y-105628000D01*
X128250000Y-105694666D01*
X128183333Y-105761333D01*
X128083333Y-105794666D01*
X128016666Y-105794666D01*
X127916666Y-105761333D01*
X127883333Y-105728000D01*
X127883333Y-105494666D01*
X128016666Y-105494666D01*
X127350000Y-105428000D02*
X127250000Y-105461333D01*
X127216666Y-105494666D01*
X127183333Y-105561333D01*
X127183333Y-105661333D01*
X127216666Y-105728000D01*
X127250000Y-105761333D01*
X127316666Y-105794666D01*
X127583333Y-105794666D01*
X127583333Y-105094666D01*
X127350000Y-105094666D01*
X127283333Y-105128000D01*
X127250000Y-105161333D01*
X127216666Y-105228000D01*
X127216666Y-105294666D01*
X127250000Y-105361333D01*
X127283333Y-105394666D01*
X127350000Y-105428000D01*
X127583333Y-105428000D01*
X126883333Y-105528000D02*
X126350000Y-105528000D01*
X126050000Y-105161333D02*
X126016666Y-105128000D01*
X125950000Y-105094666D01*
X125783333Y-105094666D01*
X125716666Y-105128000D01*
X125683333Y-105161333D01*
X125650000Y-105228000D01*
X125650000Y-105294666D01*
X125683333Y-105394666D01*
X126083333Y-105794666D01*
X125650000Y-105794666D01*
X125416666Y-105094666D02*
X124950000Y-105094666D01*
X125250000Y-105794666D01*
%TO.C,RGB-26*%
X109787333Y-105794666D02*
X110020666Y-105461333D01*
X110187333Y-105794666D02*
X110187333Y-105094666D01*
X109920666Y-105094666D01*
X109854000Y-105128000D01*
X109820666Y-105161333D01*
X109787333Y-105228000D01*
X109787333Y-105328000D01*
X109820666Y-105394666D01*
X109854000Y-105428000D01*
X109920666Y-105461333D01*
X110187333Y-105461333D01*
X109120666Y-105128000D02*
X109187333Y-105094666D01*
X109287333Y-105094666D01*
X109387333Y-105128000D01*
X109454000Y-105194666D01*
X109487333Y-105261333D01*
X109520666Y-105394666D01*
X109520666Y-105494666D01*
X109487333Y-105628000D01*
X109454000Y-105694666D01*
X109387333Y-105761333D01*
X109287333Y-105794666D01*
X109220666Y-105794666D01*
X109120666Y-105761333D01*
X109087333Y-105728000D01*
X109087333Y-105494666D01*
X109220666Y-105494666D01*
X108554000Y-105428000D02*
X108454000Y-105461333D01*
X108420666Y-105494666D01*
X108387333Y-105561333D01*
X108387333Y-105661333D01*
X108420666Y-105728000D01*
X108454000Y-105761333D01*
X108520666Y-105794666D01*
X108787333Y-105794666D01*
X108787333Y-105094666D01*
X108554000Y-105094666D01*
X108487333Y-105128000D01*
X108454000Y-105161333D01*
X108420666Y-105228000D01*
X108420666Y-105294666D01*
X108454000Y-105361333D01*
X108487333Y-105394666D01*
X108554000Y-105428000D01*
X108787333Y-105428000D01*
X108087333Y-105528000D02*
X107554000Y-105528000D01*
X107254000Y-105161333D02*
X107220666Y-105128000D01*
X107154000Y-105094666D01*
X106987333Y-105094666D01*
X106920666Y-105128000D01*
X106887333Y-105161333D01*
X106854000Y-105228000D01*
X106854000Y-105294666D01*
X106887333Y-105394666D01*
X107287333Y-105794666D01*
X106854000Y-105794666D01*
X106254000Y-105094666D02*
X106387333Y-105094666D01*
X106454000Y-105128000D01*
X106487333Y-105161333D01*
X106554000Y-105261333D01*
X106587333Y-105394666D01*
X106587333Y-105661333D01*
X106554000Y-105728000D01*
X106520666Y-105761333D01*
X106454000Y-105794666D01*
X106320666Y-105794666D01*
X106254000Y-105761333D01*
X106220666Y-105728000D01*
X106187333Y-105661333D01*
X106187333Y-105494666D01*
X106220666Y-105428000D01*
X106254000Y-105394666D01*
X106320666Y-105361333D01*
X106454000Y-105361333D01*
X106520666Y-105394666D01*
X106554000Y-105428000D01*
X106587333Y-105494666D01*
%TO.C,RGB-25*%
X90991333Y-105794666D02*
X91224666Y-105461333D01*
X91391333Y-105794666D02*
X91391333Y-105094666D01*
X91124666Y-105094666D01*
X91058000Y-105128000D01*
X91024666Y-105161333D01*
X90991333Y-105228000D01*
X90991333Y-105328000D01*
X91024666Y-105394666D01*
X91058000Y-105428000D01*
X91124666Y-105461333D01*
X91391333Y-105461333D01*
X90324666Y-105128000D02*
X90391333Y-105094666D01*
X90491333Y-105094666D01*
X90591333Y-105128000D01*
X90658000Y-105194666D01*
X90691333Y-105261333D01*
X90724666Y-105394666D01*
X90724666Y-105494666D01*
X90691333Y-105628000D01*
X90658000Y-105694666D01*
X90591333Y-105761333D01*
X90491333Y-105794666D01*
X90424666Y-105794666D01*
X90324666Y-105761333D01*
X90291333Y-105728000D01*
X90291333Y-105494666D01*
X90424666Y-105494666D01*
X89758000Y-105428000D02*
X89658000Y-105461333D01*
X89624666Y-105494666D01*
X89591333Y-105561333D01*
X89591333Y-105661333D01*
X89624666Y-105728000D01*
X89658000Y-105761333D01*
X89724666Y-105794666D01*
X89991333Y-105794666D01*
X89991333Y-105094666D01*
X89758000Y-105094666D01*
X89691333Y-105128000D01*
X89658000Y-105161333D01*
X89624666Y-105228000D01*
X89624666Y-105294666D01*
X89658000Y-105361333D01*
X89691333Y-105394666D01*
X89758000Y-105428000D01*
X89991333Y-105428000D01*
X89291333Y-105528000D02*
X88758000Y-105528000D01*
X88458000Y-105161333D02*
X88424666Y-105128000D01*
X88358000Y-105094666D01*
X88191333Y-105094666D01*
X88124666Y-105128000D01*
X88091333Y-105161333D01*
X88058000Y-105228000D01*
X88058000Y-105294666D01*
X88091333Y-105394666D01*
X88491333Y-105794666D01*
X88058000Y-105794666D01*
X87424666Y-105094666D02*
X87758000Y-105094666D01*
X87791333Y-105428000D01*
X87758000Y-105394666D01*
X87691333Y-105361333D01*
X87524666Y-105361333D01*
X87458000Y-105394666D01*
X87424666Y-105428000D01*
X87391333Y-105494666D01*
X87391333Y-105661333D01*
X87424666Y-105728000D01*
X87458000Y-105761333D01*
X87524666Y-105794666D01*
X87691333Y-105794666D01*
X87758000Y-105761333D01*
X87791333Y-105728000D01*
%TO.C,RGB-24*%
X66861333Y-105794666D02*
X67094666Y-105461333D01*
X67261333Y-105794666D02*
X67261333Y-105094666D01*
X66994666Y-105094666D01*
X66928000Y-105128000D01*
X66894666Y-105161333D01*
X66861333Y-105228000D01*
X66861333Y-105328000D01*
X66894666Y-105394666D01*
X66928000Y-105428000D01*
X66994666Y-105461333D01*
X67261333Y-105461333D01*
X66194666Y-105128000D02*
X66261333Y-105094666D01*
X66361333Y-105094666D01*
X66461333Y-105128000D01*
X66528000Y-105194666D01*
X66561333Y-105261333D01*
X66594666Y-105394666D01*
X66594666Y-105494666D01*
X66561333Y-105628000D01*
X66528000Y-105694666D01*
X66461333Y-105761333D01*
X66361333Y-105794666D01*
X66294666Y-105794666D01*
X66194666Y-105761333D01*
X66161333Y-105728000D01*
X66161333Y-105494666D01*
X66294666Y-105494666D01*
X65628000Y-105428000D02*
X65528000Y-105461333D01*
X65494666Y-105494666D01*
X65461333Y-105561333D01*
X65461333Y-105661333D01*
X65494666Y-105728000D01*
X65528000Y-105761333D01*
X65594666Y-105794666D01*
X65861333Y-105794666D01*
X65861333Y-105094666D01*
X65628000Y-105094666D01*
X65561333Y-105128000D01*
X65528000Y-105161333D01*
X65494666Y-105228000D01*
X65494666Y-105294666D01*
X65528000Y-105361333D01*
X65561333Y-105394666D01*
X65628000Y-105428000D01*
X65861333Y-105428000D01*
X65161333Y-105528000D02*
X64628000Y-105528000D01*
X64328000Y-105161333D02*
X64294666Y-105128000D01*
X64228000Y-105094666D01*
X64061333Y-105094666D01*
X63994666Y-105128000D01*
X63961333Y-105161333D01*
X63928000Y-105228000D01*
X63928000Y-105294666D01*
X63961333Y-105394666D01*
X64361333Y-105794666D01*
X63928000Y-105794666D01*
X63328000Y-105328000D02*
X63328000Y-105794666D01*
X63494666Y-105061333D02*
X63661333Y-105561333D01*
X63228000Y-105561333D01*
%TO.C,RGB-23*%
X90991333Y-87624666D02*
X91224666Y-87291333D01*
X91391333Y-87624666D02*
X91391333Y-86924666D01*
X91124666Y-86924666D01*
X91058000Y-86958000D01*
X91024666Y-86991333D01*
X90991333Y-87058000D01*
X90991333Y-87158000D01*
X91024666Y-87224666D01*
X91058000Y-87258000D01*
X91124666Y-87291333D01*
X91391333Y-87291333D01*
X90324666Y-86958000D02*
X90391333Y-86924666D01*
X90491333Y-86924666D01*
X90591333Y-86958000D01*
X90658000Y-87024666D01*
X90691333Y-87091333D01*
X90724666Y-87224666D01*
X90724666Y-87324666D01*
X90691333Y-87458000D01*
X90658000Y-87524666D01*
X90591333Y-87591333D01*
X90491333Y-87624666D01*
X90424666Y-87624666D01*
X90324666Y-87591333D01*
X90291333Y-87558000D01*
X90291333Y-87324666D01*
X90424666Y-87324666D01*
X89758000Y-87258000D02*
X89658000Y-87291333D01*
X89624666Y-87324666D01*
X89591333Y-87391333D01*
X89591333Y-87491333D01*
X89624666Y-87558000D01*
X89658000Y-87591333D01*
X89724666Y-87624666D01*
X89991333Y-87624666D01*
X89991333Y-86924666D01*
X89758000Y-86924666D01*
X89691333Y-86958000D01*
X89658000Y-86991333D01*
X89624666Y-87058000D01*
X89624666Y-87124666D01*
X89658000Y-87191333D01*
X89691333Y-87224666D01*
X89758000Y-87258000D01*
X89991333Y-87258000D01*
X89291333Y-87358000D02*
X88758000Y-87358000D01*
X88458000Y-86991333D02*
X88424666Y-86958000D01*
X88358000Y-86924666D01*
X88191333Y-86924666D01*
X88124666Y-86958000D01*
X88091333Y-86991333D01*
X88058000Y-87058000D01*
X88058000Y-87124666D01*
X88091333Y-87224666D01*
X88491333Y-87624666D01*
X88058000Y-87624666D01*
X87824666Y-86924666D02*
X87391333Y-86924666D01*
X87624666Y-87191333D01*
X87524666Y-87191333D01*
X87458000Y-87224666D01*
X87424666Y-87258000D01*
X87391333Y-87324666D01*
X87391333Y-87491333D01*
X87424666Y-87558000D01*
X87458000Y-87591333D01*
X87524666Y-87624666D01*
X87724666Y-87624666D01*
X87791333Y-87591333D01*
X87824666Y-87558000D01*
%TO.C,RGB-22*%
X109787333Y-87624666D02*
X110020666Y-87291333D01*
X110187333Y-87624666D02*
X110187333Y-86924666D01*
X109920666Y-86924666D01*
X109854000Y-86958000D01*
X109820666Y-86991333D01*
X109787333Y-87058000D01*
X109787333Y-87158000D01*
X109820666Y-87224666D01*
X109854000Y-87258000D01*
X109920666Y-87291333D01*
X110187333Y-87291333D01*
X109120666Y-86958000D02*
X109187333Y-86924666D01*
X109287333Y-86924666D01*
X109387333Y-86958000D01*
X109454000Y-87024666D01*
X109487333Y-87091333D01*
X109520666Y-87224666D01*
X109520666Y-87324666D01*
X109487333Y-87458000D01*
X109454000Y-87524666D01*
X109387333Y-87591333D01*
X109287333Y-87624666D01*
X109220666Y-87624666D01*
X109120666Y-87591333D01*
X109087333Y-87558000D01*
X109087333Y-87324666D01*
X109220666Y-87324666D01*
X108554000Y-87258000D02*
X108454000Y-87291333D01*
X108420666Y-87324666D01*
X108387333Y-87391333D01*
X108387333Y-87491333D01*
X108420666Y-87558000D01*
X108454000Y-87591333D01*
X108520666Y-87624666D01*
X108787333Y-87624666D01*
X108787333Y-86924666D01*
X108554000Y-86924666D01*
X108487333Y-86958000D01*
X108454000Y-86991333D01*
X108420666Y-87058000D01*
X108420666Y-87124666D01*
X108454000Y-87191333D01*
X108487333Y-87224666D01*
X108554000Y-87258000D01*
X108787333Y-87258000D01*
X108087333Y-87358000D02*
X107554000Y-87358000D01*
X107254000Y-86991333D02*
X107220666Y-86958000D01*
X107154000Y-86924666D01*
X106987333Y-86924666D01*
X106920666Y-86958000D01*
X106887333Y-86991333D01*
X106854000Y-87058000D01*
X106854000Y-87124666D01*
X106887333Y-87224666D01*
X107287333Y-87624666D01*
X106854000Y-87624666D01*
X106587333Y-86991333D02*
X106554000Y-86958000D01*
X106487333Y-86924666D01*
X106320666Y-86924666D01*
X106254000Y-86958000D01*
X106220666Y-86991333D01*
X106187333Y-87058000D01*
X106187333Y-87124666D01*
X106220666Y-87224666D01*
X106620666Y-87624666D01*
X106187333Y-87624666D01*
%TO.C,RGB-21*%
X128583333Y-87624666D02*
X128816666Y-87291333D01*
X128983333Y-87624666D02*
X128983333Y-86924666D01*
X128716666Y-86924666D01*
X128650000Y-86958000D01*
X128616666Y-86991333D01*
X128583333Y-87058000D01*
X128583333Y-87158000D01*
X128616666Y-87224666D01*
X128650000Y-87258000D01*
X128716666Y-87291333D01*
X128983333Y-87291333D01*
X127916666Y-86958000D02*
X127983333Y-86924666D01*
X128083333Y-86924666D01*
X128183333Y-86958000D01*
X128250000Y-87024666D01*
X128283333Y-87091333D01*
X128316666Y-87224666D01*
X128316666Y-87324666D01*
X128283333Y-87458000D01*
X128250000Y-87524666D01*
X128183333Y-87591333D01*
X128083333Y-87624666D01*
X128016666Y-87624666D01*
X127916666Y-87591333D01*
X127883333Y-87558000D01*
X127883333Y-87324666D01*
X128016666Y-87324666D01*
X127350000Y-87258000D02*
X127250000Y-87291333D01*
X127216666Y-87324666D01*
X127183333Y-87391333D01*
X127183333Y-87491333D01*
X127216666Y-87558000D01*
X127250000Y-87591333D01*
X127316666Y-87624666D01*
X127583333Y-87624666D01*
X127583333Y-86924666D01*
X127350000Y-86924666D01*
X127283333Y-86958000D01*
X127250000Y-86991333D01*
X127216666Y-87058000D01*
X127216666Y-87124666D01*
X127250000Y-87191333D01*
X127283333Y-87224666D01*
X127350000Y-87258000D01*
X127583333Y-87258000D01*
X126883333Y-87358000D02*
X126350000Y-87358000D01*
X126050000Y-86991333D02*
X126016666Y-86958000D01*
X125950000Y-86924666D01*
X125783333Y-86924666D01*
X125716666Y-86958000D01*
X125683333Y-86991333D01*
X125650000Y-87058000D01*
X125650000Y-87124666D01*
X125683333Y-87224666D01*
X126083333Y-87624666D01*
X125650000Y-87624666D01*
X124983333Y-87624666D02*
X125383333Y-87624666D01*
X125183333Y-87624666D02*
X125183333Y-86924666D01*
X125250000Y-87024666D01*
X125316666Y-87091333D01*
X125383333Y-87124666D01*
%TO.C,RGB-20*%
X147379333Y-87624666D02*
X147612666Y-87291333D01*
X147779333Y-87624666D02*
X147779333Y-86924666D01*
X147512666Y-86924666D01*
X147446000Y-86958000D01*
X147412666Y-86991333D01*
X147379333Y-87058000D01*
X147379333Y-87158000D01*
X147412666Y-87224666D01*
X147446000Y-87258000D01*
X147512666Y-87291333D01*
X147779333Y-87291333D01*
X146712666Y-86958000D02*
X146779333Y-86924666D01*
X146879333Y-86924666D01*
X146979333Y-86958000D01*
X147046000Y-87024666D01*
X147079333Y-87091333D01*
X147112666Y-87224666D01*
X147112666Y-87324666D01*
X147079333Y-87458000D01*
X147046000Y-87524666D01*
X146979333Y-87591333D01*
X146879333Y-87624666D01*
X146812666Y-87624666D01*
X146712666Y-87591333D01*
X146679333Y-87558000D01*
X146679333Y-87324666D01*
X146812666Y-87324666D01*
X146146000Y-87258000D02*
X146046000Y-87291333D01*
X146012666Y-87324666D01*
X145979333Y-87391333D01*
X145979333Y-87491333D01*
X146012666Y-87558000D01*
X146046000Y-87591333D01*
X146112666Y-87624666D01*
X146379333Y-87624666D01*
X146379333Y-86924666D01*
X146146000Y-86924666D01*
X146079333Y-86958000D01*
X146046000Y-86991333D01*
X146012666Y-87058000D01*
X146012666Y-87124666D01*
X146046000Y-87191333D01*
X146079333Y-87224666D01*
X146146000Y-87258000D01*
X146379333Y-87258000D01*
X145679333Y-87358000D02*
X145146000Y-87358000D01*
X144846000Y-86991333D02*
X144812666Y-86958000D01*
X144746000Y-86924666D01*
X144579333Y-86924666D01*
X144512666Y-86958000D01*
X144479333Y-86991333D01*
X144446000Y-87058000D01*
X144446000Y-87124666D01*
X144479333Y-87224666D01*
X144879333Y-87624666D01*
X144446000Y-87624666D01*
X144012666Y-86924666D02*
X143946000Y-86924666D01*
X143879333Y-86958000D01*
X143846000Y-86991333D01*
X143812666Y-87058000D01*
X143779333Y-87191333D01*
X143779333Y-87358000D01*
X143812666Y-87491333D01*
X143846000Y-87558000D01*
X143879333Y-87591333D01*
X143946000Y-87624666D01*
X144012666Y-87624666D01*
X144079333Y-87591333D01*
X144112666Y-87558000D01*
X144146000Y-87491333D01*
X144179333Y-87358000D01*
X144179333Y-87191333D01*
X144146000Y-87058000D01*
X144112666Y-86991333D01*
X144079333Y-86958000D01*
X144012666Y-86924666D01*
%TO.C,RGB-19*%
X166175333Y-87624666D02*
X166408666Y-87291333D01*
X166575333Y-87624666D02*
X166575333Y-86924666D01*
X166308666Y-86924666D01*
X166242000Y-86958000D01*
X166208666Y-86991333D01*
X166175333Y-87058000D01*
X166175333Y-87158000D01*
X166208666Y-87224666D01*
X166242000Y-87258000D01*
X166308666Y-87291333D01*
X166575333Y-87291333D01*
X165508666Y-86958000D02*
X165575333Y-86924666D01*
X165675333Y-86924666D01*
X165775333Y-86958000D01*
X165842000Y-87024666D01*
X165875333Y-87091333D01*
X165908666Y-87224666D01*
X165908666Y-87324666D01*
X165875333Y-87458000D01*
X165842000Y-87524666D01*
X165775333Y-87591333D01*
X165675333Y-87624666D01*
X165608666Y-87624666D01*
X165508666Y-87591333D01*
X165475333Y-87558000D01*
X165475333Y-87324666D01*
X165608666Y-87324666D01*
X164942000Y-87258000D02*
X164842000Y-87291333D01*
X164808666Y-87324666D01*
X164775333Y-87391333D01*
X164775333Y-87491333D01*
X164808666Y-87558000D01*
X164842000Y-87591333D01*
X164908666Y-87624666D01*
X165175333Y-87624666D01*
X165175333Y-86924666D01*
X164942000Y-86924666D01*
X164875333Y-86958000D01*
X164842000Y-86991333D01*
X164808666Y-87058000D01*
X164808666Y-87124666D01*
X164842000Y-87191333D01*
X164875333Y-87224666D01*
X164942000Y-87258000D01*
X165175333Y-87258000D01*
X164475333Y-87358000D02*
X163942000Y-87358000D01*
X163242000Y-87624666D02*
X163642000Y-87624666D01*
X163442000Y-87624666D02*
X163442000Y-86924666D01*
X163508666Y-87024666D01*
X163575333Y-87091333D01*
X163642000Y-87124666D01*
X162908666Y-87624666D02*
X162775333Y-87624666D01*
X162708666Y-87591333D01*
X162675333Y-87558000D01*
X162608666Y-87458000D01*
X162575333Y-87324666D01*
X162575333Y-87058000D01*
X162608666Y-86991333D01*
X162642000Y-86958000D01*
X162708666Y-86924666D01*
X162842000Y-86924666D01*
X162908666Y-86958000D01*
X162942000Y-86991333D01*
X162975333Y-87058000D01*
X162975333Y-87224666D01*
X162942000Y-87291333D01*
X162908666Y-87324666D01*
X162842000Y-87358000D01*
X162708666Y-87358000D01*
X162642000Y-87324666D01*
X162608666Y-87291333D01*
X162575333Y-87224666D01*
%TO.C,RGB-18*%
X185225333Y-87624666D02*
X185458666Y-87291333D01*
X185625333Y-87624666D02*
X185625333Y-86924666D01*
X185358666Y-86924666D01*
X185292000Y-86958000D01*
X185258666Y-86991333D01*
X185225333Y-87058000D01*
X185225333Y-87158000D01*
X185258666Y-87224666D01*
X185292000Y-87258000D01*
X185358666Y-87291333D01*
X185625333Y-87291333D01*
X184558666Y-86958000D02*
X184625333Y-86924666D01*
X184725333Y-86924666D01*
X184825333Y-86958000D01*
X184892000Y-87024666D01*
X184925333Y-87091333D01*
X184958666Y-87224666D01*
X184958666Y-87324666D01*
X184925333Y-87458000D01*
X184892000Y-87524666D01*
X184825333Y-87591333D01*
X184725333Y-87624666D01*
X184658666Y-87624666D01*
X184558666Y-87591333D01*
X184525333Y-87558000D01*
X184525333Y-87324666D01*
X184658666Y-87324666D01*
X183992000Y-87258000D02*
X183892000Y-87291333D01*
X183858666Y-87324666D01*
X183825333Y-87391333D01*
X183825333Y-87491333D01*
X183858666Y-87558000D01*
X183892000Y-87591333D01*
X183958666Y-87624666D01*
X184225333Y-87624666D01*
X184225333Y-86924666D01*
X183992000Y-86924666D01*
X183925333Y-86958000D01*
X183892000Y-86991333D01*
X183858666Y-87058000D01*
X183858666Y-87124666D01*
X183892000Y-87191333D01*
X183925333Y-87224666D01*
X183992000Y-87258000D01*
X184225333Y-87258000D01*
X183525333Y-87358000D02*
X182992000Y-87358000D01*
X182292000Y-87624666D02*
X182692000Y-87624666D01*
X182492000Y-87624666D02*
X182492000Y-86924666D01*
X182558666Y-87024666D01*
X182625333Y-87091333D01*
X182692000Y-87124666D01*
X181892000Y-87224666D02*
X181958666Y-87191333D01*
X181992000Y-87158000D01*
X182025333Y-87091333D01*
X182025333Y-87058000D01*
X181992000Y-86991333D01*
X181958666Y-86958000D01*
X181892000Y-86924666D01*
X181758666Y-86924666D01*
X181692000Y-86958000D01*
X181658666Y-86991333D01*
X181625333Y-87058000D01*
X181625333Y-87091333D01*
X181658666Y-87158000D01*
X181692000Y-87191333D01*
X181758666Y-87224666D01*
X181892000Y-87224666D01*
X181958666Y-87258000D01*
X181992000Y-87291333D01*
X182025333Y-87358000D01*
X182025333Y-87491333D01*
X181992000Y-87558000D01*
X181958666Y-87591333D01*
X181892000Y-87624666D01*
X181758666Y-87624666D01*
X181692000Y-87591333D01*
X181658666Y-87558000D01*
X181625333Y-87491333D01*
X181625333Y-87358000D01*
X181658666Y-87291333D01*
X181692000Y-87258000D01*
X181758666Y-87224666D01*
%TO.C,RGB-17*%
X203767333Y-87624666D02*
X204000666Y-87291333D01*
X204167333Y-87624666D02*
X204167333Y-86924666D01*
X203900666Y-86924666D01*
X203834000Y-86958000D01*
X203800666Y-86991333D01*
X203767333Y-87058000D01*
X203767333Y-87158000D01*
X203800666Y-87224666D01*
X203834000Y-87258000D01*
X203900666Y-87291333D01*
X204167333Y-87291333D01*
X203100666Y-86958000D02*
X203167333Y-86924666D01*
X203267333Y-86924666D01*
X203367333Y-86958000D01*
X203434000Y-87024666D01*
X203467333Y-87091333D01*
X203500666Y-87224666D01*
X203500666Y-87324666D01*
X203467333Y-87458000D01*
X203434000Y-87524666D01*
X203367333Y-87591333D01*
X203267333Y-87624666D01*
X203200666Y-87624666D01*
X203100666Y-87591333D01*
X203067333Y-87558000D01*
X203067333Y-87324666D01*
X203200666Y-87324666D01*
X202534000Y-87258000D02*
X202434000Y-87291333D01*
X202400666Y-87324666D01*
X202367333Y-87391333D01*
X202367333Y-87491333D01*
X202400666Y-87558000D01*
X202434000Y-87591333D01*
X202500666Y-87624666D01*
X202767333Y-87624666D01*
X202767333Y-86924666D01*
X202534000Y-86924666D01*
X202467333Y-86958000D01*
X202434000Y-86991333D01*
X202400666Y-87058000D01*
X202400666Y-87124666D01*
X202434000Y-87191333D01*
X202467333Y-87224666D01*
X202534000Y-87258000D01*
X202767333Y-87258000D01*
X202067333Y-87358000D02*
X201534000Y-87358000D01*
X200834000Y-87624666D02*
X201234000Y-87624666D01*
X201034000Y-87624666D02*
X201034000Y-86924666D01*
X201100666Y-87024666D01*
X201167333Y-87091333D01*
X201234000Y-87124666D01*
X200600666Y-86924666D02*
X200134000Y-86924666D01*
X200434000Y-87624666D01*
%TO.C,RGB-16*%
X222563333Y-87624666D02*
X222796666Y-87291333D01*
X222963333Y-87624666D02*
X222963333Y-86924666D01*
X222696666Y-86924666D01*
X222630000Y-86958000D01*
X222596666Y-86991333D01*
X222563333Y-87058000D01*
X222563333Y-87158000D01*
X222596666Y-87224666D01*
X222630000Y-87258000D01*
X222696666Y-87291333D01*
X222963333Y-87291333D01*
X221896666Y-86958000D02*
X221963333Y-86924666D01*
X222063333Y-86924666D01*
X222163333Y-86958000D01*
X222230000Y-87024666D01*
X222263333Y-87091333D01*
X222296666Y-87224666D01*
X222296666Y-87324666D01*
X222263333Y-87458000D01*
X222230000Y-87524666D01*
X222163333Y-87591333D01*
X222063333Y-87624666D01*
X221996666Y-87624666D01*
X221896666Y-87591333D01*
X221863333Y-87558000D01*
X221863333Y-87324666D01*
X221996666Y-87324666D01*
X221330000Y-87258000D02*
X221230000Y-87291333D01*
X221196666Y-87324666D01*
X221163333Y-87391333D01*
X221163333Y-87491333D01*
X221196666Y-87558000D01*
X221230000Y-87591333D01*
X221296666Y-87624666D01*
X221563333Y-87624666D01*
X221563333Y-86924666D01*
X221330000Y-86924666D01*
X221263333Y-86958000D01*
X221230000Y-86991333D01*
X221196666Y-87058000D01*
X221196666Y-87124666D01*
X221230000Y-87191333D01*
X221263333Y-87224666D01*
X221330000Y-87258000D01*
X221563333Y-87258000D01*
X220863333Y-87358000D02*
X220330000Y-87358000D01*
X219630000Y-87624666D02*
X220030000Y-87624666D01*
X219830000Y-87624666D02*
X219830000Y-86924666D01*
X219896666Y-87024666D01*
X219963333Y-87091333D01*
X220030000Y-87124666D01*
X219030000Y-86924666D02*
X219163333Y-86924666D01*
X219230000Y-86958000D01*
X219263333Y-86991333D01*
X219330000Y-87091333D01*
X219363333Y-87224666D01*
X219363333Y-87491333D01*
X219330000Y-87558000D01*
X219296666Y-87591333D01*
X219230000Y-87624666D01*
X219096666Y-87624666D01*
X219030000Y-87591333D01*
X218996666Y-87558000D01*
X218963333Y-87491333D01*
X218963333Y-87324666D01*
X218996666Y-87258000D01*
X219030000Y-87224666D01*
X219096666Y-87191333D01*
X219230000Y-87191333D01*
X219296666Y-87224666D01*
X219330000Y-87258000D01*
X219363333Y-87324666D01*
%TO.C,RGB-15*%
X241359333Y-87624666D02*
X241592666Y-87291333D01*
X241759333Y-87624666D02*
X241759333Y-86924666D01*
X241492666Y-86924666D01*
X241426000Y-86958000D01*
X241392666Y-86991333D01*
X241359333Y-87058000D01*
X241359333Y-87158000D01*
X241392666Y-87224666D01*
X241426000Y-87258000D01*
X241492666Y-87291333D01*
X241759333Y-87291333D01*
X240692666Y-86958000D02*
X240759333Y-86924666D01*
X240859333Y-86924666D01*
X240959333Y-86958000D01*
X241026000Y-87024666D01*
X241059333Y-87091333D01*
X241092666Y-87224666D01*
X241092666Y-87324666D01*
X241059333Y-87458000D01*
X241026000Y-87524666D01*
X240959333Y-87591333D01*
X240859333Y-87624666D01*
X240792666Y-87624666D01*
X240692666Y-87591333D01*
X240659333Y-87558000D01*
X240659333Y-87324666D01*
X240792666Y-87324666D01*
X240126000Y-87258000D02*
X240026000Y-87291333D01*
X239992666Y-87324666D01*
X239959333Y-87391333D01*
X239959333Y-87491333D01*
X239992666Y-87558000D01*
X240026000Y-87591333D01*
X240092666Y-87624666D01*
X240359333Y-87624666D01*
X240359333Y-86924666D01*
X240126000Y-86924666D01*
X240059333Y-86958000D01*
X240026000Y-86991333D01*
X239992666Y-87058000D01*
X239992666Y-87124666D01*
X240026000Y-87191333D01*
X240059333Y-87224666D01*
X240126000Y-87258000D01*
X240359333Y-87258000D01*
X239659333Y-87358000D02*
X239126000Y-87358000D01*
X238426000Y-87624666D02*
X238826000Y-87624666D01*
X238626000Y-87624666D02*
X238626000Y-86924666D01*
X238692666Y-87024666D01*
X238759333Y-87091333D01*
X238826000Y-87124666D01*
X237792666Y-86924666D02*
X238126000Y-86924666D01*
X238159333Y-87258000D01*
X238126000Y-87224666D01*
X238059333Y-87191333D01*
X237892666Y-87191333D01*
X237826000Y-87224666D01*
X237792666Y-87258000D01*
X237759333Y-87324666D01*
X237759333Y-87491333D01*
X237792666Y-87558000D01*
X237826000Y-87591333D01*
X237892666Y-87624666D01*
X238059333Y-87624666D01*
X238126000Y-87591333D01*
X238159333Y-87558000D01*
%TO.C,RGB-14*%
X260155333Y-87624666D02*
X260388666Y-87291333D01*
X260555333Y-87624666D02*
X260555333Y-86924666D01*
X260288666Y-86924666D01*
X260222000Y-86958000D01*
X260188666Y-86991333D01*
X260155333Y-87058000D01*
X260155333Y-87158000D01*
X260188666Y-87224666D01*
X260222000Y-87258000D01*
X260288666Y-87291333D01*
X260555333Y-87291333D01*
X259488666Y-86958000D02*
X259555333Y-86924666D01*
X259655333Y-86924666D01*
X259755333Y-86958000D01*
X259822000Y-87024666D01*
X259855333Y-87091333D01*
X259888666Y-87224666D01*
X259888666Y-87324666D01*
X259855333Y-87458000D01*
X259822000Y-87524666D01*
X259755333Y-87591333D01*
X259655333Y-87624666D01*
X259588666Y-87624666D01*
X259488666Y-87591333D01*
X259455333Y-87558000D01*
X259455333Y-87324666D01*
X259588666Y-87324666D01*
X258922000Y-87258000D02*
X258822000Y-87291333D01*
X258788666Y-87324666D01*
X258755333Y-87391333D01*
X258755333Y-87491333D01*
X258788666Y-87558000D01*
X258822000Y-87591333D01*
X258888666Y-87624666D01*
X259155333Y-87624666D01*
X259155333Y-86924666D01*
X258922000Y-86924666D01*
X258855333Y-86958000D01*
X258822000Y-86991333D01*
X258788666Y-87058000D01*
X258788666Y-87124666D01*
X258822000Y-87191333D01*
X258855333Y-87224666D01*
X258922000Y-87258000D01*
X259155333Y-87258000D01*
X258455333Y-87358000D02*
X257922000Y-87358000D01*
X257222000Y-87624666D02*
X257622000Y-87624666D01*
X257422000Y-87624666D02*
X257422000Y-86924666D01*
X257488666Y-87024666D01*
X257555333Y-87091333D01*
X257622000Y-87124666D01*
X256622000Y-87158000D02*
X256622000Y-87624666D01*
X256788666Y-86891333D02*
X256955333Y-87391333D01*
X256522000Y-87391333D01*
%TO.C,RGB-13*%
X278951333Y-87624666D02*
X279184666Y-87291333D01*
X279351333Y-87624666D02*
X279351333Y-86924666D01*
X279084666Y-86924666D01*
X279018000Y-86958000D01*
X278984666Y-86991333D01*
X278951333Y-87058000D01*
X278951333Y-87158000D01*
X278984666Y-87224666D01*
X279018000Y-87258000D01*
X279084666Y-87291333D01*
X279351333Y-87291333D01*
X278284666Y-86958000D02*
X278351333Y-86924666D01*
X278451333Y-86924666D01*
X278551333Y-86958000D01*
X278618000Y-87024666D01*
X278651333Y-87091333D01*
X278684666Y-87224666D01*
X278684666Y-87324666D01*
X278651333Y-87458000D01*
X278618000Y-87524666D01*
X278551333Y-87591333D01*
X278451333Y-87624666D01*
X278384666Y-87624666D01*
X278284666Y-87591333D01*
X278251333Y-87558000D01*
X278251333Y-87324666D01*
X278384666Y-87324666D01*
X277718000Y-87258000D02*
X277618000Y-87291333D01*
X277584666Y-87324666D01*
X277551333Y-87391333D01*
X277551333Y-87491333D01*
X277584666Y-87558000D01*
X277618000Y-87591333D01*
X277684666Y-87624666D01*
X277951333Y-87624666D01*
X277951333Y-86924666D01*
X277718000Y-86924666D01*
X277651333Y-86958000D01*
X277618000Y-86991333D01*
X277584666Y-87058000D01*
X277584666Y-87124666D01*
X277618000Y-87191333D01*
X277651333Y-87224666D01*
X277718000Y-87258000D01*
X277951333Y-87258000D01*
X277251333Y-87358000D02*
X276718000Y-87358000D01*
X276018000Y-87624666D02*
X276418000Y-87624666D01*
X276218000Y-87624666D02*
X276218000Y-86924666D01*
X276284666Y-87024666D01*
X276351333Y-87091333D01*
X276418000Y-87124666D01*
X275784666Y-86924666D02*
X275351333Y-86924666D01*
X275584666Y-87191333D01*
X275484666Y-87191333D01*
X275418000Y-87224666D01*
X275384666Y-87258000D01*
X275351333Y-87324666D01*
X275351333Y-87491333D01*
X275384666Y-87558000D01*
X275418000Y-87591333D01*
X275484666Y-87624666D01*
X275684666Y-87624666D01*
X275751333Y-87591333D01*
X275784666Y-87558000D01*
%TO.C,RGB-12*%
X297747333Y-87878666D02*
X297980666Y-87545333D01*
X298147333Y-87878666D02*
X298147333Y-87178666D01*
X297880666Y-87178666D01*
X297814000Y-87212000D01*
X297780666Y-87245333D01*
X297747333Y-87312000D01*
X297747333Y-87412000D01*
X297780666Y-87478666D01*
X297814000Y-87512000D01*
X297880666Y-87545333D01*
X298147333Y-87545333D01*
X297080666Y-87212000D02*
X297147333Y-87178666D01*
X297247333Y-87178666D01*
X297347333Y-87212000D01*
X297414000Y-87278666D01*
X297447333Y-87345333D01*
X297480666Y-87478666D01*
X297480666Y-87578666D01*
X297447333Y-87712000D01*
X297414000Y-87778666D01*
X297347333Y-87845333D01*
X297247333Y-87878666D01*
X297180666Y-87878666D01*
X297080666Y-87845333D01*
X297047333Y-87812000D01*
X297047333Y-87578666D01*
X297180666Y-87578666D01*
X296514000Y-87512000D02*
X296414000Y-87545333D01*
X296380666Y-87578666D01*
X296347333Y-87645333D01*
X296347333Y-87745333D01*
X296380666Y-87812000D01*
X296414000Y-87845333D01*
X296480666Y-87878666D01*
X296747333Y-87878666D01*
X296747333Y-87178666D01*
X296514000Y-87178666D01*
X296447333Y-87212000D01*
X296414000Y-87245333D01*
X296380666Y-87312000D01*
X296380666Y-87378666D01*
X296414000Y-87445333D01*
X296447333Y-87478666D01*
X296514000Y-87512000D01*
X296747333Y-87512000D01*
X296047333Y-87612000D02*
X295514000Y-87612000D01*
X294814000Y-87878666D02*
X295214000Y-87878666D01*
X295014000Y-87878666D02*
X295014000Y-87178666D01*
X295080666Y-87278666D01*
X295147333Y-87345333D01*
X295214000Y-87378666D01*
X294547333Y-87245333D02*
X294514000Y-87212000D01*
X294447333Y-87178666D01*
X294280666Y-87178666D01*
X294214000Y-87212000D01*
X294180666Y-87245333D01*
X294147333Y-87312000D01*
X294147333Y-87378666D01*
X294180666Y-87478666D01*
X294580666Y-87878666D01*
X294147333Y-87878666D01*
%TO.C,RGB-0*%
X90658000Y-68456666D02*
X90891333Y-68123333D01*
X91058000Y-68456666D02*
X91058000Y-67756666D01*
X90791333Y-67756666D01*
X90724666Y-67790000D01*
X90691333Y-67823333D01*
X90658000Y-67890000D01*
X90658000Y-67990000D01*
X90691333Y-68056666D01*
X90724666Y-68090000D01*
X90791333Y-68123333D01*
X91058000Y-68123333D01*
X89991333Y-67790000D02*
X90058000Y-67756666D01*
X90158000Y-67756666D01*
X90258000Y-67790000D01*
X90324666Y-67856666D01*
X90358000Y-67923333D01*
X90391333Y-68056666D01*
X90391333Y-68156666D01*
X90358000Y-68290000D01*
X90324666Y-68356666D01*
X90258000Y-68423333D01*
X90158000Y-68456666D01*
X90091333Y-68456666D01*
X89991333Y-68423333D01*
X89958000Y-68390000D01*
X89958000Y-68156666D01*
X90091333Y-68156666D01*
X89424666Y-68090000D02*
X89324666Y-68123333D01*
X89291333Y-68156666D01*
X89258000Y-68223333D01*
X89258000Y-68323333D01*
X89291333Y-68390000D01*
X89324666Y-68423333D01*
X89391333Y-68456666D01*
X89658000Y-68456666D01*
X89658000Y-67756666D01*
X89424666Y-67756666D01*
X89358000Y-67790000D01*
X89324666Y-67823333D01*
X89291333Y-67890000D01*
X89291333Y-67956666D01*
X89324666Y-68023333D01*
X89358000Y-68056666D01*
X89424666Y-68090000D01*
X89658000Y-68090000D01*
X88958000Y-68190000D02*
X88424666Y-68190000D01*
X87958000Y-67756666D02*
X87891333Y-67756666D01*
X87824666Y-67790000D01*
X87791333Y-67823333D01*
X87758000Y-67890000D01*
X87724666Y-68023333D01*
X87724666Y-68190000D01*
X87758000Y-68323333D01*
X87791333Y-68390000D01*
X87824666Y-68423333D01*
X87891333Y-68456666D01*
X87958000Y-68456666D01*
X88024666Y-68423333D01*
X88058000Y-68390000D01*
X88091333Y-68323333D01*
X88124666Y-68190000D01*
X88124666Y-68023333D01*
X88091333Y-67890000D01*
X88058000Y-67823333D01*
X88024666Y-67790000D01*
X87958000Y-67756666D01*
%TO.C,RGB-11*%
X297747333Y-68710666D02*
X297980666Y-68377333D01*
X298147333Y-68710666D02*
X298147333Y-68010666D01*
X297880666Y-68010666D01*
X297814000Y-68044000D01*
X297780666Y-68077333D01*
X297747333Y-68144000D01*
X297747333Y-68244000D01*
X297780666Y-68310666D01*
X297814000Y-68344000D01*
X297880666Y-68377333D01*
X298147333Y-68377333D01*
X297080666Y-68044000D02*
X297147333Y-68010666D01*
X297247333Y-68010666D01*
X297347333Y-68044000D01*
X297414000Y-68110666D01*
X297447333Y-68177333D01*
X297480666Y-68310666D01*
X297480666Y-68410666D01*
X297447333Y-68544000D01*
X297414000Y-68610666D01*
X297347333Y-68677333D01*
X297247333Y-68710666D01*
X297180666Y-68710666D01*
X297080666Y-68677333D01*
X297047333Y-68644000D01*
X297047333Y-68410666D01*
X297180666Y-68410666D01*
X296514000Y-68344000D02*
X296414000Y-68377333D01*
X296380666Y-68410666D01*
X296347333Y-68477333D01*
X296347333Y-68577333D01*
X296380666Y-68644000D01*
X296414000Y-68677333D01*
X296480666Y-68710666D01*
X296747333Y-68710666D01*
X296747333Y-68010666D01*
X296514000Y-68010666D01*
X296447333Y-68044000D01*
X296414000Y-68077333D01*
X296380666Y-68144000D01*
X296380666Y-68210666D01*
X296414000Y-68277333D01*
X296447333Y-68310666D01*
X296514000Y-68344000D01*
X296747333Y-68344000D01*
X296047333Y-68444000D02*
X295514000Y-68444000D01*
X294814000Y-68710666D02*
X295214000Y-68710666D01*
X295014000Y-68710666D02*
X295014000Y-68010666D01*
X295080666Y-68110666D01*
X295147333Y-68177333D01*
X295214000Y-68210666D01*
X294147333Y-68710666D02*
X294547333Y-68710666D01*
X294347333Y-68710666D02*
X294347333Y-68010666D01*
X294414000Y-68110666D01*
X294480666Y-68177333D01*
X294547333Y-68210666D01*
%TO.C,RGB-2*%
X128250000Y-68456666D02*
X128483333Y-68123333D01*
X128650000Y-68456666D02*
X128650000Y-67756666D01*
X128383333Y-67756666D01*
X128316666Y-67790000D01*
X128283333Y-67823333D01*
X128250000Y-67890000D01*
X128250000Y-67990000D01*
X128283333Y-68056666D01*
X128316666Y-68090000D01*
X128383333Y-68123333D01*
X128650000Y-68123333D01*
X127583333Y-67790000D02*
X127650000Y-67756666D01*
X127750000Y-67756666D01*
X127850000Y-67790000D01*
X127916666Y-67856666D01*
X127950000Y-67923333D01*
X127983333Y-68056666D01*
X127983333Y-68156666D01*
X127950000Y-68290000D01*
X127916666Y-68356666D01*
X127850000Y-68423333D01*
X127750000Y-68456666D01*
X127683333Y-68456666D01*
X127583333Y-68423333D01*
X127550000Y-68390000D01*
X127550000Y-68156666D01*
X127683333Y-68156666D01*
X127016666Y-68090000D02*
X126916666Y-68123333D01*
X126883333Y-68156666D01*
X126850000Y-68223333D01*
X126850000Y-68323333D01*
X126883333Y-68390000D01*
X126916666Y-68423333D01*
X126983333Y-68456666D01*
X127250000Y-68456666D01*
X127250000Y-67756666D01*
X127016666Y-67756666D01*
X126950000Y-67790000D01*
X126916666Y-67823333D01*
X126883333Y-67890000D01*
X126883333Y-67956666D01*
X126916666Y-68023333D01*
X126950000Y-68056666D01*
X127016666Y-68090000D01*
X127250000Y-68090000D01*
X126550000Y-68190000D02*
X126016666Y-68190000D01*
X125716666Y-67823333D02*
X125683333Y-67790000D01*
X125616666Y-67756666D01*
X125450000Y-67756666D01*
X125383333Y-67790000D01*
X125350000Y-67823333D01*
X125316666Y-67890000D01*
X125316666Y-67956666D01*
X125350000Y-68056666D01*
X125750000Y-68456666D01*
X125316666Y-68456666D01*
%TO.C,RGB-10*%
X278951333Y-68710666D02*
X279184666Y-68377333D01*
X279351333Y-68710666D02*
X279351333Y-68010666D01*
X279084666Y-68010666D01*
X279018000Y-68044000D01*
X278984666Y-68077333D01*
X278951333Y-68144000D01*
X278951333Y-68244000D01*
X278984666Y-68310666D01*
X279018000Y-68344000D01*
X279084666Y-68377333D01*
X279351333Y-68377333D01*
X278284666Y-68044000D02*
X278351333Y-68010666D01*
X278451333Y-68010666D01*
X278551333Y-68044000D01*
X278618000Y-68110666D01*
X278651333Y-68177333D01*
X278684666Y-68310666D01*
X278684666Y-68410666D01*
X278651333Y-68544000D01*
X278618000Y-68610666D01*
X278551333Y-68677333D01*
X278451333Y-68710666D01*
X278384666Y-68710666D01*
X278284666Y-68677333D01*
X278251333Y-68644000D01*
X278251333Y-68410666D01*
X278384666Y-68410666D01*
X277718000Y-68344000D02*
X277618000Y-68377333D01*
X277584666Y-68410666D01*
X277551333Y-68477333D01*
X277551333Y-68577333D01*
X277584666Y-68644000D01*
X277618000Y-68677333D01*
X277684666Y-68710666D01*
X277951333Y-68710666D01*
X277951333Y-68010666D01*
X277718000Y-68010666D01*
X277651333Y-68044000D01*
X277618000Y-68077333D01*
X277584666Y-68144000D01*
X277584666Y-68210666D01*
X277618000Y-68277333D01*
X277651333Y-68310666D01*
X277718000Y-68344000D01*
X277951333Y-68344000D01*
X277251333Y-68444000D02*
X276718000Y-68444000D01*
X276018000Y-68710666D02*
X276418000Y-68710666D01*
X276218000Y-68710666D02*
X276218000Y-68010666D01*
X276284666Y-68110666D01*
X276351333Y-68177333D01*
X276418000Y-68210666D01*
X275584666Y-68010666D02*
X275518000Y-68010666D01*
X275451333Y-68044000D01*
X275418000Y-68077333D01*
X275384666Y-68144000D01*
X275351333Y-68277333D01*
X275351333Y-68444000D01*
X275384666Y-68577333D01*
X275418000Y-68644000D01*
X275451333Y-68677333D01*
X275518000Y-68710666D01*
X275584666Y-68710666D01*
X275651333Y-68677333D01*
X275684666Y-68644000D01*
X275718000Y-68577333D01*
X275751333Y-68444000D01*
X275751333Y-68277333D01*
X275718000Y-68144000D01*
X275684666Y-68077333D01*
X275651333Y-68044000D01*
X275584666Y-68010666D01*
%TO.C,RGB-9*%
X259822000Y-68710666D02*
X260055333Y-68377333D01*
X260222000Y-68710666D02*
X260222000Y-68010666D01*
X259955333Y-68010666D01*
X259888666Y-68044000D01*
X259855333Y-68077333D01*
X259822000Y-68144000D01*
X259822000Y-68244000D01*
X259855333Y-68310666D01*
X259888666Y-68344000D01*
X259955333Y-68377333D01*
X260222000Y-68377333D01*
X259155333Y-68044000D02*
X259222000Y-68010666D01*
X259322000Y-68010666D01*
X259422000Y-68044000D01*
X259488666Y-68110666D01*
X259522000Y-68177333D01*
X259555333Y-68310666D01*
X259555333Y-68410666D01*
X259522000Y-68544000D01*
X259488666Y-68610666D01*
X259422000Y-68677333D01*
X259322000Y-68710666D01*
X259255333Y-68710666D01*
X259155333Y-68677333D01*
X259122000Y-68644000D01*
X259122000Y-68410666D01*
X259255333Y-68410666D01*
X258588666Y-68344000D02*
X258488666Y-68377333D01*
X258455333Y-68410666D01*
X258422000Y-68477333D01*
X258422000Y-68577333D01*
X258455333Y-68644000D01*
X258488666Y-68677333D01*
X258555333Y-68710666D01*
X258822000Y-68710666D01*
X258822000Y-68010666D01*
X258588666Y-68010666D01*
X258522000Y-68044000D01*
X258488666Y-68077333D01*
X258455333Y-68144000D01*
X258455333Y-68210666D01*
X258488666Y-68277333D01*
X258522000Y-68310666D01*
X258588666Y-68344000D01*
X258822000Y-68344000D01*
X258122000Y-68444000D02*
X257588666Y-68444000D01*
X257222000Y-68710666D02*
X257088666Y-68710666D01*
X257022000Y-68677333D01*
X256988666Y-68644000D01*
X256922000Y-68544000D01*
X256888666Y-68410666D01*
X256888666Y-68144000D01*
X256922000Y-68077333D01*
X256955333Y-68044000D01*
X257022000Y-68010666D01*
X257155333Y-68010666D01*
X257222000Y-68044000D01*
X257255333Y-68077333D01*
X257288666Y-68144000D01*
X257288666Y-68310666D01*
X257255333Y-68377333D01*
X257222000Y-68410666D01*
X257155333Y-68444000D01*
X257022000Y-68444000D01*
X256955333Y-68410666D01*
X256922000Y-68377333D01*
X256888666Y-68310666D01*
%TO.C,RGB-8*%
X241280000Y-68710666D02*
X241513333Y-68377333D01*
X241680000Y-68710666D02*
X241680000Y-68010666D01*
X241413333Y-68010666D01*
X241346666Y-68044000D01*
X241313333Y-68077333D01*
X241280000Y-68144000D01*
X241280000Y-68244000D01*
X241313333Y-68310666D01*
X241346666Y-68344000D01*
X241413333Y-68377333D01*
X241680000Y-68377333D01*
X240613333Y-68044000D02*
X240680000Y-68010666D01*
X240780000Y-68010666D01*
X240880000Y-68044000D01*
X240946666Y-68110666D01*
X240980000Y-68177333D01*
X241013333Y-68310666D01*
X241013333Y-68410666D01*
X240980000Y-68544000D01*
X240946666Y-68610666D01*
X240880000Y-68677333D01*
X240780000Y-68710666D01*
X240713333Y-68710666D01*
X240613333Y-68677333D01*
X240580000Y-68644000D01*
X240580000Y-68410666D01*
X240713333Y-68410666D01*
X240046666Y-68344000D02*
X239946666Y-68377333D01*
X239913333Y-68410666D01*
X239880000Y-68477333D01*
X239880000Y-68577333D01*
X239913333Y-68644000D01*
X239946666Y-68677333D01*
X240013333Y-68710666D01*
X240280000Y-68710666D01*
X240280000Y-68010666D01*
X240046666Y-68010666D01*
X239980000Y-68044000D01*
X239946666Y-68077333D01*
X239913333Y-68144000D01*
X239913333Y-68210666D01*
X239946666Y-68277333D01*
X239980000Y-68310666D01*
X240046666Y-68344000D01*
X240280000Y-68344000D01*
X239580000Y-68444000D02*
X239046666Y-68444000D01*
X238613333Y-68310666D02*
X238680000Y-68277333D01*
X238713333Y-68244000D01*
X238746666Y-68177333D01*
X238746666Y-68144000D01*
X238713333Y-68077333D01*
X238680000Y-68044000D01*
X238613333Y-68010666D01*
X238480000Y-68010666D01*
X238413333Y-68044000D01*
X238380000Y-68077333D01*
X238346666Y-68144000D01*
X238346666Y-68177333D01*
X238380000Y-68244000D01*
X238413333Y-68277333D01*
X238480000Y-68310666D01*
X238613333Y-68310666D01*
X238680000Y-68344000D01*
X238713333Y-68377333D01*
X238746666Y-68444000D01*
X238746666Y-68577333D01*
X238713333Y-68644000D01*
X238680000Y-68677333D01*
X238613333Y-68710666D01*
X238480000Y-68710666D01*
X238413333Y-68677333D01*
X238380000Y-68644000D01*
X238346666Y-68577333D01*
X238346666Y-68444000D01*
X238380000Y-68377333D01*
X238413333Y-68344000D01*
X238480000Y-68310666D01*
%TO.C,RGB-7*%
X222484000Y-68710666D02*
X222717333Y-68377333D01*
X222884000Y-68710666D02*
X222884000Y-68010666D01*
X222617333Y-68010666D01*
X222550666Y-68044000D01*
X222517333Y-68077333D01*
X222484000Y-68144000D01*
X222484000Y-68244000D01*
X222517333Y-68310666D01*
X222550666Y-68344000D01*
X222617333Y-68377333D01*
X222884000Y-68377333D01*
X221817333Y-68044000D02*
X221884000Y-68010666D01*
X221984000Y-68010666D01*
X222084000Y-68044000D01*
X222150666Y-68110666D01*
X222184000Y-68177333D01*
X222217333Y-68310666D01*
X222217333Y-68410666D01*
X222184000Y-68544000D01*
X222150666Y-68610666D01*
X222084000Y-68677333D01*
X221984000Y-68710666D01*
X221917333Y-68710666D01*
X221817333Y-68677333D01*
X221784000Y-68644000D01*
X221784000Y-68410666D01*
X221917333Y-68410666D01*
X221250666Y-68344000D02*
X221150666Y-68377333D01*
X221117333Y-68410666D01*
X221084000Y-68477333D01*
X221084000Y-68577333D01*
X221117333Y-68644000D01*
X221150666Y-68677333D01*
X221217333Y-68710666D01*
X221484000Y-68710666D01*
X221484000Y-68010666D01*
X221250666Y-68010666D01*
X221184000Y-68044000D01*
X221150666Y-68077333D01*
X221117333Y-68144000D01*
X221117333Y-68210666D01*
X221150666Y-68277333D01*
X221184000Y-68310666D01*
X221250666Y-68344000D01*
X221484000Y-68344000D01*
X220784000Y-68444000D02*
X220250666Y-68444000D01*
X219984000Y-68010666D02*
X219517333Y-68010666D01*
X219817333Y-68710666D01*
%TO.C,RGB-6*%
X203434000Y-68456666D02*
X203667333Y-68123333D01*
X203834000Y-68456666D02*
X203834000Y-67756666D01*
X203567333Y-67756666D01*
X203500666Y-67790000D01*
X203467333Y-67823333D01*
X203434000Y-67890000D01*
X203434000Y-67990000D01*
X203467333Y-68056666D01*
X203500666Y-68090000D01*
X203567333Y-68123333D01*
X203834000Y-68123333D01*
X202767333Y-67790000D02*
X202834000Y-67756666D01*
X202934000Y-67756666D01*
X203034000Y-67790000D01*
X203100666Y-67856666D01*
X203134000Y-67923333D01*
X203167333Y-68056666D01*
X203167333Y-68156666D01*
X203134000Y-68290000D01*
X203100666Y-68356666D01*
X203034000Y-68423333D01*
X202934000Y-68456666D01*
X202867333Y-68456666D01*
X202767333Y-68423333D01*
X202734000Y-68390000D01*
X202734000Y-68156666D01*
X202867333Y-68156666D01*
X202200666Y-68090000D02*
X202100666Y-68123333D01*
X202067333Y-68156666D01*
X202034000Y-68223333D01*
X202034000Y-68323333D01*
X202067333Y-68390000D01*
X202100666Y-68423333D01*
X202167333Y-68456666D01*
X202434000Y-68456666D01*
X202434000Y-67756666D01*
X202200666Y-67756666D01*
X202134000Y-67790000D01*
X202100666Y-67823333D01*
X202067333Y-67890000D01*
X202067333Y-67956666D01*
X202100666Y-68023333D01*
X202134000Y-68056666D01*
X202200666Y-68090000D01*
X202434000Y-68090000D01*
X201734000Y-68190000D02*
X201200666Y-68190000D01*
X200567333Y-67756666D02*
X200700666Y-67756666D01*
X200767333Y-67790000D01*
X200800666Y-67823333D01*
X200867333Y-67923333D01*
X200900666Y-68056666D01*
X200900666Y-68323333D01*
X200867333Y-68390000D01*
X200834000Y-68423333D01*
X200767333Y-68456666D01*
X200634000Y-68456666D01*
X200567333Y-68423333D01*
X200534000Y-68390000D01*
X200500666Y-68323333D01*
X200500666Y-68156666D01*
X200534000Y-68090000D01*
X200567333Y-68056666D01*
X200634000Y-68023333D01*
X200767333Y-68023333D01*
X200834000Y-68056666D01*
X200867333Y-68090000D01*
X200900666Y-68156666D01*
%TO.C,RGB-5*%
X184638000Y-68456666D02*
X184871333Y-68123333D01*
X185038000Y-68456666D02*
X185038000Y-67756666D01*
X184771333Y-67756666D01*
X184704666Y-67790000D01*
X184671333Y-67823333D01*
X184638000Y-67890000D01*
X184638000Y-67990000D01*
X184671333Y-68056666D01*
X184704666Y-68090000D01*
X184771333Y-68123333D01*
X185038000Y-68123333D01*
X183971333Y-67790000D02*
X184038000Y-67756666D01*
X184138000Y-67756666D01*
X184238000Y-67790000D01*
X184304666Y-67856666D01*
X184338000Y-67923333D01*
X184371333Y-68056666D01*
X184371333Y-68156666D01*
X184338000Y-68290000D01*
X184304666Y-68356666D01*
X184238000Y-68423333D01*
X184138000Y-68456666D01*
X184071333Y-68456666D01*
X183971333Y-68423333D01*
X183938000Y-68390000D01*
X183938000Y-68156666D01*
X184071333Y-68156666D01*
X183404666Y-68090000D02*
X183304666Y-68123333D01*
X183271333Y-68156666D01*
X183238000Y-68223333D01*
X183238000Y-68323333D01*
X183271333Y-68390000D01*
X183304666Y-68423333D01*
X183371333Y-68456666D01*
X183638000Y-68456666D01*
X183638000Y-67756666D01*
X183404666Y-67756666D01*
X183338000Y-67790000D01*
X183304666Y-67823333D01*
X183271333Y-67890000D01*
X183271333Y-67956666D01*
X183304666Y-68023333D01*
X183338000Y-68056666D01*
X183404666Y-68090000D01*
X183638000Y-68090000D01*
X182938000Y-68190000D02*
X182404666Y-68190000D01*
X181738000Y-67756666D02*
X182071333Y-67756666D01*
X182104666Y-68090000D01*
X182071333Y-68056666D01*
X182004666Y-68023333D01*
X181838000Y-68023333D01*
X181771333Y-68056666D01*
X181738000Y-68090000D01*
X181704666Y-68156666D01*
X181704666Y-68323333D01*
X181738000Y-68390000D01*
X181771333Y-68423333D01*
X181838000Y-68456666D01*
X182004666Y-68456666D01*
X182071333Y-68423333D01*
X182104666Y-68390000D01*
%TO.C,RGB-4*%
X166096000Y-68456666D02*
X166329333Y-68123333D01*
X166496000Y-68456666D02*
X166496000Y-67756666D01*
X166229333Y-67756666D01*
X166162666Y-67790000D01*
X166129333Y-67823333D01*
X166096000Y-67890000D01*
X166096000Y-67990000D01*
X166129333Y-68056666D01*
X166162666Y-68090000D01*
X166229333Y-68123333D01*
X166496000Y-68123333D01*
X165429333Y-67790000D02*
X165496000Y-67756666D01*
X165596000Y-67756666D01*
X165696000Y-67790000D01*
X165762666Y-67856666D01*
X165796000Y-67923333D01*
X165829333Y-68056666D01*
X165829333Y-68156666D01*
X165796000Y-68290000D01*
X165762666Y-68356666D01*
X165696000Y-68423333D01*
X165596000Y-68456666D01*
X165529333Y-68456666D01*
X165429333Y-68423333D01*
X165396000Y-68390000D01*
X165396000Y-68156666D01*
X165529333Y-68156666D01*
X164862666Y-68090000D02*
X164762666Y-68123333D01*
X164729333Y-68156666D01*
X164696000Y-68223333D01*
X164696000Y-68323333D01*
X164729333Y-68390000D01*
X164762666Y-68423333D01*
X164829333Y-68456666D01*
X165096000Y-68456666D01*
X165096000Y-67756666D01*
X164862666Y-67756666D01*
X164796000Y-67790000D01*
X164762666Y-67823333D01*
X164729333Y-67890000D01*
X164729333Y-67956666D01*
X164762666Y-68023333D01*
X164796000Y-68056666D01*
X164862666Y-68090000D01*
X165096000Y-68090000D01*
X164396000Y-68190000D02*
X163862666Y-68190000D01*
X163229333Y-67990000D02*
X163229333Y-68456666D01*
X163396000Y-67723333D02*
X163562666Y-68223333D01*
X163129333Y-68223333D01*
%TO.C,RGB-3*%
X147046000Y-68456666D02*
X147279333Y-68123333D01*
X147446000Y-68456666D02*
X147446000Y-67756666D01*
X147179333Y-67756666D01*
X147112666Y-67790000D01*
X147079333Y-67823333D01*
X147046000Y-67890000D01*
X147046000Y-67990000D01*
X147079333Y-68056666D01*
X147112666Y-68090000D01*
X147179333Y-68123333D01*
X147446000Y-68123333D01*
X146379333Y-67790000D02*
X146446000Y-67756666D01*
X146546000Y-67756666D01*
X146646000Y-67790000D01*
X146712666Y-67856666D01*
X146746000Y-67923333D01*
X146779333Y-68056666D01*
X146779333Y-68156666D01*
X146746000Y-68290000D01*
X146712666Y-68356666D01*
X146646000Y-68423333D01*
X146546000Y-68456666D01*
X146479333Y-68456666D01*
X146379333Y-68423333D01*
X146346000Y-68390000D01*
X146346000Y-68156666D01*
X146479333Y-68156666D01*
X145812666Y-68090000D02*
X145712666Y-68123333D01*
X145679333Y-68156666D01*
X145646000Y-68223333D01*
X145646000Y-68323333D01*
X145679333Y-68390000D01*
X145712666Y-68423333D01*
X145779333Y-68456666D01*
X146046000Y-68456666D01*
X146046000Y-67756666D01*
X145812666Y-67756666D01*
X145746000Y-67790000D01*
X145712666Y-67823333D01*
X145679333Y-67890000D01*
X145679333Y-67956666D01*
X145712666Y-68023333D01*
X145746000Y-68056666D01*
X145812666Y-68090000D01*
X146046000Y-68090000D01*
X145346000Y-68190000D02*
X144812666Y-68190000D01*
X144546000Y-67756666D02*
X144112666Y-67756666D01*
X144346000Y-68023333D01*
X144246000Y-68023333D01*
X144179333Y-68056666D01*
X144146000Y-68090000D01*
X144112666Y-68156666D01*
X144112666Y-68323333D01*
X144146000Y-68390000D01*
X144179333Y-68423333D01*
X144246000Y-68456666D01*
X144446000Y-68456666D01*
X144512666Y-68423333D01*
X144546000Y-68390000D01*
%TO.C,RGB-1*%
X109454000Y-68456666D02*
X109687333Y-68123333D01*
X109854000Y-68456666D02*
X109854000Y-67756666D01*
X109587333Y-67756666D01*
X109520666Y-67790000D01*
X109487333Y-67823333D01*
X109454000Y-67890000D01*
X109454000Y-67990000D01*
X109487333Y-68056666D01*
X109520666Y-68090000D01*
X109587333Y-68123333D01*
X109854000Y-68123333D01*
X108787333Y-67790000D02*
X108854000Y-67756666D01*
X108954000Y-67756666D01*
X109054000Y-67790000D01*
X109120666Y-67856666D01*
X109154000Y-67923333D01*
X109187333Y-68056666D01*
X109187333Y-68156666D01*
X109154000Y-68290000D01*
X109120666Y-68356666D01*
X109054000Y-68423333D01*
X108954000Y-68456666D01*
X108887333Y-68456666D01*
X108787333Y-68423333D01*
X108754000Y-68390000D01*
X108754000Y-68156666D01*
X108887333Y-68156666D01*
X108220666Y-68090000D02*
X108120666Y-68123333D01*
X108087333Y-68156666D01*
X108054000Y-68223333D01*
X108054000Y-68323333D01*
X108087333Y-68390000D01*
X108120666Y-68423333D01*
X108187333Y-68456666D01*
X108454000Y-68456666D01*
X108454000Y-67756666D01*
X108220666Y-67756666D01*
X108154000Y-67790000D01*
X108120666Y-67823333D01*
X108087333Y-67890000D01*
X108087333Y-67956666D01*
X108120666Y-68023333D01*
X108154000Y-68056666D01*
X108220666Y-68090000D01*
X108454000Y-68090000D01*
X107754000Y-68190000D02*
X107220666Y-68190000D01*
X106520666Y-68456666D02*
X106920666Y-68456666D01*
X106720666Y-68456666D02*
X106720666Y-67756666D01*
X106787333Y-67856666D01*
X106854000Y-67923333D01*
X106920666Y-67956666D01*
%TO.C,U1*%
X60172523Y-60052000D02*
X60248714Y-60013904D01*
X60363000Y-60013904D01*
X60477285Y-60052000D01*
X60553476Y-60128190D01*
X60591571Y-60204380D01*
X60629666Y-60356761D01*
X60629666Y-60471047D01*
X60591571Y-60623428D01*
X60553476Y-60699619D01*
X60477285Y-60775809D01*
X60363000Y-60813904D01*
X60286809Y-60813904D01*
X60172523Y-60775809D01*
X60134428Y-60737714D01*
X60134428Y-60471047D01*
X60286809Y-60471047D01*
X59791571Y-60813904D02*
X59791571Y-60013904D01*
X59334428Y-60813904D01*
X59334428Y-60013904D01*
X58953476Y-60813904D02*
X58953476Y-60013904D01*
X58763000Y-60013904D01*
X58648714Y-60052000D01*
X58572523Y-60128190D01*
X58534428Y-60204380D01*
X58496333Y-60356761D01*
X58496333Y-60471047D01*
X58534428Y-60623428D01*
X58572523Y-60699619D01*
X58648714Y-60775809D01*
X58763000Y-60813904D01*
X58953476Y-60813904D01*
X70808809Y-80714857D02*
X70694523Y-80752952D01*
X70656428Y-80791047D01*
X70618333Y-80867238D01*
X70618333Y-80981523D01*
X70656428Y-81057714D01*
X70694523Y-81095809D01*
X70770714Y-81133904D01*
X71075476Y-81133904D01*
X71075476Y-80333904D01*
X70808809Y-80333904D01*
X70732619Y-80372000D01*
X70694523Y-80410095D01*
X70656428Y-80486285D01*
X70656428Y-80562476D01*
X70694523Y-80638666D01*
X70732619Y-80676761D01*
X70808809Y-80714857D01*
X71075476Y-80714857D01*
X70313571Y-80410095D02*
X70275476Y-80372000D01*
X70199285Y-80333904D01*
X70008809Y-80333904D01*
X69932619Y-80372000D01*
X69894523Y-80410095D01*
X69856428Y-80486285D01*
X69856428Y-80562476D01*
X69894523Y-80676761D01*
X70351666Y-81133904D01*
X69856428Y-81133904D01*
X70751666Y-73094857D02*
X71018333Y-73094857D01*
X71018333Y-73513904D02*
X71018333Y-72713904D01*
X70637380Y-72713904D01*
X70408809Y-72713904D02*
X69875476Y-72713904D01*
X70218333Y-73513904D01*
X70751666Y-70554857D02*
X71018333Y-70554857D01*
X71018333Y-70973904D02*
X71018333Y-70173904D01*
X70637380Y-70173904D01*
X69989761Y-70173904D02*
X70142142Y-70173904D01*
X70218333Y-70212000D01*
X70256428Y-70250095D01*
X70332619Y-70364380D01*
X70370714Y-70516761D01*
X70370714Y-70821523D01*
X70332619Y-70897714D01*
X70294523Y-70935809D01*
X70218333Y-70973904D01*
X70065952Y-70973904D01*
X69989761Y-70935809D01*
X69951666Y-70897714D01*
X69913571Y-70821523D01*
X69913571Y-70631047D01*
X69951666Y-70554857D01*
X69989761Y-70516761D01*
X70065952Y-70478666D01*
X70218333Y-70478666D01*
X70294523Y-70516761D01*
X70332619Y-70554857D01*
X70370714Y-70631047D01*
X70751666Y-68014857D02*
X71018333Y-68014857D01*
X71018333Y-68433904D02*
X71018333Y-67633904D01*
X70637380Y-67633904D01*
X69951666Y-67633904D02*
X70332619Y-67633904D01*
X70370714Y-68014857D01*
X70332619Y-67976761D01*
X70256428Y-67938666D01*
X70065952Y-67938666D01*
X69989761Y-67976761D01*
X69951666Y-68014857D01*
X69913571Y-68091047D01*
X69913571Y-68281523D01*
X69951666Y-68357714D01*
X69989761Y-68395809D01*
X70065952Y-68433904D01*
X70256428Y-68433904D01*
X70332619Y-68395809D01*
X70370714Y-68357714D01*
X71094523Y-57512000D02*
X71170714Y-57473904D01*
X71285000Y-57473904D01*
X71399285Y-57512000D01*
X71475476Y-57588190D01*
X71513571Y-57664380D01*
X71551666Y-57816761D01*
X71551666Y-57931047D01*
X71513571Y-58083428D01*
X71475476Y-58159619D01*
X71399285Y-58235809D01*
X71285000Y-58273904D01*
X71208809Y-58273904D01*
X71094523Y-58235809D01*
X71056428Y-58197714D01*
X71056428Y-57931047D01*
X71208809Y-57931047D01*
X70713571Y-58273904D02*
X70713571Y-57473904D01*
X70256428Y-58273904D01*
X70256428Y-57473904D01*
X69875476Y-58273904D02*
X69875476Y-57473904D01*
X69685000Y-57473904D01*
X69570714Y-57512000D01*
X69494523Y-57588190D01*
X69456428Y-57664380D01*
X69418333Y-57816761D01*
X69418333Y-57931047D01*
X69456428Y-58083428D01*
X69494523Y-58159619D01*
X69570714Y-58235809D01*
X69685000Y-58273904D01*
X69875476Y-58273904D01*
X70597333Y-60755809D02*
X70483047Y-60793904D01*
X70292571Y-60793904D01*
X70216380Y-60755809D01*
X70178285Y-60717714D01*
X70140190Y-60641523D01*
X70140190Y-60565333D01*
X70178285Y-60489142D01*
X70216380Y-60451047D01*
X70292571Y-60412952D01*
X70444952Y-60374857D01*
X70521142Y-60336761D01*
X70559238Y-60298666D01*
X70597333Y-60222476D01*
X70597333Y-60146285D01*
X70559238Y-60070095D01*
X70521142Y-60032000D01*
X70444952Y-59993904D01*
X70254476Y-59993904D01*
X70140190Y-60032000D01*
X69911619Y-59993904D02*
X69454476Y-59993904D01*
X69683047Y-60793904D02*
X69683047Y-59993904D01*
X70751666Y-68014857D02*
X71018333Y-68014857D01*
X71018333Y-68433904D02*
X71018333Y-67633904D01*
X70637380Y-67633904D01*
X69951666Y-67633904D02*
X70332619Y-67633904D01*
X70370714Y-68014857D01*
X70332619Y-67976761D01*
X70256428Y-67938666D01*
X70065952Y-67938666D01*
X69989761Y-67976761D01*
X69951666Y-68014857D01*
X69913571Y-68091047D01*
X69913571Y-68281523D01*
X69951666Y-68357714D01*
X69989761Y-68395809D01*
X70065952Y-68433904D01*
X70256428Y-68433904D01*
X70332619Y-68395809D01*
X70370714Y-68357714D01*
X70751666Y-70554857D02*
X71018333Y-70554857D01*
X71018333Y-70973904D02*
X71018333Y-70173904D01*
X70637380Y-70173904D01*
X69989761Y-70173904D02*
X70142142Y-70173904D01*
X70218333Y-70212000D01*
X70256428Y-70250095D01*
X70332619Y-70364380D01*
X70370714Y-70516761D01*
X70370714Y-70821523D01*
X70332619Y-70897714D01*
X70294523Y-70935809D01*
X70218333Y-70973904D01*
X70065952Y-70973904D01*
X69989761Y-70935809D01*
X69951666Y-70897714D01*
X69913571Y-70821523D01*
X69913571Y-70631047D01*
X69951666Y-70554857D01*
X69989761Y-70516761D01*
X70065952Y-70478666D01*
X70218333Y-70478666D01*
X70294523Y-70516761D01*
X70332619Y-70554857D01*
X70370714Y-70631047D01*
X70751666Y-73094857D02*
X71018333Y-73094857D01*
X71018333Y-73513904D02*
X71018333Y-72713904D01*
X70637380Y-72713904D01*
X70408809Y-72713904D02*
X69875476Y-72713904D01*
X70218333Y-73513904D01*
X70808809Y-80714857D02*
X70694523Y-80752952D01*
X70656428Y-80791047D01*
X70618333Y-80867238D01*
X70618333Y-80981523D01*
X70656428Y-81057714D01*
X70694523Y-81095809D01*
X70770714Y-81133904D01*
X71075476Y-81133904D01*
X71075476Y-80333904D01*
X70808809Y-80333904D01*
X70732619Y-80372000D01*
X70694523Y-80410095D01*
X70656428Y-80486285D01*
X70656428Y-80562476D01*
X70694523Y-80638666D01*
X70732619Y-80676761D01*
X70808809Y-80714857D01*
X71075476Y-80714857D01*
X70313571Y-80410095D02*
X70275476Y-80372000D01*
X70199285Y-80333904D01*
X70008809Y-80333904D01*
X69932619Y-80372000D01*
X69894523Y-80410095D01*
X69856428Y-80486285D01*
X69856428Y-80562476D01*
X69894523Y-80676761D01*
X70351666Y-81133904D01*
X69856428Y-81133904D01*
X70597333Y-60755809D02*
X70483047Y-60793904D01*
X70292571Y-60793904D01*
X70216380Y-60755809D01*
X70178285Y-60717714D01*
X70140190Y-60641523D01*
X70140190Y-60565333D01*
X70178285Y-60489142D01*
X70216380Y-60451047D01*
X70292571Y-60412952D01*
X70444952Y-60374857D01*
X70521142Y-60336761D01*
X70559238Y-60298666D01*
X70597333Y-60222476D01*
X70597333Y-60146285D01*
X70559238Y-60070095D01*
X70521142Y-60032000D01*
X70444952Y-59993904D01*
X70254476Y-59993904D01*
X70140190Y-60032000D01*
X69911619Y-59993904D02*
X69454476Y-59993904D01*
X69683047Y-60793904D02*
X69683047Y-59993904D01*
X60807333Y-81892000D02*
X60707333Y-81925333D01*
X60674000Y-81958666D01*
X60640666Y-82025333D01*
X60640666Y-82125333D01*
X60674000Y-82192000D01*
X60707333Y-82225333D01*
X60774000Y-82258666D01*
X61040666Y-82258666D01*
X61040666Y-81558666D01*
X60807333Y-81558666D01*
X60740666Y-81592000D01*
X60707333Y-81625333D01*
X60674000Y-81692000D01*
X60674000Y-81758666D01*
X60707333Y-81825333D01*
X60740666Y-81858666D01*
X60807333Y-81892000D01*
X61040666Y-81892000D01*
X60407333Y-81558666D02*
X59940666Y-81558666D01*
X60240666Y-82258666D01*
X60807333Y-81892000D02*
X60707333Y-81925333D01*
X60674000Y-81958666D01*
X60640666Y-82025333D01*
X60640666Y-82125333D01*
X60674000Y-82192000D01*
X60707333Y-82225333D01*
X60774000Y-82258666D01*
X61040666Y-82258666D01*
X61040666Y-81558666D01*
X60807333Y-81558666D01*
X60740666Y-81592000D01*
X60707333Y-81625333D01*
X60674000Y-81692000D01*
X60674000Y-81758666D01*
X60707333Y-81825333D01*
X60740666Y-81858666D01*
X60807333Y-81892000D01*
X61040666Y-81892000D01*
X60407333Y-81558666D02*
X59940666Y-81558666D01*
X60240666Y-82258666D01*
X71588991Y-81806297D02*
X71541851Y-81900578D01*
X71541851Y-81947719D01*
X71565421Y-82018429D01*
X71636132Y-82089140D01*
X71706842Y-82112710D01*
X71753983Y-82112710D01*
X71824693Y-82089140D01*
X72013255Y-81900578D01*
X71518280Y-81405603D01*
X71353289Y-81570595D01*
X71329719Y-81641306D01*
X71329719Y-81688446D01*
X71353289Y-81759157D01*
X71400429Y-81806297D01*
X71471140Y-81829867D01*
X71518280Y-81829867D01*
X71588991Y-81806297D01*
X71753983Y-81641306D01*
X70811174Y-82112710D02*
X70905455Y-82018429D01*
X70976165Y-81994859D01*
X71023306Y-81994859D01*
X71141157Y-82018429D01*
X71259008Y-82089140D01*
X71447570Y-82277702D01*
X71471140Y-82348412D01*
X71471140Y-82395553D01*
X71447570Y-82466264D01*
X71353289Y-82560544D01*
X71282578Y-82584115D01*
X71235438Y-82584115D01*
X71164727Y-82560544D01*
X71046876Y-82442693D01*
X71023306Y-82371983D01*
X71023306Y-82324842D01*
X71046876Y-82254132D01*
X71141157Y-82159851D01*
X71211867Y-82136280D01*
X71259008Y-82136280D01*
X71329719Y-82159851D01*
X71588991Y-81806297D02*
X71541851Y-81900578D01*
X71541851Y-81947719D01*
X71565421Y-82018429D01*
X71636132Y-82089140D01*
X71706842Y-82112710D01*
X71753983Y-82112710D01*
X71824693Y-82089140D01*
X72013255Y-81900578D01*
X71518280Y-81405603D01*
X71353289Y-81570595D01*
X71329719Y-81641306D01*
X71329719Y-81688446D01*
X71353289Y-81759157D01*
X71400429Y-81806297D01*
X71471140Y-81829867D01*
X71518280Y-81829867D01*
X71588991Y-81806297D01*
X71753983Y-81641306D01*
X70811174Y-82112710D02*
X70905455Y-82018429D01*
X70976165Y-81994859D01*
X71023306Y-81994859D01*
X71141157Y-82018429D01*
X71259008Y-82089140D01*
X71447570Y-82277702D01*
X71471140Y-82348412D01*
X71471140Y-82395553D01*
X71447570Y-82466264D01*
X71353289Y-82560544D01*
X71282578Y-82584115D01*
X71235438Y-82584115D01*
X71164727Y-82560544D01*
X71046876Y-82442693D01*
X71023306Y-82371983D01*
X71023306Y-82324842D01*
X71046876Y-82254132D01*
X71141157Y-82159851D01*
X71211867Y-82136280D01*
X71259008Y-82136280D01*
X71329719Y-82159851D01*
X65157333Y-82027714D02*
X65195428Y-82065809D01*
X65309714Y-82103904D01*
X65385904Y-82103904D01*
X65500190Y-82065809D01*
X65576380Y-81989619D01*
X65614476Y-81913428D01*
X65652571Y-81761047D01*
X65652571Y-81646761D01*
X65614476Y-81494380D01*
X65576380Y-81418190D01*
X65500190Y-81342000D01*
X65385904Y-81303904D01*
X65309714Y-81303904D01*
X65195428Y-81342000D01*
X65157333Y-81380095D01*
X64890666Y-81303904D02*
X64357333Y-81303904D01*
X64700190Y-82103904D01*
X65157333Y-82027714D02*
X65195428Y-82065809D01*
X65309714Y-82103904D01*
X65385904Y-82103904D01*
X65500190Y-82065809D01*
X65576380Y-81989619D01*
X65614476Y-81913428D01*
X65652571Y-81761047D01*
X65652571Y-81646761D01*
X65614476Y-81494380D01*
X65576380Y-81418190D01*
X65500190Y-81342000D01*
X65385904Y-81303904D01*
X65309714Y-81303904D01*
X65195428Y-81342000D01*
X65157333Y-81380095D01*
X64890666Y-81303904D02*
X64357333Y-81303904D01*
X64700190Y-82103904D01*
X63074476Y-82103904D02*
X63074476Y-81303904D01*
X62884000Y-81303904D01*
X62769714Y-81342000D01*
X62693523Y-81418190D01*
X62655428Y-81494380D01*
X62617333Y-81646761D01*
X62617333Y-81761047D01*
X62655428Y-81913428D01*
X62693523Y-81989619D01*
X62769714Y-82065809D01*
X62884000Y-82103904D01*
X63074476Y-82103904D01*
X61893523Y-81303904D02*
X62274476Y-81303904D01*
X62312571Y-81684857D01*
X62274476Y-81646761D01*
X62198285Y-81608666D01*
X62007809Y-81608666D01*
X61931619Y-81646761D01*
X61893523Y-81684857D01*
X61855428Y-81761047D01*
X61855428Y-81951523D01*
X61893523Y-82027714D01*
X61931619Y-82065809D01*
X62007809Y-82103904D01*
X62198285Y-82103904D01*
X62274476Y-82065809D01*
X62312571Y-82027714D01*
X63074476Y-82103904D02*
X63074476Y-81303904D01*
X62884000Y-81303904D01*
X62769714Y-81342000D01*
X62693523Y-81418190D01*
X62655428Y-81494380D01*
X62617333Y-81646761D01*
X62617333Y-81761047D01*
X62655428Y-81913428D01*
X62693523Y-81989619D01*
X62769714Y-82065809D01*
X62884000Y-82103904D01*
X63074476Y-82103904D01*
X61893523Y-81303904D02*
X62274476Y-81303904D01*
X62312571Y-81684857D01*
X62274476Y-81646761D01*
X62198285Y-81608666D01*
X62007809Y-81608666D01*
X61931619Y-81646761D01*
X61893523Y-81684857D01*
X61855428Y-81761047D01*
X61855428Y-81951523D01*
X61893523Y-82027714D01*
X61931619Y-82065809D01*
X62007809Y-82103904D01*
X62198285Y-82103904D01*
X62274476Y-82065809D01*
X62312571Y-82027714D01*
%TD*%
M02*
